<?xml version="1.0" encoding="UTF-8"?>
<svg id="Isolation_Mode" data-name="Isolation Mode" xmlns="http://www.w3.org/2000/svg" viewBox="0 0 16.98 16.98">
  <defs>
    <style>
      .cls-1 {
        fill: #fff;
      }
    </style>
  </defs>
  <path class="cls-1" d="m8.49,1.53c2.27,0,2.53,0,3.43.05.83.04,1.28.18,1.58.29.4.15.68.34.98.63.3.3.48.58.63.98.12.3.25.75.29,1.58.04.89.05,1.16.05,3.43s0,2.53-.05,3.43c-.04.83-.18,1.28-.29,1.58-.15.4-.34.68-.63.98s-.58.48-.98.63c-.3.12-.75.25-1.58.29-.89.04-1.16.05-3.43.05s-2.53,0-3.43-.05c-.83-.04-1.28-.18-1.58-.29-.4-.15-.68-.34-.98-.63-.3-.3-.48-.58-.63-.98-.12-.3-.25-.75-.29-1.58-.04-.89-.05-1.16-.05-3.43s0-2.53.05-3.43c.04-.83.18-1.28.29-1.58.15-.4.34-.68.63-.98.3-.3.58-.48.98-.63.3-.12.75-.25,1.58-.29.89-.04,1.16-.05,3.43-.05m0-1.53c-2.31,0-2.59,0-3.5.05-.9.04-1.52.18-2.06.39-.56.22-1.03.51-1.5.98-.47.47-.76.95-.98,1.5-.21.54-.35,1.16-.39,2.06-.04.91-.05,1.19-.05,3.5s0,2.59.05,3.5c.04.9.18,1.52.39,2.06.22.56.51,1.03.98,1.5s.95.76,1.5.98c.54.21,1.16.35,2.06.39.91.04,1.19.05,3.5.05s2.59,0,3.5-.05c.9-.04,1.52-.18,2.06-.39.56-.22,1.03-.51,1.5-.98.47-.47.76-.95.98-1.5.21-.54.35-1.16.39-2.06.04-.91.05-1.19.05-3.5s0-2.59-.05-3.5c-.04-.9-.18-1.52-.39-2.06-.22-.56-.51-1.03-.98-1.5-.47-.47-.95-.76-1.5-.98-.54-.21-1.16-.35-2.06-.39-.91-.04-1.19-.05-3.5-.05"/>
  <path class="cls-1" d="m8.49,4.13c-2.41,0-4.36,1.95-4.36,4.36s1.95,4.36,4.36,4.36,4.36-1.95,4.36-4.36-1.95-4.36-4.36-4.36m0,7.19c-1.56,0-2.83-1.27-2.83-2.83s1.27-2.83,2.83-2.83,2.83,1.27,2.83,2.83-1.27,2.83-2.83,2.83"/>
  <path class="cls-1" d="m14.04,3.96c0,.56-.46,1.02-1.02,1.02s-1.02-.46-1.02-1.02.46-1.02,1.02-1.02,1.02.46,1.02,1.02"/>
</svg>