<?xml version="1.0" encoding="UTF-8"?>
<svg id="Layer_1" data-name="Layer 1" xmlns="http://www.w3.org/2000/svg" viewBox="0 0 191.88 59.95">
  <defs>
    <style>
      .cls-1 {
        fill: #ba9c60;
      }

      .cls-2 {
        fill: #f8f8f8;
      }
    </style>
  </defs>
  <path class="cls-1" d="m84.31,53.55l-.53-.85c-1.05.59-2.37,1.05-3.49,1.05-1.76,0-3.46-3.15-3.5-7.35,0-.05,0-.1,0-.15h0c0-.16-.04-8.12-.05-8.32l-8.51,3.24c0,.1,0,7.69,0,7.69,0,2.08-.1,3.53-.44,4.56-.01.06-.03.12-.05.18-.72,1.93-2.42,2.26-6.23,2.65h0s-6.52,0-6.52,0h0c-4.47-.59-5.33-1.18-5.33-7.38v-10.75l-8.5,3.21v9.2c0,4.08,2.89,7.48,6.73,8.29h22.12c.54-.11,1.04-.28,1.53-.48.04.04.09.07.13.11.07.06.15.11.22.16h0c.99.78,2.26,1.35,3.75,1.35l.06-.04,8.67-6.21h.02s-.08-.14-.08-.14Z"/>
  <path class="cls-1" d="m126.84,53.6c-.15.04-.3.08-.44.11-.19.05-.38.08-.56.12-.25.04-.51.08-.75.09-.13,0-.27.01-.4.01-.17,0-.34,0-.51-.03-.09,0-.19-.01-.28-.03-.1,0-.19-.03-.29-.05-.17-.03-.34-.07-.51-.11-.17-.04-.33-.09-.5-.16-.16-.06-.32-.12-.49-.19-.11-.05-.22-.1-.32-.16-1.02-.49-1.96-1.27-2.66-2.35-.71-1.1-1.16-2.5-1.16-4.25,0-3.55,2.11-5.47,5.92-7.11,2.05-.92,5.99-2.76,7.98-3.75v15.01c-.93.93-2.3,1.79-3.72,2.37-.29.12-.58.23-.87.32-.15.05-.3.09-.44.13Zm20.89.04l-.59-.94c-1.05.59-2.37,1.05-3.49,1.05-1.29,0-2.5-.99-3.05-3.18-.02-.06-.04-.13-.06-.2-.21-.75-.32-1.67-.32-2.76,0,0,0-18.59-.02-18.91l-.86.35c-.13.06-.29.12-.45.19l-.54.22c-2.11.87-5.77,2.38-9.52,3.91l-1.53.63c-.34.14-.68.28-1.02.42l-2.96,1.21c-1.83.75-3.49,1.42-4.75,1.94-.81.33-1.46.59-1.9.77-5.21,2.07-7.94,4.93-7.94,9.73,0,3.02,1.19,5.97,3.29,8.17,0,0-3.8-.27-4.56-.42-3.13-.64-3.56-1.82-3.56-6.96v-11.53l-8.55,3.54v7.46c0,.5,0,.97-.02,1.4v.95c0,3.85,2.59,7.11,6.11,8.13h17.2c.85.51,1.92.89,2.98,1.04.33.04.65.07.97.07l1.9-1.11.34-.23.13-.09c1.17-.64,2.42-1.44,3.68-2.26,1.12-.74,2.25-1.49,3.34-2.18,0,0,0,.01,0,.02.08-.05.15-.1.23-.15.46,1.51,1.05,2.83,2.37,4.08.49.5,1.09.95,1.78,1.28.84.35,1.78.57,2.66.61l8.7-6.23v-.04Z"/>
  <path class="cls-1" d="m62.24,40.67l-4.38-2.7c-1.04-.64-2.38.11-2.38,1.33v5.4c0,1.22,1.34,1.97,2.38,1.33l4.38-2.7c.99-.61.99-2.05,0-2.66Z"/>
  <path class="cls-1" d="m165.95,53.68l-.02.02-8.66,6.2c-1.68-.15-3.38-.98-4.34-1.92-1.11-1.07-1.77-2.14-2.2-3.17-.04-.1-.08-.21-.12-.31-.35-.93-.49-1.82-.6-2.64-.04-.21-.07-2.65-.07-3.51v-19.37c0-6.23-1.11-8.31-5.75-7.58v-1.06l5.09-2.09,1.02-.42,1.53-.63,4.57-1.88,2.03-.84v32.92c0,2.51.02,6.54,3.42,6.36,1.12-.06,2.44-.46,3.49-1.05l.6.97Z"/>
  <g>
    <path class="cls-2" d="m191.88,53.69l-8.66,6.21c-1.68-.15-3.38-.98-4.34-1.92-1.11-1.07-1.77-2.14-2.2-3.17-.04-.11-.08-.21-.12-.31-.35-.93-.49-1.82-.6-2.64-.02-.12-.04-.94-.06-1.79v-.03c.01-.47.01-.97.01-1.51v-16.14c0-.37,0-.73-.03-1.07-.28-6.06-2.99-9.66-8.66-9.66-2.12,0-4.21.75-6.18,1.87v-3.35c.79-.54,1.61-1.11,2.49-1.68,2.76-1.78,5.2-2.83,8.1-2.83,2.55,0,4.79.58,6.64,1.71,3.84,2.31,6.07,6.88,6.07,13.31v16.93c.01.35.03.68.05.99v.03c.07,2.41.53,5.27,3.41,5.12,1.12-.06,2.44-.46,3.49-1.05l.53.85v.03s.06.11.06.11Z"/>
    <path class="cls-2" d="m139.9,26.03l-8.09,3.32c-.35-5.42-2.82-8.57-6.48-9.16-.04,0-.08-.02-.13-.02-.2-.04-.41-.06-.61-.06-.04,0-.07,0-.1,0-.13,0-.26-.01-.4-.01h-.04c-.21,0-.42,0-.63.03-1.45.13-2.68.75-3.55,1.69-1.26,1.25-2.11,3.42-2.96,6.52-.52,1.5-1.4,2.19-2.62,2.34-.16.02-.33.03-.51.03-.12,0-.24,0-.37-.02-1.86-.21-4.15-2.08-4.15-4.26,0-1.45,1.26-2.63,3.17-3.95,2.83-2.04,9.48-5.73,14.95-6.78h.03c.57,0,1.13.02,1.68.08,2.43.23,4.64.97,6.46,2.36,2.55,2.13,3.83,4.76,4.35,7.93Z"/>
    <path class="cls-2" d="m34.87,53.75c-1.78,0-3.39-1.86-3.39-6.14v-17.32c0-5.14-1.05-9.16-4.67-12.19-2.24-1.71-5.07-2.44-8.17-2.44-5.46,1.06-12.12,4.74-14.95,6.78-1.91,1.32-3.16,2.5-3.16,3.95,0,2.31,2.57,4.28,4.48,4.28,1.52,0,2.57-.66,3.16-2.37.86-3.09,1.71-5.27,2.97-6.52.99-1.06,2.43-1.71,4.14-1.71,4.68,0,7.84,3.69,7.84,10.6v1.71c-2.11,1.78-8.89,4.28-15.15,6.26-5.33,1.71-7.97,4.61-7.97,9.42,0,6.06,4.8,11.86,12.12,11.86,2.77,0,7.37-3.49,11.33-5.99.46,1.52,1.05,2.83,2.37,4.08,1.05,1.05,2.56,1.93,4.4,1.93l8.74-6.27-.6-.98c-1.05.59-2.37,1.05-3.49,1.05Zm-11.76-2.98c-1.71,1.71-4.87,3.16-7.18,3.16-2.9,0-6.72-2.24-6.72-7.31,0-3.56,2.11-5.46,5.93-7.11,2.04-.92,5.99-2.77,7.97-3.75v15.01Z"/>
  </g>
  <path class="cls-2" d="m103.6,26.68s-.36-1.9-.73-2.86c-1.85-5.31-6.05-8.16-11.73-8.16-2.76,0-5.27,1.12-7.38,2.43-2.37,1.59-5.14,3.36-8.04,5.47-2.04-4.94-6.25-7.91-10.93-7.91-3.1,0-5.47,1.05-8.1,2.63-2.83,1.71-4.89,3.41-6.9,4.75-.04-.54-.13-1.06-.28-1.59-.17-.6-.42-1.21-.78-1.83-.13-.25-.29-.5-.46-.73h0c-.72-1.03-1.76-1.94-3.19-2.37,0,0-.01,0-.02,0l-.06.03h-.01s-9.77,3.36-9.77,3.36l-.3.11h-.03s.04.15.04.15l.26.96c.55-.12,1.15-.2,1.73-.21.67-.02,1.34.04,1.91.21.67.2,1.08.91,1.49,1.86.52,1.2.78,2.79.81,5.25,0,.17,0,.33,0,.51v9.36l8.74-3.33v-8.65l1.47-1.01c2.6-1.84,5.55-3.46,8.55-3.46,4.65,0,7.3,2.56,8.06,7.58v8.86l8.74-3.35v-9.17c2.7-1.76,7.83-3.92,10.2-3.92,4.01,0,6.56,1.95,7.71,5.66,0,0,.51,1.85.59,2.91.09.8.13,1.66.13,2.56v5.26l8.55-3.52v-3.85c0-1.42-.11-2.76-.32-4Z"/>
  <path class="cls-1" d="m153.13,10.54c-1.97.11-4.03-.52-5.4-1.34-1.07-.64-1.65-1.56-1.71-2.5-.03-.5.44-1.06,1.07-1.51.75-.58,2.24-1.28,3.47-1.35.99-.06,1.66.24,2.23.86l1,1.17c.4.47,1.15.42,1.49-.11.61-.96.81-1.89.76-2.77-.1-1.89-1.99-3.11-4.17-2.98-2.18.12-4.99,1.48-6.9,3.48-1.21,1.26-2.57,3.4-2.44,5.79.14,2.47,2.16,3.92,4.8,4.68l.8.16c-.15.07-2.31.99-3.94,1.69v1.73c.37-.16.74-.31,1.11-.47,3.91-1.63,7.86-3.24,11.44-4.7l1.69-.69v-1.84c-1.63.32-3.57.61-5.31.71Z"/>
</svg>