<?xml version="1.0" encoding="UTF-8"?>
<svg id="Isolation_Mode" data-name="Isolation Mode" xmlns="http://www.w3.org/2000/svg" viewBox="0 0 11.57 10.7">
  <defs>
    <style>
      .cls-1 {
        fill: #fff;
        fill-rule: evenodd;
      }
    </style>
  </defs>
  <path class="cls-1" d="m10.99,7.59c-.29-.14-1.69-.83-1.95-.92-.26-.1-.45-.14-.64.14-.19.28-.74.92-.9,1.1-.17.19-.33.21-.62.07-.28-.14-1.2-.43-2.29-1.4-.84-.74-1.42-1.67-1.58-1.95-.16-.28-.02-.43.13-.58.13-.13.28-.33.43-.49.04-.05.07-.09.1-.14.07-.1.11-.2.18-.34.1-.19.05-.35-.02-.49-.07-.14-.64-1.53-.88-2.1C2.71-.07,2.47.03,2.3.03s-.35-.03-.54-.03-.5.07-.76.35c-.26.28-.99.97-.99,2.36,0,.33.06.65.15.96.29.99.91,1.82,1.02,1.96.14.18,1.97,3.13,4.86,4.27,2.9,1.13,2.9.75,3.42.7.52-.04,1.69-.68,1.92-1.34.24-.66.24-1.22.17-1.34-.07-.11-.26-.18-.54-.33Z"/>
</svg>