<?xml version="1.0" encoding="UTF-8"?>
<svg xmlns="http://www.w3.org/2000/svg" xmlns:xlink="http://www.w3.org/1999/xlink" viewBox="0 0 372.95 262.75">
  <defs>
    <style>
      .cls-1 {
        fill: #bd825a;
      }

      .cls-2 {
        fill: url(#linear-gradient-3);
      }

      .cls-2, .cls-3, .cls-4, .cls-5, .cls-6, .cls-7, .cls-8, .cls-9, .cls-10, .cls-11 {
        mix-blend-mode: multiply;
      }

      .cls-12 {
        fill: url(#radial-gradient-7);
      }

      .cls-13 {
        fill: url(#radial-gradient-10);
      }

      .cls-14 {
        fill: #fff;
      }

      .cls-15 {
        fill: #939496;
      }

      .cls-16, .cls-9 {
        fill: #dfe1e9;
      }

      .cls-3 {
        fill: url(#linear-gradient);
      }

      .cls-4 {
        fill: url(#linear-gradient-4);
      }

      .cls-5 {
        fill: url(#radial-gradient-2);
      }

      .cls-17 {
        fill: url(#radial-gradient-8);
      }

      .cls-18 {
        fill: #ffd7bb;
      }

      .cls-19 {
        fill: url(#radial-gradient-5);
      }

      .cls-20 {
        fill: url(#radial-gradient-4);
      }

      .cls-21 {
        isolation: isolate;
      }

      .cls-22 {
        fill: #646b89;
      }

      .cls-23 {
        fill: #484c66;
      }

      .cls-24 {
        fill: #373c49;
      }

      .cls-25 {
        fill: #2d313f;
      }

      .cls-26 {
        fill: #ffae81;
      }

      .cls-27 {
        fill: #dddfe8;
      }

      .cls-28 {
        fill: #f0f2f5;
      }

      .cls-29 {
        fill: url(#linear-gradient-11);
      }

      .cls-30 {
        fill: #cbcfdb;
      }

      .cls-6 {
        fill: url(#linear-gradient-6);
      }

      .cls-31, .cls-32 {
        fill: #edeef2;
      }

      .cls-33 {
        fill: url(#linear-gradient-10);
      }

      .cls-34 {
        fill: url(#radial-gradient);
      }

      .cls-7 {
        fill: url(#linear-gradient-5);
      }

      .cls-35 {
        fill: #171716;
      }

      .cls-36 {
        fill: #151723;
        opacity: .8;
      }

      .cls-37 {
        fill: #f37022;
      }

      .cls-38 {
        fill: #3c3c3b;
      }

      .cls-39 {
        fill: #ffc29f;
      }

      .cls-8 {
        fill: url(#linear-gradient-2);
      }

      .cls-40 {
        fill: url(#radial-gradient-3);
      }

      .cls-41 {
        fill: #474747;
      }

      .cls-42 {
        fill: #a7a9c8;
      }

      .cls-43 {
        opacity: .58;
      }

      .cls-43, .cls-44 {
        fill: #c8cbdd;
      }

      .cls-45 {
        fill: url(#linear-gradient-9);
      }

      .cls-10 {
        fill: #e6e8ed;
      }

      .cls-11 {
        fill: url(#linear-gradient-7);
      }

      .cls-32 {
        opacity: .43;
      }

      .cls-46 {
        fill: #252842;
      }

      .cls-47 {
        fill: #f38d20;
      }

      .cls-48 {
        fill: #f8f9fb;
      }

      .cls-49 {
        fill: #d81632;
      }

      .cls-50 {
        fill: #8e92b2;
      }

      .cls-51 {
        fill: #c1c3c9;
      }

      .cls-52 {
        fill: url(#radial-gradient-11);
      }

      .cls-53 {
        fill: url(#radial-gradient-9);
      }

      .cls-54 {
        fill: #1d1d1b;
      }

      .cls-55 {
        fill: url(#linear-gradient-8);
      }

      .cls-56 {
        fill: url(#linear-gradient-12);
      }

      .cls-57 {
        fill: url(#radial-gradient-6);
        opacity: .5;
      }
    </style>
    <linearGradient id="linear-gradient" x1="148.78" y1="81.72" x2="216.35" y2="81.72" gradientUnits="userSpaceOnUse">
      <stop offset="0" stop-color="#dddde9" stop-opacity=".51"/>
      <stop offset="1" stop-color="#fff"/>
    </linearGradient>
    <linearGradient id="linear-gradient-2" x1="219.48" y1="133.05" x2="292.15" y2="133.05" xlink:href="#linear-gradient"/>
    <linearGradient id="linear-gradient-3" x1="292.15" y1="149.44" x2="330.3" y2="149.44" xlink:href="#linear-gradient"/>
    <linearGradient id="linear-gradient-4" x1="107.13" y1="134" x2="202.6" y2="134" xlink:href="#linear-gradient"/>
    <linearGradient id="linear-gradient-5" x1="153.35" y1="106.95" x2="247.16" y2="106.95" xlink:href="#linear-gradient"/>
    <linearGradient id="linear-gradient-6" x1="293.83" y1="144.63" x2="298.96" y2="144.63" xlink:href="#linear-gradient"/>
    <radialGradient id="radial-gradient" cx="-1838.75" cy="-749.24" fx="-1838.75" fy="-749.24" r="72.94" gradientTransform="translate(1019.9 -36.54) rotate(-20.97) scale(.41 .11)" gradientUnits="userSpaceOnUse">
      <stop offset="0" stop-color="#8e92b2"/>
      <stop offset=".04" stop-color="#8e92b2" stop-opacity=".9"/>
      <stop offset=".15" stop-color="#8e92b2" stop-opacity=".67"/>
      <stop offset=".27" stop-color="#8e92b2" stop-opacity=".46"/>
      <stop offset=".39" stop-color="#8e92b2" stop-opacity=".29"/>
      <stop offset=".51" stop-color="#8e92b2" stop-opacity=".16"/>
      <stop offset=".65" stop-color="#8e92b2" stop-opacity=".07"/>
      <stop offset=".8" stop-color="#8e92b2" stop-opacity=".02"/>
      <stop offset="1" stop-color="#8e92b2" stop-opacity="0"/>
    </radialGradient>
    <radialGradient id="radial-gradient-2" cx="-2070.6" cy="-768.14" fx="-2070.6" fy="-768.14" r="72.94" gradientTransform="translate(1008.13 -67.27) rotate(-20.97) scale(.41 .11)" xlink:href="#radial-gradient"/>
    <radialGradient id="radial-gradient-3" cx="512.68" cy="-249.79" fx="512.68" fy="-249.79" r="14.89" gradientTransform="translate(-1579.17 223.89) scale(3.28 .26)" xlink:href="#radial-gradient"/>
    <radialGradient id="radial-gradient-4" cx="575.41" cy="-1337.72" fx="575.41" fy="-1337.72" r="10.15" gradientTransform="translate(-4516.57 2565.76) scale(8.15 1.8)" gradientUnits="userSpaceOnUse">
      <stop offset="0" stop-color="#8e92b2"/>
      <stop offset=".11" stop-color="#8e92b2" stop-opacity=".79"/>
      <stop offset=".25" stop-color="#8e92b2" stop-opacity=".55"/>
      <stop offset=".4" stop-color="#8e92b2" stop-opacity=".35"/>
      <stop offset=".55" stop-color="#8e92b2" stop-opacity=".2"/>
      <stop offset=".69" stop-color="#8e92b2" stop-opacity=".09"/>
      <stop offset=".84" stop-color="#8e92b2" stop-opacity=".02"/>
      <stop offset="1" stop-color="#8e92b2" stop-opacity="0"/>
    </radialGradient>
    <radialGradient id="radial-gradient-5" cx="579.34" cy="-1236.24" fx="579.34" fy="-1236.24" r="10.15" gradientTransform="translate(-4523.87 846.18) scale(8.15 .57)" xlink:href="#radial-gradient-4"/>
    <linearGradient id="linear-gradient-7" x1="219.15" y1="95.66" x2="208.37" y2="100.77" xlink:href="#linear-gradient"/>
    <radialGradient id="radial-gradient-6" cx="192.68" cy="-282.27" fx="192.68" fy="-282.27" r="9.18" gradientTransform="translate(-305.69 191.02) scale(2.28 .26)" xlink:href="#radial-gradient"/>
    <radialGradient id="radial-gradient-7" cx="-2037.56" cy="-717.76" fx="-2037.56" fy="-717.76" r="32.27" gradientTransform="translate(1104.22 12.73) rotate(-19.59) scale(.45 .11) skewX(.73)" xlink:href="#radial-gradient"/>
    <radialGradient id="radial-gradient-8" cx="-2018.86" cy="-732.81" fx="-2018.86" fy="-732.81" r="32.27" gradientTransform="translate(1094.04 -11.95) rotate(-19.59) scale(.45 .11) skewX(.73)" xlink:href="#radial-gradient"/>
    <radialGradient id="radial-gradient-9" cx="-1922.22" cy="-722.11" fx="-1922.22" fy="-722.11" r="32.27" gradientTransform="translate(1101.28 5.59) rotate(-19.59) scale(.45 .11) skewX(.73)" xlink:href="#radial-gradient"/>
    <radialGradient id="radial-gradient-10" cx="-1954.63" cy="-739.73" fx="-1954.63" fy="-739.73" r="32.27" gradientTransform="translate(1089.37 -23.28) rotate(-19.59) scale(.45 .11) skewX(.73)" xlink:href="#radial-gradient"/>
    <linearGradient id="linear-gradient-8" x1="2145.28" y1="-174.45" x2="2154.83" y2="-174.45" gradientTransform="translate(-1847.35 -322.44) rotate(15.71)" gradientUnits="userSpaceOnUse">
      <stop offset="0" stop-color="#f8c5a1"/>
      <stop offset=".73" stop-color="#f9ba9a"/>
      <stop offset="1" stop-color="#fab597"/>
    </linearGradient>
    <linearGradient id="linear-gradient-9" x1="2144.87" y1="-172.5" x2="2146.76" y2="-172.39" gradientTransform="translate(-1847.35 -322.44) rotate(15.71)" gradientUnits="userSpaceOnUse">
      <stop offset="0" stop-color="#fab597"/>
      <stop offset=".27" stop-color="#f9ba9a"/>
      <stop offset="1" stop-color="#f8c5a1"/>
    </linearGradient>
    <linearGradient id="linear-gradient-10" x1="2144.93" y1="-173.51" x2="2146.82" y2="-173.4" xlink:href="#linear-gradient-9"/>
    <linearGradient id="linear-gradient-11" x1="2144.99" y1="-174.66" x2="2146.89" y2="-174.55" xlink:href="#linear-gradient-9"/>
    <linearGradient id="linear-gradient-12" x1="2145.06" y1="-175.85" x2="2146.96" y2="-175.74" xlink:href="#linear-gradient-9"/>
    <radialGradient id="radial-gradient-11" cx="1193.6" cy="-972.31" fx="1193.6" fy="-972.31" r="15.25" gradientTransform="translate(3171.59 670.74) rotate(-180) scale(2.4 -.48)" xlink:href="#radial-gradient"/>
  </defs>
  <g class="cls-21">
    <g id="Layer_1" data-name="Layer 1">
      <path class="cls-37" d="m248.85,69.13c1.67.96,1.67,2.53,0,3.49-1.67.96-4.38.96-6.05,0-1.67-.96-1.67-2.53,0-3.49,1.67-.96,4.38-.96,6.05,0Z"/>
      <path class="cls-37" d="m145.31,43.47v2.58c0,.66.44,1.32,1.31,1.83,1.75,1.01,4.58,1.01,6.33,0,.87-.5,1.31-1.17,1.31-1.83v-2.58h-8.95Z"/>
      <path class="cls-47" d="m152.94,41.64c1.75,1.01,1.75,2.64,0,3.65-1.75,1.01-4.58,1.01-6.33,0-1.75-1.01-1.75-2.64,0-3.65,1.75-1.01,4.58-1.01,6.33,0Z"/>
      <polygon class="cls-42" points="199.46 74.2 181.5 64.1 181.5 60.36 199.46 70.47 199.46 74.2"/>
      <g>
        <g>
          <path class="cls-37" d="m203.45,59.84s0,0,0,0c-.61.04-.92.07-1.58.15-.15-.1-.21-.28-.19-.42.02-.17.08-.3.15-.42,0-.01.02-.02.02-.03.07-.1.15-.19.23-.27.02-.02.27-.23.35-.29.77-.62,1.06-.84,1.7-1.34.52-.4.59-.61.08-.8.04-.03.06-.04.09-.07.27.05.4.07.68.12.05,0,.08.01.14.02.08.01.12.02.2.03.24.04.37.06.61.1.11.02.16.03.27.04-1.24.99-1.58,1.23-2.86,2.27-.24.2-.67.55-.32.71.12.05.29.09.46.09-.02.05-.03.07-.05.12Z"/>
          <path class="cls-37" d="m195.46,55.55s.03-.06.04-.1c-.17,0-.35-.03-.46-.09-.17-.09.02-.46.44-.78,0,0,0,0,.01-.01h0s.76-.57.78-.58c-.45-.09-.67-.14-1.12-.23,0,0-.75.56-.75.56-.22.16-.39.28-.54.35,0,0-.02,0-.02.01-.29.13-.5.08-.92-.09h0c-.26-.14-.38-.21-.64-.34h0c-.37-.29-.34-.42.31-.91.45-.33.65-.48,1.05-.76-.45-.09-.67-.14-1.13-.23-.35.25-.53.38-.93.67-.44.33-.59.81-.32,1.09.87.47,1.31.7,2.18,1.16.07.02.14.03.21.03,0,0,0,.01,0,.02,0,0,0,.02,0,.03h0c0,.13.05.26.2.33,0,0,0,0,.01,0,.66-.07.98-.1,1.61-.13,0,0,0,0,0,0,0,0,0,0,0-.02Z"/>
          <path class="cls-37" d="m199.63,57.78s-.04,0-.06-.01c-.02,0-.05-.01-.07-.02-.03,0-.06-.02-.08-.03-.01,0-.03-.01-.04-.02-.02,0-.03-.02-.05-.03,0,0-.02-.01-.02-.02,0,0-.02-.01-.02-.02-.01-.01-.03-.02-.04-.04-.01-.01-.02-.03-.03-.04,0-.01-.02-.03-.03-.04,0,0-.01-.02-.01-.03-.05-.1-.05-.21,0-.34.05-.13.15-.27.32-.4.35-.27.72-.28,1.24-.2.28.05.82.13,1.1.17-.51.39-.77.59-1.4,1.09-.19.03-.42.03-.62,0-.04,0-.08-.01-.12-.02-.02,0-.04,0-.06-.01Zm2.04,1.1s.03-.07.04-.11c-.17,0-.35-.03-.46-.09-.13-.07-.13-.22.04-.43,0,0,0-.01.02-.02.06-.07.14-.15.25-.24,0,0,1.64-1.28,1.66-1.3-.04,0-.07-.01-.11-.02-.02,0-.04,0-.06-.01-.03,0-.04,0-.07-.01-.28-.05-.76-.15-1.25-.24-.08-.02-.12-.02-.2-.04-.04,0-.09-.02-.13-.03-.16-.03-.23-.05-.39-.07-.24-.05-.46-.09-.63-.12-.11-.02-.19-.04-.25-.05-.69-.13-1.2-.09-1.68.28-.3.24-.51.55-.57.87,0,0-.34-.22-.4-.28-.23-.22-.11-.38.41-.78.47-.37.68-.52,1.08-.82-.46-.08-.69-.13-1.15-.21-.27.2-.41.31-.72.54-.05.04-.1.08-.15.11-.04.03-.06.05-.1.08-.41.32-.56.77-.34,1.06.68.36,1.02.54,1.69.91.02.1.08.19.16.26.03.02.06.04.09.06.13,0,.2,0,.33-.01.02,0,.04,0,.06,0,0,0,.01,0,.02,0,.19,0,.41-.02.63-.03.2-.01.39-.02.58-.03,0,0,0,0,0,0,.01,0,.03,0,.04,0-.12.16-.22.32-.24.51-.01.08,0,.15.02.22.04.08.1.15.18.2.66-.08.97-.1,1.59-.15,0,0,0,0,0,0Z"/>
          <path class="cls-37" d="m194.61,53.41c-.07-.16-.11-.24-.18-.4-.04-.1-.24-.12-.36-.04-.2.14-.3.21-.51.37-.12.09-.07.22.1.22.28.01.42.02.69.03.16,0,.29-.09.25-.18Z"/>
        </g>
        <g>
          <g>
            <path class="cls-44" d="m206,61.21c-.61.04-.92.07-1.57.15-.15-.1-.21-.28-.19-.43.02-.17.08-.3.15-.42,0-.01.02-.02.02-.04.07-.1.15-.19.22-.27.01-.01.09-.08.18-.16,0,0,0,0,0,0,.05-.04.1-.08.15-.12.63-.52.89-.73,1.42-1.15.03-.02.06-.05.08-.07.46-.41.51-.79-.04-1.09-.2-.11-.47-.17-.75-.19.11-.09.17-.13.29-.23.12,0,.25,0,.39.01.42.02.76.06,1.03.21.24.13.41.29.48.47.16.36,0,.79-.53,1.21-.55.44-.8.65-1.45,1.18,0,0,0,0,0,0-.03.03-.06.06-.09.08,0,0,0,0,0,0-.23.2-.49.48-.19.62.12.05.29.09.45.09-.02.04-.02.06-.04.1,0,0,0,0,0,0,0,0,0,0,0,.01Z"/>
            <path class="cls-44" d="m203.42,56.5c-.42-.08-.64-.12-1.06-.21.42-.37.46-.71.16-.93,0,0,0,0-.01,0-.02-.01-.03-.02-.05-.04,0,0,0,0,0,0-.01,0-.02-.01-.04-.02,0,0,0,0,0,0-.02-.01-.04-.02-.06-.03-.15-.06-.33-.09-.49-.07-.23.02-.5.12-.85.27-.18.07-.32.07-.45.01-.02,0-.03-.02-.05-.02-.01,0-.02-.01-.03-.02-.16-.11-.23-.35-.04-.49.12-.09.35-.1.65-.09.45.01,1.43.1,2.05.3,0,0,0,0,0,0,.05.03.11.06.15.09.21.14.35.31.4.5.05.28-.05.52-.27.76Z"/>
            <path class="cls-44" d="m190.59,52.97c-.17-.09-.1-.35.34-.67.72-.52,1.01-.72,1.63-1.14.46-.31.72-.62.66-1.01-.05-.23-.25-.43-.55-.59-.63-.21-1.63-.3-2.09-.32-.31-.01-.54,0-.67.08-.21.14-.14.39.04.49.15.08.31.09.52.02.36-.14.65-.23.88-.25.19-.02.4.02.56.1.45.24.41.64-.21,1.07-.06.04-.09.06-.15.1-.36,0-1.25-.2-2.04-.4-.68-.17-1.2-.13-1.71.23-.64.45-.94,1.28-.22,1.67.27.15,1.18.04,1.86.03-.13.16-.23.31-.27.5-.03.15,0,.33.18.42.68-.07,1-.09,1.63-.13.02-.05.03-.07.05-.12-.17,0-.35-.03-.46-.09Zm-.82-.87c-.36.05-.84,0-1.06-.11-.28-.15-.38-.56.15-.93.37-.26.75-.27,1.28-.18.28.05.84.14,1.12.18-.55.38-.82.56-1.48,1.05Z"/>
          </g>
          <path class="cls-44" d="m199.85,54.66s.13-.14.18-.22c.27-.44.16-.87-.39-1.16-.27-.14-.61-.19-.94-.21-.38-.01-.8-.04-1.27-.05.24-.42.13-.86-.32-1.1-.3-.16-.63-.21-1.03-.23-.43-.03-.79-.03-1.1-.04.04-.04.08-.07.12-.12.04-.05.07-.1.09-.16.01-.02.02-.05.02-.07h0c.03-.11.01-.22-.08-.33,0,0,0,0,0,0,0,0,0,0,0,0,0,0,0,0,0,0-.51-.11-.76-.16-1.26-.28-.02,0-.02,0-.04,0,0,0,0,0,0,0,0,0,0,0,0,.01-.03.03-.04.05-.06.08.06.02.13.05.19.08.07.03.13.07.16.11.05.05.02.11-.03.2-.06.1-.18.22-.39.37-.02.01-.03.02-.05.03-.33.23-.49.34-.84.58.46.1.69.15,1.15.24.31-.22.46-.32.76-.54.09,0,.14,0,.23.01.41.02.85.07,1.14.22.45.24.47.54.11.9-.31.22-.46.33-.78.56.46.09.69.14,1.15.24.32-.23.48-.34.8-.58.42.03,1.1.15,1.33.27.39.21.46.47.25.76,0,0-.11.14-.19.21-.06.05-.13.11-.21.17-.18.13-.27.2-.46.34.46.09.69.13,1.14.22.13-.1.2-.15.33-.24.12-.09.23-.18.31-.27Z"/>
          <path class="cls-37" d="m206.09,56.07c-.2-.09-.33-.25-.38-.39-.04-.11,0-.22.1-.3.05-.05.16-.07.27-.08.14-.01.36,0,.49.05.1.05.13.11.11.2-.01.06-.02.1-.04.16-.01.06.06.1.15.07.16-.06.29-.13.39-.22.21-.19.19-.42-.03-.51-.22-.1-.66-.1-1.08,0-.26.06-.64.19-.87.39-.24.21-.19.43,0,.62.02.02.04.03.06.05-.02,0-.32-.04-.54-.08-.06.05-.1.08-.16.12.05,0,.1.02.15.02.52.08,1.06.17,1.54.24.09.01.14.02.23.03.07-.06.11-.09.18-.15-.19-.06-.4-.13-.58-.21Z"/>
        </g>
      </g>
      <path class="cls-32" d="m70.81,197.57c5.7-27.69-66.02-10.09-64.27-41.39,2.96-52.91,276.82-105.06,349.76-41.8,58.94,51.13-49.81,127.83-150.41,144.19-108.41,17.64-142.7-23.97-135.08-61Z"/>
      <path class="cls-32" d="m0,203.02c.5-8.95,41.18-15.72,53.52-5.02,9.97,8.65.54,14.23-16.48,17C18.7,217.98-.29,208.31,0,203.02Z"/>
      <path class="cls-27" d="m360.64,116.31c-97.96.29-214.71.29-312.67,0,97.96-.29,214.71-.29,312.67,0h0Z"/>
      <g>
        <polygon class="cls-3" points="216.35 83.28 182.24 103.35 148.78 79.77 183.12 60.09 216.35 83.28"/>
        <polygon class="cls-43" points="182.07 103.44 147.33 123.89 113.46 100.03 148.48 79.94 182.07 103.44"/>
        <polygon class="cls-43" points="131.16 157.39 96.42 177.82 61.74 153.39 96.75 133.32 131.16 157.39"/>
        <polygon class="cls-28" points="168.93 183.81 134.25 204.47 96.42 177.82 131.16 157.39 168.93 183.81"/>
        <polygon class="cls-43" points="184.72 150.27 150.04 170.93 112.41 144.44 147.16 123.99 184.72 150.27"/>
        <polygon class="cls-8" points="292.15 136.21 290.19 137.38 258.03 156.57 224.7 133.26 219.48 129.58 253.09 109.53 285.86 131.83 286.24 132.08 286.68 132.38 287.48 132.93 287.82 133.18 287.84 133.2 288.34 133.54 292.15 136.21"/>
        <polygon class="cls-43" points="258.07 156.61 223.33 177.28 193.11 156.15 184.78 150.27 219.46 129.6 224.7 133.26 258.07 156.61"/>
        <polygon class="cls-43" points="154.27 218.66 119.69 239.3 95.73 222.53 81.18 212.27 115.82 191.61 127.3 199.64 154.27 218.66"/>
        <polygon class="cls-43" points="330.11 162.71 295.93 183.1 258.07 156.61 290.19 137.38 292.15 136.21 330.11 162.71"/>
        <polygon class="cls-43" points="226.29 224.67 191.84 245.21 154.11 218.81 188.65 198.15 226.29 224.67"/>
        <polygon class="cls-28" points="240.61 189.57 205.58 210.11 167.82 183.67 202.93 163.02 240.61 189.57"/>
        <polygon class="cls-2" points="330.3 162.6 330.11 162.71 292.15 136.21 292.21 136.18 330.3 162.6"/>
        <polygon class="cls-28" points="313.87 195.84 278.96 216.69 240.61 189.84 275.63 168.9 313.87 195.84"/>
      </g>
      <polygon class="cls-48" points="290.55 140.59 247.16 111.06 198.66 76.41 291.05 140.92 290.55 140.59"/>
      <polygon class="cls-48" points="253.7 173.35 296.28 147.94 253.75 173.4 253.7 173.35"/>
      <polygon class="cls-4" points="202.6 137.61 156.66 164.99 107.13 130.08 153.12 103.01 202.6 137.61"/>
      <polygon class="cls-7" points="247.16 111.06 202.63 137.58 153.35 102.88 198.51 76.31 198.66 76.41 247.16 111.06"/>
      <polygon class="cls-6" points="298.96 146.35 298.88 146.4 293.83 142.86 298.96 146.35"/>
      <path class="cls-34" d="m318.71,141.67c.61,1.58-1.72,4.14-6.18,7.19-2.59,1.79-5.89,3.75-9.76,5.78h0c-.78.42-1.59.83-2.42,1.25-1.04.52-2.11,1.06-3.2,1.6l-.13.05c-5.27,2.52-11.24,5.1-17.65,7.56-1.67.64-3.3,1.24-4.88,1.8,0,.03-.02.03-.04.02-3.99,1.45-7.73,2.66-11.16,3.65-1.45.43-2.84.82-4.17,1.18,0,0-.02,0-.04,0-3.42.91-6.47,1.53-9.1,1.92-2.44.39-4.51.54-6.19.48-.03-.01-.04,0-.06,0-2.64-.11-4.26-.76-4.7-1.93-.32-.85,0-1.89.91-3.11.78-1.05,2-2.21,3.64-3.46.23-.19.49-.36.74-.56.03-.01.06-.05.09-.06.42-.31.86-.63,1.34-.94,1.31-.88,2.8-1.79,4.45-2.77l.08-.03c.48-.28.98-.55,1.49-.82,1.34-.74,2.78-1.51,4.31-2.28,1.09-.54,2.22-1.07,3.4-1.63,4.2-1.96,8.98-3.99,14.3-6.02l1.11-.43c5.6-2.12,11-3.94,15.98-5.45,3.5-1.04,6.79-1.91,9.8-2.61.65-.15,1.29-.29,1.91-.43.21-.03.41-.08.61-.13.27-.05.54-.11.8-.16.24-.04.47-.08.7-.14,1.14-.21,2.22-.4,3.23-.57.3-.04.59-.08.87-.11.1-.01.19-.02.28-.03.09,0,.16-.04.24-.04h0c1.21-.14,2.31-.24,3.31-.3,3.45-.15,5.62.34,6.08,1.55Z"/>
      <path class="cls-5" d="m216.54,143.29c.61,1.58-1.72,4.14-6.18,7.19-2.59,1.79-5.89,3.75-9.76,5.78h0c-.78.42-1.59.83-2.42,1.25-1.04.52-2.11,1.06-3.2,1.6l-.13.05c-5.27,2.52-11.24,5.1-17.65,7.56-1.67.64-3.3,1.24-4.88,1.8,0,.03-.02.03-.04.02-3.99,1.45-7.73,2.66-11.16,3.65-1.45.43-2.84.82-4.17,1.18,0,0-.02,0-.04,0-3.42.91-6.47,1.53-9.1,1.92-2.44.39-4.51.54-6.19.48-.03-.01-.04,0-.06,0-2.64-.11-4.26-.76-4.7-1.93-.32-.85,0-1.89.91-3.11.78-1.05,2-2.21,3.64-3.46.23-.19.49-.36.74-.56.03-.01.06-.05.09-.06.42-.31.86-.63,1.34-.94,1.31-.88,2.8-1.79,4.45-2.77l.08-.03c.48-.28.98-.55,1.49-.82,1.34-.74,2.78-1.51,4.31-2.28,1.09-.54,2.22-1.07,3.4-1.63,4.2-1.96,8.98-3.99,14.3-6.02l1.11-.43c5.6-2.12,11-3.94,15.98-5.45,3.5-1.04,6.79-1.91,9.8-2.61.65-.15,1.29-.29,1.91-.43.21-.03.41-.08.61-.13.27-.05.54-.11.8-.16.24-.04.47-.08.7-.14,1.14-.21,2.22-.4,3.23-.57.3-.04.59-.08.87-.11.1-.01.19-.02.28-.03.09,0,.16-.04.24-.04h0c1.21-.14,2.31-.24,3.31-.3,3.45-.15,5.62.34,6.08,1.55Z"/>
      <path class="cls-50" d="m111.38,133.68c-.84.12-2.15,6.56-2.27,11.01-.12,4.45,9.72,22.49,9.72,22.49l1.37-.95c-2.05-3.51-7.99-32.66-8.82-32.55Z"/>
      <path class="cls-22" d="m118.71,161.98c-2.59-9.07-6.66-28.39-7.34-28.3-.84.12-2.15,6.56-2.27,11.01-.09,3.43,5.73,14.92,8.4,20.02.32-1.02.73-1.93,1.2-2.72Z"/>
      <path class="cls-50" d="m117.82,169.04h8.82s-5.6-4.22-7.63-2.99c-1.28.78-1.2,2.99-1.2,2.99Z"/>
      <path class="cls-30" d="m116.27,160.5l-8.55-23.31s1.77,17.04.95,26.54c0,0,3.04-.57,7.6-3.23Z"/>
      <ellipse class="cls-40" cx="99.98" cy="158.44" rx="68.38" ry="3.51"/>
      <path class="cls-50" d="m98.68,158.28h5.8s-1.09-3.12-3.36-2.91c-1.38.13-2.44,2.91-2.44,2.91Z"/>
      <ellipse class="cls-20" cx="170.22" cy="164.4" rx="115.91" ry="18.11" transform="translate(-61.56 116.65) rotate(-32.36)"/>
      <ellipse class="cls-19" cx="194.95" cy="143.59" rx="115.91" ry="8.48" transform="translate(-46.58 126.66) rotate(-32.36)"/>
      <path class="cls-54" d="m187.66,20.69c-3.79-2.19-9.92-2.19-13.69,0l-26.8,15.58c-1.88,1.09-2.81,2.52-2.81,3.95,0-.01-.18,64.1-.18,64.1,0,1.44.95,2.89,2.86,3.99l12.89,7.44c3.79,2.19,9.92,2.19,13.69,0l7.17-4.17,13.8,7.97,26.46-15.38.18-64.12-33.56-19.38Z"/>
      <path class="cls-16" d="m173.79,51.64c-3.77,2.19-9.9,2.19-13.69,0l-12.89-7.44c-1.91-1.1-2.86-2.55-2.86-3.99l-.99,64.38c0,1.44,1.76,2.63,3.67,3.73l12.89,7.44c3.79,2.19,9.92,2.19,13.69,0l7.17-4.17.18-64.12-7.17,4.17Z"/>
      <polygon class="cls-16" points="194.76 55.44 194.58 119.56 180.78 111.59 180.96 47.48 194.76 55.44"/>
      <polygon class="cls-38" points="221.22 40.07 221.04 104.18 194.58 119.56 194.76 55.44 221.22 40.07"/>
      <path class="cls-16" d="m257.84,133.6l-24,13.86c-4.43,2.56-8.01.48-8.01-4.63v-40.21c0-15.41,10.82-34.16,24.17-41.87l7.97-4.6c4.36-2.52,7.89-.48,7.89,4.55v59.01c0,5.11-3.59,11.33-8.01,13.88Z"/>
      <polygon class="cls-9" points="194.76 55.44 194.58 119.56 180.78 111.59 180.96 47.48 194.76 55.44"/>
      <path class="cls-9" d="m257.84,133.6l-24,13.86c-4.43,2.56-8.01.48-8.01-4.63v-40.21c0-15.41,10.82-34.16,24.17-41.87l7.97-4.6c4.36-2.52,7.89-.48,7.89,4.55v59.01c0,5.11-3.59,11.33-8.01,13.88Z"/>
      <path class="cls-28" d="m185.27,119.55c-.37-.22-.81-1.01-.81-2.52v-40.21c0-14.41,10.15-31.99,22.63-39.2l7.97-4.6c.74-.43,1.45-.67,1.98-.67.21,0,.39.04.52.11l43.36,22.61-9.48,5.11c-14.42,8.33-25.8,27.35-25.8,43.97v38.71s-40.37-23.31-40.37-23.31Z"/>
      <path class="cls-54" d="m290.97,83.78c.13-1.53-.8-3.1-2.83-4.27l-25.4-14.67-26.46,15.38-.18,64.12,25.4,14.67c3.79,2.19,9.92,2.19,13.69,0l12.81-7.44c1.87-1.09,2.81-2.51,2.81-3.94l.18-64.12c0,.09-.02.18-.02.28Z"/>
      <path class="cls-16" d="m288.18,87.44l-12.81,7.44c-3.77,2.19-9.9,2.19-13.69,0l-25.4-14.67-.18,64.12,25.4,14.67c3.79,2.19,9.92,2.19,13.69,0l12.81-7.44c1.87-1.09,2.81-2.51,2.81-3.94l.18-64.12c0,1.43-.94,2.85-2.81,3.94Z"/>
      <path class="cls-28" d="m288.14,79.51c3.79,2.19,3.81,5.74.04,7.93l-12.81,7.44c-3.77,2.19-9.9,2.19-13.69,0l-25.4-14.67,26.46-15.38,25.4,14.67Z"/>
      <path class="cls-22" d="m90.07,118.11l8.87-.25c2.55,3.16,1.71,6.71-1.3,8.54l-14.34,8.43c-2.88,1.69-4.67,4.85-4.45,8.18.28,4.39,1.26,8.51,2.75,12.45,1.37,3.63,4.91,5.97,8.78,5.73l10.97-.68c5.21-.1,7.2,5.53,5.21,9.28l-5.2,7.19c-2.15,2.98-1.95,7.14.65,9.73,8.83,8.8,21.62,10.08,31.46,4.36l13.89-16.73-27.35-56.68c-10.83-1.73-21.06-2.14-29.94.45Z"/>
      <path class="cls-37" d="m292.54,99.26v5.5c0,1.38-.92,2.77-2.74,3.82-3.66,2.11-9.58,2.11-13.24,0-.1-.06-.19-.12-.29-.17v-5.49l6.32-3.65h9.95Z"/>
      <path class="cls-49" d="m292.54,99.18c0,1.38-.91,2.77-2.74,3.82-3.66,2.11-9.58,2.11-13.24,0-.1-.06-.19-.12-.29-.17l6.32-3.65,6.91-3.99c.1.05.21.11.31.17,1.83,1.06,2.74,2.44,2.74,3.82Z"/>
      <path class="cls-16" d="m208.96,135.47l8.6-4.96c4-2.31,6.48-7.27,6.48-14.33,0-14.11-9.91-31.27-22.13-38.33-6.11-3.53-11.64-3.86-15.65-1.55l-8.6,4.96,31.29,54.2Z"/>
      <path class="cls-11" d="m208.96,135.47l8.6-4.96c4-2.31,6.48-7.27,6.48-14.33,0-14.11-9.91-31.27-22.13-38.33-6.11-3.53-11.64-3.86-15.65-1.55l-8.6,4.96,31.29,54.2Z"/>
      <path class="cls-22" d="m171.18,95.59c0-14.11,9.91-19.83,22.13-12.78,12.22,7.06,22.13,24.21,22.13,38.33,0,14.11-9.91,19.83-22.13,12.78-12.22-7.06-22.13-24.21-22.13-38.33Z"/>
      <path class="cls-22" d="m193.34,145.25l13.81-7.97c4.09-2.36,6.62-7.42,6.62-14.63,0-14.41-10.12-31.93-22.6-39.14-6.24-3.6-11.89-3.94-15.98-1.58l-13.81,7.97,31.95,55.35Z"/>
      <path class="cls-22" d="m154.77,104.53c0-14.41,10.12-20.25,22.6-13.05,12.48,7.2,22.59,24.73,22.59,39.14,0,14.41-10.12,20.25-22.6,13.05-12.48-7.2-22.6-24.73-22.6-39.14Z"/>
      <g>
        <path class="cls-28" d="m198.08,139.96l13.81-7.98c-.35.74-.75,1.42-1.2,2.03l-13.8,7.97c.44-.6.84-1.29,1.19-2.03Z"/>
        <path class="cls-28" d="m199.39,136.17l13.81-7.98c-.11.55-.26,1.08-.42,1.58l-13.8,7.97c.16-.51.3-1.03.41-1.58Z"/>
        <path class="cls-28" d="m199.88,132.84l13.8-7.97c-.02.48-.08.96-.14,1.42l-13.8,7.97c.07-.47.12-.94.14-1.42Z"/>
        <path class="cls-28" d="m199.95,129.75l13.8-7.97c.02.28.02.58.02.87,0,.15,0,.31,0,.46l-13.8,7.97c0-.15,0-.31,0-.46,0-.3,0-.59-.02-.87Z"/>
        <path class="cls-28" d="m199.74,126.83l13.8-7.97c.06.42.1.84.13,1.27l-13.8,7.97c-.03-.42-.07-.84-.13-1.27Z"/>
        <path class="cls-28" d="m199.33,124.02l13.8-7.97c.08.41.15.81.21,1.22l-13.8,7.97c-.06-.41-.13-.81-.21-1.22Z"/>
        <path class="cls-28" d="m198.72,121.32l13.8-7.97c.11.39.2.78.29,1.17l-13.8,7.97c-.09-.39-.18-.78-.29-1.17Z"/>
        <path class="cls-28" d="m197.98,118.71l13.8-7.97c.13.38.24.76.35,1.14l-13.8,7.97c-.11-.38-.22-.76-.35-1.14Z"/>
        <path class="cls-28" d="m197.09,116.18l13.8-7.97c.14.38.28.74.4,1.11l-13.8,7.97c-.12-.37-.26-.73-.4-1.11Z"/>
        <path class="cls-28" d="m196.08,113.71l13.8-7.97c.16.36.31.72.46,1.07l-13.8,7.97c-.15-.35-.3-.71-.46-1.07Z"/>
        <path class="cls-28" d="m194.95,111.32l13.8-7.97c.18.35.35.7.51,1.05l-13.8,7.97c-.16-.35-.33-.69-.51-1.05Z"/>
        <path class="cls-28" d="m193.72,108.99l13.8-7.97c.19.33.38.68.56,1.02l-13.8,7.97c-.18-.34-.37-.68-.56-1.02Z"/>
        <path class="cls-28" d="m192.38,106.71l13.8-7.97c.2.33.41.66.6.99l-13.8,7.97c-.19-.33-.4-.67-.6-.99Z"/>
        <path class="cls-28" d="m190.93,104.51l13.8-7.97c.22.31.43.63.65.96l-13.8,7.97c-.22-.33-.43-.65-.65-.96Z"/>
        <path class="cls-28" d="m189.37,102.37l13.8-7.97c.23.31.46.62.7.94l-13.8,7.97c-.24-.32-.47-.63-.7-.94Z"/>
        <path class="cls-28" d="m187.68,100.3l13.8-7.97c.26.29.51.59.76.9l-13.8,7.97c-.25-.31-.5-.61-.76-.9Z"/>
        <path class="cls-28" d="m185.88,98.29l13.8-7.97c.27.29.54.57.81.87l-13.8,7.97c-.27-.3-.54-.59-.81-.87Z"/>
        <path class="cls-28" d="m183.93,96.37l13.8-7.97c.29.27.58.55.87.84l-13.8,7.97c-.29-.29-.58-.56-.87-.84Z"/>
        <path class="cls-28" d="m181.83,94.55l13.8-7.97c.31.26.63.52.94.8l-13.8,7.97c-.31-.28-.63-.53-.94-.8Z"/>
        <path class="cls-28" d="m179.51,92.83l13.8-7.97c.35.24.69.48,1.03.74l-13.8,7.97c-.34-.26-.68-.51-1.03-.74Z"/>
        <path class="cls-28" d="m176.97,91.26l13.8-7.97c.14.06.27.15.41.22.26.15.51.3.74.45l-13.8,7.97c-.24-.16-.49-.31-.74-.45-.13-.07-.26-.16-.41-.22Z"/>
        <path class="cls-28" d="m174.11,89.86l13.8-7.97c.43.18.87.37,1.3.59l-13.8,7.97c-.44-.21-.88-.4-1.3-.59Z"/>
        <path class="cls-28" d="m170.69,88.79l13.8-7.97c.52.11,1.05.25,1.58.42l-13.81,7.98c-.53-.18-1.05-.32-1.57-.43Z"/>
        <path class="cls-28" d="m165.97,88.47l13.8-7.97c.75-.09,1.55-.09,2.37-.03l-13.81,7.98c-.81-.07-1.6-.05-2.36.02Z"/>
      </g>
      <g>
        <path class="cls-31" d="m167.95,105.97c-.15,2.6-16.56,5.47-20.14,2.36-2.9-2.51,3.39-4.95,8.33-5.76,5.33-.87,11.89,1.86,11.81,3.39Z"/>
        <g>
          <ellipse class="cls-57" cx="134.23" cy="117.06" rx="29.4" ry="2.17"/>
          <g>
            <path class="cls-35" d="m144.56,117.5l-4.81.06s-.07-1.63.82-2.32c.05-.07.11-.11.16-.14.5-.3,1.29-.2,2.13.11.49.17,1.18.4,1.94.64.91.29.71,1.64-.25,1.65Z"/>
            <path class="cls-35" d="m122.88,117.56h4.36c.21,0,.34-.21.26-.4-.36-.77-1.3-2.35-2.85-2.21-.92.09-1.69,1.5-2.02,2.21-.09.19.05.4.25.4Z"/>
          </g>
          <path class="cls-15" d="m122.4,46.81c0,.16-.02.31-.04.46.02-.16.04-.31.04-.46Z"/>
          <path class="cls-25" d="m138.05,44.29c2.48-1.19.59-20.76-4.06-22.65-3.9-.84-.62,7.27-.69,12.58-.06,5.22.25,12.22,4.75,10.07Z"/>
          <path class="cls-39" d="m137.44,53.15c-.65,0-1.48.49-1.48.49,0,0,.23.65.35,1.13.04.15.07.28.07.37.03.38-.06.71-.15.87-.09.16-.29.71-.33.97-.05.27-.16.7-.16.7,0,0-.25.27-.3.31-.06.04-.3.1-.35.28-.05.17.16.28.26.27.1,0,.22.06.35-.02.11-.07.33-.31.41-.4h0s0,0,0,0c0,0,0,0,0,0,.02-.02.03-.03.03-.03,0,0,.05.06.05.17,0,.02,0,.04,0,.06-.01.13-.3.44-.3.44-.06-.02-.38.11-.38.11-.08.02-.18.04-.23.08-.08.06-.12.22,0,.33.01.01.03.03.05.04q.29.12.83-.08c.14-.05.23-.12.38-.31.16-.19.2-.3.28-.2.08.1-.09,1.03-.8,1.43-.24.13-.31.51-.16.56,0,0,.89-.59,1.05-.81.06-.07.26-.34.34-.53.09-.19.12-.53.29-.35.17.18.15.58.11.89-.03.2-.06,1.13-.02,1.41,0,0,0,0,0,0,.02.16.08.26.21.25.15-.02.35-1.3.37-1.5.04-.36.12-.53.11-.9,0-.37.06-1.34.06-1.34,0,0,.49.75,1.03.54.34-.13-.57-.52-.59-1.02h0c-.02-.08-.04-.17-.06-.27-.02-.09-.05-.18-.08-.27-.09-.23-.39-.97-.55-1.41-.02-.05-.04-.1-.05-.15-.13-.39-.65-2.08-.65-2.08Z"/>
          <path class="cls-25" d="m136.71,56.39l1.97-.24c0-.08.01-.18,0-.28,0-.1,0-.2.01-.33.1-2.47.5-8.52.27-12.28-.03-.49-.07-.93-.12-1.31,0-.05-.02-.1-.03-.13-.08-.39-.2-.76-.35-1.13l-.23-.52h-.01c-1.1-.83-2.55.36-3.18,1.6-.65,1.24,1.29,13.83,1.61,14.56.02.03.03.05.04.07Z"/>
          <path class="cls-25" d="m136.23,54.02l.48,2.17,2.07.17.47-2.75s-1.64-1.19-3.02.42Z"/>
          <path class="cls-9" d="m136.23,54.02l.48,2.17,2.07.17.47-2.75s-1.64-1.19-3.02.42Z"/>
          <path class="cls-9" d="m136.23,54.02l.48,2.17,2.07.17.47-2.75s-1.64-1.19-3.02.42Z"/>
          <path class="cls-24" d="m116.14,112.45c.03.23.07.46.12.7.05.21.09.45.14.64.09.43.2.79.3,1.16v.02s.53.05,1.52.09c.91.05,2.2.07,3.75.04.39,0,.79-.02,1.18-.05h.04c.2,0,.39-.02.61-.04.34-.02.68-.04,1.04-.07.53-.04,1.07-.11,1.66-.16.11,0,.23-.04.36-.04.12-.02.25-.04.36-.05.12-.02.25-.04.37-.04.12-.02.23-.04.36-.05.5-.09,1-.16,1.52-.23.52-.09,1.04-.2,1.57-.29v-.02c2.71-.54,5.78-.21,8.83-.38.9-.05,1.79-.15,2.67-.32,1.56-.31,3.08-.86,4.52-1.84,0,0-11.97-47.02-9.04-70.4,0-.06.02-.13.02-.2s.02-.14.02-.2c.34-2.54.86-4.82,1.57-6.79,0,0-4.7-13.97-11-13.08-6.32.89-9.13.79-9.13.79-.77.32-1.41.57-1.97.82h-.03v.02s-.11.03-.16.05c-.05.02-.11.03-.16.07-.04,0-.05.02-.09.04-.02,0-.04.02-.05.02-.02,0-.04.02-.05.04h-.02c-.05.02-.11.03-.16.07-.02,0-.03,0-.05.02-.09.04-.16.09-.23.14-.11.05-.21.13-.3.2-.04.04-.09.05-.12.11l-.02.02s-.05.04-.07.05c0,0-.02-.02-.02.02l-.05.05c-.05.05-.11.09-.14.14t-.04.02c-.04.05-.09.11-.12.16t-.02.04s-.03.03-.05.05c0,.03-.02.05-.02.07v.02c-.02.05-.05.09-.07.14-.02.02-.03.04-.02.05-.02.04-.04.07-.04.11-.03.07-.05.11-.07.2v.02c-.02.07-.04.14-.04.22-.02.07-.02.16-.02.23v.3c0,.07,0,.12.02.2,0,.16,0,.34.04.52.02.16.04.32.07.5.13.75.55,1.57,1.15,2.56.5.86,1.14,1.82,1.8,2.95.02,0,.02.02.02.02,1.5,2.57,3.14,5.97,3.75,10.76.11.68.16,1.39.2,2.14.04.23.05.48.05.73.02.43.02.86.02,1.31v.02c0,.2-.02.39-.05.59-.03.3-.11.59-.21.91,0,.05-.02.11-.03.14-.06.18-.13.37-.22.57-.11.27-.21.55-.36.84v.02h-.02c-.07.16-.16.34-.23.52h-.02c-1.25,2.57-3.31,6-4.86,11.51-.09.32-.18.66-.27,1-.44,1.7-.84,3.59-1.16,5.72-.09.59-.16,1.39-.23,2.36-.03.43-.05.91-.09,1.41-.02.34-.04.72-.04,1.09-.04.82-.07,1.7-.11,2.64v.21c-.27,10.5.11,27.67,1.64,36.09Z"/>
          <path class="cls-9" d="m134.83,27.55c-3.16,1.75-6.74,2.31-6.74,2.31l-.1-.96-.23-.74.66-.25.05-.02,6.95-2.64c.18.39-.06,2-.6,2.31Z"/>
          <path class="cls-9" d="m139.63,33.94c-.5,1.93-1.21,4.34-1.55,6.79,0,.05-.02.13-.04.2,0,.07-.02.14-.02.2-2.97,1-5.23,2.7-6.95,4.97-4.04,5.29-9.55,13.7-9.63,23.4v.21c-.16,15.17,6.72,33.3,9.6,44.36v.02c-.54.09-1.05.2-1.57.29-.52.07-1.02.14-1.52.23-.13.02-.23.04-.36.05s-.25.02-.38.05c-.11,0-.23.02-.36.04-.13,0-.25.04-.36.04-.59.05-1.13.13-1.66.16-.36.02-.7.05-1.04.09-.2,0-.41,0-.61.02h-.04c-.39.04-.79.05-1.18.05-1.55.04-2.84.02-3.75-.04-.98-.05-1.52-.11-1.52-.11-.11-.36-.2-.73-.3-1.16-.05-.2-.09-.43-.14-.64-.05-.23-.09-.46-.14-.7-1.54-8.4-1.89-25.56-1.63-36.09v-.21c.02-.95.05-1.82.11-2.64,0-.38.02-.75.04-1.09.04-.5.05-.98.09-1.41.07-.96.14-1.77.23-2.36.32-2.13.71-4.02,1.16-5.72.09-.34.18-.68.27-1,1.55-5.5,3.61-8.93,4.86-11.5.09-.18.18-.36.25-.52l.02-.02c.14-.29.25-.57.36-.84.09-.2.16-.39.21-.57.02-.04.04-.09.04-.14.11-.32.18-.61.21-.91.04-.2.05-.39.05-.59v-.02c0-.45,0-.88-.02-1.3,0-.25-.02-.5-.05-.73-.03-.64-.09-1.24-.17-1.83-.02-.13-.04-.26-.06-.39-.07-.48-.16-.95-.25-1.39-.05-.34-.13-.66-.21-.98-.07-.3-.16-.63-.25-.91-.07-.25-.16-.5-.23-.75-.25-.8-.54-1.55-.86-2.25-.07-.2-.14-.38-.23-.54-.07-.18-.14-.36-.23-.52-.55-1.2-1.16-2.25-1.73-3.22.14-.02.23-.05.27-.14.04-.02.05-.05.05-.07,0-.04.02-.09.02-.14,0-.11-.04-.23-.07-.38-.05-.14-.13-.3-.21-.48-.09-.16-.2-.36-.32-.55s-.25-.41-.39-.63c-.09-.16-.18-.3-.29-.46-.09-.14-.18-.3-.29-.45-.07-.11-.14-.23-.21-.34-.25-.43-.5-.88-.7-1.3-.09-.14-.16-.3-.23-.45-.04-.07-.05-.13-.09-.2-.07-.21-.14-.41-.2-.61-.07-.16-.11-.3-.13-.46-.02-.07-.02-.13-.02-.2-.02-.07-.02-.14-.02-.21,0-.04,0-.05.02-.09,0-.07,0-.16.02-.23,0-.07.02-.14.04-.21v-.02s.02-.07.02-.11c.02-.07.04-.13.09-.2-.02-.02,0-.04.02-.05.02-.05.05-.09.07-.14v-.02l.02-.02s.04-.07.05-.11t.02-.04c.07-.05.13-.12.16-.16v-.02c.04-.05.09-.09.14-.14l.05-.05h.02v-.02s.05-.04.07-.05l.02-.02s.09-.09.13-.13c.11-.07.2-.14.3-.18.07-.05.14-.11.23-.14.02-.02.04-.02.05-.02.05-.04.11-.05.16-.07h.02s.04-.04.05-.04.04-.02.05-.02c.04-.02.05-.04.09-.04.05-.04.11-.05.16-.07.05-.02.13-.05.16-.07h.04c.05-.02.11-.04.16-.05.41-.13.79-.2,1.14-.2.13,0,.27,0,.39.02,1.46.23,2.38,1.68,3.07,3.47v.02c.79,1.97,1.3,4.34,2.02,5.97.36.84.79,1.46,1.32,1.75,2.55,1.32,4.98,1.8,7.49,1.72h.04c2.07-.07,4.2-.54,6.47-1.21Z"/>
          <path class="cls-51" d="m122.4,46.81c0,.2-.02.38-.06.56.03-.19.06-.38.06-.56Z"/>
          <path class="cls-9" d="m136.27,34.82c-4.64,7.11-8.99,14.33-15.01,15.61.09-.18.16-.36.25-.52v-.02c.14-.29.25-.57.36-.84.09-.2.16-.39.21-.57.02-.05.04-.11.04-.14.11-.32.18-.61.21-.91.04-.2.05-.39.05-.59v-.02c0-.45,0-.88-.02-1.3,0-.25-.02-.5-.05-.73-.02-.52-.09-.98-.14-1.45,0-.09-.02-.16-.02-.23-.02-.18-.05-.36-.07-.54-.07-.48-.16-.95-.25-1.39-.05-.34-.13-.66-.21-.98-.07-.3-.16-.63-.25-.91-.07-.25-.16-.5-.23-.75-.25-.8-.54-1.55-.86-2.25-.07-.2-.14-.38-.21-.54-.09-.18-.16-.36-.25-.52-.55-1.2-1.16-2.25-1.73-3.22.14-.02.23-.05.27-.14.04-.02.05-.05.05-.07,0-.04.02-.09.02-.14,0-.11-.04-.23-.07-.38-.05-.14-.13-.3-.21-.48-.09-.16-.2-.36-.32-.55-.11-.21-.25-.43-.38-.64-.09-.14-.2-.29-.3-.45-.09-.14-.18-.3-.29-.45-.07-.11-.14-.23-.21-.34-.25-.43-.5-.88-.7-1.3-.07-.11-.13-.21-.16-.32-.02-.04-.04-.09-.07-.13-.04-.07-.07-.13-.09-.2-.07-.21-.14-.41-.2-.61-.09-.3-.14-.59-.14-.86v-.11c0-.07,0-.16.02-.23,0-.07.02-.14.04-.21v-.02c.02-.09.04-.13.07-.2,0-.04.02-.07.04-.11-.02-.02,0-.04.02-.05.02-.05.05-.09.07-.14v-.02l.02-.02s.04-.07.05-.11t.02-.04c.07-.05.12-.13.16-.16.07-.09.14-.16.21-.21.02-.02.04-.05.07-.07l.02-.02h.02s.07-.07.11-.11c.09-.07.2-.14.3-.2.07-.05.14-.11.23-.14.02-.02.04-.02.05-.02.05-.04.11-.05.16-.07h.02s.04-.04.05-.04.04-.02.05-.02c.04-.02.05-.04.09-.04.05-.04.11-.05.16-.07.05-.02.13-.04.16-.05.02,0,.02-.02.04-.02.05-.02.11-.04.16-.05.41-.14.77-.2,1.14-.2.13,0,.27,0,.39.02.48.05.91.21,1.34.45.43.25.84.57,1.25.98.86.84,1.64,2,2.45,3.23l.02.02c.8,1.23,1.63,2.55,2.54,3.77.07.11.16.21.23.3,1.29,1.71,2.75,3.16,4.59,3.82.46.16.96.29,1.48.34h.04c.59.04,3.11-.34,3.11-.34Z"/>
          <path class="cls-9" d="m126.27,46.41c-2.81.59-13.44-17.82-10.75-22.55,2.73-3.32,4.86,6.11,8.23,10.75,3.32,4.56,7.61,10.73,2.52,11.8Z"/>
          <path class="cls-25" d="m125.85,46.5c-2.7.59-12.92-17.78-10.34-22.48,2.62-3.3,4.86,5.95,8.1,10.56,3.18,4.53,7.13,10.86,2.24,11.93Z"/>
          <path class="cls-9" d="m128.63,39.53c.39.3.56-.82.99-.81.75,2.18-1.85,2.65-2.22,1.15-.41-1.59-1.73-4.72-3.57-8-1.84-3.25-4.18-6.65-6.68-8.86l.88.13,1.18.16,2.63.38,2.66.38c1.54,1.16,2.88,2.5,3.95,3.86.13.14-1.05,2.72-1.38,3.09-.68.68-.93,1.89-.71,3.81.25,2.14,1.16,3.91,2.27,4.73,0,.02.02,0,.02,0Z"/>
          <path class="cls-25" d="m117.07,22.19c.08.71,1.79,1.36,5.84,4.86,4.75,4.11,13.65.73,12.56-2.12-.89-2.34-5.06-4.02-3.79-9.48,1.15-4.95-13.36-6.5-13.25-5.57,1.15,9.5-1.62,9.91-1.36,12.31Z"/>
          <path class="cls-25" d="m127.14,28.56c-.05,0-.09-.02-.14-.02-1.48-.14-3-.23-4.18-1.07-1.02-.73-1.86-1.36-2.57-1.91-.02,0-.02-.02-.02-.04-1.75-1.38-2.63-2.27-2.98-2.86v-.02c-.11-.18-.16-.34-.18-.46-.09-.75.11-1.3.36-2.02.55-1.54,1.45-3.79.66-10.29-.05-.46,3.97-.3,7.49.63-2.95,2.79-3.81,8.02-1.8,12.99.8,2.02,2,3.73,3.38,5.07Z"/>
          <path class="cls-31" d="m133.91,10.95c-.21,1.67-.56,3.36-.96,4.86,0,.02-.01.04-.02.06-.54,1.99-1.17,3.64-1.68,4.48-.03.06-.07.11-.1.16-.03.04-.06.08-.09.12-1.79,2.21-9.38.05-10.72-1.79-.01-.02-.03-.03-.04-.05-.02-.03-.04-.06-.06-.09-.04-.07-.07-.13-.11-.2-.65-1.2-1.5-3.05-2.09-5.18-.29-3.25.05-6.97,1.68-9.79,1.04-1.88,2.61-2.91,4.33-3.32.08-.04.16-.07.23-.11,0,.02,0,.04,0,.06,1.73-.36,3.58-.1,5.2.53,1.19.5,2.23,1.16,2.98,1.89.05.05.11.11.16.16s.1.11.15.17c1.38,1.6,1.54,4.78,1.14,8.03Z"/>
          <path class="cls-25" d="m132.46,5.13s0-.05.01-.14c0,0,0,0,0,0-.67-1.32-1.84-2.34-3.75-2.87-1.33.02-2.51.5-3.45,1.66-.87,1.58-1.17,3.26-1.05,5,0,0,2.66-7.56,8.24-3.65Zm1.35-.45c-.15-.47-.31-.92-1.04-1.76-.05-.06-.1-.11-.15-.17s-.11-.11-.16-.16c-.78-.78-1.82-1.43-2.98-1.89-1.62-.64-3.47-.89-5.2-.53-.07.01-.15.03-.23.05-1.72.41-3.29,1.44-4.33,3.32-2.92,5.25-1.16,11.97.41,14.97.04.07.07.13.11.2.02.03.04.06.06.09.01.01.03.03.04.05.55.7,2.24,1.4,4.16,1.85,1.48.34,3.1.52,4.45.44.84-.05,1.58-.21,2.11-.5.01,0,.02,0,.03-.01.05-.03.09-.05.14-.09h0c.31-.21.53-.48.63-.8.14-.48.6-1.95,1.07-3.85,0-.02.01-.04.02-.06.36-1.46.72-3.16.96-4.86.33-2.33.41-4.65-.09-6.27Z"/>
          <path class="cls-25" d="m131.69,25.64c-2.83-.81-10.95-4.11-12-5.93-.73-1.27-1.41-3.66-1.65-6.39-.29-3.25.05-6.97,1.68-9.79.84-1.46,2.82-2.61,4.33-3.32.08-.04.16-.07.23-.11,0,.02,0,.04,0,.06-.27,1.74-2.16,3.17-1.79,5.11,1.26,6.76,5.52,9.83,10.28,9.64-.88,2.19-1.33,3.99-1.52,5.44,0,.06-.01.12-.02.17h0c-.48,3.92.92,5.25.46,5.12Z"/>
          <polygon class="cls-36" points="129.63 22.8 126.38 17 132.34 14.23 129.63 22.8"/>
          <path class="cls-39" d="m127.48,18.32c.09.04.17.07.25.11.5.2,1.02.32,1.52.36,1.6-.72,2.65-2.64,3.27-4.69.41-1.35.63-2.75.72-3.89,0-.11.01-.22.02-.32.76-3.84.29-5.79-.98-6.79-.67-.53-1.57-.79-2.62-.93-.32-.04-.63-.06-.94-.06,1.91.53,3.08,1.55,3.75,2.87h0c0,.09-.01.14-.01.14-5.59-3.9-8.24,3.66-8.24,3.66-.11-1.75.18-3.42,1.05-5.01-.55.68-1.02,1.59-1.39,2.77-.23.74-.43,1.58-.58,2.55-.75,4.73,1.54,8.05,4.18,9.23Z"/>
          <path class="cls-25" d="m123.39,19.67l1.38,1.01,6.79,5c-.72-1.51-1.53-3.04-2.34-4.56-.5-.94-.86-1.95-1.47-2.8-1.66-2.34-2.73-3.94-3.26-9.54-.17-1.74.18-3.42,1.05-5,.54-.97,1.3-1.91,2.31-2.8.12-.11.24-.21.37-.32-.04.02-.26.12-.61.29-.83.43-2.39,1.31-3.9,2.66-3.4,3.04-6.52,8.42-.33,16.06Z"/>
          <path class="cls-9" d="m122.25,12.26c-.83-3.53-.34-7.87,1.93-11.06-6.15,5.72-6.21,13.69,3.49,19.95-1.67-2.39-4.6-5.41-5.42-8.89Z"/>
          <path class="cls-9" d="m125.78,2.14c1.19-.69,2.81-1,4.22-.53-2.75-1.6-5.65-.73-6.84,3.48.68-.87,1.45-2.27,2.62-2.95Z"/>
          <path class="cls-25" d="m132.47,4.99c1.2,2.38.77,5.74.05,9.11-.48,2.28-1.1,4.55-1.44,6.51-.39,2.25-.39,4.08.6,5.03l-.07-4.82c1.69-5.11,3.48-13.64,2.19-16.14-.44-.86-1.02-1.45-1.64-1.86-1.83-1.22-4.01-.84-4.01-.84.19.04.38.09.55.14,1.91.53,3.08,1.55,3.75,2.87,0,0,0,0,0,0Z"/>
          <path class="cls-9" d="m140.19,52.38l-13.36-5.09c-1.64-.63-2.96-1.55-3.84-3.06l-.95-1.29,1.47,1.52.66.67c.32.34.66.54,1.03.81.04.02.07.05.13.09.43.29.87.44,1.35.66,3.88,2.04,10.49,4.48,13.15,5.56.14.05.25.11.36.14Z"/>
          <path class="cls-9" d="m139.94,52.38c-2.66-1.07-9.27-3.52-13.15-5.56l13.15,5.56Z"/>
          <path class="cls-9" d="m125.45,24.59s2.76,1.95,4.64,1.92c0,0-.95.64-2.61-.07-1.66-.71-2.03-1.85-2.03-1.85Z"/>
          <path class="cls-25" d="m141.78,50.64l-1.18,2c-.09-.04-.2-.07-.3-.13-.11-.04-.21-.09-.36-.14-2.66-1.07-9.27-3.52-13.15-5.56-.5-.27-.95-.52-1.34-.75-.05-.04-.09-.07-.13-.09-.38-.27-.71-.57-1.04-.91l-.45-.5v-.02c-.36-1.57,1.59-2.55,3.2-2.64,1.63-.11,14.06,7.97,14.68,8.66.02.04.04.05.05.07Z"/>
          <path class="cls-25" d="m128.09,28.89c-.55-.05,2.57,11.21,1.52,11.64-.82.32-1,1.54-3.82-5.15-.02.02-.39-.55-.41-.55-.18.07-1.46-2.99-1.62-2.96-.57.2-1.07.32-1.46.34-.16,0-.3-.02-.41-.05-2.27-.66-4-2.38-5.18-4-.36-.48-.66-.96-.91-1.43-.02-.04-.04-.09-.07-.13-.14-.27-.27-.52-.38-.75-.09-.18-.16-.36-.21-.5-.05-.07-.07-.16-.09-.21.09-.52.25-.98.52-1.36.02-.02.02-.04.05-.05t.02-.04c.04-.05.09-.11.13-.16t.04-.02c.04-.05.09-.09.14-.14l.05-.05h.02v-.02s.05-.04.07-.05l.02-.02h.02s.07-.07.11-.11c.09-.07.2-.14.3-.2.07-.05.14-.11.23-.14.02-.02.04-.02.05-.02.05-.04.11-.05.16-.07h.02s.04-.04.05-.04.04-.02.05-.02c.04-.02.05-.04.09-.04l.07.04v.02l1.86,1.13,3.2,1.91v.02l1.97,1.18.02.02,2.72,1.63,1.09.35Z"/>
          <g>
            <path class="cls-39" d="m141.94,50.75c.54.11,1.72.32,1.9.33.17.02.73.08.84.1.1.02.28.09.41.1.02,0,.03,0,.05,0,.08,0,.24-.03.33,0,.04.01.07.03.08.07.02.13-.08.42-.5.43-.41.02-.98-.02-1-.02.01.01.15.15.38.4.07.08.15.17.24.27.38.43.56.53.78.87.22.34.71.75.67,1.04,0,.05-.02.09-.05.12-.1.12-.32,0-.52-.26-.09-.11-.18-.22-.26-.32-.01-.01-.02-.03-.03-.04-.16-.18-.3-.32-.36-.39-.1-.11-.45-.48-.5-.47-.01,0-.02.01-.03.02h0s0,0,0,.01c0,.03.02.09.06.14.07.08.42.45.47.54.05.09.16.42.19.56.03.14.04.36-.04.45-.06.06-.15.08-.23.04,0,0,0,0,0,0-.02-.01-.05-.03-.06-.05-.08-.09-.13-.23-.19-.37-.02-.04-.09-.1-.12-.21-.02-.11-.1-.22-.13-.25-.03-.03-.32-.41-.37-.44-.03-.01-.05-.01-.07,0,0,0,0,0,0,0,0,0,0,0,0,0-.01,0-.02.03-.02.04,0,.05.16.25.25.36.08.12.22.32.26.36.03.04.13.08.14.16,0,.03,0,.06,0,.1,0,.06-.02.13-.1.17-.05.02-.1.04-.14.05,0,0,0,0,0,0,0,0,0,0,0,0-.07.01-.13,0-.16-.02-.06-.05-.1-.13-.11-.15-.02-.02-.05-.06-.05-.06,0,0,.03.09-.04.16h0s-.02.02-.04.03c-.05.03-.11.06-.17.08-.06.02-.12.04-.14.04-.04,0-.19-.09-.26-.14-.06-.04-.16-.19-.23-.29,0,0,0,0,0,0-.01-.02-.02-.03-.03-.05-.06-.1-.22-.35-.32-.45-.1-.1-.35-.23-.49-.36-.14-.13-.44-.35-.64-.65-.2-.3-.57-.58-.7-.72-.13-.13-1.23-.52-1.23-.52,0,0,0-.03-.02-.09-.04-.25-.09-.97.41-1.38,0,0,1.4.52,1.94.63Zm1.33,2.98h0s.16.31.18.36c.03.05.16.2.16.2,0,0,.07-.01.13,0,0,0,0,0,0,0,.05,0-.37-.56-.39-.56-.02,0-.09.02-.09.02Z"/>
            <path class="cls-18" d="m145.12,51.28s-.03,0-.05,0c-.08,0-.16.04-.16.06,0,.04.07.06.13.07.06.01.33.03.37-.02.03-.03.04-.09.04-.12-.09-.02-.25,0-.33,0Z"/>
            <path class="cls-18" d="m144.45,54.43s-.02.1-.08.14c-.06.04-.18.07-.18.07,0,0,.02.04.04.04,0,0,0,0,0,0,0,0,0,0,0,0,.05-.01.1-.03.14-.05.07-.04.1-.1.1-.17,0-.01-.02-.02-.03-.02Z"/>
            <path class="cls-18" d="m143.67,54.64s-.03.08-.03.08c.05-.02.11-.05.17-.08.02-.01.03-.02.04-.03,0,0-.08.02-.1.01-.02,0-.06-.01-.08.01Z"/>
          </g>
          <path class="cls-25" d="m138.69,52.51l2.73.5,1.21-2.3-2.94-1.88s-2.17,1.31-.99,3.68Z"/>
          <path class="cls-9" d="m138.69,52.51l2.73.5,1.21-2.3-2.94-1.88s-2.17,1.31-.99,3.68Z"/>
          <path class="cls-9" d="m138.69,52.51l2.73.5,1.21-2.3-2.94-1.88s-2.17,1.31-.99,3.68Z"/>
          <path class="cls-9" d="m125.53,35.17s-1.27-2.1-1.79-3.29c-.46-1.09-1.41-2.39-2.93-3.79-2.83-2.59-3.68-5.48-3.64-5.48,0,0,.64,1.81,3,4.42,2.53,2.49,3.65,3.02,4.11,4.68.33,1.19,1.25,3.47,1.25,3.47Z"/>
          <path class="cls-39" d="m139.87,113.68l.37.81.34.76c.05-.07.11-.11.16-.14.5-.3,1.29-.2,2.13.11l-.17-.95-.16-.89c-.88.17-1.77.27-2.67.32Z"/>
          <path class="cls-26" d="m139.87,113.68l.37.81c.64-.13,1.74-.3,2.46-.23l-.16-.89c-.88.17-1.77.27-2.67.32Z"/>
          <path class="cls-9" d="m128.09,29.86s-.04,6.48.53,7.83.99,2.15.99,2.15c0,0-.89-2.45-.99-3.98s-.53-6-.53-6Z"/>
          <path class="cls-9" d="m120.21,20.6s3.01,6.56,4.52,7.96c1.51,1.4,1.44,5.07,2.02,6.36.58,1.28,1.01,2.71,1.01,2.71,0,0-.84-2.58-1.01-4.27s-.78-4.41-1.66-5.8c-.88-1.39-2.71-2-4.88-6.95Z"/>
          <path class="cls-26" d="m125.31,12.29s.01-2.36,1.86-3.73c.99-.73,2.08,0,4.8,0,1.07,0,1.17-1.62,1.17-1.88,0,0,.43-2.65-3.33-1.05-1.33.02-2.51.5-3.45,1.66-.87,1.58-1.17,3.26-1.05,5Z"/>
          <path d="m133.14,6.67s-.39,1.91-3.71,1.14c-3.71-.86-3.71,7.42-3.71,7.42,0,0-1.5-15.3,7.42-8.56Z"/>
          <path class="cls-25" d="m124.57,4.1s-.29.51-.29.57c.05.37-.51,5.36-.33,6.58.18,1.17,2.33,4.83,2.33,4.83-.86-4-.15-7.3,1.71-9.7.94-1.16,2.37-1.6,5.55.8.02-.32-.77-2.8-1-3.55-.03-.1-.06-.19-.1-.29-.13-.32-1.82-.76-2.09-.97-.75-.56-1.38-.13-2.64-.28-.08,0,.36.29.29.29-.51-.05-.57.29-.57.29,0,0-2.81,1.53-2.85,1.43Z"/>
          <path class="cls-9" d="m126.86,3.82c1.19-.69,2.6-.1,4.01.37-2.75-1.6-7.43,2.49-6.86,7.91,0-5.99,1.68-7.59,2.85-8.28Z"/>
          <path class="cls-26" d="m126.89,17.04l1.07,1.6c.5.2.8.27,1.3.14,1.6-.72,2.65-2.64,3.27-4.69.29-1.34.53-2.67.64-3.95h0s-2.54,7.43-3.88,7.96c-1.25.5-2.36-1.04-2.4-1.07Z"/>
          <path class="cls-9" d="m132.47,4.99c.72,1.43.86,3.22.69,5.16-.11,1.27-.35,2.61-.64,3.95-.49,2.28-1.11,4.55-1.44,6.51-.39,2.25-.39,4.08.6,5.03l-.07-4.82c1.15-2.97,3.48-13.63,2.19-16.14-.44-.86-1.02-1.45-1.63-1.86-1.83-1.22-4.01-.84-4.01-.84.19.04.38.09.55.14,1.91.53,3.08,1.55,3.75,2.87h0Z"/>
        </g>
      </g>
      <path class="cls-28" d="m177.83,157.12l12.94-7.47c4.41-2.55,7.14-8.01,7.14-15.78,0-15.55-10.91-34.45-24.38-42.22-6.73-3.89-12.83-4.25-17.24-1.71l-12.94,7.47,34.47,59.71Z"/>
      <path class="cls-22" d="m136.22,113.19c0-15.55,10.91-21.85,24.38-14.07,13.46,7.77,24.38,26.68,24.38,42.22,0,15.55-10.91,21.85-24.38,14.07-13.46-7.77-24.38-26.68-24.38-42.22Z"/>
      <path class="cls-22" d="m166.2,163.83l9.48-5.47c4.41-2.55,7.14-8.01,7.14-15.78,0-15.55-10.91-34.45-24.38-42.22-6.73-3.89-12.83-4.25-17.24-1.71l-9.48,5.47,34.47,59.71Z"/>
      <path class="cls-22" d="m124.59,119.9c0-15.55,10.91-21.85,24.38-14.07,13.46,7.77,24.38,26.68,24.38,42.22,0,15.55-10.91,21.85-24.38,14.07-13.46-7.77-24.38-26.68-24.38-42.22Z"/>
      <g>
        <path class="cls-28" d="m171.32,158.12l9.48-5.48c-.38.8-.8,1.53-1.29,2.19l-9.47,5.47c.48-.65.9-1.39,1.28-2.19Z"/>
        <path class="cls-28" d="m172.73,154.03l9.48-5.48c-.12.59-.28,1.16-.46,1.71l-9.47,5.47c.17-.55.33-1.11.45-1.7Z"/>
        <path class="cls-28" d="m173.26,150.44l9.47-5.47c-.02.52-.08,1.03-.15,1.53l-9.47,5.47c.07-.5.12-1.01.15-1.53Z"/>
        <path class="cls-28" d="m173.34,147.1l9.47-5.47c.02.31.03.62.02.94,0,.16,0,.33,0,.49l-9.47,5.47c0-.16,0-.33,0-.49,0-.32,0-.63-.02-.94Z"/>
        <path class="cls-28" d="m173.11,143.95l9.47-5.47c.06.46.11.91.14,1.37l-9.47,5.47c-.03-.46-.08-.91-.14-1.37Z"/>
        <path class="cls-28" d="m172.66,140.93l9.47-5.47c.08.44.16.88.22,1.32l-9.47,5.47c-.07-.44-.14-.87-.22-1.32Z"/>
        <path class="cls-28" d="m172,138.01l9.47-5.47c.12.42.21.84.31,1.27l-9.47,5.47c-.1-.42-.2-.84-.31-1.27Z"/>
        <path class="cls-28" d="m171.2,135.2l9.47-5.47c.14.41.26.82.38,1.23l-9.47,5.47c-.12-.41-.24-.82-.38-1.23Z"/>
        <path class="cls-28" d="m170.25,132.47l9.47-5.47c.15.41.3.79.43,1.2l-9.47,5.47c-.13-.4-.28-.79-.43-1.2Z"/>
        <path class="cls-28" d="m169.16,129.8l9.47-5.47c.17.39.33.78.5,1.16l-9.47,5.47c-.16-.38-.33-.77-.5-1.16Z"/>
        <path class="cls-28" d="m167.94,127.22l9.47-5.47c.19.38.38.75.55,1.13l-9.47,5.47c-.17-.38-.36-.75-.55-1.13Z"/>
        <path class="cls-28" d="m166.61,124.71l9.47-5.47c.21.36.41.73.6,1.1l-9.47,5.47c-.2-.36-.4-.74-.6-1.1Z"/>
        <path class="cls-28" d="m165.16,122.25l9.47-5.47c.22.35.44.71.65,1.07l-9.47,5.47c-.21-.36-.43-.72-.65-1.07Z"/>
        <path class="cls-28" d="m163.6,119.87l9.47-5.47c.24.34.47.68.7,1.04l-9.47,5.47c-.23-.36-.46-.7-.7-1.04Z"/>
        <path class="cls-28" d="m161.92,117.56l9.47-5.47c.25.33.5.66.76,1.01l-9.47,5.47c-.26-.34-.51-.68-.76-1.01Z"/>
        <path class="cls-28" d="m160.1,115.34l9.47-5.47c.28.31.55.63.82.97l-9.47,5.47c-.27-.34-.54-.66-.82-.97Z"/>
        <path class="cls-28" d="m158.15,113.16l9.47-5.47c.29.31.59.62.88.94l-9.47,5.47c-.29-.32-.58-.63-.88-.94Z"/>
        <path class="cls-28" d="m156.05,111.1l9.47-5.47c.32.29.63.59.94.9l-9.47,5.47c-.31-.31-.63-.61-.94-.9Z"/>
        <path class="cls-28" d="m153.78,109.13l9.47-5.47c.34.28.68.56,1.02.86l-9.47,5.47c-.33-.3-.68-.58-1.02-.86Z"/>
        <path class="cls-28" d="m151.28,107.27l9.47-5.47c.38.26.75.52,1.11.8l-9.47,5.47c-.36-.28-.73-.54-1.11-.8Z"/>
        <path class="cls-28" d="m148.54,105.58l9.47-5.47c.16.07.3.16.44.24.28.16.55.32.8.49l-9.47,5.47c-.26-.17-.52-.33-.8-.49-.14-.08-.28-.17-.44-.24Z"/>
        <path class="cls-28" d="m145.46,104.07l9.47-5.47c.46.2.94.4,1.41.63l-9.47,5.47c-.48-.23-.95-.44-1.41-.63Z"/>
        <path class="cls-28" d="m141.77,102.91l9.47-5.47c.56.12,1.14.27,1.71.46l-9.48,5.48c-.57-.19-1.14-.34-1.7-.46Z"/>
        <path class="cls-28" d="m136.67,102.57l9.47-5.47c.81-.09,1.68-.1,2.56-.03l-9.48,5.48c-.88-.07-1.72-.06-2.54.02Z"/>
      </g>
      <path class="cls-28" d="m154.06,172.65l8.99-5.19c4.61-2.66,7.46-8.37,7.46-16.5,0-16.25-11.41-36.01-25.48-44.14-7.04-4.06-13.41-4.45-18.02-1.78l-8.99,5.19,36.04,62.42Z"/>
      <path class="cls-23" d="m110.55,126.72c0-16.25,11.41-22.84,25.48-14.71,14.07,8.13,25.48,27.89,25.48,44.14,0,16.25-11.41,22.84-25.48,14.71-14.07-8.13-25.48-27.89-25.48-44.14Z"/>
      <path class="cls-16" d="m135.72,114.96c.1.06.21.12.32.18,12.58,7.26,22.77,24.92,22.77,39.44,0,.17,0,.36,0,.54-.01.05-.01.11-.01.15-.3,14.02-10.37,19.6-22.75,12.46-12.58-7.26-22.77-24.92-22.77-39.44,0-14.39,10.03-20.3,22.45-13.32Z"/>
      <path class="cls-23" d="m135.72,114.96c.1.06.21.12.32.18,12.58,7.26,22.77,24.92,22.77,39.44,0,.17,0,.36,0,.54-.01.05-.01.11-.01.15-1.1,11.76-10.17,16.2-21.18,9.84-11.76-6.8-21.29-23.3-21.29-36.87,0-12.85,8.53-18.47,19.4-13.28Z"/>
      <path class="cls-16" d="m127.93,119.88c2.32-.64,5.13-.3,8.17,1.15.08.04.17.09.25.13,9.61,5.55,17.4,19.05,17.4,30.14,0,.14,0,.27,0,.41-.32,3.37-1.42,5.88-3.1,7.53-2.95,2.96-7.72,3.22-13.1.11-8.98-5.19-16.26-17.8-16.26-28.17,0-6.21,2.61-10.22,6.66-11.3Z"/>
      <path class="cls-46" d="m127.93,119.88c2.32-.64,5.13-.3,8.17,1.15.08.04.17.09.25.13,9.61,5.55,17.4,19.05,17.4,30.14,0,.14,0,.27,0,.41-.32,3.37-1.42,5.88-3.1,7.53-2.69.74-6.01.18-9.61-1.91-8.98-5.19-16.26-17.8-16.26-28.17,0-4.16,1.18-7.33,3.17-9.28Z"/>
      <path class="cls-14" d="m131.73,129.76c0,3.53-1.3,6.39-2.89,6.39s-2.89-2.86-2.89-6.39,1.3-6.39,2.89-6.39,2.89,2.86,2.89,6.39Z"/>
      <path class="cls-14" d="m131.21,140.25c.28,1.22-.1,2.34-.84,2.52-.75.17-1.58-.67-1.86-1.89s.1-2.34.84-2.52c.75-.17,1.58.67,1.86,1.89Z"/>
      <path class="cls-23" d="m89.66,118.13c11.39-.76,20.93,5.33,29.67,14.33,2.47,2.55,5.83,4.05,9.38,4.19l9.61-.82c3.23-.27,6.31,1.46,7.72,4.38,1.49,3.13.93,6.73-1.39,9.14l-5.87,6.09c-2.06,2.46-2.86,5.73-2.19,8.87,2.03,9.53.98,18.45-3.13,26.76l23.73-20.23c12.26-18.72-7.53-62.52-34.7-63.2l-32.83,10.48Z"/>
      <path class="cls-22" d="m152.96,92.04l3.47-2c.87-.5,1.41-1.58,1.41-3.12,0-3.08-2.16-6.82-4.82-8.36-1.33-.77-2.54-.84-3.41-.34l-3.47,2,6.82,11.82Z"/>
      <path class="cls-48" d="m144.72,83.35c0-3.08,2.16-4.32,4.82-2.79,2.66,1.54,4.82,5.28,4.82,8.36s-2.16,4.32-4.82,2.79c-2.66-1.54-4.82-5.28-4.82-8.36Z"/>
      <path class="cls-22" d="m147.25,84.81c0-1.46,1.03-2.06,2.29-1.32,1.27.73,2.29,2.51,2.29,3.97,0,1.46-1.03,2.06-2.29,1.32-1.27-.73-2.29-2.51-2.29-3.97Z"/>
      <path class="cls-22" d="m153.05,77.37l5.7-3.29c1.44-.83,2.32-2.61,2.32-5.14,0-5.06-3.55-11.21-7.93-13.74-2.19-1.26-4.17-1.38-5.61-.56l-5.7,3.29,11.22,19.44Z"/>
      <path class="cls-16" d="m139.5,63.07c0-5.06,3.55-7.11,7.93-4.58,4.38,2.53,7.93,8.68,7.93,13.74,0,5.06-3.55,7.11-7.93,4.58-4.38-2.53-7.93-8.68-7.93-13.74Z"/>
      <path class="cls-9" d="m139.5,63.07c0-5.06,3.55-7.11,7.93-4.58,4.38,2.53,7.93,8.68,7.93,13.74,0,5.06-3.55,7.11-7.93,4.58-4.38-2.53-7.93-8.68-7.93-13.74Z"/>
      <path class="cls-14" d="m241.18,99.36c-1.19-.69-2.15-2.36-2.15-3.73s.96-1.93,2.15-1.24l15.81,9.13c1.19.69,2.15,2.36,2.15,3.73s-.96,1.93-2.15,1.24l-15.81-9.13Z"/>
      <path class="cls-37" d="m253.78,78.67v3.46c0,1.69,1.11,3.37,3.34,4.66,4.46,2.57,11.69,2.57,16.15,0,2.23-1.29,3.34-2.97,3.34-4.66v-3.46h-22.84Z"/>
      <path class="cls-47" d="m273.28,74.01c4.46,2.57,4.46,6.75,0,9.32-4.46,2.57-11.69,2.57-16.15,0-4.46-2.57-4.46-6.75,0-9.32,4.46-2.57,11.69-2.57,16.15,0Z"/>
      <path class="cls-37" d="m257.61,72.29v5.51c0,1.12.74,2.24,2.22,3.1,2.96,1.71,7.77,1.71,10.74,0,1.48-.86,2.22-1.98,2.22-3.1v-5.51h-15.18Z"/>
      <path class="cls-47" d="m270.57,69.19c2.97,1.71,2.97,4.49,0,6.2-2.96,1.71-7.77,1.71-10.74,0-2.97-1.71-2.97-4.49,0-6.2,2.96-1.71,7.77-1.71,10.74,0Z"/>
      <path class="cls-50" d="m218.09,74.8l-17.7-9.96c-.4-.22-.64-.64-.64-1.1v-2.87c0-.97,1.04-1.57,1.88-1.1l17.7,9.96c.4.22.64.64.64,1.1v2.87c0,.97-1.04,1.57-1.88,1.1Z"/>
      <g>
        <path class="cls-12" d="m236.95,234c.29.71-.83,1.85-2.97,3.21-1.24.8-2.83,1.67-4.69,2.58h0c-.37.19-.76.37-1.16.56-.5.23-1.01.47-1.54.71l-.06.02c-2.53,1.12-5.4,2.28-8.48,3.37-.8.28-1.58.55-2.34.8,0,.01,0,.01-.02,0-1.92.65-3.71,1.19-5.36,1.63-.69.19-1.36.36-2,.52,0,0-.01,0-.02,0-1.64.41-3.11.68-4.37.86-1.17.17-2.17.24-2.97.21-.01,0-.02,0-.03,0-1.27-.05-2.04-.34-2.26-.86-.16-.38,0-.84.44-1.39.38-.47.96-.99,1.75-1.54.11-.08.23-.16.36-.25.02,0,.03-.02.04-.03.2-.14.41-.28.64-.42.63-.39,1.34-.8,2.14-1.24h.04c.23-.14.47-.26.72-.38.64-.33,1.33-.67,2.07-1.01.52-.24,1.07-.48,1.63-.73,2.02-.87,4.31-1.78,6.86-2.69l.53-.19c2.69-.95,5.28-1.76,7.67-2.43,1.68-.46,3.26-.85,4.71-1.16.31-.07.62-.13.92-.19.1-.01.2-.04.29-.06.13-.02.26-.05.38-.07.11-.02.23-.04.33-.06.55-.09,1.06-.18,1.55-.25.14-.02.28-.03.42-.05.05,0,.09-.01.14-.01.04,0,.08-.02.11-.02h0c.58-.06,1.11-.11,1.59-.13,1.65-.07,2.7.15,2.92.69Z"/>
        <path class="cls-17" d="m233.96,204.94c.29.71-.83,1.85-2.97,3.21-1.24.8-2.83,1.67-4.69,2.58h0c-.37.19-.76.37-1.16.56-.5.23-1.01.47-1.54.71l-.06.02c-2.53,1.12-5.4,2.28-8.48,3.37-.8.28-1.58.55-2.34.8,0,.01,0,.01-.02,0-1.92.65-3.71,1.19-5.36,1.63-.69.19-1.36.36-2,.52,0,0-.01,0-.02,0-1.64.41-3.11.68-4.37.86-1.17.17-2.17.24-2.97.21-.01,0-.02,0-.03,0-1.27-.05-2.04-.34-2.26-.86-.16-.38,0-.84.44-1.39.38-.47.96-.99,1.75-1.54.11-.08.23-.16.36-.25.02,0,.03-.02.04-.03.2-.14.41-.28.64-.42.63-.39,1.34-.8,2.14-1.24h.04c.23-.14.47-.26.72-.38.64-.33,1.33-.67,2.07-1.01.52-.24,1.07-.48,1.63-.73,2.02-.87,4.31-1.78,6.86-2.69l.53-.19c2.69-.95,5.28-1.76,7.67-2.43,1.68-.46,3.26-.85,4.71-1.16.31-.07.62-.13.92-.19.1-.01.2-.04.29-.06.13-.02.26-.05.38-.07.11-.02.23-.04.33-.06.55-.09,1.06-.18,1.55-.25.14-.02.28-.03.42-.05.05,0,.09-.01.14-.01.04,0,.08-.02.11-.02h0c.58-.06,1.11-.11,1.59-.13,1.65-.07,2.7.15,2.92.69Z"/>
        <path class="cls-53" d="m282.21,209.18c.29.71-.83,1.85-2.97,3.21-1.24.8-2.83,1.67-4.69,2.58h0c-.37.19-.76.37-1.16.56-.5.23-1.01.47-1.54.71l-.06.02c-2.53,1.12-5.4,2.28-8.48,3.37-.8.28-1.58.55-2.34.8,0,.01,0,.01-.02,0-1.92.65-3.71,1.19-5.36,1.63-.69.19-1.36.36-2,.52,0,0-.01,0-.02,0-1.64.41-3.11.68-4.37.86-1.17.17-2.17.24-2.97.21-.01,0-.02,0-.03,0-1.27-.05-2.04-.34-2.26-.86-.16-.38,0-.84.44-1.39.38-.47.96-.99,1.75-1.54.11-.08.23-.16.36-.25.02,0,.03-.02.04-.03.2-.14.41-.28.64-.42.63-.39,1.34-.8,2.14-1.24h.04c.23-.14.47-.26.72-.38.64-.33,1.33-.67,2.07-1.01.52-.24,1.07-.48,1.63-.73,2.02-.87,4.31-1.78,6.86-2.69l.53-.19c2.69-.95,5.28-1.76,7.67-2.43,1.68-.46,3.26-.85,4.71-1.16.31-.07.62-.13.92-.19.1-.01.2-.04.29-.06.13-.02.26-.05.38-.07.11-.02.23-.04.33-.06.55-.09,1.06-.18,1.55-.25.14-.02.28-.03.42-.05.05,0,.09-.01.14-.01.04,0,.08-.02.11-.02h0c.58-.06,1.11-.11,1.59-.13,1.65-.07,2.7.15,2.92.69Z"/>
        <path class="cls-13" d="m255.93,183.28c.29.71-.83,1.85-2.97,3.21-1.24.8-2.83,1.67-4.69,2.58h0c-.37.19-.76.37-1.16.56-.5.23-1.01.47-1.54.71l-.06.02c-2.53,1.12-5.4,2.28-8.48,3.37-.8.28-1.58.55-2.34.8,0,.01,0,.01-.02,0-1.92.65-3.71,1.19-5.36,1.63-.69.19-1.36.36-2,.52,0,0-.01,0-.02,0-1.64.41-3.11.68-4.37.86-1.17.17-2.17.24-2.97.21-.01,0-.02,0-.03,0-1.27-.05-2.04-.34-2.26-.86-.16-.38,0-.84.44-1.39.38-.47.96-.99,1.75-1.54.11-.08.23-.16.36-.25.02,0,.03-.02.04-.03.2-.14.41-.28.64-.42.63-.39,1.34-.8,2.14-1.24h.04c.23-.14.47-.26.72-.38.64-.33,1.33-.67,2.07-1.01.52-.24,1.07-.48,1.63-.73,2.02-.87,4.31-1.78,6.86-2.69l.53-.19c2.69-.95,5.28-1.76,7.67-2.43,1.68-.46,3.26-.85,4.71-1.16.31-.07.62-.13.92-.19.1-.01.2-.04.29-.06.13-.02.26-.05.38-.07.11-.02.23-.04.33-.06.55-.09,1.06-.18,1.55-.25.14-.02.28-.03.42-.05.05,0,.09-.01.14-.01.04,0,.08-.02.11-.02h0c.58-.06,1.11-.11,1.59-.13,1.65-.07,2.7.15,2.92.69Z"/>
        <g>
          <polygon class="cls-46" points="223.8 82.48 201.15 94.63 200.07 97.48 192.94 116.32 189.22 126.12 200.54 144.34 223.19 132.19 235.12 100.7 223.8 82.48"/>
          <path class="cls-46" d="m235.11,131.39c-8.28,14.83-26.79,13.92-32.71,13.21-1.18-.14-1.86-.28-1.86-.28,0,0,.08-.26.25-.77.5-1.73,1.91-6.31,4-12.51,2.37-7.23,5.67-16.65,9.47-26.38.5-1.33,1.03-2.69,1.59-4.02,2.49-6.2,5.19-12.42,7.96-18.15,0,0,.25.14.71.4.35.19.81.44,1.33.75.71.42,1.56.94,2.52,1.54.53.33,1.03.68,1.54,1.01,2.39,1.61,4.41,3.25,6.07,4.94.63.61,1.21,1.24,1.74,1.87.18.21.35.42.5.63.13.14.23.28.33.42.2.26.38.54.55.8,8.03,11.25,3.2,23.69-3.98,36.56Z"/>
          <path class="cls-23" d="m236.88,121.97s5.03-4.79,5.59-7.77c.55-2.98,4.2-11.97-4.45-20.84-11.99,2.41-10.53,23.73-10.53,23.73l9.4,4.89Z"/>
          <path class="cls-46" d="m236.88,121.97l-.03-.02-12.99-9.94-7.43-5.68-2.17-1.66-13.07-10.01s-.05-.02-.05-.02l22.66-12.14s.25.14.71.4c.35.19.81.44,1.33.75.71.42,1.56.94,2.52,1.54.48.33,1.01.68,1.54,1.05,1.99,1.38,4.18,3.04,6.07,4.89.63.61,1.21,1.24,1.74,1.87.18.21.35.42.5.63.13.14.23.28.33.42.2.26.38.54.55.8.98,1.52,1.59,3.06,1.66,4.58.33,8.26-3.88,22.55-3.88,22.55Z"/>
          <path class="cls-23" d="m236.88,121.97s-8.59,7.67-17.75,9.78c-1.21.28-2.42.47-3.63.51-2.14.09-4.51-.12-6.92-.49-1.26-.21-2.52-.44-3.78-.73-8.06-1.8-15.56-4.91-15.56-4.91l11.91-31.5s.03,0,.05.02c.6.21,7.58,2.83,14.66,5.99.68.3,1.38.63,2.06.94,2.42,1.12,4.78,2.32,6.82,3.48.03,0,.08.02.1.05,8.54,4.82,11.84,16.14,12.01,16.84l.03.02Z"/>
          <path class="cls-23" d="m217.14,208.5s.36,1.24.39,2.16c.03.92-1.56,1.52-2.71,1.07-1.15-.45-1.19-1.2-.92-2.02.27-.83.92-1.69.92-1.69l2.31.48Z"/>
          <polygon class="cls-50" points="214.84 207.98 217.15 208.47 236.98 168.79 234.66 168.31 214.84 207.98"/>
          <path class="cls-50" d="m214.83,208.02c-.08.32.38.68,1.02.81.64.13,1.22-.01,1.3-.33.08-.32-.38-.68-1.02-.81-.64-.13-1.22.01-1.3.33Z"/>
          <path class="cls-23" d="m221.19,237.51s.36,1.24.39,2.16c.03.92-1.56,1.52-2.71,1.07-1.15-.45-1.19-1.2-.92-2.02.27-.83.92-1.69.92-1.69l2.31.48Z"/>
          <polygon class="cls-50" points="218.88 236.99 221.2 237.47 238.48 166.17 236.16 165.68 218.88 236.99"/>
          <path class="cls-50" d="m218.88,237.03c-.08.32.38.68,1.02.81.64.13,1.22-.01,1.3-.33.08-.32-.38-.68-1.02-.81-.64-.13-1.22.01-1.3.33Z"/>
          <path class="cls-23" d="m264.41,212.69s-.36,1.24-.39,2.16c-.03.92,1.56,1.52,2.71,1.07,1.15-.45,1.19-1.2.92-2.02-.27-.83-.92-1.69-.92-1.69l-2.31.48Z"/>
          <polygon class="cls-50" points="266.71 212.17 264.4 212.66 238.42 170.13 240.5 169.28 266.71 212.17"/>
          <path class="cls-50" d="m266.72,212.21c.08.32-.38.68-1.02.81-.64.13-1.22-.01-1.3-.33-.08-.32.38-.68,1.02-.81.64-.13,1.22.01,1.3.33Z"/>
          <g>
            <rect class="cls-23" x="235.82" y="185.98" width="3.64" height="3.2" transform="translate(475.28 375.16) rotate(180)"/>
            <path class="cls-23" d="m235.82,185.98c0,.5.81.9,1.82.9s1.82-.4,1.82-.9-.81-.9-1.82-.9-1.82.4-1.82.9Z"/>
            <path class="cls-23" d="m235.82,189.18c0,.5.81.9,1.82.9s1.82-.4,1.82-.9-.81-.9-1.82-.9-1.82.4-1.82.9Z"/>
            <path class="cls-23" d="m236.45,185.71c0,.32.53.59,1.19.59s1.19-.26,1.19-.59-.53-.59-1.19-.59-1.19.26-1.19.59Z"/>
          </g>
          <path class="cls-50" d="m236.45,185.74c0,.32.53.59,1.19.59s1.19-.26,1.19-.59-.53-.59-1.19-.59-1.19.26-1.19.59Z"/>
          <rect class="cls-50" x="236.45" y="127.72" width="2.37" height="58.02"/>
          <rect class="cls-23" x="233.39" y="163.08" width="8.27" height="7.27" transform="translate(475.05 333.44) rotate(180)"/>
          <path class="cls-46" d="m233.39,163.08c0,1.13,1.85,2.04,4.14,2.04s4.14-.91,4.14-2.04-1.85-2.04-4.14-2.04-4.14.92-4.14,2.04Z"/>
          <path class="cls-23" d="m233.39,170.35c0,1.13,1.85,2.04,4.14,2.04s4.14-.91,4.14-2.04-1.85-2.04-4.14-2.04-4.14.92-4.14,2.04Z"/>
          <rect class="cls-23" x="235.82" y="159.24" width="3.64" height="3.2" transform="translate(475.28 321.67) rotate(180)"/>
          <path class="cls-46" d="m235.82,159.24c0,.5.81.9,1.82.9s1.82-.4,1.82-.9-.81-.9-1.82-.9-1.82.4-1.82.9Z"/>
          <path class="cls-23" d="m235.82,162.43c0,.5.81.9,1.82.9s1.82-.4,1.82-.9-.81-.9-1.82-.9-1.82.4-1.82.9Z"/>
          <path class="cls-23" d="m236.45,158.96c0,.32.53.59,1.19.59s1.19-.26,1.19-.59-.53-.59-1.19-.59-1.19.26-1.19.59Z"/>
          <rect class="cls-46" x="235.82" y="124.98" width="3.64" height="3.2" transform="translate(475.28 253.16) rotate(180)"/>
          <path class="cls-41" d="m235.82,124.98c0,.5.81.9,1.82.9s1.82-.4,1.82-.9-.81-.9-1.82-.9-1.82.4-1.82.9Z"/>
          <path class="cls-46" d="m235.82,128.18c0,.5.81.9,1.82.9s1.82-.4,1.82-.9-.81-.9-1.82-.9-1.82.4-1.82.9Z"/>
          <path class="cls-23" d="m237.64,154.84c.66,0,1.19-.26,1.19-.59v4.71h-2.37v-4.71c0,.32.53.59,1.19.59Z"/>
          <path class="cls-46" d="m233.88,123.25c0,1.94,1.27,2.83,2.84,1.99,1.57-.84,2.84-3.09,2.84-5.03s-1.27-2.83-2.84-1.99c-1.57.84-2.84,3.09-2.84,5.03Z"/>
          <polygon class="cls-46" points="234.83 125.36 238.07 127.17 241.74 119.86 238.29 117.97 234.83 125.36"/>
          <path class="cls-23" d="m237.1,125.05c0,1.94,1.27,2.83,2.84,1.99,1.57-.84,2.84-3.09,2.84-5.03s-1.27-2.83-2.84-1.99c-1.57.84-2.84,3.09-2.84,5.03Z"/>
        </g>
      </g>
      <g>
        <path class="cls-55" d="m272.46,96.36c-.51.53-1.1,1-1.63,1.14-.37-.65-1.26-1.98-1.93-2.58-.67-.6-2.38-.41-3.35-1.44-.78-.81-.38-2.98-.17-4.1.03-.14.05-.26.07-.36.04-.2.17-.38.36-.44.18-.06.43-.09.79,0,.07.02.34.11.66.19.51.13,1.16.22,1.39-.05,0,0-.28-.1-.36-.86-.44-.45-.35-1.07-.19-1.51.05-.13.11-.19.17-.2.15-.03.34.2.41.41.11.29.43.66.65.73.14.31.25.45.35.51.1.06.24.48.46.63.22.15.37.47.3.81-.07.33.11,1.05.25,1.44.14.38.17.69.15.86.41.68,2.13,2.16,3,2.87-.03.24-.63,1.16-1.38,1.95Z"/>
        <path class="cls-45" d="m266.83,93.06s-.02.03-.03.05c-.13.21-.33.35-.53.42-.04.01-.07.02-.11.03-.25.06-.79-.02-.93-.08-.14-.06-.42-.29-.5-.54-.05-.17.04-.51.04-.51,0,0,.02-.04.09-.09.04-.03.1-.07.18-.1.51.27,1.26.33,1.65.22.12,0,.19.04.23.1.07.12,0,.32-.1.5Z"/>
        <path class="cls-33" d="m267.17,91.98s0,0,0,0c-.08.28-.31.58-.53.62-.04,0-.07.01-.11.01-.43.04-1-.09-1.3-.2-.33-.12-.57-.51-.6-.63-.02-.13.09-.49.09-.49,0,0,.02-.03.06-.07.06-.05.15-.12.27-.13.42.3,1.35.51,1.83.37.1,0,.17.03.22.08.11.1.12.27.07.44Z"/>
        <path class="cls-29" d="m267.36,91.09c-.07.1-.38.46-.68.49-.02,0-.04,0-.06,0-.33,0-.97-.12-1.3-.27-.35-.16-.58-.38-.6-.55,0-.25.14-.62.14-.62,0,0,.06-.08.17-.15.09-.05.2-.11.35-.13,0,0,.36.21.86.32.5.11,1.11-.08,1.22.25.11.33-.04.55-.11.65Z"/>
        <path class="cls-56" d="m267.61,89.92s-.39.23-.6.31c-.1.04-.19.06-.31.07-.14,0-.32-.02-.58-.07-.49-.1-.85-.3-1.06-.5-.2-.2-.13-.31-.02-.57.06-.13.15-.22.26-.29.11-.08.23-.13.32-.17.04-.02.08-.04.13-.07.16-.09.36.02.36.2,0,.01,0,.02,0,.02,0,0,.4.14.57.44.45-.25.91-.09,1.03.12.12.21-.07.5-.11.52Z"/>
      </g>
      <g>
        <ellipse class="cls-52" cx="306.01" cy="199.45" rx="51.33" ry="7.44" transform="translate(-37.03 73.97) rotate(-13)"/>
        <path class="cls-23" d="m299.93,189.9c.06.28.16.53.28.79.67,1.36,1.97,2.32,3.31,3.03,1.69.92,3.56,1.55,5.47,1.91,1.42.26,4.84,1.69,5.08,1.87.45.33,1.04.33,1.59.33,2.14-.02,3.82-.16,3.64-2.7-.1-1.53-.55-3.21-1.22-4.6-.16-.35-.37-.65-.61-.94-.43-.51-.98-.94-1.53-1.34-1.18-.89-2.68-2.24-4.27-1.89-.85.18-1.28.53-2.2.47-1.04-.06-2.1-.26-3.13-.49-.94-.22-1.85-.49-2.81-.57-.94-.06-1.95.14-2.7.75-.18.16-.33.33-.47.53-.55.81-.67,1.89-.41,2.85Z"/>
        <path class="cls-23" d="m282.87,193.15c-.02.67.12,1.34.41,1.93.57,1.14,1.55,1.99,2.66,2.68.22.12.41.24.63.35,1.71.92,3.56,1.55,5.47,1.89,1.42.26,4.86,1.71,5.1,1.89.43.33,1.02.33,1.57.33,2.14-.02,3.82-.18,3.66-2.71-.1-1.53-.57-3.21-1.22-4.6-.33-.73-.9-1.3-1.53-1.79-.2-.18-.41-.33-.63-.49-1.18-.89-2.68-2.22-4.27-1.89-.85.2-1.26.55-2.18.49-1.06-.06-2.12-.26-3.15-.51-.92-.22-1.85-.49-2.79-.55-.96-.06-1.97.12-2.7.73-.2.16-.35.33-.49.53-.04.08-.1.14-.12.22-.26.45-.39.96-.41,1.51Z"/>
        <path class="cls-28" d="m280.74,195.6c1.99,1.82,6.51,3.33,9.25,3.28,3.02-.05,21.01-1.73,23.34-3.41,1.78-1.28,3.26-2.91,5.07-4.15.83-.57,6.66-2.05,7.69-2.19.48-1.91-3.91-57.05-12.7-81.97-2.18-6.19,1.08-22.19,1.95-28.29.12-.83.72-3.65.69-4.21-.19-3.93-2.45-7.84-10.99-6.75l-11.96,3.28c-1.38.77-4.83,1.26-7.62,2.7-.14.07-.28.15-.42.23-1.74.99-.26,2.73-.61,4.89,0,0,1.06,16.94,1.15,23.07.07,4.81-4.18,75.94-4.83,93.52Z"/>
        <path class="cls-16" d="m280.74,195.68c1.99,1.82,6.51,3.32,9.25,3.28,3.01-.04,21-1.73,23.34-3.41,1.77-1.28,3.26-2.9,5.05-4.14.84-.58,6.68-2.06,7.69-2.19,0-2.17-.6-8-.84-13.54-2.77,4.24-3.66,7.4-3.95,8.7-9.25-22.72-5.73-33.84-6.53-49.03-3.48,19.79-.03,42.72-1.09,50.39-.44,3.19-3.12,6.25-6.33,6.14-4.32-.11-6.37-3.82-5.93-8.14.42-4.3-.2-10.89-1.09-15.12,0,7.66-.64,14.61-.82,17.73-.18,3.12-2.11,6.34-5.2,6.89-9.95,1.76-9.53-24.1-8.98-31.48l2.26-30.03c.38-4.81,3.2-10.47,6.43-14.06,2.61-2.92,6.53-4.23,10.28-5.43-5.14-.35-9.81-4.45-10.79-9.52-.82-4.12.86-8.65,4.03-11.38-.53-.6-1.17-1.2-1.97-1.84-.47-.35-.75-1-1-1.91-.4-.53-.75-1.11-1.02-1.71-.93-2.06-1.24-4.32-1.95-6.42-.13-.47-.31-.93-.51-1.37-.47-1-1.15-1.97-1.99-2.7-1.04-.93-2.33-1.51-3.63-1.4-.13.07-.29.16-.42.22-1.75,1-.27,2.75-.62,4.89,0,0,1.06,16.94,1.15,23.08.07,4.81-3.87,76.36-4.82,93.51Z"/>
        <path class="cls-1" d="m303.75,67.86c0,2.75-4.82,3.49-8.5,3.87,0,0-.02,0-.02,0-.76-.69-1.19-1.36-1.19-1.36l-.1-5.53,9.69-.85.19,3.78s-.07.06-.07.09Z"/>
        <path class="cls-39" d="m289.75,46.76c.42,2.45.15,4.96.02,7.44-.13,2.48-.11,5.05.84,7.35.94,2.3,2.99,4.3,5.47,4.5.59.05,1.21,0,1.73-.28,1.04-.54,4.82.14,5.2-.97.98-2.82-1.34-7.67-1.83-10.62-.43-2.54-1.96-4.81-3.89-6.51-1.63-1.44-3.57-2.54-5.64-3.19l-1.9,2.3Z"/>
        <path class="cls-23" d="m290.83,62.04s1.88,1,2.57,1.39c.18.1.29.17.3.38,0,.08-.02.19-.05.3.1.16,0,.4-.18.43-.02.04-.05.09-.07.12-.04.06-.12.1-.19.09-.5-.09-.97-.59-1.26-.98-.18-.24-.85-1.18-.93-1.4-.02-.05-.18-.34-.17-.33Z"/>
        <path class="cls-10" d="m289.02,75.07c.02.07.04.24.07.3.86.86,1.42,1.49,1.89,2.48.2.44.51,1.2.64,1.66.35.4.73.62,1.13.98,1.17,1.04,1.24,4.63,1.82,7,.24.91.53,1.64,1,1.99.8.64,1.44,1.24,1.97,1.84,3.46,3.92,2.85,15.15,7.13,20.24.51.6,5.03-16.55,6.01-26.64.1-.98,1.31-3.57,2.06-4.21.51-.4,1.06-2.44,1.2-3.1.29-1.66-3.9-.27-4.58.02-1.13.47-2.13,1.2-3.23,1.66-2.13.93-4.56.91-6.76.27-2.9-.86-5.45-2.81-7.04-5.36-.29-.44-.53-.93-.91-1.28-.38-.35-.93-.6-1.44-.49-.49.13-.86.6-1,1.09-.13.51-.07,1.04.07,1.55Z"/>
        <path class="cls-28" d="m313.82,77.08c-.18.3-.85,2.64-1.1,2.88-.04.04-.1.14-.2.28-.39.65-1.28,2.19-1.34,2.33-.47,1.22-.95,3.43-1.48,6.11,0,.06,0,.1-.02.16-.63,7.49-3.33,19.36-5.27,22.41-.34.54-1.25-3.82-2.22-6.26-.69-1.64-1.58-8.77-2.25-10.45-.83-2.05-1.56-3.71-2.01-3.98-.12-.08-3.23-2.37-3.37-3.1-.28-1.46.3-2.48-.77-6.86-.22-.89-4.5-4.87-4.71-5.24-.2-.35-1.26-1.03-1.52-1.12-.39-.1-2.21-.61-2.98-.3.28-2.33,4.87-5.34,6.21-7.29,1.32-1.93,3.86-4.46,3.98-8.32-.1-.39-.18-.77-.32-1.18-.75-2.33-3.57-3.75-3.96-3.94,0,0-1.89-1.18-1.93-2.27-.02-.77.26-2.27.32-2.5.2-.77.53-1.54.91-2.25.06-.14.16-.24.26-.39.28-.55.69-1.06,1.18-1.52.57-.65,1.26-1.2,2.01-1.62,3.49-1.95,7.93-1.62,11.51.14,2.15,1.03,4.06,2.6,5.17,4.69.04.02.04.06.08.08.2.41.39.83.55,1.24,0,.04.02.08.02.1.08.18.12.34.2.55.16.55.3,1.14.41,1.7.37,1.85.43,3.77.65,5.62.51,4.24,2.88,13.09,3.19,14.43.61,2.64.39,4.4-1.2,5.84Z"/>
        <path class="cls-23" d="m288.89,48.47c.18.18.35.35.52.51,1.9,1.77,4.19,2.8,6.69,3.44,5.05,1.29,10.69,1.95,15.11-1.23-.11-.58-.25-1.16-.42-1.72-.01,0-.03.02-.04.03-3.97,3.14-9.58,2-14.08.84-2.13-.55-4.11-1.37-5.73-2.89-.41-.39-.8-.81-1.15-1.25-.4.72-.71,1.49-.9,2.28Z"/>
        <path class="cls-23" d="m289.91,46.03l.02.02c1.33,1.84,4.11,3.31,6.5,3.93,4.79,1.25,10.09,2.27,14.3-.77,0-.02-.02-.07-.02-.09-.16-.43-.34-.86-.56-1.27-.02-.02-.02-.07-.07-.09-3.75,2.77-8.92,1.32-13.11.23-2.02-.52-3.87-1.57-5.4-3.04-.16-.16-.31-.32-.47-.48-.49.48-.9,1-1.19,1.57Z"/>
        <path class="cls-16" d="m287.45,74.32c.28.08,1.36.77,1.63,1.05.25.26.62.59.99,1.05.37.67.9.95,1.51,1.53.82.79,1.15,1.27,1.83,2.04-.49-.75-.73-3.03-.79-3.95-.15-2.48.57-4.92,1.46-7.23.89-2.31,1.97-4.57,2.59-6.97.62-2.4.75-5.02-.23-7.3.82,5.77-1.1,11.86-5.07,16.12-.62.67-3.36,2.93-3.93,3.64Z"/>
        <path class="cls-16" d="m312.52,80.25c-.39.65-1.28,2.19-1.34,2.33-.47,1.22-.95,3.43-1.48,6.11,1.01-8.4-1.1-23.11-3.35-29.85.79,1.62,1.56,3.29,1.97,5.05.51,2.27,1.12,5.4,1.22,7.73.08,2.33.02,4.22,1.14,5.89.32.49,1.16,1.99,1.85,2.74Z"/>
        <path class="cls-16" d="m300.65,91.12c0,1.17-.27,2.33-.71,3.43.66,1.68.81,5.65,1.49,7.31-.07-.16.02-3.25-.03-3.41-.29-1.28.26-1.76.31-3.06.18-4.34-.31-10.1-4.03-22.57,1.2,5.18,3.01,11.69,2.97,18.29Z"/>
        <path class="cls-28" d="m282.2,107.01c3.04.7,6.03-1.08,6.98-3.99v-.04c.04-.15.08-.32.13-.49l1.57-7.22c.74-6.71,1.72-13.65-1.87-19.42-.66-1-1.57-1.57-2.57-1.8-.7-.13-1.44-.11-2.16.08-.76.76-1.32,1.74-1.57,2.89l-3.33,18.17-.36,1.95-.62,3.38c-.72,3.23.59,5.75,3.8,6.5Z"/>
        <path class="cls-28" d="m266.85,94.89c4.73,4.95,10.32,9.85,14.33,12.52,3.04,2.02,6.92,0,7.85-3.74.06-.23.11-.47.15-.66v-.04c.36-2.42-1.49-1.72-3.57-4.03,0,0-1.78-1.06-4.12-2.46-.68-.4-1.4-.85-2.12-1.29-3.27-1.97-6.92-4.18-8.51-5.29-.15.19-.62.74-1.17,1.4-1.08,1.29-2.53,3.04-2.84,3.59Z"/>
        <path class="cls-16" d="m269.69,91.3c2.04,1.49,4.16,2.82,6.35,4.03,1.02.57,2.06,1.1,2.97,1.8.4.28.79.59,1.13.93,1.1,1.13,1.85,2.57,2.42,4.03-.19-1.91-.79-3.76-1.06-5.63-.13-.89-.19-1.78-.11-2.67.13-1.38.57-2.67.98-3.99,1.13-3.63,1.95-7.37,2.46-11.14.19-1.55.38-3.21,1.38-4.39.06-.08.15-.17.23-.23-.7-.13-1.44-.11-2.16.08-.76.76-1.32,1.74-1.57,2.89l-3.33,18.17c-3.27-1.97-6.92-4.18-8.51-5.29-.15.19-.62.74-1.17,1.4Z"/>
      </g>
      <path class="cls-28" d="m221.45,37.89l-26.46,15.38-13.8-7.97-7.17,4.17c-3.77,2.19-9.9,2.19-13.69,0l-12.89-7.44c-3.79-2.19-3.81-5.74-.04-7.93l26.8-15.58c3.77-2.19,9.9-2.19,13.69,0l33.56,19.38Z"/>
      <path class="cls-22" d="m179.36,24.59c1.29,4.3.87,5.34-1.74,6.85l-14.98,8.65c-2.61,1.51-6.85,1.51-9.46,0-2.61-1.51-2.61-7.11,0-8.62l14.98-5.49c2.61-1.51,6.85-1.51,9.46,0l1.74-1.39Z"/>
      <path class="cls-48" d="m177.61,22.82c2.61,1.51,2.59,3.97,0,5.46l-14.98,8.65c-2.61,1.51-6.85,1.51-9.46,0-2.61-1.51-2.61-3.96,0-5.46l14.98-8.65c2.61-1.51,6.85-1.51,9.46,0h0Z"/>
    </g>
  </g>
</svg>