<?xml version="1.0" encoding="UTF-8"?>
<svg id="Layer_1" data-name="Layer 1" xmlns="http://www.w3.org/2000/svg" xmlns:xlink="http://www.w3.org/1999/xlink" viewBox="0 0 458.52 287.78">
  <defs>
    <style>
      .cls-1 {
        fill: url(#linear-gradient-2);
      }

      .cls-2 {
        fill: #fff;
      }

      .cls-3 {
        fill: #d9dae1;
      }

      .cls-4 {
        fill: #f0f2f5;
      }

      .cls-5 {
        fill: #444552;
      }

      .cls-6 {
        fill: #004e63;
      }

      .cls-7 {
        fill: #e7e8ec;
      }

      .cls-8 {
        fill: #565762;
      }

      .cls-9 {
        fill: #bbb;
      }

      .cls-10 {
        fill: #c8cbdd;
      }

      .cls-11 {
        fill: #ba9c60;
      }

      .cls-12 {
        fill: url(#linear-gradient);
      }

      .cls-13 {
        fill: #8e92b2;
      }

      .cls-14 {
        fill: #252630;
      }
    </style>
    <linearGradient id="linear-gradient" x1="111.58" y1="135.23" x2="181.96" y2="304.63" gradientUnits="userSpaceOnUse">
      <stop offset=".11" stop-color="#8e92b2"/>
      <stop offset=".15" stop-color="#8e92b2" stop-opacity=".9"/>
      <stop offset=".24" stop-color="#8e92b2" stop-opacity=".67"/>
      <stop offset=".35" stop-color="#8e92b2" stop-opacity=".46"/>
      <stop offset=".45" stop-color="#8e92b2" stop-opacity=".29"/>
      <stop offset=".57" stop-color="#8e92b2" stop-opacity=".16"/>
      <stop offset=".69" stop-color="#8e92b2" stop-opacity=".07"/>
      <stop offset=".82" stop-color="#8e92b2" stop-opacity=".02"/>
      <stop offset="1" stop-color="#8e92b2" stop-opacity="0"/>
    </linearGradient>
    <linearGradient id="linear-gradient-2" x1="314.99" y1="117.93" x2="359.1" y2="227.73" xlink:href="#linear-gradient"/>
  </defs>
  <path class="cls-2" d="m321.37,251.36v1.86c-92.45,44.67-226.41,46.04-321.37,4.06v-1.82l11.81-6.82-1.34-25.07,48.23-27.4,126.6-30.77,48.84,26.13,87.24,59.82Z"/>
  <path class="cls-12" d="m321.37,251.36c-92.45,44.67-226.41,46.07-321.37,4.11l140.18-80.92,45.12-10.97,48.84,26.13,87.24,61.65Z"/>
  <g>
    <path class="cls-3" d="m20.93,126.15v117.98c0,.15.1.33.33.46.41.26,1.13.26,1.54,0,.23-.13.33-.28.33-.46v-118.01s-.13.05-.33.08c-.62.05-1.87.05-1.87-.05Z"/>
    <path class="cls-9" d="m21.25,125.67c-.43.25-.43.65,0,.9.43.25,1.13.25,1.56,0,.43-.25.43-.65,0-.9-.43-.25-1.13-.25-1.56,0Z"/>
    <path class="cls-9" d="m22.8,126.2v118.39c.23-.13.33-.28.33-.46v-118.01s-.13.05-.33.08Z"/>
    <polygon class="cls-7" points="21.26 244.6 21.38 185.58 21.25 126.57 21.13 185.58 21.26 244.6"/>
  </g>
  <g>
    <path class="cls-3" d="m16.92,244.51l.07.07,7.57,4.37c0-.29.07-.61.16-.9.11-.29.25-.56.43-.83,0-.02.02-.02.02-.05.25-.36.54-.72.97-.95.02,0,.02-.02.05-.02.34-.18.77-.27,1.06-.09-2.14-1.24-4.28-2.48-6.42-3.72-.38-.2-.77-.43-1.15-.65-.07-.04-.18-.09-.29-.11h-.34c-.09.02-.23.07-.34.11-.11.05-.25.11-.34.18-.11.07-.23.16-.34.25-.09.09-.2.2-.29.32-.07.09-.14.18-.2.27-.02.02-.04.05-.07.09-.07.11-.16.25-.23.38-.07.16-.11.27-.16.43v.02c-.07.14-.09.27-.11.43-.02.14-.04.27-.04.41Z"/>
    <path class="cls-9" d="m20.7,243.06l.07.07,5.36,3.09s.02-.02.05-.02c.34-.18.77-.27,1.06-.09-2.14-1.24-4.28-2.48-6.42-3.72-.05.09-.05.18-.07.27-.02.14-.04.27-.04.41Z"/>
    <path class="cls-9" d="m26.85,247.24c-.11-.02-.23,0-.34.05-.13.07-.25.16-.36.27-.14.13-.25.27-.32.45-.11.2-.18.43-.18.65l1.53-.88c0-.11-.02-.23-.07-.34-.07-.09-.16-.18-.27-.2Z"/>
    <path class="cls-3" d="m26.51,247.28c.11-.05.23-.07.34-.05.11.02.2.11.27.2.04.11.07.23.07.34.11-.07.23-.14.32-.23.07-.05.14-.11.18-.18.05-.04.07-.09.07-.14v-.2c-.02-.14-.05-.25-.07-.36-.04-.11-.09-.2-.16-.29-.04-.09-.11-.16-.2-.23-.02,0-.05-.02-.09-.05-.29-.18-.79-.13-1.13.05-.47.23-.81.61-1.06,1.01-.34.52-.49,1.16-.49,1.77.07.07.18.05.29.02.14-.02.25-.07.36-.11.16-.04.32-.11.45-.2,0-.23.07-.45.18-.65.07-.18.18-.32.32-.45.11-.11.23-.2.36-.27Z"/>
    <path class="cls-7" d="m17.07,243.65l7.64,4.39c.11-.29.25-.56.43-.83,0-.02.02-.02.02-.04l-7.64-4.42s-.05.05-.07.09c-.07.11-.16.25-.23.38-.07.16-.11.27-.16.43Z"/>
  </g>
  <g>
    <polygon class="cls-1" points="224.36 195.36 321.37 251.37 458.52 172.16 361.51 116.16 224.36 195.36"/>
    <polygon class="cls-2" points="458.52 172.16 458.52 174.02 321.37 253.22 321.37 251.37 458.52 172.16"/>
  </g>
  <g>
    <g>
      <polygon class="cls-13" points="384.4 13.32 384.4 129.47 361.54 116.27 361.54 .12 384.4 13.32"/>
      <polygon class="cls-3" points="384.4 13.49 384.4 129.47 247.23 208.57 247.23 92.42 384.4 13.49"/>
      <polygon class="cls-4" points="252.99 95.75 378.64 23.46 378.64 115.35 252.99 187.8 252.99 95.75"/>
      <polygon class="cls-13" points="247.23 92.42 247.23 208.57 224.36 195.38 224.36 79.22 247.23 92.42"/>
    </g>
    <g>
      <g>
        <g>
          <polygon class="cls-7" points="295.34 82.13 296.58 85.16 288.25 89.95 287.02 86.93 295.34 82.13"/>
          <polygon class="cls-3" points="286.44 82.96 291.61 79.96 295.34 82.13 287.02 86.93 283.28 84.78 286.44 82.96"/>
          <polygon class="cls-9" points="288.25 89.95 282.04 86.37 283.28 84.78 287.02 86.93 288.25 89.95"/>
        </g>
        <path class="cls-2" d="m295.34,82.13c-2.7,1.74-5.47,3.33-8.33,4.79,2.7-1.74,5.47-3.33,8.33-4.79Z"/>
      </g>
      <polygon class="cls-3" points="287.37 83.04 282.52 80.25 258.09 73.01 258.27 72.41 258.58 72.5 282.77 79.67 287.69 82.5 287.37 83.04"/>
    </g>
    <g>
      <g>
        <g>
          <polygon class="cls-7" points="341.18 55.8 342.42 58.83 334.09 63.62 332.85 60.6 341.18 55.8"/>
          <polygon class="cls-3" points="332.27 56.63 337.45 53.63 341.18 55.8 332.85 60.6 329.12 58.45 332.27 56.63"/>
          <polygon class="cls-9" points="334.09 63.62 327.88 60.04 329.12 58.45 332.85 60.6 334.09 63.62"/>
        </g>
        <path class="cls-2" d="m341.18,55.8c-2.7,1.74-5.47,3.33-8.33,4.79,2.7-1.74,5.47-3.33,8.33-4.79Z"/>
      </g>
      <polygon class="cls-3" points="333.21 56.71 328.36 53.92 303.93 46.68 304.11 46.08 304.41 46.17 328.61 53.34 333.52 56.17 333.21 56.71"/>
    </g>
    <g>
      <g>
        <g>
          <polygon class="cls-7" points="386.96 29.22 388.2 32.25 379.87 37.04 378.64 34.01 386.96 29.22"/>
          <polygon class="cls-3" points="378.06 30.05 383.23 27.05 386.96 29.22 378.64 34.01 374.9 31.87 378.06 30.05"/>
          <polygon class="cls-9" points="379.87 37.04 373.67 33.46 374.9 31.87 378.64 34.01 379.87 37.04"/>
        </g>
        <path class="cls-2" d="m386.96,29.22c-2.7,1.74-5.47,3.33-8.33,4.79,2.7-1.74,5.47-3.33,8.33-4.79Z"/>
      </g>
      <polygon class="cls-3" points="378.99 30.13 374.15 27.33 349.72 20.1 349.89 19.49 350.2 19.58 374.39 26.76 379.31 29.58 378.99 30.13"/>
    </g>
    <path class="cls-3" d="m247.23,92.7l-23.22-13.41.27-.16L361.36,0l23.22,13.41-.27.16-137.08,79.14Zm-22.5-13.41l22.5,12.99L383.86,13.41,361.36.42l-136.63,78.88Z"/>
    <polygon class="cls-3" points="247.21 92.69 246.9 92.51 269.8 52.84 269.88 52.82 338.38 39.64 361.2 .12 361.51 .3 338.61 39.96 338.53 39.98 270.03 53.16 247.21 92.69"/>
    <polygon class="cls-3" points="224.45 79.53 224.16 79.22 292.66 66.04 315.52 26.44 315.6 26.43 384.18 13.23 384.25 13.58 315.75 26.77 292.89 66.36 292.81 66.38 224.45 79.53"/>
    <rect class="cls-3" x="281.17" y="46.4" width=".36" height="26.4" transform="translate(89.06 273.46) rotate(-60)"/>
    <rect class="cls-3" x="326.89" y="20.01" width=".36" height="26.4" transform="translate(134.78 299.85) rotate(-60)"/>
  </g>
  <g>
    <g>
      <g>
        <path class="cls-3" d="m89.57,86.81v117.98c0,.15.1.33.33.46.41.26,1.13.26,1.54,0,.23-.13.33-.28.33-.46v-118.01s-.13.05-.33.08c-.62.05-1.87.05-1.87-.05Z"/>
        <path class="cls-9" d="m89.89,86.32c-.43.25-.43.65,0,.9.43.25,1.13.25,1.56,0,.43-.25.43-.65,0-.9-.43-.25-1.13-.25-1.56,0Z"/>
        <path class="cls-9" d="m91.44,86.86v118.39c.23-.13.33-.28.33-.46v-118.01s-.13.05-.33.08Z"/>
        <polygon class="cls-7" points="89.9 205.26 90.02 146.24 89.89 87.23 89.77 146.24 89.9 205.26"/>
      </g>
      <g>
        <path class="cls-3" d="m165.12,92.44v117.98c0,.15.1.33.33.46.41.26,1.13.26,1.54,0,.23-.13.33-.28.33-.46v-118.01s-.13.05-.33.08c-.62.05-1.87.05-1.87-.05Z"/>
        <path class="cls-9" d="m165.45,91.95c-.43.25-.43.65,0,.9.43.25,1.13.25,1.56,0,.43-.25.43-.65,0-.9-.43-.25-1.13-.25-1.56,0Z"/>
        <path class="cls-9" d="m167,92.49v118.39c.23-.13.33-.28.33-.46v-118.01s-.13.05-.33.08Z"/>
        <polygon class="cls-7" points="165.46 210.89 165.58 151.87 165.45 92.85 165.32 151.87 165.46 210.89"/>
      </g>
      <g>
        <path class="cls-3" d="m233.02,98.75v117.98c0,.15.1.33.33.46.41.26,1.13.26,1.54,0,.23-.13.33-.28.33-.46v-118.01s-.13.05-.33.08c-.62.05-1.87.05-1.87-.05Z"/>
        <path class="cls-9" d="m233.35,98.27c-.43.25-.43.65,0,.9s1.13.25,1.56,0c.43-.25.43-.65,0-.9-.43-.25-1.13-.25-1.56,0Z"/>
        <path class="cls-9" d="m234.9,98.81v118.39c.23-.13.33-.28.33-.46v-118.01s-.13.05-.33.08Z"/>
        <polygon class="cls-7" points="233.36 217.2 233.48 158.18 233.35 99.17 233.22 158.18 233.36 217.2"/>
      </g>
      <g>
        <path class="cls-3" d="m228.74,217.04l.07.07,7.57,4.37c0-.29.07-.61.16-.9.11-.29.25-.56.43-.83,0-.02.02-.02.02-.04.23-.36.54-.7.95-.92.02-.02.04-.02.07-.05.34-.18.77-.27,1.06-.09-2.37-1.37-4.71-2.73-7.07-4.08-.16-.09-.34-.2-.5-.29-.07-.05-.18-.09-.29-.11h-.34c-.09.02-.23.07-.34.11-.11.05-.25.11-.34.18-.11.07-.23.16-.34.25-.09.09-.2.2-.29.32-.07.09-.14.18-.2.27-.02.02-.05.05-.07.09-.07.11-.16.25-.23.38-.07.16-.11.27-.16.43v.02c-.07.14-.09.27-.11.43-.02.14-.05.27-.05.41Z"/>
        <path class="cls-9" d="m231.87,215.24l.07.07,5.99,3.47s.04-.02.07-.05c.34-.18.77-.27,1.06-.09-2.37-1.37-4.71-2.73-7.07-4.08-.05.09-.05.18-.07.27-.02.14-.04.27-.04.41Z"/>
        <path class="cls-9" d="m238.66,219.77c-.11-.02-.23,0-.34.05-.14.07-.25.16-.36.27-.14.14-.25.27-.32.45-.11.2-.18.43-.18.65l1.53-.88c0-.11-.02-.23-.07-.34-.07-.09-.16-.18-.27-.2Z"/>
        <path class="cls-3" d="m238.33,219.82c.11-.05.23-.07.34-.05.11.02.2.11.27.2.05.11.07.23.07.34.11-.07.23-.14.32-.23.07-.04.14-.11.18-.18.04-.05.07-.09.07-.14v-.2c-.02-.14-.05-.25-.07-.36-.05-.11-.09-.2-.16-.29-.05-.09-.11-.16-.2-.23-.02,0-.05-.02-.09-.05-.29-.18-.79-.13-1.13.05-.47.23-.81.61-1.06,1.01-.34.52-.49,1.16-.49,1.77.07.07.18.05.29.02.14-.02.25-.07.36-.11.16-.05.32-.11.45-.2,0-.23.07-.45.18-.65.07-.18.18-.32.32-.45.11-.11.23-.2.36-.27Z"/>
        <path class="cls-7" d="m228.89,216.19l7.64,4.39c.11-.29.25-.56.43-.83,0-.02.02-.02.02-.05l-7.64-4.42s-.05.05-.07.09c-.07.11-.16.25-.23.38-.07.16-.11.27-.16.43Z"/>
      </g>
      <g>
        <path class="cls-3" d="m85.56,205.16l.07.07,7.57,4.37c0-.29.07-.61.16-.9.11-.29.25-.56.43-.83,0-.02.02-.02.02-.05.25-.36.54-.72.97-.95.02,0,.02-.02.05-.02.34-.18.77-.27,1.06-.09-2.14-1.24-4.28-2.48-6.42-3.72-.38-.2-.77-.43-1.15-.65-.07-.04-.18-.09-.29-.11h-.34c-.09.02-.23.07-.34.11-.11.05-.25.11-.34.18-.11.07-.23.16-.34.25-.09.09-.2.2-.29.32-.07.09-.14.18-.2.27-.02.02-.04.05-.07.09-.07.11-.16.25-.23.38-.07.16-.11.27-.16.43v.02c-.07.14-.09.27-.11.43-.02.14-.05.27-.05.41Z"/>
        <path class="cls-9" d="m89.34,203.72l.07.07,5.36,3.09s.02-.02.05-.02c.34-.18.77-.27,1.06-.09-2.14-1.24-4.28-2.48-6.42-3.72-.05.09-.05.18-.07.27-.02.14-.04.27-.04.41Z"/>
        <path class="cls-9" d="m95.49,207.89c-.11-.02-.23,0-.34.05-.14.07-.25.16-.36.27-.14.13-.25.27-.32.45-.11.2-.18.43-.18.65l1.53-.88c0-.11-.02-.23-.07-.34-.07-.09-.16-.18-.27-.2Z"/>
        <path class="cls-3" d="m95.16,207.94c.11-.05.23-.07.34-.05.11.02.2.11.27.2.04.11.07.23.07.34.11-.07.23-.14.32-.23.07-.05.14-.11.18-.18.05-.04.07-.09.07-.14v-.2c-.02-.14-.04-.25-.07-.36-.05-.11-.09-.2-.16-.29-.05-.09-.11-.16-.2-.23-.02,0-.05-.02-.09-.05-.29-.18-.79-.13-1.13.05-.47.23-.81.61-1.06,1.01-.34.52-.49,1.16-.49,1.77.07.07.18.04.29.02.14-.02.25-.07.36-.11.16-.04.32-.11.45-.2,0-.23.07-.45.18-.65.07-.18.18-.32.32-.45.11-.11.23-.2.36-.27Z"/>
        <path class="cls-7" d="m85.72,204.31l7.64,4.39c.11-.29.25-.56.43-.83,0-.02.02-.02.02-.04l-7.64-4.42s-.05.05-.07.09c-.07.11-.16.25-.23.38-.07.16-.11.27-.16.43Z"/>
      </g>
      <g>
        <path class="cls-3" d="m160.99,214.41l1.53.88c0-.23-.07-.45-.18-.65-.07-.16-.18-.32-.32-.45-.11-.11-.23-.2-.36-.27-.11-.04-.23-.07-.34-.04-.11.04-.2.11-.27.23-.05.09-.07.2-.07.32Z"/>
        <path class="cls-7" d="m162.34,214.64c.11.2.18.43.18.65.14.09.29.16.45.23.11.05.25.07.38.09.09.02.2.05.29-.02,0-.61-.27-1.19-.61-1.73-.25-.41-.56-.79-1.01-1.01-.36-.18-.77-.27-1.08-.09-.09.05-.18.14-.25.2-.07.09-.11.18-.16.29-.05.09-.09.23-.09.34-.02.09-.02.18-.02.27v.02s.02.09.07.13c.05.07.11.14.18.18.09.09.2.16.32.23,0-.11.02-.23.07-.32.07-.11.16-.18.27-.23.11-.02.23,0,.34.04.14.07.25.16.36.27.14.14.25.29.32.45Z"/>
        <path class="cls-3" d="m160.94,212.74c.32-.18.72-.09,1.08.09.45.23.77.61,1.01,1.01.05.07.09.16.14.23.27.47.47.99.47,1.51l7.55-4.35.07-.09c0-.14-.02-.25-.05-.41-.02-.14-.04-.27-.09-.43s-.11-.29-.18-.45c-.07-.14-.14-.27-.23-.38-.09-.14-.18-.25-.27-.36-.09-.11-.2-.23-.29-.32-.09-.09-.23-.18-.34-.25-.09-.07-.23-.14-.34-.18-.11-.05-.25-.09-.34-.11-.11,0-.25,0-.34.02-.11,0-.2.04-.29.09-2.52,1.46-5.05,2.91-7.57,4.37Z"/>
        <path class="cls-9" d="m163.17,214.07c.27.47.47.99.47,1.51l7.55-4.35.07-.09c0-.14-.02-.25-.05-.41-.02-.14-.04-.27-.09-.43s-.11-.29-.18-.45l-7.77,4.21Z"/>
      </g>
      <polygon class="cls-4" points="82.55 93.72 82.55 211.56 103.31 199.57 104.13 81.76 82.55 93.72"/>
      <path class="cls-3" d="m102.97,82.42l-.02,117.36c3.04-1.73,6.33-2.52,9.87-3.27,7.05-1.51,14.1-1.51,21.16,0,3.51.74,6.8,2.01,9.82,3.74v-117.84c-3.02-1.73-6.31-3-9.82-3.74-7.05-1.51-14.1-1.51-21.16,0-3.54.74-6.8,2.01-9.85,3.74Z"/>
      <polygon class="cls-4" points="143.79 82.42 143.79 200.26 184.61 223.82 184.62 105.98 143.79 82.42"/>
      <polygon class="cls-3" points="154.96 127.42 154.96 100.42 172.33 110.45 172.32 137.45 154.96 127.42"/>
      <polygon class="cls-3" points="154.96 157.71 154.96 130.72 172.33 140.74 172.32 167.74 154.96 157.71"/>
      <path class="cls-3" d="m184.62,105.98v117.84c3.02,1.76,6.31,3.02,9.82,3.76,7.05,1.51,14.1,1.51,21.16,0,3.54-.74,6.77-2.45,9.81-4.21l.03-117.39c-3.04,1.76-6.31,3-9.85,3.76-7.05,1.51-14.1,1.51-21.16,0-3.51-.77-6.8-2.01-9.82-3.76Z"/>
      <path class="cls-3" d="m215.6,109.75v117.84c3.54-.74,6.77-2.45,9.81-4.21l.03-117.39c-3.04,1.76-6.31,3-9.85,3.76Z"/>
      <path class="cls-4" d="m100.27,83.44l2.68,116.34c3.04-1.73,6.33-2.52,9.87-3.27v-117.84c-3.54.74-9.5,3.03-12.55,4.77Z"/>
      <g>
        <polygon class="cls-7" points="245.21 93.4 245.21 211.23 246.07 211.73 246.07 93.89 245.21 93.4"/>
        <polygon class="cls-9" points="246.07 93.89 246.07 211.73 246.9 211.26 246.9 93.4 246.07 93.89"/>
        <polygon class="cls-3" points="245.21 93.4 246.07 93.89 246.9 93.4 246.04 92.9 245.21 93.4"/>
      </g>
      <polygon class="cls-4" points="225.42 105.54 225.42 223.38 245.83 211.59 245.83 93.76 225.42 105.54"/>
      <path class="cls-8" d="m82,93.39l.56.34,20.41-11.31c3.04-1.73,6.31-3,9.85-3.74,3.51-.74,7.05-1.13,10.57-1.13s7.05.38,10.59,1.13c3.51.74,6.8,2.01,9.82,3.74v.02l40.83,23.54c3.02,1.76,6.31,3,9.82,3.76,3.51.74,7.05,1.13,10.57,1.13s7.05-.38,10.59-1.13c3.51-.77,6.78-2.01,9.82-3.74l19.98-11.99v-.02l.43-.25-.47-.27-20.23,12.03c-2.97,1.71-6.13,2.93-9.64,3.7-3.47.74-6.98,1.1-10.48,1.1s-6.98-.36-10.45-1.1c-3.49-.77-6.76-2.03-9.64-3.72l-40.56-23.39-.29-.18c-3.09-1.76-6.44-3.04-9.98-3.79-3.54-.77-7.14-1.15-10.7-1.15s-7.14.38-10.68,1.15c-3.51.72-6.89,2.01-10,3.79l-20.44,11.31-.27.16Z"/>
      <path class="cls-4" d="m215.84,120.45v40.61c-6.95,1.48-13.89,1.5-20.84.06v-40.61c6.95,1.45,13.89,1.44,20.84-.06Z"/>
      <path class="cls-4" d="m215.84,165.7v40.61c-6.95,1.48-13.89,1.5-20.84.06v-40.61c6.95,1.45,13.89,1.44,20.84-.06Z"/>
    </g>
    <path class="cls-9" d="m245.84,93.75l-12.16,7.28-6.08,3.64c-2.01,1.24-4.06,2.42-6.26,3.28-4.38,1.77-9.11,2.54-13.81,2.81-4.71.24-9.46-.21-14.05-1.3-2.29-.56-4.53-1.35-6.65-2.38-2.12-1.04-4.11-2.31-6.17-3.47l-12.27-7.09-24.56-14.15.03.05v-.05l-.03-.02c-2.38-1.37-4.93-2.43-7.57-3.18-2.65-.73-5.36-1.18-8.09-1.45-5.46-.53-11.01-.12-16.34,1.14-2.67.64-5.25,1.62-7.68,2.88l-7.19,3.98-14.38,7.98,14.39-7.96,7.2-3.97c2.43-1.26,5.01-2.23,7.68-2.87,5.33-1.24,10.87-1.65,16.32-1.11,2.72.28,5.44.72,8.07,1.46,2.63.75,5.17,1.82,7.55,3.18l-.03-.05v.05l.03.02,24.54,14.17,12.28,7.07c2.06,1.15,4.06,2.42,6.19,3.46,2.13,1.02,4.38,1.81,6.67,2.38,4.6,1.08,9.36,1.53,14.08,1.28,4.71-.28,9.44-1.06,13.83-2.84,2.2-.86,4.26-2.05,6.26-3.3l6.07-3.65,12.15-7.3Z"/>
  </g>
  <g>
    <g>
      <path class="cls-11" d="m312.07,113.54l-.37-.59c-.73.41-1.65.73-2.43.73-1.22,0-2.41-2.19-2.44-5.13,0-.03,0-.07,0-.1h0c0-.11-.02-5.66-.03-5.8l-5.93,2.26c0,.07,0,5.36,0,5.36,0,1.45-.07,2.46-.3,3.17,0,.04-.02.08-.03.12-.5,1.35-1.69,1.58-4.34,1.85h0s-4.55,0-4.55,0h0c-3.12-.41-3.72-.83-3.72-5.14v-7.49l-5.92,2.24v6.41c0,2.84,2.01,5.21,4.69,5.78h15.42c.37-.08.73-.19,1.07-.33.03.02.06.05.09.07.05.04.1.07.15.11h0c.69.55,1.57.94,2.61.94l.04-.03,6.04-4.33h.01s-.05-.1-.05-.1Z"/>
      <path class="cls-11" d="m341.71,113.57c-.1.03-.21.05-.3.08-.13.03-.27.06-.39.08-.18.03-.35.05-.53.06-.09,0-.19,0-.28,0-.12,0-.24,0-.36-.02-.06,0-.13,0-.2-.02-.07,0-.13-.02-.2-.03-.12-.02-.24-.05-.35-.08-.12-.03-.23-.06-.35-.11-.11-.04-.23-.08-.34-.13-.07-.03-.15-.07-.23-.11-.71-.34-1.37-.88-1.85-1.64-.49-.77-.81-1.74-.81-2.96,0-2.48,1.47-3.81,4.13-4.95,1.43-.64,4.18-1.93,5.56-2.61v10.46c-.65.65-1.6,1.25-2.59,1.65-.2.08-.4.16-.6.23-.1.03-.21.06-.3.09Zm14.56.03l-.41-.65c-.73.41-1.65.73-2.43.73-.9,0-1.74-.69-2.13-2.21-.01-.04-.03-.09-.04-.14-.14-.52-.22-1.16-.22-1.93,0,0,0-12.96-.01-13.18l-.6.25c-.09.04-.2.08-.32.13l-.38.15c-1.47.61-4.02,1.66-6.64,2.73l-1.07.44c-.24.1-.47.2-.71.29l-2.06.85c-1.28.52-2.43.99-3.31,1.35-.57.23-1.02.41-1.32.53-3.63,1.44-5.53,3.43-5.53,6.78,0,2.1.83,4.16,2.29,5.7,0,0-2.65-.19-3.18-.29-2.18-.45-2.48-1.27-2.48-4.85v-8.04l-5.96,2.47v5.2c0,.35,0,.67-.01.97v.66c0,2.68,1.8,4.96,4.26,5.67h11.99c.59.35,1.34.62,2.08.73.23.03.46.05.68.05l1.33-.78.24-.16.09-.06c.82-.44,1.69-1,2.56-1.57.78-.51,1.57-1.04,2.32-1.52,0,0,0,0,0,.01.05-.03.11-.07.16-.1.32,1.06.73,1.97,1.65,2.84.34.35.76.66,1.24.9.58.24,1.24.4,1.86.43l6.06-4.34v-.03Z"/>
      <path class="cls-11" d="m297.05,104.79l-3.83-2.36c-.55-.34-1.25.06-1.25.7v4.72c0,.64.71,1.04,1.25.7l3.83-2.36c.52-.32.52-1.08,0-1.4Z"/>
      <g>
        <path class="cls-11" d="m368.97,113.63h-.01s-6.04,4.33-6.04,4.33c-1.17-.1-2.36-.68-3.03-1.33-.77-.75-1.23-1.49-1.53-2.21-.03-.07-.05-.15-.08-.22-.24-.65-.34-1.27-.42-1.84-.02-.15-.05-1.84-.05-2.45v-13.5c0-4.34-.78-5.79-4-5.28v-.74l3.55-1.46.71-.29,1.07-.44,3.19-1.31,1.42-.59v22.95c0,1.75.01,4.56,2.38,4.43.78-.04,1.7-.32,2.43-.73l.42.68Z"/>
        <g>
          <g>
            <path class="cls-3" d="m387.03,113.64l-6.04,4.32c-1.17-.1-2.36-.68-3.03-1.34-.77-.75-1.23-1.49-1.53-2.21-.03-.07-.05-.15-.08-.22-.24-.65-.34-1.27-.42-1.84-.01-.08-.03-.65-.04-1.25v-.02c0-.32,0-.67,0-1.05v-11.25c0-.26,0-.51-.02-.75-.19-4.23-2.08-6.73-6.04-6.73-1.47,0-2.93.53-4.31,1.3v-2.33c.55-.38,1.13-.77,1.73-1.17,1.93-1.24,3.63-1.98,5.64-1.98,1.77,0,3.34.4,4.63,1.19,2.67,1.61,4.23,4.8,4.23,9.27v11.8c0,.25.02.48.03.69v.02c.05,1.68.37,3.68,2.37,3.57.78-.04,1.7-.32,2.43-.73l.37.59v.02s.04.08.04.08Z"/>
            <path class="cls-11" d="m350.81,94.36l-5.64,2.31c-.24-3.78-1.97-5.97-4.52-6.39-.03,0-.06-.01-.09-.01-.14-.02-.28-.04-.43-.04-.02,0-.05,0-.07,0-.09,0-.18,0-.28,0h-.03c-.15,0-.29,0-.44.02-1.01.09-1.87.53-2.48,1.17-.88.87-1.47,2.38-2.06,4.54-.36,1.05-.97,1.52-1.83,1.63-.11.02-.23.02-.35.02-.09,0-.17,0-.26-.01-1.3-.14-2.89-1.45-2.89-2.97,0-1.01.88-1.83,2.21-2.75,1.97-1.42,6.61-3.99,10.42-4.73h.02c.4,0,.78.01,1.17.05,1.69.16,3.23.67,4.5,1.64,1.77,1.49,2.67,3.32,3.03,5.52Z"/>
            <path class="cls-3" d="m277.61,113.68c-1.24,0-2.37-1.3-2.37-4.28v-12.07c0-3.58-.73-6.38-3.26-8.5-1.56-1.19-3.53-1.7-5.69-1.7-3.81.74-8.45,3.31-10.42,4.73-1.33.92-2.2,1.74-2.2,2.76,0,1.61,1.79,2.98,3.12,2.98,1.06,0,1.79-.46,2.2-1.65.6-2.16,1.19-3.67,2.07-4.54.69-.74,1.7-1.19,2.89-1.19,3.26,0,5.46,2.57,5.46,7.39v1.19c-1.47,1.24-6.2,2.98-10.56,4.36-3.72,1.19-5.55,3.22-5.55,6.56,0,4.22,3.35,8.26,8.45,8.26,1.93,0,5.14-2.43,7.89-4.18.32,1.06.73,1.97,1.65,2.85.73.73,1.79,1.34,3.07,1.34l6.09-4.37-.42-.68c-.73.41-1.65.73-2.43.73Zm-8.2-2.08c-1.19,1.19-3.39,2.2-5,2.2-2.02,0-4.68-1.56-4.68-5.1,0-2.48,1.47-3.81,4.13-4.96,1.42-.64,4.18-1.93,5.55-2.62v10.46Z"/>
          </g>
          <path class="cls-3" d="m325.51,94.81s-.25-1.33-.51-1.99c-1.29-3.7-4.22-5.69-8.17-5.69-1.93,0-3.67.78-5.14,1.7-1.65,1.11-3.58,2.34-5.6,3.81-1.42-3.45-4.36-5.51-7.62-5.51-2.16,0-3.81.73-5.65,1.83-1.98,1.19-3.41,2.37-4.81,3.31-.03-.37-.09-.74-.19-1.11-.12-.42-.29-.84-.54-1.28-.09-.17-.2-.35-.32-.51h0c-.5-.72-1.23-1.35-2.22-1.65,0,0,0,0-.01,0l-.04.02h0s-6.81,2.34-6.81,2.34l-.21.07h-.02s.03.1.03.1l.18.67c.38-.08.8-.14,1.21-.15.47-.01.93.02,1.33.15.47.14.75.63,1.04,1.3.36.84.54,1.95.57,3.66,0,.12,0,.23,0,.36v6.53l6.09-2.32v-6.03l1.03-.7c1.81-1.28,3.87-2.41,5.96-2.41,3.24,0,5.09,1.78,5.62,5.28v6.18l6.09-2.34v-6.39c1.88-1.23,5.46-2.73,7.11-2.73,2.79,0,4.57,1.36,5.37,3.94,0,0,.35,1.29.41,2.03.06.56.09,1.15.09,1.78v3.67l5.96-2.45v-2.68c0-.99-.07-1.93-.22-2.79Z"/>
          <path class="cls-11" d="m360.03,83.56c-1.38.08-2.81-.36-3.76-.94-.74-.45-1.15-1.09-1.19-1.74-.02-.35.3-.74.75-1.05.53-.4,1.56-.89,2.42-.94.69-.04,1.16.17,1.56.6l.7.82c.28.33.8.29,1.04-.08.42-.67.57-1.31.53-1.93-.07-1.32-1.38-2.16-2.9-2.08-1.52.09-3.48,1.03-4.81,2.43-.84.88-1.79,2.37-1.7,4.03.1,1.72,1.5,2.73,3.34,3.26l.56.11c-.11.05-1.61.69-2.75,1.18v1.2c.26-.11.51-.22.77-.33,2.73-1.14,5.48-2.26,7.97-3.27l1.18-.48v-1.28c-1.14.22-2.49.42-3.7.49Z"/>
        </g>
      </g>
    </g>
    <g>
      <path class="cls-11" d="m306.44,130.97v4.07h-.48v-2.99s0-.08,0-.13c0-.05,0-.09,0-.14l-1.4,2.54c-.04.09-.11.13-.2.13h-.08c-.09,0-.16-.04-.2-.13l-1.42-2.55c.01.1.02.19.02.28v2.99h-.48v-4.07h.41s.09,0,.11.01.05.04.08.08l1.4,2.5s.04.09.07.14.04.1.06.15c.02-.05.04-.1.06-.15s.04-.1.07-.14l1.38-2.5s.05-.07.08-.08c.03,0,.07-.01.11-.01h.41Z"/>
      <path class="cls-6" d="m314.53,134.59v.45h-2.51v-4.07h2.51v.45h-1.96v1.35h1.58v.43h-1.58v1.39h1.96Z"/>
      <path class="cls-6" d="m323.36,133.01c0,.3-.05.58-.14.83-.1.25-.23.46-.41.64s-.39.32-.63.41c-.25.1-.52.15-.82.15h-1.52v-4.07h1.52c.3,0,.57.05.82.15.25.1.46.24.63.41.18.18.31.39.41.64.1.25.14.53.14.83Zm-.56,0c0-.25-.03-.47-.1-.67s-.16-.36-.29-.5c-.12-.14-.28-.24-.45-.31-.18-.07-.38-.11-.6-.11h-.97v3.18h.97c.22,0,.42-.04.6-.11.18-.07.33-.18.45-.31s.22-.3.29-.5c.07-.2.1-.42.1-.67Z"/>
      <path class="cls-11" d="m329.24,135.04h-.55v-4.07h.55v4.07Z"/>
      <path class="cls-11" d="m338.13,135.04h-.43s-.09-.01-.12-.04c-.03-.02-.05-.06-.07-.09l-.38-.98h-1.82l-.38.98s-.03.06-.07.09c-.03.03-.07.04-.12.04h-.43l1.63-4.07h.56l1.63,4.07Zm-1.15-1.51l-.64-1.65s-.04-.11-.06-.17c-.02-.07-.04-.13-.06-.21-.04.15-.08.28-.12.38l-.64,1.65h1.52Z"/>
    </g>
    <path class="cls-11" d="m253.31,124.88c44.38-1.26,89.35-1.27,133.73,0-44.38,1.27-89.35,1.26-133.73,0h0Z"/>
  </g>
  <g>
    <polygon class="cls-13" points="370.84 141.76 370.84 180.18 325.26 206.45 325.26 167.89 370.84 141.76"/>
    <polygon class="cls-13" points="325.26 167.89 325.26 206.45 307.93 196.45 307.93 157.89 325.26 167.89"/>
    <polygon class="cls-7" points="370.84 141.76 370.84 141.76 370.84 141.76 353.51 131.75 307.93 157.89 307.93 157.89 307.93 157.89 307.93 157.89 307.93 157.89 325.26 167.89 370.83 141.76 370.84 141.76 370.84 141.76"/>
    <polygon class="cls-7" points="376.8 143.8 376.8 145.68 325.27 175.33 325.27 173.27 376.8 143.8"/>
    <polygon class="cls-9" points="325.27 173.27 325.27 175.33 301.66 161.7 301.66 159.64 325.27 173.27"/>
    <polygon class="cls-3" points="376.8 143.81 376.8 143.8 376.8 143.81 353.2 130.18 301.67 159.64 301.66 159.64 301.66 159.64 301.66 159.64 301.66 159.64 325.27 173.27 376.8 143.81 376.8 143.81 376.8 143.81"/>
    <path class="cls-2" d="m376.8,143.8c-8.54,5-17.14,9.89-25.71,14.84-8.61,4.87-17.19,9.81-25.83,14.63,8.54-5,17.14-9.89,25.71-14.84,8.61-4.87,17.19-9.81,25.83-14.62Z"/>
  </g>
  <g>
    <path class="cls-11" d="m287.76,200.25v10.9l16.84,9.72v-10.9c0-39.5-5.61-62.49-16.84-68.97v59.25Z"/>
    <g>
      <path class="cls-9" d="m305.51,226.68l.06.03s-.03-.7-.79-.76-.9.65-.9.65l1.62.08Z"/>
      <path class="cls-7" d="m298.51,229.59v.18c0,.22,0,.41.02.43.04.04.09.07.16.09.07.02.14.04.22.04l4.79.05s.11-.31.32-.61c.05-.05.11-.11.14-.18.13-.13.27-.27.45-.36-.22-.14-.5-.23-.85-.18-1.73-.02-3.11-.04-4.84-.05-.02,0-.18,0-.32.14-.04.04-.05.07-.05.09-.02.02-.04.18-.04.36Z"/>
      <path class="cls-3" d="m304.66,233.17c-.07-.07-.18-.09-.27-.09s-.2.02-.27.07c-.09.05-.14.16-.14.25l.83.02c0-.11-.07-.2-.14-.25Z"/>
      <path class="cls-3" d="m303.76,229.05c.34-.05.63.04.85.18.16-.11.37-.11.57-.11.09-.02.17-.09.28-.07l.13-2.32c0-.05,0-.11-.07-.27-.05-.09-.13-.18-.2-.23-.16-.13-.36-.2-.58-.2-.2,0-.4.04-.56.16-.13.09-.22.23-.27.38-.02.02-.02.05-.02.09v.05c-.05.88-.07,1.46-.13,2.34Z"/>
      <path class="cls-7" d="m303.54,233.13c0-.18.13-.38.29-.5l.03.03c.05-.05.11-.07.18-.09.13-.05.24-.09.36-.07.2,0,.4.02.56.14.16.13.29.32.29.52l.14-2.77s.02-.34-.2-.65l-.07-.05c-.11-.2-.31-.32-.52-.47-.18.09-.34.22-.47.36v.02l-.14.16v.02c-.22.31-.31.59-.31.59l-.14,2.75Z"/>
      <path class="cls-3" d="m304.61,229.23c.18.11.32.27.43.43.07.09.13.18.16.25.14.27.2.49.2.49l4.66.04c.07,0,.27-.02.38-.13.04-.04.05-.07.05-.11v-.77s0-.09-.07-.16c-.02-.02-.02-.04-.04-.04-.13-.11-.25-.13-.29-.13h-.02c-1.67-.02-2.95-.04-4.62-.05-.32-.04-.61.04-.85.18Z"/>
      <path class="cls-9" d="m305.16,229.12c.09-.02.18-.09.29-.07l.13-2.32c0-.05,0-.11-.07-.27-.05-.09-.13-.18-.2-.23l-.14,2.9Z"/>
      <path class="cls-9" d="m304.97,232.64c.16.13.29.32.29.52l.14-2.77s-.07-.32-.29-.63l-.14,2.88Z"/>
      <path class="cls-3" d="m298.54,229.23h6.06c-.22-.14-.5-.23-.85-.18-1.73-.02-3.11-.04-4.84-.05-.02,0-.18,0-.32.14-.04.04-.05.07-.05.09Z"/>
      <path class="cls-2" d="m298.51,229.55v.18l5.49.03c.05-.06.08-.11.14-.18l-5.63-.03Z"/>
      <path class="cls-9" d="m304.61,229.23h5.78c-.13-.11-.25-.13-.29-.13h-.02c-1.67-.02-2.95-.04-4.62-.05-.32-.04-.61.04-.85.18Z"/>
      <path class="cls-9" d="m310.06,230.43c.07,0,.27-.02.38-.13.04-.04.05-.07.05-.11v-.77s0-.09-.07-.16c-.02-.02-.02-.04-.04-.04-.13-.11-.25-.13-.29-.13,0,0,.22.18.22.77-.02.52-.2.56-.25.56Z"/>
      <path class="cls-2" d="m303.85,232.63c.06-.03.11-.06.19-.08l.1-2.94-.14.16v.02c0,.16-.07,1.64-.14,2.84Z"/>
      <path class="cls-7" d="m304.97,232.65c-.16-.13-.36-.18-.56-.18-.2-.02-.41.04-.58.16-.16.13-.29.32-.29.5,0,.05.04.09.05.13.04.05.09.07.16.11.07.02.14.04.22.04,0-.09.05-.2.14-.25.07-.05.18-.07.27-.07s.2.02.27.09c.07.05.14.14.14.25.07,0,.14-.02.22-.04.07-.02.13-.05.16-.09.04-.04.07-.07.07-.13,0-.2-.13-.4-.29-.52Z"/>
    </g>
    <path class="cls-3" d="m287.41,141.28c.02.18.09.22.09.22.65.36,1.39.88,2.02,1.39.32.27.68.59.99.88.32.31.68.67.97,1.01.31.32.65.72.94,1.1.29.36.61.79.88,1.17.29.4.58.85.83,1.26.52.83,1.06,1.8,1.49,2.68.45.88.9,1.89,1.28,2.79.36.88.76,1.91,1.06,2.81.31.9.65,1.91.9,2.79.27.9.56,1.89.77,2.79.23.88.47,1.85.67,2.75.22.88.41,1.84.58,2.72.18.88.36,1.82.5,2.7.31,1.73.61,3.72.85,5.43.22,1.71.45,3.65.61,5.33.18,1.69.34,3.58.47,5.24.14,1.67.25,3.51.34,5.16.11,1.66.18,3.44.25,5.07.05,1.64.11,3.4.14,5.04.04,1.62.07,3.35.07,4.97.02,1.15.02,2.36.02,3.51v19.38s.02.07.04.11c.02.04.05.07.11.09.02,0,.02.02.04.02.07.04.16.05.23.05.05,0,.11,0,.16-.02.04,0,.07,0,.13-.02.07-.02.16-.07.2-.14.02-.02.02-.09.02-.09v-22.46c-.02-1.62-.04-3.35-.07-4.97-.04-1.64-.09-3.4-.14-5.04-.05-1.64-.14-3.42-.23-5.07-.09-1.66-.2-3.47-.32-5.15-.13-1.67-.29-3.54-.47-5.24-.16-1.69-.38-3.62-.59-5.33-.23-1.71-.52-3.69-.81-5.43-.16-.86-.32-1.8-.49-2.68-.18-.88-.36-1.84-.56-2.72-.2-.88-.43-1.85-.65-2.75-.22-.88-.49-1.87-.74-2.77-.27-.88-.58-1.89-.86-2.79-.31-.9-.67-1.91-1.03-2.81s-.77-1.89-1.21-2.79c-.41-.88-.92-1.85-1.4-2.72-.49-.83-1.1-1.78-1.64-2.56-.29-.38-.61-.79-.9-1.15-.29-.36-.63-.76-.94-1.1-.31-.32-.67-.68-.99-.97-.31-.31-.68-.61-1.01-.88-.63-.5-1.39-1.03-2.03-1.4-.07-.04-.16-.02-.22.02-.09.04-.14.09-.18.16-.02.02-.02.04-.04.05-.07.11-.13.23-.13.36Z"/>
    <path class="cls-9" d="m287.57,140.86c.61.34,1.28.79,1.87,1.26.32.27.7.59,1.04.9.32.31.7.67,1.01,1.01.32.34.67.74.97,1.12.31.36.63.79.92,1.19.29.4.59.85.86,1.28.54.83,1.1,1.84,1.57,2.72.47.9.94,1.91,1.31,2.81.4.92.79,1.94,1.12,2.84.34.92.67,1.94.95,2.84.29.92.58,1.91.81,2.81.23.92.49,1.89.7,2.79.2.9.41,1.87.59,2.75.18.9.36,1.85.52,2.74.31,1.76.63,3.78.86,5.52.25,1.73.49,3.69.67,5.4.18,1.71.34,3.6.49,5.29.13,1.69.25,3.54.36,5.22.09,1.67.18,3.49.23,5.16.07,1.66.13,3.44.16,5.07.04,1.66.07,3.42.09,5.04,0,1.17.02,2.39.02,3.56v19.52s.07,0,.13-.02c.07-.02.16-.07.2-.14.02-.02.02-.09.02-.09v-22.46c-.02-1.62-.04-3.35-.07-4.97-.04-1.64-.09-3.4-.14-5.04-.05-1.64-.14-3.42-.23-5.07-.09-1.66-.2-3.47-.32-5.15-.13-1.67-.29-3.54-.47-5.24-.16-1.69-.38-3.62-.59-5.33-.23-1.71-.52-3.69-.81-5.43-.16-.86-.32-1.8-.49-2.68-.18-.88-.36-1.84-.56-2.72-.2-.88-.43-1.85-.65-2.75-.22-.88-.49-1.87-.74-2.77-.27-.88-.58-1.89-.86-2.79-.31-.9-.67-1.91-1.03-2.81s-.77-1.89-1.21-2.79c-.41-.88-.92-1.85-1.4-2.72-.49-.83-1.1-1.78-1.64-2.56-.29-.38-.61-.79-.9-1.15-.29-.36-.63-.76-.94-1.1-.31-.32-.67-.68-.99-.97-.31-.31-.68-.61-1.01-.88-.63-.5-1.39-1.03-2.03-1.4-.07-.04-.16-.02-.22.02-.09.04-.14.09-.18.16Z"/>
    <path class="cls-7" d="m287.48,141.21c3.32,1.97,5.76,5.13,7.53,8.51,1.82,3.38,3.1,7.02,4.12,10.71,2.05,7.4,3.12,15.04,3.83,22.68.7,7.65,1.27,15.29,1.34,22.97l.14,23.61-.15-.05-.07-23.55c-.05-7.68-.43-15.34-1.11-22.99-.69-7.64-1.76-15.29-3.8-22.71-1.05-3.69-2.35-7.34-4.2-10.71-1.79-3.37-4.26-6.53-7.6-8.48v.02Z"/>
  </g>
  <g>
    <path class="cls-11" d="m402.3,135.32v10.9l16.84,9.72v-10.9c0-39.5-5.61-62.49-16.84-68.97v59.25Z"/>
    <g>
      <path class="cls-9" d="m420.06,161.75l.06.03s-.03-.7-.79-.76c-.76-.06-.9.65-.9.65l1.62.08Z"/>
      <path class="cls-7" d="m413.05,164.65v.18c0,.22,0,.41.02.43.04.04.09.07.16.09.07.02.14.04.22.04l4.79.05s.11-.31.32-.61c.05-.05.11-.11.14-.18.13-.13.27-.27.45-.36-.22-.14-.5-.23-.85-.18-1.73-.02-3.11-.04-4.84-.05-.02,0-.18,0-.32.14-.04.04-.05.07-.05.09-.02.02-.04.18-.04.36Z"/>
      <path class="cls-3" d="m419.2,168.23c-.07-.07-.18-.09-.27-.09s-.2.02-.27.07c-.09.05-.14.16-.14.25l.83.02c0-.11-.07-.2-.14-.25Z"/>
      <path class="cls-3" d="m418.3,164.11c.34-.05.63.04.85.18.16-.11.37-.11.57-.11.09-.02.17-.09.28-.07l.13-2.32c0-.05,0-.11-.07-.27-.05-.09-.13-.18-.2-.23-.16-.13-.36-.2-.58-.2-.2,0-.4.04-.56.16-.13.09-.22.23-.27.38-.02.02-.02.05-.02.09v.05c-.05.88-.07,1.46-.13,2.34Z"/>
      <path class="cls-7" d="m418.09,168.2c0-.18.13-.38.29-.5l.03.03c.05-.05.11-.07.18-.09.13-.05.24-.09.36-.07.2,0,.4.02.56.14.16.13.29.32.29.52l.14-2.77s.02-.34-.2-.65l-.07-.05c-.11-.2-.31-.32-.52-.47-.18.09-.34.22-.47.36v.02l-.14.16v.02c-.22.31-.31.59-.31.59l-.14,2.75Z"/>
      <path class="cls-3" d="m419.15,164.29c.18.11.32.27.43.43.07.09.13.18.16.25.14.27.2.49.2.49l4.66.04c.07,0,.27-.02.38-.13.04-.04.05-.07.05-.11v-.77s0-.09-.07-.16c-.02-.02-.02-.04-.04-.04-.13-.11-.25-.13-.29-.13h-.02c-1.67-.02-2.95-.04-4.62-.05-.32-.04-.61.04-.85.18Z"/>
      <path class="cls-9" d="m419.71,164.18c.09-.02.18-.09.29-.07l.13-2.32c0-.05,0-.11-.07-.27-.05-.09-.13-.18-.2-.23l-.14,2.9Z"/>
      <path class="cls-9" d="m419.51,167.71c.16.13.29.32.29.52l.14-2.77s-.07-.32-.29-.63l-.14,2.88Z"/>
      <path class="cls-3" d="m413.09,164.29h6.06c-.22-.14-.5-.23-.85-.18-1.73-.02-3.11-.04-4.84-.05-.02,0-.18,0-.32.14-.04.04-.05.07-.05.09Z"/>
      <path class="cls-2" d="m413.05,164.62v.18l5.49.03c.05-.06.08-.11.14-.18l-5.63-.03Z"/>
      <path class="cls-9" d="m419.15,164.29h5.78c-.13-.11-.25-.13-.29-.13h-.02c-1.67-.02-2.95-.04-4.62-.05-.32-.04-.61.04-.85.18Z"/>
      <path class="cls-9" d="m424.6,165.5c.07,0,.27-.02.38-.13.04-.04.05-.07.05-.11v-.77s0-.09-.07-.16c-.02-.02-.02-.04-.04-.04-.13-.11-.25-.13-.29-.13,0,0,.22.18.22.77-.02.52-.2.56-.25.56Z"/>
      <path class="cls-2" d="m418.39,167.69c.06-.03.11-.06.19-.08l.1-2.94-.14.16v.02c0,.16-.07,1.64-.14,2.84Z"/>
      <path class="cls-7" d="m419.51,167.71c-.16-.13-.36-.18-.56-.18-.2-.02-.41.04-.58.16-.16.13-.29.32-.29.5,0,.05.04.09.05.13.04.05.09.07.16.11.07.02.14.04.22.04,0-.09.05-.2.14-.25.07-.05.18-.07.27-.07s.2.02.27.09c.07.05.14.14.14.25.07,0,.14-.02.22-.04.07-.02.13-.05.16-.09.04-.04.07-.07.07-.13,0-.2-.13-.4-.29-.52Z"/>
    </g>
    <path class="cls-3" d="m401.95,76.34c.02.18.09.22.09.22.65.36,1.39.88,2.02,1.39.32.27.68.59.99.88.32.31.68.67.97,1.01.31.32.65.72.94,1.1.29.36.61.79.88,1.17.29.4.58.85.83,1.26.52.83,1.06,1.8,1.49,2.68.45.88.9,1.89,1.28,2.79.36.88.76,1.91,1.06,2.81.31.9.65,1.91.9,2.79.27.9.56,1.89.77,2.79.23.88.47,1.85.67,2.75.22.88.41,1.84.58,2.72.18.88.36,1.82.5,2.7.31,1.73.61,3.72.85,5.43.22,1.71.45,3.65.61,5.33.18,1.69.34,3.58.47,5.24.14,1.67.25,3.51.34,5.16.11,1.66.18,3.44.25,5.07.05,1.64.11,3.4.14,5.04.04,1.62.07,3.35.07,4.97.02,1.15.02,2.36.02,3.51v19.38s.02.07.04.11c.02.04.05.07.11.09.02,0,.02.02.04.02.07.04.16.05.23.05.05,0,.11,0,.16-.02.04,0,.07,0,.13-.02.07-.02.16-.07.2-.14.02-.02.02-.09.02-.09v-22.46c-.02-1.62-.04-3.35-.07-4.97-.04-1.64-.09-3.4-.14-5.04-.05-1.64-.14-3.42-.23-5.07-.09-1.66-.2-3.47-.32-5.15-.13-1.67-.29-3.54-.47-5.24-.16-1.69-.38-3.62-.59-5.33-.23-1.71-.52-3.69-.81-5.43-.16-.86-.32-1.8-.49-2.68-.18-.88-.36-1.84-.56-2.72-.2-.88-.43-1.85-.65-2.75-.22-.88-.49-1.87-.74-2.77-.27-.88-.58-1.89-.86-2.79-.31-.9-.67-1.91-1.03-2.81-.36-.9-.77-1.89-1.21-2.79-.41-.88-.92-1.85-1.4-2.72-.49-.83-1.1-1.78-1.64-2.56-.29-.38-.61-.79-.9-1.15-.29-.36-.63-.76-.94-1.1-.31-.32-.67-.68-.99-.97-.31-.31-.68-.61-1.01-.88-.63-.5-1.39-1.03-2.03-1.4-.07-.04-.16-.02-.22.02-.09.04-.14.09-.18.16-.02.02-.02.04-.04.05-.07.11-.13.23-.13.36Z"/>
    <path class="cls-9" d="m402.12,75.93c.61.34,1.28.79,1.87,1.26.32.27.7.59,1.04.9.32.31.7.67,1.01,1.01.32.34.67.74.97,1.12.31.36.63.79.92,1.19.29.4.59.85.86,1.28.54.83,1.1,1.84,1.57,2.72.47.9.94,1.91,1.31,2.81.4.92.79,1.94,1.12,2.84.34.92.67,1.94.95,2.84.29.92.58,1.91.81,2.81.23.92.49,1.89.7,2.79.2.9.41,1.87.59,2.75.18.9.36,1.85.52,2.74.31,1.76.63,3.78.86,5.52.25,1.73.49,3.69.67,5.4.18,1.71.34,3.6.49,5.29.13,1.69.25,3.54.36,5.22.09,1.67.18,3.49.23,5.16.07,1.66.13,3.44.16,5.07.04,1.66.07,3.42.09,5.04,0,1.17.02,2.39.02,3.56v19.52s.07,0,.13-.02c.07-.02.16-.07.2-.14.02-.02.02-.09.02-.09v-22.46c-.02-1.62-.04-3.35-.07-4.97-.04-1.64-.09-3.4-.14-5.04-.05-1.64-.14-3.42-.23-5.07-.09-1.66-.2-3.47-.32-5.15-.13-1.67-.29-3.54-.47-5.24-.16-1.69-.38-3.62-.59-5.33-.23-1.71-.52-3.69-.81-5.43-.16-.86-.32-1.8-.49-2.68-.18-.88-.36-1.84-.56-2.72-.2-.88-.43-1.85-.65-2.75-.22-.88-.49-1.87-.74-2.77-.27-.88-.58-1.89-.86-2.79-.31-.9-.67-1.91-1.03-2.81-.36-.9-.77-1.89-1.21-2.79-.41-.88-.92-1.85-1.4-2.72-.49-.83-1.1-1.78-1.64-2.56-.29-.38-.61-.79-.9-1.15-.29-.36-.63-.76-.94-1.1-.31-.32-.67-.68-.99-.97-.31-.31-.68-.61-1.01-.88-.63-.5-1.39-1.03-2.03-1.4-.07-.04-.16-.02-.22.02-.09.04-.14.09-.18.16Z"/>
    <path class="cls-7" d="m402.02,76.28c3.32,1.97,5.76,5.13,7.53,8.51,1.82,3.38,3.1,7.02,4.12,10.71,2.05,7.4,3.12,15.04,3.83,22.68.7,7.65,1.27,15.29,1.34,22.97l.14,23.61-.15-.05-.07-23.55c-.05-7.68-.43-15.34-1.11-22.99-.69-7.64-1.76-15.29-3.8-22.71-1.05-3.69-2.35-7.34-4.2-10.71-1.79-3.37-4.26-6.53-7.6-8.48v.02Z"/>
  </g>
  <g>
    <g>
      <polygon class="cls-3" points="84.15 92.96 84.15 211.22 46.34 233.04 46.34 114.79 84.15 92.96"/>
      <polygon class="cls-5" points="83.38 92.53 84.15 92.96 46.34 114.79 45.59 114.35 83.38 92.53"/>
      <g>
        <path class="cls-7" d="m86.62,181.61v33.55c0,1.96-1.11,3.82-2.38,5.42-1.69,2.13-3.71,3.78-5.88,5.28-2.73,1.88-5.72,3.51-8.76,4.8-3.65,1.56-7.39,2.67-11.43,3.38-1.77.31-3.61.52-5.4.52-2.27-.02-4.51-.42-6.4-1.52v-33.53c1.9,1.08,4.17,1.38,6.4,1.42,2.98.04,5.84-.4,8.68-1.08,2.86-.71,5.65-1.65,8.37-2.82,2.71-1.15,5.32-2.5,7.76-4.13,1.82-1.23,3.55-2.61,5.13-4.13,1.29-1.25,2.5-2.63,3.25-4.36.4-.9.67-1.86.67-2.8Z"/>
        <path class="cls-3" d="m46.35,199.51l37.8-21.82c.94.54,1.79,1.4,2.19,2.4.19.48.27.98.27,1.52,0,.94-.27,1.9-.67,2.8-.75,1.73-1.96,3.11-3.25,4.36-1.59,1.52-3.32,2.9-5.13,4.13-2.44,1.63-5.05,2.98-7.76,4.13-2.71,1.17-5.51,2.11-8.37,2.82-2.84.69-5.7,1.13-8.68,1.08-2.23-.04-4.51-.33-6.41-1.42Z"/>
        <path class="cls-9" d="m52.75,200.93v33.63c-2.27-.02-4.51-.42-6.4-1.52v-33.53c1.9,1.08,4.17,1.38,6.4,1.42Z"/>
      </g>
      <polygon class="cls-7" points="82.36 126.37 82.36 153.36 50.61 171.68 50.61 144.71 82.36 126.37"/>
      <polygon class="cls-10" points="51.24 145.07 81.74 127.45 81.74 153 51.24 170.6 51.24 145.07"/>
      <polygon class="cls-3" points="49.3 143.96 81.05 125.62 82.36 126.37 50.61 144.71 49.3 143.96"/>
      <polygon class="cls-9" points="49.3 170.93 49.3 143.96 50.61 144.71 50.61 171.68 49.3 170.93"/>
      <polygon class="cls-14" points="46.34 114.79 46.34 233.04 45.59 232.6 45.59 114.35 46.34 114.79"/>
      <polygon class="cls-7" points="84.9 93.4 84.9 117.42 47.11 139.24 47.11 115.22 84.9 93.4"/>
      <polygon class="cls-3" points="84.9 93.4 47.11 115.22 46.34 114.79 84.15 92.96 84.9 93.4"/>
      <polygon class="cls-9" points="47.11 115.22 47.11 139.24 46.34 138.8 46.34 114.79 47.11 115.22"/>
      <polygon class="cls-2" points="50.61 144.71 66.43 135.45 82.36 126.37 66.54 135.63 50.61 144.71"/>
    </g>
    <path class="cls-2" d="m85.95,184.41c-1.32,2.97-3.9,5.09-6.37,7.1-2.53,1.98-5.33,3.6-8.24,4.96-2.93,1.32-5.96,2.42-9.07,3.22-3.1.8-6.31,1.31-9.52,1.25,3.21.03,6.4-.51,9.49-1.35,3.1-.83,6.1-1.96,9.01-3.31,2.91-1.33,5.72-2.9,8.26-4.85,2.48-1.97,5.08-4.06,6.43-7.02Z"/>
    <polygon class="cls-2" points="47.11 115.22 65.95 104.22 84.9 93.4 66.06 104.4 47.11 115.22"/>
  </g>
  <polygon class="cls-3" points="46.34 114.79 46.34 233.04 8.54 254.86 8.54 136.61 46.34 114.79"/>
  <polygon class="cls-5" points="45.57 114.35 46.34 114.79 8.54 136.61 7.79 136.17 45.57 114.35"/>
  <polygon class="cls-14" points="8.54 136.61 8.54 254.86 7.79 254.42 7.79 136.17 8.54 136.61"/>
  <g>
    <polygon class="cls-7" points="7.14 137.3 7.14 255.13 7.99 255.63 7.99 137.79 7.14 137.3"/>
    <polygon class="cls-9" points="7.99 137.79 7.99 255.63 8.83 255.16 8.83 137.3 7.99 137.79"/>
    <polygon class="cls-3" points="7.14 137.3 7.99 137.79 8.83 137.3 7.97 136.8 7.14 137.3"/>
  </g>
  <g>
    <g>
      <path class="cls-10" d="m47.73,249.51c0,.14-.03.28-.09.43-.12.27-.28.5-.52.68-.12.09-.23.17-.36.24v-.88c.13-.08.24-.15.36-.24.23-.18.4-.41.52-.68.06-.14.09-.28.09-.42v.88Z"/>
      <path class="cls-13" d="m47.05,247.89c.06.28-.04.61-.22.85-.14.18-.33.32-.53.44l-18.68,10.78c-.27.15-.58.27-.9.33-.64.14-1.29.14-1.93,0-.32-.06-.62-.18-.9-.33l-4.66-2.69c-.32-.19-.67-.52-.76-.88-.06-.28.04-.61.23-.85.14-.18.32-.32.53-.44l18.66-10.78c.28-.15.58-.27.9-.34.64-.14,1.29-.14,1.93,0,.32.06.63.18.9.34l4.68,2.7c.32.18.67.5.75.86Z"/>
      <polygon class="cls-10" points="28.09 260.77 46.77 249.99 46.77 250.86 28.09 261.63 28.09 260.77"/>
      <path class="cls-2" d="m46.77,249.99l-18.68,10.78c0-.09-.01-.17-.04-.24-.05-.15-.13-.3-.23-.41-.06-.06-.12-.12-.19-.15l18.68-10.78c.06.04.13.09.18.15.12.12.19.26.24.41.03.08.04.15.04.24Z"/>
      <path class="cls-10" d="m24.55,261.19c.81.17,1.62.17,2.42,0,.4-.09.77-.23,1.12-.42v.86c-.35.21-.72.35-1.12.44-.8.17-1.61.17-2.42,0-.4-.09-.77-.23-1.12-.44v-.86c.35.19.72.33,1.12.42Z"/>
      <path class="cls-10" d="m26.97,261.19c-.8.17-1.61.17-2.42,0-.4-.09-.77-.23-1.12-.42,0-.09.01-.17.04-.24.05-.15.13-.3.24-.41.05-.06.12-.12.18-.15.28.15.58.27.9.33.64.14,1.29.14,1.93,0,.32-.06.63-.18.9-.33.08.04.13.09.19.15.1.12.18.26.23.41.03.08.04.15.04.24-.35.19-.72.33-1.12.42Z"/>
      <path class="cls-10" d="m23.43,260.77l-4.66-2.7c0-.08.01-.15.04-.23.05-.15.13-.3.23-.43.06-.05.13-.1.19-.14l4.66,2.69c-.06.04-.13.09-.18.15-.12.12-.19.26-.24.41-.03.08-.04.15-.04.24Z"/>
      <polygon class="cls-10" points="18.77 258.06 23.43 260.77 23.43 261.63 18.77 258.94 18.77 258.06"/>
      <path class="cls-10" d="m37.89,244.32l-18.66,10.78c-.21.12-.39.26-.53.44-.19.24-.3.57-.23.85.09.36.44.68.76.88-.06.04-.13.09-.19.14-.1.13-.18.27-.23.43-.03.08-.04.15-.04.23-.13-.06-.24-.15-.36-.24-.23-.17-.41-.4-.53-.68-.05-.13-.08-.27-.08-.41s.01-.28.05-.41c.03-.12.09-.26.15-.37.06-.12.14-.23.23-.33.17-.19.41-.39.66-.53,6.22-3.59,12.45-7.19,18.68-10.78,0-.01.01-.01.03-.03.27-.15.53-.24.86-.33.32-.09.64-.14,1-.17.35-.03.71,0,1.06.05.33.04.71.14,1,.26.14.06.31.14.44.22,1.56.9,3.1,1.79,4.66,2.69.24.14.49.33.66.53.09.1.18.22.24.33.06.12.12.26.15.39.03.12.05.27.05.4,0,.14-.03.28-.09.42-.12.27-.28.5-.52.68-.12.09-.23.17-.36.24,0-.09-.01-.17-.04-.24-.05-.15-.13-.3-.24-.41-.05-.06-.12-.12-.18-.15.19-.12.39-.26.53-.44.18-.24.28-.57.22-.85-.08-.36-.42-.68-.75-.86l-4.68-2.7c-.27-.15-.58-.27-.9-.34-.64-.14-1.29-.14-1.93,0-.32.06-.62.18-.9.34Z"/>
      <path class="cls-10" d="m18.41,257.82c.12.09.23.18.36.24v.88c-.13-.06-.24-.15-.36-.24-.23-.18-.41-.4-.53-.68-.05-.14-.08-.27-.08-.41v-.88c0,.14.03.28.08.41.12.28.3.52.53.68Z"/>
    </g>
    <polygon class="cls-2" points="42.32 173.89 42.32 246.89 23.64 257.67 23.64 184.67 42.32 173.89"/>
    <polygon class="cls-13" points="36.38 227.94 29.11 232.13 29.11 221.57 36.38 217.38 36.38 227.94"/>
    <polygon class="cls-13" points="36.38 204.71 29.11 208.91 29.11 198.35 36.38 194.16 36.38 204.71"/>
    <polygon class="cls-9" points="23.62 184.72 23.62 257.72 23.16 257.45 23.16 184.45 23.62 184.72"/>
    <polygon class="cls-3" points="41.85 173.62 42.32 173.89 23.64 184.67 23.18 184.4 41.85 173.62"/>
    <g>
      <polygon class="cls-10" points="39.1 199.62 39.1 213.09 29.49 218.64 29.49 205.17 37.78 200.38 39.1 199.62"/>
      <polygon class="cls-13" points="37.78 195.79 39.1 199.62 37.78 200.38 37.78 195.79"/>
      <polygon class="cls-13" points="29.49 205.17 29.49 218.64 28.17 217.88 28.17 201.34 29.49 205.17"/>
      <path class="cls-13" d="m28.17,201.34l1.38,3.75-.06-.02c3.16-1.86,6.34-3.69,9.53-5.5l-.02.05-1.23-3.82,1.3,3.79v.03s-.02.02-.02.02c-3.16,1.86-6.34,3.69-9.53,5.5l-.04.02-.02-.04-1.3-3.77Z"/>
    </g>
    <g>
      <polygon class="cls-10" points="42.78 174.16 42.78 188.25 24.1 199.03 24.1 184.94 42.78 174.16"/>
      <polygon class="cls-13" points="23.64 184.67 42.31 173.89 42.78 174.16 24.1 184.94 23.64 184.67"/>
      <polygon class="cls-13" points="23.64 198.76 23.64 184.67 24.1 184.94 24.1 199.03 23.64 198.76"/>
    </g>
    <polygon class="cls-2" points="24.1 184.94 33.41 179.49 42.78 174.16 33.47 179.61 24.1 184.94"/>
    <g>
      <polygon class="cls-10" points="39.09 221.34 39.09 234.81 29.49 240.36 29.49 226.89 37.78 222.1 39.09 221.34"/>
      <polygon class="cls-13" points="37.78 217.51 39.09 221.34 37.78 222.1 37.78 217.51"/>
      <polygon class="cls-13" points="29.49 226.89 29.49 240.36 28.17 239.6 28.17 223.06 29.49 226.89"/>
      <path class="cls-13" d="m28.17,223.06l1.38,3.75-.06-.02c3.16-1.86,6.34-3.69,9.53-5.51l-.02.05-1.23-3.82,1.3,3.79v.03s-.02.02-.02.02c-3.16,1.86-6.34,3.69-9.53,5.5l-.04.02-.02-.04-1.3-3.77Z"/>
    </g>
    <polygon class="cls-2" points="27.82 260.11 37.12 254.67 46.49 249.33 37.19 254.78 27.82 260.11"/>
  </g>
</svg>