<?xml version="1.0" encoding="UTF-8"?>
<svg xmlns="http://www.w3.org/2000/svg" xmlns:xlink="http://www.w3.org/1999/xlink" viewBox="0 0 461.01 240.6">
  <defs>
    <style>
      .cls-1 {
        fill: #bd825a;
      }

      .cls-2 {
        fill: url(#radial-gradient-7);
      }

      .cls-3 {
        fill: #ae9463;
      }

      .cls-4 {
        fill: #2749c9;
      }

      .cls-5, .cls-6 {
        fill: #dfe1e9;
      }

      .cls-7 {
        fill: url(#linear-gradient-2);
      }

      .cls-7, .cls-8 {
        opacity: .05;
      }

      .cls-9 {
        fill: #cdcddd;
      }

      .cls-9, .cls-10, .cls-11 {
        opacity: .58;
      }

      .cls-12 {
        fill: #2c6ed2;
      }

      .cls-13 {
        fill: #35b7e5;
      }

      .cls-14 {
        fill: #d9d9db;
      }

      .cls-15 {
        fill: #f2f4f5;
      }

      .cls-16 {
        fill: #9599a3;
        opacity: .48;
      }

      .cls-6, .cls-17 {
        opacity: .51;
      }

      .cls-18 {
        isolation: isolate;
      }

      .cls-19 {
        fill: #abb0ca;
      }

      .cls-20 {
        opacity: .2;
      }

      .cls-21 {
        fill: #646b89;
      }

      .cls-22 {
        fill: #484c66;
      }

      .cls-23 {
        fill: #f0f2f5;
      }

      .cls-24 {
        fill: #cbcfdb;
      }

      .cls-25 {
        fill: url(#radial-gradient-6);
      }

      .cls-26 {
        fill: url(#radial-gradient);
      }

      .cls-27 {
        fill: #a6a1e2;
      }

      .cls-10 {
        fill: #a7a9c8;
      }

      .cls-8 {
        fill: url(#linear-gradient);
      }

      .cls-28 {
        fill: url(#radial-gradient-5);
      }

      .cls-28, .cls-29, .cls-30 {
        opacity: .39;
      }

      .cls-31, .cls-17 {
        fill: #dddde9;
      }

      .cls-32 {
        fill: #cccce2;
      }

      .cls-33 {
        fill: #004e62;
      }

      .cls-34 {
        fill: #ffc29f;
      }

      .cls-35 {
        fill: url(#linear-gradient-3);
      }

      .cls-35, .cls-36 {
        opacity: .43;
      }

      .cls-37 {
        fill: #f0f0f2;
      }

      .cls-38 {
        fill: url(#radial-gradient-2);
      }

      .cls-29 {
        fill: url(#radial-gradient-4);
      }

      .cls-11, .cls-39 {
        fill: #c8cbdd;
      }

      .cls-40 {
        fill: #e6e8ed;
        mix-blend-mode: multiply;
      }

      .cls-36 {
        fill: #edeef2;
      }

      .cls-41 {
        fill: #154902;
      }

      .cls-42 {
        fill: #f8f9fb;
      }

      .cls-30 {
        fill: url(#radial-gradient-3);
      }

      .cls-43 {
        fill: #f0f3f7;
      }

      .cls-44 {
        fill: url(#linear-gradient-4);
      }

      .cls-45 {
        fill: #f2f4f7;
      }

      .cls-46 {
        fill: #f2f2f2;
      }
    </style>
    <radialGradient id="radial-gradient" cx="-1031.62" cy="-246.07" fx="-1031.62" fy="-246.07" r="124.14" gradientTransform="translate(-566.84 226.11) rotate(-180) scale(.83 -.08)" gradientUnits="userSpaceOnUse">
      <stop offset="0" stop-color="#8e92b2"/>
      <stop offset=".04" stop-color="#8e92b2" stop-opacity=".9"/>
      <stop offset=".15" stop-color="#8e92b2" stop-opacity=".67"/>
      <stop offset=".27" stop-color="#8e92b2" stop-opacity=".46"/>
      <stop offset=".39" stop-color="#8e92b2" stop-opacity=".29"/>
      <stop offset=".51" stop-color="#8e92b2" stop-opacity=".16"/>
      <stop offset=".65" stop-color="#8e92b2" stop-opacity=".07"/>
      <stop offset=".8" stop-color="#8e92b2" stop-opacity=".02"/>
      <stop offset="1" stop-color="#8e92b2" stop-opacity="0"/>
    </radialGradient>
    <radialGradient id="radial-gradient-2" cx="-611.61" cy="-574.82" fx="-611.61" fy="-574.82" r="17.27" gradientTransform="translate(-97.27 -2168.92) rotate(-90) scale(3.83 -.36)" xlink:href="#radial-gradient"/>
    <linearGradient id="linear-gradient" x1="-885.28" y1="56.05" x2="-638.4" y2="56.05" gradientTransform="translate(-582.46) rotate(-180) scale(1 -1)" gradientUnits="userSpaceOnUse">
      <stop offset=".19" stop-color="#fff" stop-opacity=".08"/>
      <stop offset="1" stop-color="#000"/>
    </linearGradient>
    <radialGradient id="radial-gradient-3" cx="-447.2" cy="-765.65" fx="-447.2" fy="-765.65" r="17.27" gradientTransform="translate(-2455.65 532.09) rotate(-180) scale(5.93 -.53)" xlink:href="#radial-gradient"/>
    <radialGradient id="radial-gradient-4" cx="-445.86" cy="-757.29" fx="-445.86" fy="-757.29" r="17.27" gradientTransform="translate(-2455.1 545.59) rotate(-180) scale(5.93 -.53)" xlink:href="#radial-gradient"/>
    <linearGradient id="linear-gradient-2" x1="-880.54" y1="55.22" x2="-639.67" y2="55.22" xlink:href="#linear-gradient"/>
    <radialGradient id="radial-gradient-5" cx="-448.26" cy="-759.26" fx="-448.26" fy="-759.26" r="17.27" gradientTransform="translate(-2431.71 504.09) rotate(-180) scale(5.87 -.52)" xlink:href="#radial-gradient"/>
    <linearGradient id="linear-gradient-3" x1="-842.97" y1="5.42" x2="-674.28" y2="102.82" gradientTransform="translate(-582.46) rotate(-180) scale(1 -1)" gradientUnits="userSpaceOnUse">
      <stop offset="0" stop-color="#dddde9" stop-opacity=".51"/>
      <stop offset="1" stop-color="#fff"/>
    </linearGradient>
    <linearGradient id="linear-gradient-4" x1="-1759.26" y1="-869.34" x2="-1759.26" y2="-854.44" gradientTransform="translate(-1692.26 -573.86) rotate(-135) scale(1 -1)" xlink:href="#linear-gradient-3"/>
    <radialGradient id="radial-gradient-6" cx="-15.4" cy="-945.89" fx="-15.4" fy="-945.89" r="17.25" gradientTransform="translate(-401.87 240.8) rotate(90) scale(2.4 .48)" xlink:href="#radial-gradient"/>
    <radialGradient id="radial-gradient-7" cx="118.68" cy="-975.13" fx="118.68" fy="-975.13" r="17.35" gradientTransform="translate(-415.44 -83.7) rotate(90) scale(2.4 .48)" xlink:href="#radial-gradient"/>
  </defs>
  <g class="cls-18">
    <g id="Layer_1" data-name="Layer 1">
      <g>
        <path class="cls-36" d="m285.28,125.72c11.92,27.57,177.58,1.23,175.72,34.49-3.14,56.23-358.2,118.35-435.7,51.12-62.64-54.33,73.41-107.13,180.31-124.52,115.21-18.74,50.03-29.65,79.67,38.91Z"/>
        <path class="cls-36" d="m433.49,114.98c-.53,9.51-60.61,20.02-73.72,8.65-10.6-9.19,12.42-18.13,30.51-21.07,19.49-3.17,43.53,6.79,43.21,12.42Z"/>
        <g>
          <polygon class="cls-39" points="58.15 50.64 100.79 163.2 101.34 164.65 101.43 168.39 99.7 163.86 99.46 163.24 58.01 52.26 58.15 50.64"/>
          <g>
            <polygon class="cls-24" points="80.48 68.24 81.7 70.26 91.9 70.26 90.69 68.24 80.48 68.24"/>
            <polygon class="cls-24" points="79.03 65.47 80.24 67.5 90.45 67.5 89.23 65.47 79.03 65.47"/>
            <polygon class="cls-24" points="77.79 62.71 79 64.73 89.2 64.73 87.99 62.71 77.79 62.71"/>
          </g>
          <polygon class="cls-39" points="69.4 31.88 69.4 34.41 77.36 55.63 84.83 75.53 110.73 144.61 111.08 145.57 112.4 145.53 112.04 144.57 86.11 76.03 81.51 63.89 79.61 58.84 77.58 53.54 69.4 31.88"/>
          <g>
            <polygon class="cls-24" points="92.17 50.31 93.39 52.33 103.59 52.33 102.38 50.31 92.17 50.31"/>
            <polygon class="cls-24" points="90.72 47.54 91.93 49.56 102.14 49.56 100.92 47.54 90.72 47.54"/>
            <polygon class="cls-24" points="89.48 44.77 90.69 46.8 100.9 46.8 99.68 44.77 89.48 44.77"/>
          </g>
          <path class="cls-43" d="m231.07,171.76l68.34.28,60.67.27,54.5,29.41-60.66-.25-68.36-.3-70.99-.3-54.5-29.41,70.99.3Z"/>
          <path class="cls-26" d="m147.76,205.57c0,2.14,10.6,4.1,28.63,5.68,10.48.94,23.47,1.76,38.36,2.4h.02c3.01.15,6.1.26,9.29.38,3.97.15,8.04.29,12.22.44h.48c19.98.59,42.29.94,65.83.94,6.12,0,12.08-.03,17.85-.09.05.03.11.03.16,0,14.57-.09,28.02-.35,40.23-.73,5.16-.15,10.11-.32,14.82-.5.04,0,.09,0,.12-.03,12.06-.47,22.61-1.11,31.51-1.84,8.29-.64,15.12-1.4,20.41-2.22.07-.03.12-.03.18-.03,8.31-1.32,12.7-2.81,12.7-4.39,0-1.14-2.3-2.22-6.73-3.25-3.79-.88-9.13-1.7-15.92-2.43-.98-.12-2.01-.2-3.06-.32-.12,0-.25-.03-.37-.03-1.73-.18-3.54-.35-5.44-.5-5.28-.44-11.17-.85-17.67-1.26h-.28c-1.87-.12-3.81-.2-5.78-.29-5.2-.26-10.75-.53-16.62-.73-4.15-.15-8.43-.26-12.9-.38-15.85-.41-33.66-.64-53.2-.64h-4.09c-20.55.03-40.09.32-57.9.79-12.49.35-24.11.82-34.61,1.35-2.26.12-4.48.23-6.64.35-.71.06-1.42.09-2.12.12-.94.06-1.85.12-2.76.18-.82.06-1.62.12-2.4.15-3.91.26-7.6.53-11.05.79-1,.09-1.97.18-2.94.26-.32.03-.64.06-.94.09-.28.03-.55.03-.82.06h-.04c-4.04.38-7.7.76-10.96,1.14-11.23,1.37-17.58,2.93-17.58,4.56Z"/>
          <ellipse class="cls-38" cx="110.32" cy="176.6" rx="4.63" ry="92.88" transform="translate(-96.12 203.82) rotate(-65.52)"/>
          <polygon class="cls-37" points="72.65 148.96 72.89 149.59 74.52 150.38 166.28 202.91 421.75 198.38 283.22 143.37 72.65 148.96"/>
          <polygon class="cls-42" points="74.52 150.38 74.52 150.38 74.52 150.38 166.28 202.91 421.75 198.38 283.22 143.37 74.52 150.38"/>
          <polygon class="cls-11" points="226.64 193.75 291.35 193.75 263.29 178.27 200.83 178.27 226.64 193.75"/>
          <polygon class="cls-10" points="374.86 193.75 391.97 193.75 378.45 188.34 362.92 188.34 374.86 193.75"/>
          <polygon class="cls-17" points="140.82 172.04 309.29 167.49 277.02 152.01 108.55 156.56 140.82 172.04"/>
          <polygon class="cls-46" points="73.98 148.93 31.34 36.24 240.27 30.68 283.42 143.36 73.98 148.93"/>
          <polygon class="cls-8" points="98.14 111.62 55.93 .47 257.69 .54 302.82 106.06 98.14 111.62"/>
          <polygon class="cls-19" points="74.52 150.37 74.61 154.11 165.46 205.99 166.28 202.91 74.52 150.37"/>
          <polygon class="cls-45" points="75.04 147.89 31.95 36.74 238.28 30.68 279.72 142.33 75.04 147.89"/>
          <polygon class="cls-6" points="74.52 150.38 31.34 36.24 238.28 30.68 284.08 142.69 74.52 150.38"/>
          <polygon class="cls-6" points="53.41 65.39 78.87 131.19 114.64 130.32 89.29 65.39 53.41 65.39"/>
          <polygon class="cls-6" points="44.24 45.5 49.48 58.92 233.07 58.92 226.54 45.5 44.24 45.5"/>
          <polygon class="cls-14" points="217.96 56.03 228.74 56.03 224.79 48.06 214.01 48.06 217.96 56.03"/>
          <polygon class="cls-14" points="124.82 54.26 185.86 54.26 183.25 49.38 122.21 49.38 124.82 54.26"/>
          <ellipse class="cls-30" cx="197.55" cy="128.74" rx="143.7" ry="6.76" transform="translate(-3.9 6.19) rotate(-1.78)"/>
          <ellipse class="cls-29" cx="190.19" cy="146.65" rx="143.7" ry="6.76" transform="translate(-4.46 5.97) rotate(-1.78)"/>
          <polygon class="cls-42" points="85.23 130.3 42.58 17.6 251.51 12.04 294.66 124.73 85.23 130.3"/>
          <polygon class="cls-7" points="99.89 109.91 57.21 .55 257.69 .54 298.08 107.35 99.89 109.91"/>
          <polygon class="cls-45" points="84.97 130.3 41.55 17.08 251.87 15.7 290.81 123.18 84.97 130.3"/>
          <polygon class="cls-6" points="65.08 47.61 90.54 113.42 126.32 112.54 100.96 47.61 65.08 47.61"/>
          <polygon class="cls-6" points="55.93 27.57 61.17 40.99 244.76 40.99 238.23 27.57 55.93 27.57"/>
          <polygon class="cls-14" points="229.66 38.1 240.44 38.1 236.48 30.13 225.7 30.13 229.66 38.1"/>
          <polygon class="cls-14" points="136.51 36.32 197.55 36.32 194.94 31.45 133.9 31.45 136.51 36.32"/>
          <polygon class="cls-45" points="97.86 113.3 54.72 .62 257.69 .54 298.08 107.35 97.86 113.3"/>
          <ellipse class="cls-28" cx="197.55" cy="111.06" rx="142.06" ry="6.64" transform="translate(-3.35 6.18) rotate(-1.78)"/>
          <polygon class="cls-35" points="97.86 113.3 54.72 .62 257.69 .54 298.08 107.35 97.86 113.3"/>
          <polygon class="cls-6" points="96.58 80.51 103.87 100.21 139.65 99.34 131.95 80.51 96.58 80.51"/>
          <polygon class="cls-6" points="87.51 57.93 94.7 75.64 130.71 75.64 123.46 57.93 87.51 57.93"/>
          <polygon class="cls-6" points="78.41 34.41 85.63 53.06 121.56 53.06 114.29 34.41 78.41 34.41"/>
          <polygon class="cls-6" points="120.4 34.4 145.44 99.18 284.81 96.62 259.17 34.4 120.4 34.4"/>
          <polygon class="cls-11" points="201.24 41.23 213.56 71.13 264.9 70.4 252.94 41.4 201.24 41.23"/>
          <path class="cls-9" d="m132.36,41.87l13.69,33.9,1.34,3.33,1.37,3.36c.89-.07,1.81-.15,2.77-.28,4.17-.55,7.53-2.32,10.43-4.44.91-.66,1.79-1.36,2.62-2.05,4.19-3.51,7.55-7.19,11.48-7.52,2.98-.26,7.17.78,11.06,2.09l-12.3-28.18-42.46-.2Z"/>
          <polygon class="cls-6" points="70.34 13.14 75.58 26.56 255.81 26.56 249.57 13.14 70.34 13.14"/>
          <polygon class="cls-39" points="54.68 1.75 97.22 113.6 97.87 113.17 97.87 113.17 97.83 112.69 54.68 0 54.68 1.75"/>
          <polygon class="cls-39" points="41.54 18.83 84.37 131.25 84.97 130.3 41.55 17.08 41.54 18.83"/>
          <polygon class="cls-39" points="31.33 39.36 74.61 154.11 74.52 150.79 74.52 150.79 74.47 150.3 31.34 36.24 31.33 39.36"/>
          <polygon class="cls-31" points="421.74 198.39 421.83 202.13 165.46 205.99 166.28 202.91 421.74 198.39"/>
          <polygon class="cls-31" points="97.22 113.6 97.22 113.6 306.4 108.03 306.76 107.13 97.83 112.69 97.22 113.6"/>
          <polygon class="cls-31" points="84.37 131.25 294.37 125.7 294.65 124.74 84.97 130.3 84.37 131.25"/>
          <g>
            <polygon class="cls-39" points="79.77 21.6 80.98 23.63 91.19 23.63 89.97 21.6 79.77 21.6"/>
            <polygon class="cls-39" points="78.31 18.84 79.53 20.86 89.73 20.86 88.52 18.84 78.31 18.84"/>
            <polygon class="cls-39" points="77.07 16.07 78.29 18.1 88.49 18.1 87.28 16.07 77.07 16.07"/>
          </g>
          <polygon class="cls-39" points="150.92 21.9 211.96 21.9 209.35 17.02 148.31 17.02 150.92 21.9"/>
          <polygon class="cls-16" points="165.46 205.99 421.83 202.13 421.83 201.55 165.61 205.41 74.74 153.53 74.61 154.11 165.46 205.99"/>
          <polygon class="cls-39" points="239.13 87.35 239.57 88.41 272.35 87.72 271.9 86.66 239.13 87.35"/>
          <polygon class="cls-39" points="237.28 82.86 237.71 83.94 237.73 83.94 270.5 83.26 270.06 82.18 237.28 82.86"/>
          <polygon class="cls-39" points="235.27 77.99 235.71 79.06 268.5 78.38 268.06 77.31 235.27 77.99"/>
          <polygon class="cls-15" points="231.1 55.19 237.01 51.59 239.43 58.86 231.1 55.19"/>
          <path class="cls-12" d="m148.77,82.46l1.69,4.21,1.54,3.79.55,1.36,43.62-.84-1.32-3.05-5.55-12.7-2.17-4.97c-3.89-1.31-8.08-2.35-11.06-2.09-3.92.33-7.29,4.01-11.48,7.52-.83.7-1.71,1.39-2.62,2.05-2.9,2.12-6.26,3.89-10.43,4.44-.96.13-1.87.22-2.77.28Z"/>
          <path class="cls-13" d="m146.06,75.77l1.34,3.33,1.37,3.36c.89-.07,1.81-.15,2.77-.28,4.17-.55,7.53-2.32,10.43-4.44.91-.66,1.79-1.36,2.62-2.05-1.56-.75-3.87-1.69-7.2-2.68-4.65-1.39-8.79.83-11.33,2.77Z"/>
          <path class="cls-4" d="m152,90.46l.55,1.36,43.62-.84-1.32-3.05c-3.61-1.97-8.26-4.21-14.16-6.51-11.74-4.59-22.21,2.62-28.68,9.04Z"/>
          <circle class="cls-44" cx="161.17" cy="60.67" r="7.45"/>
          <ellipse class="cls-25" cx="56.61" cy="203.83" rx="8.41" ry="58.06" transform="translate(-154.73 213.12) rotate(-77)"/>
          <g>
            <g class="cls-20">
              <path class="cls-32" d="m155.72,232.19c3.44-.13,6.73-.64,9.78-1.51l5.86,1.81.45-.15c1.79-.62,3.41-1.34,4.82-2.16,1.44-.83,2.69-1.77,3.74-2.81l.96-.95-3.05-3.53c1.17-1.55,1.93-3.21,2.25-4.91l5.78-2.08-.03-1.04c-.07-2.69-1.18-5.14-3.3-7.3l-.4-.41-6.69-.22c-.94-.81-2.02-1.57-3.23-2.27-1.08-.63-2.25-1.2-3.49-1.7l-.19-3.89-.95-.31c-3.61-1.16-7.42-1.76-11.35-1.77h-.55s-3.69,3.24-3.69,3.24c-3.44.13-6.73.64-9.78,1.51l-5.85-1.82-.45.16c-1.8.62-3.42,1.35-4.83,2.17-1.44.83-2.69,1.77-3.73,2.8l-.95.95,3.04,3.54c-1.16,1.54-1.92,3.21-2.24,4.91l-5.79,2.08.03,1.04c.07,2.69,1.18,5.14,3.3,7.3l.4.41,6.69.22c.94.81,2.03,1.57,3.23,2.27,1.1.64,2.27,1.21,3.49,1.71l.18,3.89.95.31c3.61,1.16,7.43,1.76,11.36,1.76h.55s3.68-3.23,3.68-3.23Zm-1.59-25.25c3.79,0,7.32.84,9.95,2.37,2.37,1.38,3.67,3.12,3.67,4.92,0,1.81-1.33,3.57-3.74,4.96-2.65,1.53-6.19,2.37-9.97,2.37h0c-3.78,0-7.31-.84-9.94-2.37-2.37-1.38-3.68-3.13-3.68-4.92,0-1.81,1.33-3.57,3.74-4.96,2.65-1.53,6.19-2.37,9.97-2.37Z"/>
            </g>
            <g class="cls-18">
              <polygon class="cls-21" points="132.74 202.44 132.75 207.99 135.48 211.17 135.47 205.61 132.74 202.44"/>
              <path class="cls-21" d="m139,211.87l.02,5.52c0-2.53,1.66-5.06,5.01-7,6.65-3.84,17.4-3.83,24,0,3.28,1.91,4.92,4.4,4.93,6.9l-.02-5.52c0-2.5-1.65-4.99-4.93-6.9-6.61-3.84-17.35-3.84-24,0-3.34,1.93-5.01,4.46-5.01,7Z"/>
              <polygon class="cls-21" points="179.27 212.45 179.28 218.01 184.47 216.14 184.45 210.58 179.27 212.45"/>
              <path class="cls-21" d="m176.66,217.98l.02,5.55c1.56-1.74,2.44-3.63,2.61-5.53l-.02-5.55c-.17,1.9-1.05,3.79-2.61,5.53Z"/>
              <path class="cls-21" d="m127.68,213l.02,5.55c.05,2.11.91,4.06,2.66,5.84l-.02-5.55c-1.75-1.78-2.61-3.73-2.66-5.84Z"/>
              <polygon class="cls-21" points="130.34 218.84 130.35 224.4 136.47 224.6 136.46 219.05 130.34 218.84"/>
              <path class="cls-21" d="m136.46,219.05l.02,5.55c.88.8,1.92,1.56,3.12,2.26,1.19.69,2.47,1.29,3.84,1.8l-.02-5.55c-1.37-.5-2.65-1.11-3.84-1.8-1.2-.7-2.25-1.46-3.12-2.26Z"/>
              <path class="cls-21" d="m156.95,225.2l.02,5.52c3.27-.09,6.52-.57,9.51-1.47l-.02-5.52c-2.99.9-6.24,1.38-9.51,1.47Z"/>
              <path class="cls-21" d="m171.81,225.38l.02,5.52c1.56-.54,2.97-1.16,4.2-1.88,1.22-.7,2.28-1.49,3.16-2.37l-.02-5.52c-.89.88-1.94,1.67-3.16,2.37-1.23.71-2.64,1.34-4.2,1.88Z"/>
              <polygon class="cls-21" points="166.46 223.73 166.48 229.26 171.83 230.91 171.81 225.38 166.46 223.73"/>
              <polygon class="cls-27" points="143.43 223.11 143.44 228.66 143.61 232.19 143.59 226.64 143.43 223.11"/>
              <polygon class="cls-21" points="153.59 228.15 153.61 233.67 156.97 230.72 156.95 225.2 153.59 228.15"/>
              <path class="cls-5" d="m143.43,223.11l.17,3.53c3.17,1.02,6.52,1.56,10.08,1.57l3.38-2.97c3.29-.09,6.56-.57,9.56-1.47l5.38,1.66c1.57-.54,2.98-1.17,4.22-1.89,1.23-.71,2.29-1.5,3.18-2.39l-2.74-3.17c1.56-1.74,2.44-3.63,2.61-5.53l5.19-1.87c-.05-2.11-.91-4.06-2.66-5.84l-6.12-.21c-.88-.8-1.92-1.56-3.12-2.26-1.19-.69-2.48-1.29-3.84-1.8l-.18-3.53c-3.17-1.02-6.52-1.56-10.07-1.57l-3.38,2.97c-3.29.09-6.56.57-9.56,1.47l-5.37-1.67c-1.57.55-2.99,1.18-4.23,1.9-1.22.71-2.28,1.5-3.17,2.38l2.73,3.17c-1.56,1.74-2.43,3.63-2.6,5.53l-5.19,1.86c.05,2.11.91,4.06,2.66,5.84l6.12.21c.88.8,1.92,1.56,3.12,2.26,1.19.69,2.47,1.29,3.84,1.8Zm24.66-4.32c-6.69,3.86-17.48,3.86-24.12,0-6.64-3.86-6.61-10.12.07-13.98,6.69-3.86,17.49-3.86,24.13,0,6.64,3.86,6.61,10.11-.08,13.97"/>
              <path class="cls-21" d="m143.57,226.59l.02,5.52c3.16,1.02,6.49,1.55,10.03,1.56l-.02-5.52c-3.54,0-6.87-.54-10.03-1.56Z"/>
            </g>
          </g>
          <g>
            <g class="cls-20">
              <path class="cls-32" d="m212.69,228.76c2.33-.09,4.56-.43,6.63-1.03l3.97,1.23.3-.1c1.21-.42,2.31-.91,3.27-1.46.97-.56,1.83-1.2,2.53-1.9l.65-.64-2.07-2.39c.79-1.05,1.31-2.18,1.52-3.32l3.91-1.41-.02-.71c-.05-1.82-.8-3.48-2.23-4.95l-.27-.28-4.53-.15c-.64-.55-1.37-1.07-2.19-1.54-.73-.42-1.52-.81-2.37-1.15l-.13-2.63-.64-.21c-2.44-.79-5.03-1.19-7.69-1.2h-.37s-2.5,2.19-2.5,2.19c-2.33.09-4.56.43-6.63,1.03l-3.97-1.23-.3.11c-1.22.42-2.32.92-3.27,1.47-.97.56-1.82,1.2-2.53,1.9l-.65.64,2.06,2.4c-.79,1.04-1.3,2.17-1.52,3.32l-3.92,1.41.02.71c.05,1.82.8,3.49,2.23,4.95l.27.28,4.53.15c.64.55,1.37,1.07,2.19,1.54.75.43,1.54.82,2.37,1.16l.12,2.63.64.21c2.45.79,5.04,1.19,7.7,1.2h.37s2.49-2.19,2.49-2.19Zm-1.08-17.11c2.57,0,4.96.57,6.74,1.61,1.61.93,2.49,2.12,2.49,3.33,0,1.23-.9,2.42-2.53,3.36-1.79,1.04-4.19,1.61-6.76,1.61h0c-2.56,0-4.95-.57-6.74-1.6-1.61-.93-2.49-2.12-2.49-3.33,0-1.23.9-2.42,2.53-3.36,1.79-1.03,4.19-1.6,6.76-1.6Z"/>
            </g>
            <g class="cls-18">
              <polygon class="cls-21" points="197.12 208.61 197.13 212.37 198.98 214.52 198.97 210.76 197.12 208.61"/>
              <path class="cls-21" d="m201.37,215v3.74c0-1.71,1.14-3.43,3.4-4.74,4.5-2.6,11.79-2.6,16.26,0,2.22,1.29,3.34,2.98,3.34,4.68v-3.74c-.02-1.69-1.13-3.38-3.35-4.68-4.48-2.6-11.76-2.6-16.26,0-2.27,1.31-3.4,3.03-3.39,4.74Z"/>
              <polygon class="cls-21" points="228.65 215.39 228.66 219.16 232.17 217.89 232.16 214.13 228.65 215.39"/>
              <path class="cls-21" d="m226.88,219.14v3.76c1.07-1.18,1.66-2.46,1.78-3.75v-3.76c-.13,1.29-.72,2.57-1.78,3.75Z"/>
              <path class="cls-21" d="m193.69,215.77v3.76c.05,1.43.63,2.75,1.81,3.96v-3.76c-1.2-1.21-1.78-2.53-1.81-3.96Z"/>
              <polygon class="cls-21" points="195.5 219.73 195.51 223.49 199.66 223.63 199.65 219.86 195.5 219.73"/>
              <path class="cls-21" d="m199.65,219.86v3.76c.61.54,1.31,1.06,2.13,1.53.81.47,1.67.88,2.6,1.22v-3.76c-.94-.34-1.81-.75-2.61-1.22-.82-.47-1.52-.99-2.12-1.53Z"/>
              <path class="cls-21" d="m213.53,224.03v3.74c2.23-.06,4.43-.39,6.45-.99v-3.74c-2.04.61-4.24.93-6.45.99Z"/>
              <path class="cls-21" d="m223.6,224.16v3.74c1.07-.37,2.02-.79,2.86-1.27.83-.48,1.54-1.01,2.14-1.61v-3.74c-.61.6-1.33,1.13-2.15,1.61-.84.48-1.79.91-2.85,1.27Z"/>
              <polygon class="cls-21" points="219.97 223.04 219.99 226.78 223.61 227.9 223.6 224.16 219.97 223.04"/>
              <polygon class="cls-27" points="204.37 222.61 204.38 226.38 204.49 228.77 204.48 225.01 204.37 222.61"/>
              <polygon class="cls-21" points="211.25 226.03 211.27 229.77 213.54 227.77 213.53 224.03 211.25 226.03"/>
              <path class="cls-5" d="m204.37,222.61l.11,2.39c2.15.69,4.42,1.06,6.83,1.06l2.29-2.01c2.23-.06,4.44-.39,6.48-1l3.64,1.13c1.07-.37,2.02-.79,2.86-1.28.83-.48,1.55-1.02,2.15-1.62l-1.85-2.15c1.06-1.18,1.65-2.46,1.77-3.75l3.51-1.27c-.04-1.43-.62-2.75-1.8-3.96l-4.15-.14c-.59-.54-1.3-1.06-2.12-1.53-.81-.47-1.68-.87-2.6-1.22l-.12-2.39c-2.15-.69-4.42-1.06-6.82-1.06l-2.29,2.01c-2.23.06-4.44.39-6.48,1l-3.64-1.13c-1.07.37-2.02.8-2.87,1.28-.83.48-1.55,1.01-2.15,1.61l1.85,2.15c-1.06,1.18-1.64,2.46-1.76,3.75l-3.52,1.26c.04,1.43.62,2.75,1.8,3.96l4.15.14c.59.54,1.3,1.06,2.12,1.53.81.47,1.67.88,2.6,1.22Zm16.71-2.93c-4.53,2.62-11.85,2.62-16.35,0-4.5-2.62-4.48-6.86.05-9.47,4.53-2.62,11.85-2.61,16.35,0,4.5,2.62,4.48,6.85-.05,9.47"/>
              <path class="cls-21" d="m204.46,224.97v3.74c2.15.69,4.41,1.05,6.8,1.06v-3.74c-2.41,0-4.66-.37-6.8-1.06Z"/>
            </g>
          </g>
          <g>
            <ellipse class="cls-2" cx="57.21" cy="201.22" rx="8.46" ry="58.4" transform="translate(-151.73 211.69) rotate(-77)"/>
            <path class="cls-40" d="m77.06,67.67c-3.27.34.55,5.61,1.34,8.79.43,1.72,4.51.79,9.56-.52-.8-3.14-2.19-6.38-2.47-9.04-4.58.42-8.43.77-8.43.77Z"/>
            <path class="cls-22" d="m64.13,190.35c-.07.31-.18.6-.31.9-.76,1.54-2.24,2.64-3.76,3.45-1.92,1.05-4.05,1.77-6.22,2.17-1.61.29-5.51,1.92-5.77,2.13-.51.38-1.19.38-1.81.38-2.44-.02-4.34-.18-4.14-3.07.11-1.75.63-3.65,1.39-5.24.18-.4.43-.74.69-1.07.49-.58,1.12-1.07,1.75-1.52,1.34-1.01,3.04-2.55,4.86-2.15.96.2,1.45.6,2.51.54,1.19-.07,2.39-.29,3.56-.56,1.07-.25,2.1-.56,3.2-.65,1.07-.07,2.22.16,3.07.85.2.18.38.38.54.6.63.92.76,2.15.47,3.25Z"/>
            <path class="cls-22" d="m83.54,194.06c.02.76-.13,1.52-.47,2.19-.65,1.3-1.77,2.26-3.02,3.04-.25.13-.47.27-.72.4-1.95,1.05-4.05,1.77-6.22,2.15-1.61.29-5.53,1.95-5.8,2.15-.49.38-1.16.38-1.79.38-2.44-.02-4.34-.2-4.16-3.09.11-1.75.65-3.65,1.39-5.24.38-.83,1.03-1.48,1.75-2.04.22-.2.47-.38.72-.56,1.34-1.01,3.04-2.53,4.86-2.15.96.22,1.43.63,2.48.56,1.21-.07,2.42-.29,3.58-.58,1.05-.25,2.1-.56,3.18-.63,1.1-.07,2.24.13,3.07.83.22.18.4.38.56.6.04.09.11.16.13.25.29.51.45,1.1.47,1.72Z"/>
            <path class="cls-23" d="m85.96,196.84c-2.26,2.07-7.41,3.79-10.52,3.73-3.44-.06-23.9-1.97-26.55-3.88-2.02-1.45-3.71-3.31-5.77-4.72-.94-.65-7.58-2.33-8.75-2.49-.55-2.17,4.45-64.91,14.45-93.26,2.48-7.04-1.23-25.24-2.21-32.18-.13-.94-.82-4.15-.79-4.79.21-4.47,2.79-8.92,12.5-7.68l13.6,3.73c1.57.88,5.49,1.43,8.67,3.07.16.08.32.17.48.26,1.98,1.12.29,3.11.7,5.56,0,0-1.21,19.28-1.3,26.25-.08,5.47,4.75,86.4,5.49,106.39Z"/>
            <path class="cls-5" d="m85.96,196.93c-2.27,2.07-7.4,3.78-10.53,3.73-3.43-.05-23.89-1.97-26.56-3.88-2.02-1.46-3.7-3.3-5.75-4.71-.96-.66-7.59-2.34-8.75-2.49,0-2.47.68-9.1.96-15.4,3.16,4.82,4.17,8.41,4.5,9.9,10.53-25.85,6.52-38.5,7.43-55.78,3.96,22.51.03,48.6,1.23,57.33.5,3.63,3.55,7.11,7.21,6.98,4.91-.13,7.25-4.35,6.75-9.26-.48-4.89.23-12.39,1.24-17.21,0,8.72.73,16.62.93,20.17.2,3.55,2.4,7.21,5.92,7.84,11.32,2.01,10.85-27.42,10.22-35.81l-2.57-34.17c-.43-5.47-3.64-11.91-7.32-15.99-2.97-3.33-7.43-4.81-11.69-6.17,5.85-.4,11.16-5.06,12.27-10.84.93-4.69-.98-9.85-4.59-12.94.6-.68,1.34-1.36,2.24-2.09.53-.4.86-1.14,1.13-2.17.45-.6.86-1.26,1.16-1.94,1.06-2.34,1.41-4.91,2.22-7.31.15-.53.35-1.06.58-1.56.53-1.13,1.31-2.24,2.27-3.07,1.18-1.06,2.65-1.71,4.13-1.59.15.08.33.18.48.25,1.99,1.13.3,3.12.71,5.57,0,0-1.21,19.28-1.31,26.26-.08,5.47,4.4,86.87,5.49,106.38Z"/>
            <path class="cls-1" d="m59.79,51.51c0,3.13,5.48,3.97,9.67,4.4,0,0,.02,0,.02,0,.87-.79,1.35-1.55,1.35-1.55l.12-6.3-11.02-.96-.22,4.3s.08.07.08.1Z"/>
            <path class="cls-34" d="m75.72,27.5c-.47,2.79-.17,5.64-.03,8.46.15,2.82.12,5.74-.95,8.36-1.07,2.62-3.41,4.89-6.22,5.12-.67.06-1.37-.01-1.97-.32-1.18-.61-5.48.15-5.91-1.1-1.11-3.21,1.52-8.73,2.09-12.08.49-2.89,2.23-5.47,4.43-7.41,1.86-1.64,4.06-2.89,6.42-3.63l2.16,2.61Z"/>
            <path class="cls-22" d="m74.48,44.89c-.06-.05-2.14,1.13-2.92,1.58-.2.11-.33.19-.34.43,0,.1.02.22.06.34-.12.18,0,.45.2.49.03.05.06.1.08.14.05.06.14.12.22.1.57-.1,1.1-.68,1.44-1.11.21-.27.97-1.34,1.05-1.6.02-.05.2-.38.2-.38Z"/>
            <path class="cls-40" d="m76.54,59.71c-.03.08-.05.27-.08.35-.98.98-1.62,1.69-2.15,2.83-.23.5-.58,1.36-.73,1.89-.4.45-.83.71-1.28,1.11-1.34,1.18-1.41,5.27-2.07,7.96-.28,1.03-.6,1.86-1.13,2.27-.91.73-1.64,1.41-2.24,2.09-3.93,4.46-3.25,17.23-8.11,23.03-.58.68-5.72-18.83-6.83-30.31-.11-1.12-1.49-4.06-2.34-4.79-.58-.45-1.21-2.77-1.36-3.53-.33-1.89,4.43-.3,5.22.03,1.29.53,2.42,1.36,3.68,1.89,2.42,1.06,5.19,1.03,7.69.3,3.3-.98,6.2-3.2,8.01-6.1.33-.5.6-1.06,1.03-1.46.43-.4,1.06-.68,1.64-.55.55.15.98.68,1.13,1.23.15.58.08,1.18-.08,1.76Z"/>
            <path class="cls-23" d="m48.33,62c.21.35.97,3,1.25,3.28.05.05.12.16.23.32.44.74,1.45,2.49,1.52,2.66.53,1.39,1.09,3.9,1.69,6.95,0,.07,0,.12.02.18.72,8.52,3.79,22.02,5.99,25.5.39.61,1.42-4.35,2.53-7.12.78-1.87,1.8-9.97,2.56-11.89.95-2.33,1.78-4.22,2.29-4.53.14-.09,3.67-2.7,3.83-3.53.32-1.66-.35-2.82.88-7.8.25-1.02,5.13-5.54,5.36-5.96.23-.39,1.43-1.18,1.73-1.27.44-.12,2.52-.69,3.39-.35-.32-2.66-5.54-6.07-7.06-8.29-1.5-2.19-4.39-5.08-4.53-9.47.12-.44.21-.88.37-1.34.85-2.65,4.06-4.27,4.5-4.48,0,0,2.15-1.34,2.19-2.59.02-.88-.3-2.59-.37-2.84-.23-.88-.6-1.75-1.04-2.56-.07-.16-.18-.28-.3-.44-.32-.62-.78-1.2-1.34-1.73-.65-.74-1.43-1.36-2.29-1.85-3.97-2.22-9.03-1.85-13.09.16-2.45,1.18-4.62,2.96-5.89,5.33-.05.02-.05.07-.09.09-.23.46-.44.95-.62,1.41,0,.05-.02.09-.02.12-.09.21-.14.39-.23.62-.18.62-.35,1.29-.46,1.94-.42,2.1-.48,4.29-.74,6.4-.58,4.83-3.28,14.89-3.62,16.41-.69,3-.44,5.01,1.36,6.65Z"/>
            <path class="cls-22" d="m76.69,29.46c-.2.21-.4.4-.59.58-2.16,2.02-4.77,3.19-7.61,3.92-5.75,1.47-12.16,2.21-17.19-1.4-.3-.67-.09-1.54.48-1.96.01,0,.03.02.04.03,4.52,3.57,10.9,2.27,16.01.96,2.42-.62,4.68-1.56,6.52-3.29.47-.44.91-.92,1.31-1.43.86.38,1.41,1.33,1.02,2.59Z"/>
            <path class="cls-22" d="m75.44,26.6l-.03.03c-1.5,2.11-4.65,3.8-7.35,4.51-5.41,1.43-11.41,2.6-16.17-.89-.14-.4-.04-1.27.74-1.67,4.25,3.18,10.09,1.51,14.82.26,2.29-.6,4.37-1.8,6.1-3.49.18-.18.36-.36.53-.55.83.09,1.22.66,1.35,1.8Z"/>
            <path class="cls-5" d="m78.32,58.86c-.32.1-1.55.88-1.86,1.2-.28.29-.71.67-1.12,1.2-.42.76-1.02,1.08-1.72,1.75-.94.9-1.3,1.44-2.09,2.32.55-.86.84-3.45.9-4.49.17-2.82-.65-5.6-1.66-8.23-1.01-2.63-2.24-5.19-2.95-7.92-.7-2.73-.86-5.71.26-8.3-.93,6.56,1.25,13.49,5.77,18.34.71.76,3.82,3.33,4.47,4.14Z"/>
            <path class="cls-5" d="m49.8,65.6c.44.74,1.45,2.49,1.52,2.66.53,1.39,1.09,3.9,1.69,6.95-1.15-9.56,1.25-26.3,3.81-33.96-.9,1.85-1.78,3.74-2.24,5.75-.58,2.59-1.27,6.14-1.39,8.8-.09,2.66-.02,4.8-1.29,6.7-.37.55-1.32,2.26-2.1,3.12Z"/>
            <path class="cls-5" d="m63.31,77.98c0,1.34.3,2.65.81,3.91-.76,1.92-.92,6.43-1.7,8.32.08-.18-.02-3.7.03-3.88.33-1.46-.3-2-.35-3.49-.2-4.94.35-11.49,4.59-25.68-1.36,5.9-3.43,13.3-3.38,20.81Z"/>
            <path class="cls-23" d="m84.31,96.05c-3.45.8-6.86-1.23-7.95-4.54v-.05c-.05-.17-.1-.36-.14-.56l-1.79-8.21c-.85-7.63-1.96-15.53,2.13-22.1.75-1.14,1.79-1.79,2.92-2.05.8-.14,1.64-.12,2.46.1.87.87,1.5,1.98,1.79,3.28l3.79,20.67.41,2.22.7,3.84c.82,3.67-.68,6.54-4.32,7.39Z"/>
            <path class="cls-41" d="m106.61,70.38l.14-.09c0,.14-.07.24-.15.28l-.13.09c.08-.04.14-.14.14-.28h0Z"/>
            <path class="cls-34" d="m108.26,69.93c.18-.24.31-.52.13-.75-.54-.71-3.39,1.73-3.96,2.2-1.02.81-2.31,1.59-3.31,2.41.04-.12-1.54.88-1.97,1.27-.68.63-.31,1.34-.72,1.93l-3.39,1.98c.56,1.25,2.13,1.76,3.35,2.83.27.23,1.02.69,1.33.91l2.12-1.82c.78-.41,1.93-.77,2.68-1.34,5-3.78,2.68-4.64,1.08-6.76-.2-.26,2.53-2.75,2.67-2.86Z"/>
            <path class="cls-23" d="m101.77,82.26c-5.39,5.63-11.74,11.21-16.3,14.25-3.45,2.29-7.87,0-8.94-4.25-.07-.27-.12-.53-.17-.75v-.05c-.41-2.75,1.69-1.96,4.06-4.59,0,0,2.03-1.21,4.69-2.8.77-.46,1.59-.97,2.41-1.47,3.72-2.25,7.87-4.76,9.68-6.01.17.22.7.85,1.33,1.59,1.23,1.47,2.87,3.45,3.24,4.08Z"/>
            <path class="cls-5" d="m98.53,78.18c-2.32,1.69-4.73,3.21-7.22,4.59-1.16.65-2.34,1.26-3.38,2.05-.46.31-.89.68-1.28,1.06-1.26,1.28-2.1,2.92-2.75,4.59.22-2.17.89-4.27,1.21-6.4.14-1.01.22-2.03.12-3.04-.14-1.57-.65-3.04-1.11-4.54-1.28-4.13-2.22-8.38-2.8-12.68-.22-1.76-.43-3.65-1.57-5-.07-.1-.17-.19-.27-.27.8-.14,1.64-.12,2.46.1.87.87,1.5,1.98,1.79,3.28l3.79,20.67c3.72-2.25,7.87-4.76,9.68-6.01.17.22.7.85,1.33,1.59Z"/>
          </g>
          <g>
            <g>
              <path class="cls-3" d="m228.13,22.01s0,0,0,0c.61.38.92.59,1.56,1.03.21-.03.38-.18.44-.34.07-.18.09-.36.07-.52,0-.02,0-.03,0-.05-.02-.15-.05-.28-.09-.4,0-.03-.15-.38-.2-.5-.46-1.07-.64-1.47-1.03-2.35-.31-.71-.28-.96.36-.88-.02-.05-.03-.08-.06-.13-.31-.1-.46-.15-.77-.26-.06-.02-.09-.03-.15-.05-.09-.03-.14-.05-.23-.08-.28-.09-.42-.14-.69-.24-.12-.04-.18-.07-.31-.11.73,1.73.96,2.17,1.71,3.96.14.34.39.95-.06.92-.15,0-.35-.07-.53-.16,0,.06-.01.09-.02.15Z"/>
              <path class="cls-3" d="m238.86,21.99c0-.05,0-.08.01-.13.18.09.38.16.53.16.23,0,.23-.49-.02-1.06,0,0,0-.01,0-.02h0s-.48-1.01-.49-1.04c.52.15.78.23,1.3.39,0,.01.47,1,.47,1,.14.29.25.51.36.67,0,0,.01.02.02.03.23.3.48.36,1.01.42h0c.34,0,.52,0,.86,0h0c.54-.1.59-.25.18-1.12-.29-.6-.42-.86-.67-1.37.52.15.78.23,1.3.39.22.45.34.69.59,1.22.28.59.17,1.18-.28,1.32h-2.92c-.08-.02-.16-.05-.24-.08,0,0,0,.01,0,.02,0,0-.01.02-.02.03h0c-.07.14-.19.24-.39.24,0,0,0,0-.01,0-.65-.45-.97-.65-1.6-1.04,0,0,0,0,0,0,0,0,0-.01,0-.02Z"/>
              <path class="cls-3" d="m233.27,22s.04.01.07.02c.03,0,.06.01.08.02.04,0,.07.01.11.01.02,0,.04,0,.05,0,.02,0,.04,0,.07,0,.01,0,.02,0,.04,0,.01,0,.02,0,.03,0,.02,0,.04-.01.06-.02.02,0,.04-.01.06-.02.02,0,.03-.02.05-.03.01,0,.02-.02.03-.02.1-.08.17-.19.2-.35.02-.16,0-.36-.11-.59-.21-.48-.6-.7-1.18-.9-.32-.11-.93-.33-1.24-.44.31.7.47,1.05.85,1.92.18.14.42.26.64.35.05.02.09.03.14.05.02,0,.05.01.07.02Zm-2.74,0c0-.06.01-.09.02-.14.18.09.38.16.53.16.17,0,.26-.16.2-.48,0,0,0-.02,0-.03-.02-.11-.06-.24-.12-.39,0,0-.99-2.24-1.01-2.28.05.02.08.02.13.04.02,0,.04.01.07.02.03.01.05.02.08.03.32.1.87.27,1.44.45.09.03.14.04.23.07.05.02.1.03.15.05.18.06.27.08.45.14.28.09.53.17.72.23.12.04.22.07.29.09.79.25,1.3.57,1.6,1.23.19.42.23.86.1,1.23,0,0,.48-.04.57-.07.37-.1.33-.33,0-1.05-.29-.64-.42-.92-.67-1.46.52.17.79.25,1.31.42.17.36.26.55.45.97.03.07.06.13.09.2.02.05.04.08.06.14.25.56.15,1.11-.24,1.29h-2.27c-.08.09-.19.16-.32.18-.04,0-.08.01-.12.01-.13-.08-.2-.12-.33-.2-.02-.02-.04-.02-.06-.04,0,0-.01,0-.02-.02-.2-.11-.42-.25-.64-.38-.2-.12-.4-.24-.59-.35,0,0,0,0,0,0-.01,0-.03-.02-.04-.02.04.24.05.45-.03.67-.03.09-.08.16-.14.22-.09.06-.19.1-.31.11-.64-.45-.96-.65-1.58-1.04h0Z"/>
              <path class="cls-3" d="m240.89,20.27c.2-.16.3-.24.5-.4.08-.06.25,0,.31.12.16.31.23.48.4.82.06.13-.04.21-.18.14-.36-.18-.55-.26-.91-.43-.13-.06-.2-.2-.13-.26Z"/>
            </g>
            <g>
              <g>
                <path class="cls-33" d="m224.72,22.01c.61.38.92.59,1.55,1.03.21-.03.38-.18.44-.34.07-.18.09-.36.08-.52,0-.02,0-.03,0-.05-.01-.15-.05-.28-.08-.4,0-.02-.05-.14-.1-.26,0,0,0,0,0,0-.03-.07-.06-.14-.09-.21-.37-.9-.52-1.25-.84-1.99-.02-.04-.03-.08-.05-.12-.25-.69-.09-1.11.65-1.11.27,0,.58.09.89.22-.07-.16-.1-.24-.17-.4-.13-.07-.27-.13-.41-.2-.45-.22-.82-.36-1.19-.36-.33,0-.59.08-.77.22-.37.29-.44.83-.13,1.56.32.76.48,1.13.85,2.04,0,0,0,0,0,.01.02.05.04.09.05.14,0,0,0,0,0,0,.13.34.24.78-.14.75-.15,0-.35-.07-.52-.16,0,.05-.01.08-.02.13,0,0,0,0,0,0,0,0,0,.01,0,.02Z"/>
                <path class="cls-33" d="m230.03,18.54c.49.15.73.23,1.22.38-.23-.62-.08-.99.36-1.06,0,0,0,0,.02,0,.02,0,.05,0,.08,0,0,0,0,0,.01,0,.02,0,.03,0,.05,0h0s.05,0,.08,0c.19.02.39.09.55.2.23.15.46.4.73.75.15.17.3.25.46.27.02,0,.04,0,.07,0,.02,0,.03,0,.05,0,.23-.03.43-.24.31-.48-.08-.17-.31-.3-.62-.46-.48-.24-1.54-.7-2.31-.83h0c-.07,0-.14,0-.21,0-.3.03-.54.12-.7.3-.21.26-.24.58-.14.94Z"/>
                <path class="cls-33" d="m245.38,22.02c.23,0,.3-.31.02-.89-.46-.94-.66-1.31-1.06-2.1-.3-.58-.4-1.05-.13-1.42.18-.21.5-.31.9-.31.77.14,1.87.6,2.36.83.33.16.56.29.65.46.14.26-.07.49-.32.49-.2,0-.37-.07-.55-.27-.3-.35-.54-.6-.78-.75-.19-.13-.42-.2-.64-.2-.6,0-.79.44-.38,1.23.04.08.06.12.1.19.38.2,1.41.49,2.35.73.8.2,1.32.54,1.66,1.2.42.83.26,1.86-.7,1.86-.36,0-1.26-.61-1.96-1,.05.24.07.45,0,.67-.06.18-.18.34-.43.34-.67-.45-.99-.66-1.63-1.04,0-.06,0-.09,0-.15.18.09.39.16.53.16Zm1.33-.45c.35.25.87.48,1.17.48.38,0,.71-.38.37-1.05-.24-.48-.64-.7-1.23-.9-.32-.11-.95-.33-1.27-.44.36.7.54,1.05.96,1.92Z"/>
              </g>
              <path class="cls-33" d="m234.77,18.62s-.05-.22-.06-.33c-.04-.61.32-.99,1.05-.99.36,0,.75.14,1.09.31.4.2.86.41,1.35.66-.02-.58.34-.96.95-.96.4,0,.77.14,1.2.33.47.21.83.41,1.17.57-.03-.06-.05-.12-.06-.19-.01-.07-.02-.14,0-.22,0-.03,0-.06.01-.09h0c.03-.13.11-.24.27-.3,0,0,0,0,0,0,0,0,0,0,0,0,0,0,0,0,0,0,.59.17.88.25,1.47.42.02,0,.03,0,.05.01,0,0,0,0,0,0,0,0,0,.01,0,.02,0,.05.01.07.02.11-.08-.01-.16-.02-.24-.03-.09,0-.17,0-.23.03-.07.02-.09.11-.08.22,0,.14.06.32.2.6,0,.02.02.04.03.06.22.43.32.63.55,1.08-.54-.16-.8-.23-1.33-.39-.2-.4-.3-.59-.5-.99-.1-.05-.15-.07-.25-.12-.44-.21-.92-.4-1.31-.4-.6,0-.79.3-.61.87.2.4.3.6.5,1.02-.53-.16-.8-.24-1.33-.39-.21-.42-.31-.62-.51-1.05-.45-.2-1.23-.46-1.54-.46-.52,0-.74.23-.69.66,0,0,.03.21.08.33.03.09.07.19.12.29.11.24.17.36.29.61-.52-.17-.79-.25-1.31-.41-.08-.18-.12-.26-.21-.44-.08-.16-.13-.31-.17-.45Z"/>
              <path class="cls-33" d="m227.48,16.61c.26.02.49-.07.61-.19.1-.09.12-.23.06-.37-.03-.08-.12-.16-.24-.24-.13-.09-.37-.21-.54-.22-.13,0-.2.04-.23.14-.02.08-.03.11-.05.19-.02.07-.12.07-.2-.02-.14-.15-.23-.3-.28-.45-.12-.32.03-.54.32-.52.29.02.75.27,1.13.6.24.21.56.55.69.89.13.36-.04.55-.34.65-.04,0-.06.01-.09.02.02,0,.35.13.6.22.04.09.06.13.1.22-.06-.02-.11-.04-.17-.06-.59-.2-1.19-.41-1.74-.61-.1-.04-.15-.06-.26-.1-.04-.1-.06-.15-.11-.26.23.05.49.09.72.1Z"/>
            </g>
          </g>
        </g>
      </g>
    </g>
  </g>
</svg>