<?xml version="1.0" encoding="UTF-8"?>
<svg xmlns="http://www.w3.org/2000/svg" xmlns:xlink="http://www.w3.org/1999/xlink" viewBox="0 0 393.08 233.1">
  <defs>
    <style>
      .cls-1 {
        fill: #e4c0d0;
      }

      .cls-2 {
        fill: #cbaab9;
      }

      .cls-3 {
        fill: #fff;
      }

      .cls-4, .cls-5 {
        fill: #dfe1e9;
      }

      .cls-6 {
        fill: #bfc1db;
      }

      .cls-7 {
        fill: url(#radial-gradient-4);
      }

      .cls-7, .cls-8, .cls-9, .cls-10, .cls-11, .cls-12, .cls-13 {
        opacity: .5;
      }

      .cls-14 {
        fill: #80b05c;
      }

      .cls-15 {
        fill: #009a96;
      }

      .cls-16 {
        fill: #dadce5;
      }

      .cls-17 {
        fill: url(#linear-gradient-6);
      }

      .cls-18 {
        isolation: isolate;
      }

      .cls-19 {
        fill: #484c66;
      }

      .cls-20 {
        fill: #303030;
      }

      .cls-21 {
        fill: #373c49;
      }

      .cls-22 {
        fill: #f0f2f5;
      }

      .cls-8 {
        fill: url(#linear-gradient-7);
      }

      .cls-23 {
        fill: #9699b5;
      }

      .cls-9 {
        fill: url(#linear-gradient-3);
      }

      .cls-10 {
        fill: url(#linear-gradient);
      }

      .cls-24 {
        fill: #292c36;
      }

      .cls-25, .cls-26 {
        opacity: .58;
      }

      .cls-27 {
        fill: url(#radial-gradient);
      }

      .cls-28 {
        fill: #ebc9d8;
      }

      .cls-29 {
        fill: #f8f9fc;
      }

      .cls-30 {
        fill: #171716;
      }

      .cls-31 {
        fill: #faf3f1;
      }

      .cls-32 {
        fill: #e9ae93;
      }

      .cls-33, .cls-34 {
        fill: #e6e8ed;
      }

      .cls-11 {
        fill: url(#linear-gradient-2);
      }

      .cls-12 {
        fill: url(#linear-gradient-5);
      }

      .cls-35, .cls-36 {
        fill: #ffc29f;
      }

      .cls-37 {
        fill: #95aa3d;
      }

      .cls-38 {
        fill: url(#radial-gradient-2);
      }

      .cls-39 {
        fill: #ebebeb;
      }

      .cls-40 {
        fill: #4f4f4f;
      }

      .cls-41 {
        fill: url(#radial-gradient-3);
      }

      .cls-42 {
        fill: #bc9fac;
      }

      .cls-43 {
        fill: #a7a9c8;
      }

      .cls-5, .cls-36, .cls-34 {
        mix-blend-mode: multiply;
      }

      .cls-26, .cls-44 {
        fill: #c8cbdd;
      }

      .cls-13 {
        fill: url(#linear-gradient-4);
      }

      .cls-45 {
        fill: #edeef2;
        opacity: .43;
      }

      .cls-46 {
        fill: #b6ce57;
      }

      .cls-47 {
        fill: #252842;
      }

      .cls-48 {
        fill: #154902;
      }

      .cls-49 {
        fill: #f8f9fb;
      }

      .cls-50 {
        fill: #8e92b2;
      }

      .cls-51 {
        fill: #404040;
      }

      .cls-52 {
        fill: #181a1d;
      }

      .cls-53 {
        fill: #4a9360;
      }
    </style>
    <linearGradient id="linear-gradient" x1="108.25" y1="70.15" x2="53.84" y2="93.19" gradientUnits="userSpaceOnUse">
      <stop offset=".05" stop-color="#8e92b2"/>
      <stop offset=".16" stop-color="#8e92b2" stop-opacity=".79"/>
      <stop offset=".29" stop-color="#8e92b2" stop-opacity=".55"/>
      <stop offset=".43" stop-color="#8e92b2" stop-opacity=".35"/>
      <stop offset=".57" stop-color="#8e92b2" stop-opacity=".2"/>
      <stop offset=".71" stop-color="#8e92b2" stop-opacity=".09"/>
      <stop offset=".85" stop-color="#8e92b2" stop-opacity=".02"/>
      <stop offset="1" stop-color="#8e92b2" stop-opacity="0"/>
    </linearGradient>
    <linearGradient id="linear-gradient-2" x1="129.23" y1="44.26" x2="59.9" y2="73.63" xlink:href="#linear-gradient"/>
    <linearGradient id="linear-gradient-3" x1="155.42" y1="45.27" x2="109.28" y2="64.81" xlink:href="#linear-gradient"/>
    <linearGradient id="linear-gradient-4" x1="92.28" y1="96.47" x2="54.17" y2="112.61" xlink:href="#linear-gradient"/>
    <linearGradient id="linear-gradient-5" x1="206.9" y1="96.95" x2="300.28" y2="96.95" gradientUnits="userSpaceOnUse">
      <stop offset="0" stop-color="#8e92b2" stop-opacity="0"/>
      <stop offset=".15" stop-color="#8e92b2" stop-opacity=".02"/>
      <stop offset=".29" stop-color="#8e92b2" stop-opacity=".09"/>
      <stop offset=".43" stop-color="#8e92b2" stop-opacity=".2"/>
      <stop offset=".57" stop-color="#8e92b2" stop-opacity=".35"/>
      <stop offset=".71" stop-color="#8e92b2" stop-opacity=".55"/>
      <stop offset=".84" stop-color="#8e92b2" stop-opacity=".79"/>
      <stop offset=".95" stop-color="#8e92b2"/>
    </linearGradient>
    <radialGradient id="radial-gradient" cx="731.58" cy="-1235.61" fx="731.58" fy="-1235.61" r="8.62" gradientTransform="translate(-288.72 -1053.88) rotate(90) scale(1.64 .48)" gradientUnits="userSpaceOnUse">
      <stop offset="0" stop-color="#8e92b2"/>
      <stop offset=".04" stop-color="#8e92b2" stop-opacity=".9"/>
      <stop offset=".15" stop-color="#8e92b2" stop-opacity=".67"/>
      <stop offset=".27" stop-color="#8e92b2" stop-opacity=".46"/>
      <stop offset=".39" stop-color="#8e92b2" stop-opacity=".29"/>
      <stop offset=".51" stop-color="#8e92b2" stop-opacity=".16"/>
      <stop offset=".65" stop-color="#8e92b2" stop-opacity=".07"/>
      <stop offset=".8" stop-color="#8e92b2" stop-opacity=".02"/>
      <stop offset="1" stop-color="#8e92b2" stop-opacity="0"/>
    </radialGradient>
    <radialGradient id="radial-gradient-2" cx="663.85" cy="-1238.06" fx="663.85" fy="-1238.06" r="8.62" gradientTransform="translate(-272.62 -1027.21) rotate(90) scale(1.77 .48)" xlink:href="#radial-gradient"/>
    <linearGradient id="linear-gradient-6" x1="100.64" y1="158.81" x2="131.77" y2="158.81" gradientUnits="userSpaceOnUse">
      <stop offset="0" stop-color="#feca67"/>
      <stop offset=".04" stop-color="#fec366"/>
      <stop offset=".2" stop-color="#feb066"/>
      <stop offset=".38" stop-color="#fea266"/>
      <stop offset=".6" stop-color="#fe9a66"/>
      <stop offset="1" stop-color="#fe9866"/>
    </linearGradient>
    <radialGradient id="radial-gradient-3" cx="87.69" cy="-1368.81" fx="87.69" fy="-1368.81" r="11.36" gradientTransform="translate(-47.02 873.24) scale(2.18 .49)" xlink:href="#radial-gradient"/>
    <linearGradient id="linear-gradient-7" x1="118.16" y1="221.1" x2="31.37" y2="176.82" xlink:href="#linear-gradient"/>
    <radialGradient id="radial-gradient-4" cx="606.75" cy="-1265.39" fx="606.75" fy="-1265.39" r="7.69" gradientTransform="translate(-219.38 -1011.82) rotate(90) scale(1.77 .36)" gradientUnits="userSpaceOnUse">
      <stop offset=".05" stop-color="#8e92b2" stop-opacity=".8"/>
      <stop offset=".06" stop-color="#8e92b2" stop-opacity=".78"/>
      <stop offset=".21" stop-color="#8e92b2" stop-opacity=".55"/>
      <stop offset=".36" stop-color="#8e92b2" stop-opacity=".35"/>
      <stop offset=".52" stop-color="#8e92b2" stop-opacity=".2"/>
      <stop offset=".68" stop-color="#8e92b2" stop-opacity=".09"/>
      <stop offset=".84" stop-color="#8e92b2" stop-opacity=".02"/>
      <stop offset="1" stop-color="#8e92b2" stop-opacity="0"/>
    </radialGradient>
  </defs>
  <g class="cls-18">
    <g id="Layer_1" data-name="Layer 1">
      <g>
        <path class="cls-45" d="m302.89,109.23c-5.71,30.55,66.18,11.14,64.43,45.68-2.96,58.39-277.51,115.94-350.62,46.12C-42.39,144.62,66.63,59.97,167.48,41.91c108.68-19.46,143.06,26.45,135.41,67.32Z"/>
        <path class="cls-45" d="m341.84,113.88c.45-7.97,36.64-13.99,47.62-4.47,8.87,7.7.48,12.66-14.67,15.13-16.32,2.66-33.22-5.95-32.96-10.66Z"/>
        <g>
          <polygon class="cls-10" points="114.01 99.55 103.88 94.06 103.88 86.05 37.78 68.15 37.78 83.53 114.01 99.55"/>
          <polyline class="cls-11" points="127.37 70.43 36.91 39.97 36.91 55.35 137.6 84.12"/>
          <polygon class="cls-9" points="160.97 71.75 150.74 65.85 150.74 58.06 95.84 41.66 95.84 57.04 160.97 71.75"/>
          <g class="cls-25">
            <g>
              <path class="cls-44" d="m226.86,84.49c-2.73,1.58-5.05,2.17-6.96,1.79.96,1.25-.25,2.86-3.64,4.81l-.65.37c-2.56,1.46-4.79,2.3-6.66,2.51-1.88.21-3.67-.17-5.38-1.16l-4.86-2.8,25.37-14.65,4.76,2.75c1.64.95,2.36,1.87,2.17,2.77-.2.9-1.33,1.95-3.38,3.15l-.78.45Zm-21.79,5.73l1.19.68c.67.38,1.4.5,2.19.35.79-.15,1.88-.62,3.24-1.41l2.05-1.18c1.29-.74,2.09-1.33,2.41-1.76.32-.43.17-.83-.45-1.18l-1.41-.81-9.21,5.32Zm12.11-6.99l1.24.71c.57.33,1.16.43,1.76.29.6-.14,1.56-.59,2.88-1.35l1.53-.88c.97-.57,1.51-1.02,1.62-1.34.11-.32-.11-.64-.66-.96l-1.12-.65-7.24,4.18Z"/>
              <path class="cls-44" d="m220.82,101.2c-1.87.19-3.64-.2-5.34-1.18-1.69-.98-2.37-2.01-2.04-3.09.33-1.08,1.67-2.29,3.99-3.64l18.87-10.9,3.35,1.93-18.8,10.85c-1.34.77-2.09,1.27-2.27,1.5-.18.23-.31.46-.39.68-.08.22.12.48.6.76.48.28.99.38,1.53.32.53-.07,1.07-.23,1.6-.48.53-.25,1.18-.6,1.94-1.04l18.8-10.85,3.35,1.93-18.87,10.9c-2.34,1.35-4.44,2.12-6.3,2.31Z"/>
              <path class="cls-44" d="m230.47,100.11l2.26-1.31,3.17,1.83-2.55,1.47c-1.41.82-2.3,1.45-2.67,1.9-.36.45-.26.84.32,1.17.57.33,1.19.42,1.85.25.66-.16,1.52-.55,2.59-1.17,1.07-.62,1.83-1.25,2.29-1.9.46-.65.76-1.43.9-2.35l.31-2.05c.16-.96.51-1.85,1.07-2.66.56-.81,1.48-1.58,2.77-2.33,2.1-1.21,4-1.91,5.72-2.09,1.72-.18,3.43.22,5.14,1.2,1.71.99,2.27,1.99,1.69,3.03-.58,1.03-2.01,2.21-4.29,3.52l-1.57.91-3.08-1.78,1.82-1.05c1.23-.71,2.02-1.27,2.37-1.69.35-.41.27-.77-.25-1.07-.52-.3-1.1-.4-1.73-.3-.63.1-1.35.38-2.16.85-.81.47-1.33.91-1.58,1.32-.25.41-.44,1.01-.58,1.79l-.45,2.35c-.23,1.18-.69,2.24-1.39,3.18-.7.94-1.74,1.8-3.11,2.6-2.37,1.37-4.47,2.18-6.3,2.44-1.82.26-3.6-.11-5.33-1.11-1.73-1-2.3-2.06-1.71-3.18.59-1.12,2.09-2.38,4.51-3.78Z"/>
              <path class="cls-44" d="m235.2,111.08l25.37-14.65,3.35,1.93-25.37,14.65-3.35-1.93Z"/>
              <path class="cls-44" d="m241.96,114.99l25.37-14.65,2.62,1.51-10.57,11.48,6.68-4.13,8.3-4.79,3.01,1.74-25.37,14.65-2.37-1.37,10.98-11.86-6.47,3.95-9.1,5.25-3.08-1.78Z"/>
              <path class="cls-44" d="m255.31,122.69l25.37-14.65,7.37,4.25-3.33,1.92-4.02-2.32-7.38,4.26,3.82,2.21-3.26,1.88-3.82-2.21-8.07,4.66,4.17,2.41-3.33,1.92-7.52-4.34Z"/>
              <path class="cls-44" d="m272.2,124.2l2.26-1.31,3.17,1.83-2.55,1.47c-1.41.82-2.3,1.45-2.67,1.9-.36.45-.26.84.32,1.17.57.33,1.19.42,1.85.25.66-.16,1.52-.55,2.59-1.17,1.07-.62,1.83-1.25,2.29-1.9.46-.65.76-1.43.9-2.35l.31-2.05c.16-.96.51-1.85,1.07-2.66.56-.81,1.48-1.58,2.77-2.33,2.1-1.21,4-1.91,5.72-2.09,1.72-.18,3.43.22,5.14,1.2,1.71.99,2.27,1.99,1.68,3.03-.58,1.03-2.01,2.21-4.29,3.52l-1.57.91-3.09-1.78,1.82-1.05c1.23-.71,2.02-1.27,2.37-1.69.35-.41.27-.77-.25-1.07-.52-.3-1.1-.4-1.73-.3-.63.1-1.35.38-2.16.85-.81.47-1.33.91-1.58,1.32-.25.41-.44,1.01-.58,1.79l-.45,2.35c-.23,1.18-.69,2.24-1.39,3.18-.7.94-1.74,1.8-3.11,2.6-2.37,1.37-4.47,2.18-6.3,2.44-1.82.26-3.6-.11-5.33-1.11-1.73-1-2.3-2.06-1.71-3.18.59-1.12,2.09-2.38,4.51-3.78Z"/>
              <path class="cls-44" d="m283.5,130.73l2.26-1.31,3.17,1.83-2.55,1.47c-1.41.82-2.3,1.45-2.67,1.9-.36.45-.26.84.32,1.17.57.33,1.19.41,1.85.25.66-.16,1.52-.55,2.59-1.17,1.07-.61,1.83-1.25,2.29-1.9.46-.65.76-1.43.9-2.35l.31-2.05c.16-.96.51-1.85,1.07-2.66.56-.81,1.48-1.58,2.77-2.33,2.1-1.21,4-1.91,5.72-2.09,1.72-.18,3.43.22,5.14,1.2,1.71.99,2.27,2,1.69,3.03-.58,1.03-2.01,2.21-4.29,3.52l-1.57.91-3.09-1.78,1.82-1.05c1.23-.71,2.02-1.27,2.37-1.69.35-.41.27-.77-.25-1.07s-1.1-.4-1.73-.3c-.63.1-1.35.38-2.16.85-.81.47-1.33.9-1.58,1.32-.25.41-.44,1.01-.58,1.79l-.45,2.35c-.23,1.18-.69,2.24-1.39,3.17-.7.94-1.74,1.8-3.11,2.6-2.37,1.37-4.47,2.18-6.3,2.44-1.83.26-3.6-.11-5.33-1.11-1.73-1-2.3-2.06-1.71-3.18.59-1.12,2.09-2.38,4.51-3.78Z"/>
              <path class="cls-44" d="m169.03,107.02l25.37-14.65,7.37,4.25-3.33,1.92-4.02-2.32-7.38,4.26,3.82,2.21-3.26,1.88-3.82-2.21-8.07,4.66,4.17,2.41-3.33,1.92-7.52-4.34Z"/>
              <path class="cls-44" d="m185.29,116.41l5.56-5.79-9.61,3.46-3.23-1.87,16.99-5.9,8.39-8.74,2.82,1.63-5.35,5.61,9.3-3.34,3.13,1.81-16.31,5.58-8.8,9.22-2.9-1.67Z"/>
              <path class="cls-44" d="m190.2,119.24l25.37-14.65,5.04,2.91c1.71.98,2.28,2,1.71,3.06-.57,1.05-2.02,2.28-4.36,3.67l-.53.31c-2.52,1.45-4.74,2.38-6.66,2.77-1.92.39-3.72.11-5.4-.86l-1.81-1.05-10.01,5.78-3.35-1.93Zm16.54-5.68l1.15.66c.71.41,1.48.49,2.32.25.84-.24,2.15-.87,3.92-1.89l.49-.28c1.49-.87,2.45-1.56,2.87-2.06s.3-.94-.36-1.32l-1.17-.68-9.21,5.32Z"/>
              <path class="cls-44" d="m201.99,126.05l25.37-14.65,3.35,1.93-22.09,12.75,4.23,2.44-3.29,1.9-7.58-4.38Z"/>
              <path class="cls-44" d="m221.21,135.36c-1.99.26-3.82-.09-5.51-1.07-1.69-.97-2.31-2.04-1.87-3.2.44-1.16,1.89-2.46,4.36-3.88l11.61-6.7c4.65-2.69,8.62-3.08,11.91-1.18,1.7.98,2.33,2.03,1.89,3.14-.44,1.11-1.8,2.33-4.09,3.65l-11.61,6.7c-2.48,1.43-4.71,2.28-6.7,2.54Zm-2.51-4.21c-.39.45-.28.85.33,1.2.61.35,1.31.41,2.1.17.79-.24,1.92-.78,3.38-1.62l11.82-6.83c1.2-.69,1.98-1.26,2.34-1.69.36-.43.25-.81-.32-1.14-.57-.33-1.25-.4-2.03-.21-.78.19-1.77.62-2.96,1.31l-11.84,6.83c-1.49.86-2.43,1.52-2.82,1.97Z"/>
              <path class="cls-44" d="m240.19,134.34l-1.02-.65-11.98,6.92-3.35-1.93,25.37-14.65,5.53,3.19c1.15.66,1.74,1.31,1.77,1.95.03.63-.34,1.28-1.12,1.94-.78.66-1.94,1.43-3.48,2.32-1.54.89-2.86,1.49-3.95,1.79-1.09.3-2.16.31-3.2.03.6.53.54,1.17-.19,1.94-.73.77-2.72,2.09-5.97,3.97-3.25,1.88-4.96,2.91-5.12,3.1l-3.35-1.93c.11-.16,3.1-1.93,8.97-5.32,1.12-.65,1.76-1.15,1.89-1.5.14-.35-.14-.73-.83-1.15Zm2-2.38l1.34.77c.43.25.85.36,1.27.35.42-.01.94-.15,1.56-.41.62-.26,1.48-.72,2.58-1.35l.16-.09c1.37-.79,2.17-1.37,2.4-1.73.22-.36-.03-.75-.75-1.17l-1.14-.66-7.42,4.29Z"/>
              <path class="cls-44" d="m235.46,145.37l28.51-12.84,4.42,2.55-22.04,16.57-3.12-1.8,4-2.92-3.55-2.05-5,2.34-3.22-1.86Zm14.52-.42l11.27-8.21-.05-.03-14.09,6.58,2.87,1.66Z"/>
              <path class="cls-44" d="m249.53,153.5l22.03-12.72-2.57-1.49,3.34-1.93,8.38,4.84-3.34,1.93-2.47-1.43-22.03,12.72-3.33-1.92Z"/>
              <path class="cls-44" d="m257.31,157.99l25.37-14.65,3.35,1.93-25.38,14.65-3.35-1.93Z"/>
              <path class="cls-44" d="m273.91,165.79c-1.99.26-3.82-.09-5.51-1.07-1.69-.97-2.31-2.04-1.87-3.2.44-1.16,1.89-2.46,4.36-3.88l11.61-6.7c4.65-2.69,8.62-3.08,11.91-1.18,1.7.98,2.33,2.03,1.89,3.14-.44,1.11-1.8,2.33-4.09,3.65l-11.61,6.7c-2.48,1.43-4.71,2.28-6.7,2.54Zm-2.51-4.21c-.39.45-.28.85.33,1.2.61.35,1.31.41,2.1.17.79-.24,1.92-.78,3.38-1.62l11.82-6.83c1.2-.69,1.98-1.26,2.34-1.69.36-.43.25-.81-.32-1.14-.57-.33-1.25-.4-2.03-.21-.78.19-1.77.62-2.96,1.31l-11.84,6.83c-1.49.86-2.43,1.52-2.82,1.97Z"/>
              <path class="cls-44" d="m276.55,169.1l25.37-14.65,2.62,1.51-10.57,11.48,6.68-4.13,8.31-4.79,3.01,1.74-25.37,14.65-2.37-1.37,10.98-11.86-6.47,3.95-9.1,5.25-3.08-1.78Z"/>
            </g>
          </g>
          <g>
            <path class="cls-46" d="m162.1,139.31l17.17-9.84,1.77,1.03-7.16,7.73,4.52-2.78,5.62-3.22,2.03,1.18-17.17,9.84-1.6-.93,7.44-7.98-4.38,2.66-6.16,3.53-2.08-1.21Z"/>
            <path class="cls-46" d="m171.1,144.54l17.17-9.84,4.97,2.89-2.25,1.29-2.71-1.58-5,2.86,2.58,1.5-2.2,1.26-2.58-1.5-5.46,3.13,2.81,1.64-2.25,1.29-5.07-2.95Z"/>
            <path class="cls-46" d="m179.17,149.24l15.36-10.89,2.02,1.17-11.15,7.64,13.62-6.21,1.82,1.06-10.85,7.82,13.19-6.45,2.03,1.18-18.87,8.85-2.25-1.31,10.1-7.3-12.78,5.75-2.25-1.31Z"/>
            <path class="cls-46" d="m211.84,153.51c-1.85,1.06-3.41,1.46-4.7,1.2.65.85-.18,1.93-2.46,3.24l-.44.25c-1.74.98-3.24,1.54-4.51,1.68-1.27.14-2.48-.12-3.63-.79l-3.27-1.91,17.17-9.84,3.21,1.87c1.11.64,1.59,1.27,1.46,1.88-.14.61-.9,1.32-2.29,2.12l-.53.3Zm-14.73,3.82l.8.47c.45.26.94.34,1.48.24.54-.1,1.27-.41,2.19-.94l1.39-.79c.87-.5,1.41-.89,1.63-1.19.22-.29.12-.56-.3-.8l-.95-.55-6.23,3.57Zm8.2-4.7l.83.49c.39.23.78.29,1.19.2.41-.09,1.06-.4,1.95-.91l1.03-.59c.66-.38,1.02-.68,1.1-.9.07-.22-.08-.43-.45-.65l-.76-.44-4.9,2.8Z"/>
            <path class="cls-46" d="m207.71,164.78c-1.26.13-2.46-.14-3.6-.81-1.14-.66-1.6-1.36-1.37-2.09.23-.73,1.13-1.55,2.7-2.45l12.77-7.32,2.26,1.31-12.72,7.29c-.9.52-1.42.85-1.54,1.01-.12.15-.21.31-.27.46-.05.15.08.32.4.51.33.19.67.26,1.03.22.36-.04.72-.15,1.08-.32.36-.17.8-.4,1.31-.7l12.72-7.29,2.26,1.31-12.77,7.32c-1.58.91-3,1.42-4.26,1.55Z"/>
            <path class="cls-46" d="m214.24,164.07l1.53-.88,2.14,1.24-1.73.99c-.96.55-1.56.97-1.8,1.28-.25.3-.18.57.21.79.39.22.8.28,1.25.17.44-.11,1.03-.37,1.75-.78.72-.41,1.24-.84,1.55-1.28.31-.44.52-.97.61-1.59l.21-1.38c.11-.65.35-1.25.73-1.79.38-.54,1.01-1.07,1.88-1.57,1.42-.81,2.71-1.28,3.87-1.4,1.16-.12,2.32.15,3.47.82,1.15.67,1.53,1.35,1.13,2.05-.4.7-1.37,1.49-2.91,2.37l-1.06.61-2.08-1.21,1.23-.7c.83-.48,1.37-.85,1.61-1.13.24-.28.18-.52-.17-.72-.35-.2-.74-.27-1.17-.21-.43.07-.91.26-1.46.57-.55.31-.9.61-1.07.89-.17.28-.3.68-.4,1.21l-.31,1.59c-.16.79-.47,1.51-.95,2.14-.48.63-1.18,1.22-2.11,1.75-1.61.92-3.03,1.46-4.26,1.63-1.23.17-2.43-.09-3.6-.76-1.16-.68-1.55-1.4-1.15-2.15.4-.76,1.42-1.6,3.06-2.54Z"/>
            <path class="cls-46" d="m217.41,171.48l17.17-9.84,2.26,1.31-17.17,9.84-2.26-1.31Z"/>
            <path class="cls-46" d="m221.97,174.14l17.17-9.84,1.77,1.03-7.16,7.73,4.52-2.78,5.62-3.22,2.03,1.18-17.17,9.84-1.6-.93,7.44-7.98-4.38,2.66-6.16,3.53-2.08-1.21Z"/>
            <path class="cls-46" d="m230.97,179.37l17.17-9.84,4.97,2.89-2.25,1.29-2.71-1.58-5,2.86,2.58,1.5-2.2,1.26-2.58-1.5-5.46,3.13,2.81,1.64-2.25,1.29-5.07-2.95Z"/>
            <path class="cls-46" d="m242.37,180.43l1.53-.88,2.14,1.24-1.73.99c-.96.55-1.56.97-1.8,1.28-.25.3-.18.57.21.79.39.22.8.28,1.25.17.44-.11,1.03-.37,1.75-.78.72-.41,1.24-.84,1.55-1.28.31-.44.52-.97.61-1.59l.21-1.39c.11-.65.35-1.25.73-1.79.38-.55,1.01-1.07,1.88-1.57,1.42-.81,2.71-1.28,3.87-1.4,1.16-.12,2.32.15,3.47.82,1.15.67,1.53,1.35,1.13,2.05-.4.7-1.37,1.49-2.91,2.37l-1.06.61-2.08-1.21,1.23-.7c.83-.48,1.37-.86,1.61-1.13.24-.28.18-.52-.17-.72-.35-.2-.74-.27-1.17-.21-.43.07-.91.26-1.46.57-.55.31-.9.61-1.07.89-.17.28-.3.68-.4,1.21l-.31,1.59c-.16.8-.47,1.51-.95,2.14-.47.63-1.18,1.22-2.11,1.75-1.61.92-3.03,1.46-4.26,1.63-1.23.17-2.43-.09-3.6-.76-1.17-.68-1.55-1.4-1.15-2.15.4-.76,1.42-1.6,3.06-2.54Z"/>
            <path class="cls-46" d="m249.98,184.86l1.53-.88,2.14,1.24-1.73.99c-.96.55-1.56.97-1.8,1.28-.25.3-.18.57.21.79.39.22.8.28,1.25.17.44-.11,1.03-.37,1.75-.78.72-.41,1.24-.84,1.55-1.28.31-.44.52-.97.61-1.59l.21-1.39c.11-.65.35-1.25.73-1.79.38-.55,1.01-1.07,1.88-1.57,1.42-.81,2.71-1.28,3.87-1.4,1.16-.12,2.32.15,3.47.82,1.15.67,1.53,1.35,1.13,2.05-.4.7-1.37,1.49-2.91,2.37l-1.06.61-2.08-1.21,1.23-.7c.83-.48,1.37-.86,1.61-1.13.24-.28.18-.52-.17-.72-.35-.2-.74-.27-1.17-.21-.43.07-.91.26-1.46.57-.55.31-.9.61-1.07.89-.17.28-.3.68-.4,1.21l-.31,1.59c-.16.8-.47,1.51-.95,2.14-.48.63-1.18,1.22-2.11,1.75-1.61.92-3.03,1.46-4.26,1.63-1.23.17-2.43-.09-3.6-.76-1.17-.68-1.55-1.4-1.15-2.15.4-.76,1.42-1.6,3.06-2.54Z"/>
            <path class="cls-46" d="m140.28,151.79l17.17-9.84,3.32,1.94c1.09.63,1.51,1.31,1.25,2.02-.25.71-1.11,1.48-2.56,2.32l-7.74,4.44c-1.73.99-3.25,1.57-4.54,1.75-1.3.17-2.52-.07-3.66-.73l-3.25-1.89Zm4.28.15l.74.43c.41.24.87.33,1.37.26.5-.07,1.17-.34,2-.82l8.47-4.86c.89-.51,1.43-.93,1.62-1.25.19-.32.05-.62-.41-.89l-.67-.39-13.13,7.52Z"/>
            <path class="cls-46" d="m148.75,156.72l17.17-9.84,4.97,2.89-2.25,1.29-2.71-1.58-5,2.86,2.57,1.5-2.2,1.26-2.57-1.5-5.46,3.13,2.81,1.64-2.25,1.29-5.07-2.95Z"/>
            <path class="cls-46" d="m160.16,157.78l1.53-.88,2.14,1.24-1.73.99c-.96.55-1.56.97-1.8,1.28-.25.3-.18.57.21.79.39.23.8.28,1.25.17.44-.11,1.03-.37,1.75-.78.72-.41,1.24-.84,1.55-1.28.31-.44.52-.97.61-1.58l.21-1.39c.11-.65.35-1.25.73-1.79.38-.54,1.01-1.07,1.88-1.57,1.42-.81,2.71-1.28,3.87-1.4,1.16-.12,2.32.15,3.47.82,1.15.67,1.53,1.35,1.13,2.05-.4.7-1.37,1.49-2.91,2.37l-1.06.61-2.08-1.21,1.23-.7c.83-.48,1.37-.85,1.61-1.13.24-.28.18-.52-.17-.72-.35-.2-.74-.27-1.17-.21-.43.07-.91.26-1.46.57-.55.31-.9.61-1.07.89-.17.28-.3.68-.4,1.21l-.31,1.59c-.16.79-.47,1.51-.95,2.14-.48.63-1.18,1.21-2.11,1.75-1.61.92-3.03,1.46-4.26,1.63-1.23.17-2.43-.09-3.6-.76-1.16-.68-1.55-1.39-1.15-2.15.4-.76,1.42-1.6,3.06-2.54Z"/>
            <path class="cls-46" d="m163.32,165.2l17.17-9.84,2.26,1.31-17.17,9.84-2.26-1.31Z"/>
            <path class="cls-46" d="m170.49,169.57c-.93-.54-1.24-1.21-.91-2,.32-.79,1.37-1.69,3.14-2.71l7.46-4.28c1.59-.91,3.06-1.45,4.43-1.61,1.37-.16,2.63.09,3.8.77,1.45.84,1.75,1.74.89,2.69-.52.57-1.43,1.23-2.74,1.98l-1.22.7-2.1-1.22,1.8-1.03c.79-.45,1.27-.81,1.44-1.08.18-.27.07-.51-.33-.74-.4-.23-.86-.28-1.41-.16-.54.12-1.3.46-2.27,1.02l-7.44,4.26c-1.13.65-1.84,1.14-2.13,1.48-.3.34-.23.63.19.88.42.25.96.29,1.61.12.65-.17,1.54-.58,2.67-1.22l2.31-1.32-1.14-.66,1.9-1.09,3.11,1.81-9.38,5.37-1.01-.59,1.34-1.17c-.7.26-1.41.37-2.14.33-.73-.04-1.36-.21-1.88-.52Z"/>
            <path class="cls-46" d="m176.3,172.75l17.17-9.84,1.77,1.03-7.16,7.73,4.52-2.78,5.62-3.22,2.03,1.18-17.17,9.84-1.6-.93,7.44-7.98-4.38,2.66-6.16,3.53-2.08-1.21Z"/>
          </g>
          <g>
            <path class="cls-53" d="m100.36,135.2l-17.11-9.95,1.77-1.02,13.42,4.17-4.83-2.62-5.6-3.26,2.04-1.17,17.11,9.95-1.6.92-13.86-4.33,4.62,2.54,6.13,3.57-2.09,1.2Z"/>
            <path class="cls-53" d="m109.4,130.03l-17.11-9.95,4.98-2.86,2.25,1.31-2.72,1.56,4.98,2.9,2.59-1.48,2.2,1.28-2.59,1.48,5.44,3.17,2.82-1.62,2.24,1.31-5.09,2.91Z"/>
            <path class="cls-53" d="m117.5,125.39l-18.92-8.91,2.03-1.16,13.28,6.47-10.8-7.88,1.82-1.05,13.58,6.29-11.22-7.64,2.04-1.17,15.4,10.93-2.26,1.29-12.69-5.86,10,7.4-2.26,1.29Z"/>
            <path class="cls-53" d="m131.12,117.58l-17.11-9.95,3.41-1.96c1.15-.66,2.35-.88,3.58-.65,1.23.23,2.66.8,4.28,1.72l.36.21c1.7.99,2.78,1.86,3.23,2.61.46.75.12,1.45-1.02,2.1l-1.22.7,6.74,3.92-2.27,1.3Zm-6.63-6.47l.78-.45c.48-.27.58-.57.3-.9-.28-.33-1.02-.84-2.21-1.53l-.33-.19c-1.02-.59-1.82-.96-2.4-1.13-.58-.17-1.1-.12-1.55.14l-.79.45,6.21,3.61Z"/>
            <path class="cls-53" d="m134.05,106.62l-.76.39,8.08,4.7-2.27,1.3-17.1-9.95,3.74-2.14c.78-.45,1.54-.67,2.28-.68.74,0,1.5.14,2.26.44.77.31,1.67.76,2.71,1.37,1.04.61,1.74,1.12,2.09,1.55.35.43.36.84.03,1.25.62-.23,1.37-.21,2.27.08.9.29,2.44,1.07,4.63,2.34,2.19,1.28,3.4,1.95,3.62,2.01l-2.26,1.3c-.18-.04-2.26-1.22-6.22-3.52-.76-.44-1.34-.69-1.75-.74-.41-.05-.86.05-1.35.32Zm-2.78-.79l.9-.52c.29-.16.43-.33.41-.5-.01-.16-.17-.37-.48-.61-.31-.24-.84-.58-1.58-1.01l-.11-.06c-.93-.54-1.6-.85-2.02-.94-.42-.09-.87,0-1.36.29l-.77.44,5.01,2.91Z"/>
            <path class="cls-53" d="m152.2,104.3c.3.77-.11,1.49-1.25,2.14-1.14.65-2.39.89-3.75.72-1.36-.18-2.87-.75-4.53-1.72l-7.82-4.55c-3.14-1.83-3.59-3.38-1.37-4.65,1.15-.66,2.37-.9,3.68-.72,1.3.17,2.72.71,4.26,1.61l7.82,4.55c1.67.97,2.66,1.85,2.96,2.62Zm-4.93.96c.53.15,1,.11,1.41-.12.41-.23.48-.51.2-.82-.27-.31-.9-.75-1.89-1.32l-7.97-4.64c-.81-.47-1.47-.78-1.97-.92-.5-.14-.95-.1-1.34.12-.39.22-.47.49-.25.79.22.31.73.69,1.53,1.16l7.98,4.64c1.01.58,1.77.95,2.3,1.11Z"/>
            <path class="cls-53" d="m156.06,103.29l-17.11-9.95,3.34-1.91c1.09-.63,2.26-.86,3.49-.72,1.23.15,2.57.64,4.02,1.48l7.72,4.48c1.72,1,2.74,1.88,3.05,2.63.31.75-.11,1.46-1.25,2.11l-3.26,1.87Zm.24-2.47l.74-.43c.42-.24.56-.5.44-.79-.12-.29-.6-.67-1.43-1.16l-8.45-4.91c-.89-.52-1.61-.83-2.18-.94-.56-.11-1.08-.03-1.54.23l-.67.38,13.08,7.61Z"/>
            <path class="cls-53" d="m169.34,94.62c.22.73-.24,1.42-1.38,2.08-1.15.66-2.35.92-3.62.78-1.27-.13-2.68-.66-4.25-1.57l-12.72-7.4,2.26-1.3,12.67,7.37c.9.52,1.48.82,1.75.89.27.07.53.12.8.16.26.03.56-.04.88-.23.33-.19.45-.39.37-.59-.08-.21-.27-.42-.56-.63-.3-.21-.7-.46-1.21-.76l-12.67-7.37,2.26-1.3,12.72,7.4c1.57.92,2.47,1.74,2.7,2.47Z"/>
            <path class="cls-53" d="m177.69,89.75c.28.76-.13,1.45-1.23,2.08-1.1.63-2.34.85-3.73.67-1.39-.18-2.88-.73-4.46-1.66l-7.45-4.34c-2.55-1.48-3.56-2.74-3.03-3.77.19-.38.6-.74,1.21-1.09,2.09-1.2,4.65-.91,7.68.85l2.35,1.37-2.19,1.25-2.19-1.27c-.88-.51-1.58-.84-2.09-.99-.51-.15-.95-.11-1.33.11-.38.22-.44.48-.18.8.25.32.8.72,1.63,1.2l7.99,4.65c.92.54,1.65.88,2.18,1.03.54.15.99.12,1.36-.1.37-.21.43-.48.17-.79-.26-.31-.85-.74-1.78-1.28l-2.45-1.42,2.22-1.27,2.42,1.41c1.65.96,2.62,1.82,2.9,2.57Z"/>
            <path class="cls-53" d="m182.06,88.39l-14.85-8.64-1.74,1-2.25-1.31,5.67-3.25,2.25,1.31-1.67.96,14.85,8.64-2.26,1.29Z"/>
            <path class="cls-53" d="m182.13,82.8l-1.53-.89,2.15-1.23,1.72,1c.95.55,1.69.9,2.22,1.05.53.14.98.1,1.37-.12.39-.22.49-.46.3-.72-.19-.26-.65-.6-1.36-1.01-.72-.42-1.46-.72-2.22-.9-.76-.18-1.68-.3-2.75-.36l-2.4-.13c-1.13-.07-2.16-.21-3.11-.43-.94-.22-1.85-.58-2.72-1.09-1.41-.82-2.23-1.57-2.44-2.24-.21-.67.26-1.34,1.41-2,1.15-.66,2.34-.88,3.54-.65,1.21.23,2.58.79,4.12,1.69l1.06.62-2.09,1.2-1.22-.71c-.83-.48-1.49-.79-1.97-.93-.48-.14-.9-.11-1.25.1-.35.2-.47.43-.35.67.12.25.45.53.99.84.54.32,1.06.52,1.54.62.48.1,1.18.18,2.1.23l2.75.19c1.38.09,2.62.28,3.71.56,1.1.28,2.11.68,3.03,1.22,1.6.93,2.55,1.75,2.85,2.47.3.71-.14,1.4-1.31,2.07-1.17.67-2.41.89-3.72.66-1.31-.23-2.78-.82-4.42-1.77Z"/>
            <path class="cls-53" d="m125,143.61l-2.86,1.64-1.89-1.1h-.02s-.68-.41-.68-.41l.06.9c-.61-.85-1.62-1.36-5.5-2.22-.11-.03-.22-.07-.31-.12-.31-.15-.56-.41-.76-.73-.35-.57-.53-1.33-.63-1.98l-.52-.3-4.64-2.7-2.27,1.3,6.89,4,1.1.65.89.51h0s2.6,1.52,2.6,1.52l3.26,1.89,1.7.99.67.39.58-.33.06-.04,4.49-2.57-2.22-1.29Zm-11.27-2.25c.27.35.53.55.75.61,1.19.29,2.15.42,2.93.53l-3.75-2.18-.79-.46c.09.22.19.42.29.6.2.37.39.67.57.9Z"/>
            <path class="cls-53" d="m127.84,144.54l-14.99-11.17,2.99-1.71,19.36,8.66-2.11,1.21-3.41-1.57-2.4,1.38,2.73,1.96-2.18,1.25Zm-.48-5.66l-9.59-4.43-.03.02,7.68,5.52,1.94-1.11Z"/>
            <path class="cls-53" d="m122.41,131.15c-.53-.66-.85-1.36-1.05-2.1-.04-.16-.07-.33-.1-.5h-.01l-1.51.87-.27.15.41.24,2.34,1.36.39.23c-.07-.08-.14-.16-.2-.25Zm19.04,4.54c-.23-.73-1.13-1.56-2.7-2.47l-8.37-4.87h-.01s-.28-.17-.28-.17c-.23.76-.53,1.5-.83,2.14l.41.24h.03s6.74,3.93,6.74,3.93c.51.3.91.55,1.21.76.29.2.48.41.56.62.08.21-.04.41-.37.6-.33.18-.62.26-.88.23-.27-.03-.53-.09-.8-.16-.27-.07-.85-.37-1.75-.89l-4.99-2.9-.78-.45h0s-.03-.02-.03-.02h-.01l-.44-.27c-.24.22-.51.41-.81.56-.59.31-1.27.48-1.95.46l.74.43h.02s.03.03.03.03l.08.04,1.16.68.56.33.43.24,2.44,1.43h.01l1.32.77c1.57.91,2.99,1.43,4.25,1.57,1.27.13,2.48-.13,3.62-.79,1.15-.65,1.61-1.34,1.39-2.07Z"/>
            <path class="cls-53" d="m145.29,134.55l-17.11-9.95,1.77-1.02,13.41,4.17-4.82-2.62-5.6-3.26,2.04-1.17,17.11,9.95-1.61.92-13.86-4.33,4.62,2.54,6.13,3.57-2.09,1.2Z"/>
            <path class="cls-53" d="m158.83,125.64c.28.76-.13,1.45-1.23,2.08-1.1.63-2.34.85-3.73.67-1.39-.18-2.88-.73-4.46-1.66l-7.46-4.34c-2.55-1.48-3.56-2.74-3.03-3.77.2-.38.6-.74,1.21-1.09,2.09-1.2,4.65-.91,7.68.85l2.35,1.37-2.19,1.25-2.19-1.27c-.88-.51-1.58-.84-2.08-.99-.51-.15-.95-.11-1.33.11-.38.22-.44.48-.18.8.26.32.8.72,1.63,1.2l7.99,4.65c.92.54,1.65.88,2.18,1.03.54.15.99.12,1.36-.1.37-.21.43-.48.16-.79-.26-.31-.85-.74-1.78-1.28l-2.45-1.42,2.22-1.27,2.42,1.41c1.65.96,2.62,1.82,2.9,2.57Z"/>
            <path class="cls-53" d="m162.44,124.72l-17.11-9.95,2.27-1.3,6.92,4.03,2.03-1.16-6.92-4.03,2.26-1.3,17.11,9.95-2.26,1.3-7.95-4.62-2.03,1.16,7.95,4.62-2.27,1.3Z"/>
          </g>
          <polygon class="cls-49" points="90.48 78.54 100.71 72.63 90.49 66.73 80.25 72.63 90.48 78.54"/>
          <polygon class="cls-13" points="90.48 113.42 80.25 107.51 90.48 103.29 46.77 99.55 46.77 114.93 90.48 113.42"/>
          <polygon class="cls-16" points="100.71 72.63 100.71 107.51 90.48 113.42 90.48 78.54 100.71 72.63"/>
          <polygon class="cls-43" points="80.25 72.63 80.25 107.51 90.48 113.42 90.48 78.54 80.25 72.63"/>
          <polygon class="cls-49" points="160.97 40.39 171.19 34.48 160.97 28.57 150.74 34.48 160.97 40.39"/>
          <polygon class="cls-16" points="171.19 34.48 171.19 65.85 160.97 71.76 160.97 40.39 171.19 34.48"/>
          <polygon class="cls-43" points="150.74 34.48 150.74 65.85 160.97 71.76 160.97 40.39 150.74 34.48"/>
          <polygon class="cls-49" points="114.11 47.06 124.33 41.15 113.82 35.96 104.25 41.56 114.11 47.06"/>
          <polygon class="cls-16" points="124.33 41.15 124.33 94.06 114.11 99.97 114.11 47.06 124.33 41.15"/>
          <polygon class="cls-43" points="103.88 41.15 103.88 94.06 114.11 99.97 114.11 47.06 103.88 41.15"/>
          <polygon class="cls-49" points="137.6 21.02 147.82 15.11 137.6 9.2 127.37 15.11 137.6 21.02"/>
          <polygon class="cls-16" points="147.82 15.11 147.82 78.21 137.6 84.12 137.6 21.02 147.82 15.11"/>
          <polygon class="cls-43" points="127.37 15.11 127.37 78.21 137.6 84.12 137.6 21.02 127.37 15.11"/>
          <path class="cls-48" d="m171.09,35.87l-.06-.03c0,.06.03.1.06.12l.06.03s-.06-.06-.06-.12h0Z"/>
          <path class="cls-44" d="m170.96,37.23s.07,0,.07.04v.28s-.02.1-.05.12l-.24.15s-.07,0-.07-.04v-.28s.02-.1.05-.12l.24-.15Z"/>
          <path class="cls-12" d="m254.7,94.38l45.58-15.33-.57-1.32-45.59,15.31-2.44-5.74,2.31-1.49v-1.3l-12.9,7.08-.18,1.63-1.91-.65-1.06-2.14h-.01l-1.59-.46-29.44,1.49.53,24.71,38.39-9.95-.76-1.53,1.16.39.53-.17-1.05-2.12,33.53-3.93v-1.41l-22.12,2.6-2.41-5.66Zm-3.75-6.68l2.38,5.61-10.11,3.39-1.6-4.08,9.33-4.92Zm-5.7,14.19l-1.5-3.83,10.14-3.41,2.34,5.53-10.98,1.71Z"/>
          <path class="cls-43" d="m276.58,41.14c-.06.11-.05.26.05.42.2.32.67.58,1.05.57.19,0,.32-.08.38-.19l-23.92,43.9s0,0,0,0l-.03.05c-.06.11-.19.18-.38.19-.38.01-.85-.24-1.05-.57-.1-.16-.11-.31-.05-.42l.03-.06s0,0,0,0l23.92-43.89Z"/>
          <path class="cls-43" d="m279.03,51.05c0,.12.08.25.24.34.33.19.86.19,1.19,0,.17-.1.25-.22.25-.35l-.12,50s0,0,0,0v.06c0,.13-.08.25-.25.35-.33.19-.86.19-1.19,0-.16-.09-.24-.22-.24-.34v-.07s0,0,0,0l.12-49.98Z"/>
          <path class="cls-43" d="m284.73,29.97c.04.12.15.21.34.25.37.08.88-.08,1.13-.36.13-.14.17-.29.13-.41l14.96,47.71h0s.02.05.02.05c.04.12,0,.26-.13.41-.26.28-.76.44-1.13.36-.18-.04-.3-.13-.34-.25l-.02-.07h0s-14.96-47.69-14.96-47.69Z"/>
          <polygon class="cls-16" points="298.77 15.43 273.08 .5 274.75 0 300.45 14.93 298.77 15.43"/>
          <polygon class="cls-44" points="289.09 67.68 263.4 52.75 273.08 .5 298.77 15.43 289.09 67.68"/>
          <polygon class="cls-22" points="264.82 52.1 274 2.51 297.35 16.09 288.17 65.67 264.82 52.1"/>
          <polygon class="cls-43" points="300.45 14.93 292.57 57.48 292.57 57.48 292.12 59.88 290.77 67.18 289.09 67.68 290.7 59.02 291.39 55.26 298.77 15.43 300.45 14.93"/>
          <polygon class="cls-16" points="283.62 65.54 264.59 54.48 266.7 54.03 285.74 65.06 283.62 65.54"/>
          <polygon class="cls-43" points="283.48 66.12 264.45 55.06 264.59 54.48 283.62 65.54 283.48 66.12"/>
          <polygon class="cls-43" points="283.62 65.54 285.74 65.06 285.63 65.66 283.48 66.12 283.62 65.54"/>
          <polygon class="cls-43" points="280.1 76.87 263.37 67.21 263.37 68.13 263.2 68.13 280.1 77.88 280.1 76.87"/>
          <polygon class="cls-33" points="288.26 58.43 267.05 46.1 266.15 50.95 287.38 63.21 288.26 58.43"/>
          <path class="cls-5" d="m279.57,38.05l.08,11.74c2.63,1.14,5.21.58,6.84-1.88.63-.95,1.06-2.11,1.31-3.38.8-4.17-.42-9.67-3.35-13.84-1.51-2.15-3.25-3.63-4.97-4.38l.09,11.74Z"/>
          <path class="cls-3" d="m273.8,47.24c1.51,2.15,3.25,3.63,4.97,4.38l-.08-11.75-4.89,7.36Z"/>
          <path class="cls-26" d="m274.03,45.28l4.89-7.37-.09-11.74c-2.63-1.14-5.21-.58-6.84,1.88-.63.96-1.07,2.11-1.31,3.38-.8,4.18.42,9.67,3.35,13.85Z"/>
          <polygon class="cls-34" points="276.51 17.99 276.16 19.85 272.21 17.5 272.55 15.63 276.51 17.99"/>
          <polygon class="cls-34" points="281.87 24.11 281.53 25.98 271.67 20.28 272.02 18.42 281.87 24.11"/>
          <polygon class="cls-44" points="293.35 27.42 293.01 29.29 290.95 28.17 291.3 26.31 293.35 27.42"/>
          <polygon class="cls-43" points="292.83 30.22 292.49 32.08 290.42 30.96 290.76 29.09 292.83 30.22"/>
          <polygon class="cls-3" points="292.35 32.84 292 34.71 290.04 33.64 290.38 31.77 292.35 32.84"/>
          <ellipse class="cls-27" cx="310.18" cy="145.53" rx="4.2" ry="19.8" transform="translate(98.59 415.01) rotate(-77)"/>
          <ellipse class="cls-38" cx="327.48" cy="150.12" rx="4.2" ry="21.42" transform="translate(131.56 452.44) rotate(-81.68)"/>
          <path class="cls-35" d="m293.38,56.15c.32-.29-.25-.54-.35-.96-.22-.89.13-1.75-.89-2.95-.13-.15-.28-.33-.4-.48-.1-.13-.68-.81-.81-.87-.19-.08-.34.24-.35.4-.07.7.89,1.31.78,1.85-1.2-.7-3.59-4.56-4.07-3.4-.23.56,1.68,2.31,1.96,2.78-.06-.09-.62-.54-.71-.62-.32-.31-.92-.85-1.17-.32-.23.48.1.69.36,1,.05.06.47.53.38.48-.34-.21-.86-.81-1.14-.15-.1.24.03.46.17.65.05.06.36.47.41.5-.52-.28-1.04.19-.58.73,2.01,2.35,3.91,2.71,4.33,3.01.03.02.06.06.08.05.02,0,.06-.07.08-.09.05-.06.1-.12.15-.17.16-.17.21-.09.37-.26.32-.35,1.04-.83,1.39-1.15Z"/>
          <path class="cls-22" d="m301.8,73.98c-.15-.13-.27-.28-.4-.43l-11.26-15.37c-.22-.28,3.5-3.33,3.63-3.18,0,0,9.59,9.24,13.06,14.4,1.07,1.58.88,3.67-.62,4.81-1.34,1.02-3.21.89-4.41-.22Z"/>
          <path class="cls-5" d="m312.79,57.35c.28-2.4,2.08-5.92,3.57-5.92,1.03,0-.86-2.67-1.1-3.66-.81-3.31-1.02-6.76-.62-10.14,0,.04-1.46.08-1.67.28-.47.43-.64,1.84-.77,2.44-.42,1.88-.61,3.79-.71,5.71-.19,3.8.24,7.63,1.3,11.29Z"/>
          <path class="cls-5" d="m312.79,57.35c.28-2.4,2.08-5.92,3.57-5.92,1.03,0-.86-2.67-1.1-3.66-.81-3.31-1.02-6.76-.62-10.14,0,.04-1.46.08-1.67.28-.47.43-.64,1.84-.77,2.44-.42,1.88-.61,3.79-.71,5.71-.19,3.8.24,7.63,1.3,11.29Z"/>
          <path class="cls-4" d="m312.79,57.35c.28-2.4,2.08-5.92,3.57-5.92,1.03,0-.86-2.67-1.1-3.66-.81-3.31-1.02-6.76-.62-10.14,0,.04-1.46.08-1.67.28-.47.43-.64,1.84-.77,2.44-.42,1.88-.61,3.79-.71,5.71-.19,3.8.24,7.63,1.3,11.29Z"/>
          <path class="cls-43" d="m312.79,57.35c.28-2.4,2.08-5.92,3.57-5.92,1.03,0-.86-2.67-1.1-3.66-.81-3.31-1.02-6.76-.62-10.14,0,.04-1.46.08-1.67.28-.47.43-.64,1.84-.77,2.44-.42,1.88-.61,3.79-.71,5.71-.19,3.8.24,7.63,1.3,11.29Z"/>
          <path class="cls-22" d="m309.18,54.44c1.39-1.94,2.32-2.53,4.64-2.5.82,0,1.8-.11,2.22.59.28.46.21,1.05.07,1.56-.38,1.45-1.2,2.73-1.95,4.03-2.54,4.37-5.53,16.93-9.97,16.44-1.17-.13-2.94-1.69-2.58-2.81.62-1.88,6.25-15.48,7.57-17.32Z"/>
          <path class="cls-4" d="m316.04,52.53c-.42-.7-1.4-.58-2.22-.59-1.55-.02-2.47.24-3.33.98-1.59,6.51-2.74,12.2-2.42,18.75,2.45-3.87,4.38-10.59,6.1-13.55.75-1.29,1.57-2.58,1.95-4.03.14-.52.2-1.1-.07-1.56Z"/>
          <path class="cls-30" d="m314.16,138.02s3.76-1.5,3.95,3.4c.05,1.27-2.28,1.76-2.28,1.76,0,0-.78-.06-1.23.3-.56.46-.77.88-.94,1.06-1.78,1.91-5.15,1.79-6.13.89-1.42-1.29.98-3.06,3.32-4.72,2.44-1.74,3.31-2.69,3.31-2.69Z"/>
          <path class="cls-30" d="m329.48,146.38h-.04c.13-1.08-.18-2.22-.92-3.03-.34-.37-.76-.67-1.25-.76-.78-.15-1.59.29-2.03.95s-.54,1.49-.45,2.28c.07.62.26,1.23.47,1.82-.5.83-.97,1.68-1.15,2.63-.2,1.06.07,2.27.92,2.93.94.72,2.36.55,3.28-.19.92-.74,1.38-1.93,1.48-3.11.1-1.18-.11-2.35-.31-3.51Z"/>
          <path class="cls-22" d="m333.89,96.64c-.96-11.05-2.75-20.24-2.15-27.08.23-2.64.81-4.94,1.94-6.85.67-1.14.74-6.22-1.23-7.16-.07-.03-.14-.07-.23-.11-.88-.4-1.84-.63-2.87-.88-1.03-.26-2.12-.54-3.26-1.05-.58-.26-1.19-.6-1.79-1-2.01-1.38-4.87-1.38-7.77-1.1-.12.02-.25.02-.4.04-1.28.09-3.76.25-4.55,1.02-.51.51-.91,1.37-1.24,2.49-.03.16-.09.32-.14.47-2.03,7.95-.6,27.15-.02,31.27.93,6.62-3.94,33.58-5.11,46.94-.05.61,0,1.19.02,1.72v.02c.05,2.42.28,4.1.75,4.69.07.07.12.14.19.21,1.58,1.37,6.81,1.14,10.7,2.24,1.79.51,3.29,1.3,4.01,2.68.07.12.16.25.25.37,2.35,3.01,11.45,3.08,12.15,1.61,2.19-4.57.98-47.95.75-50.53Z"/>
          <path class="cls-4" d="m335.2,147.56c-9.27,3.34-28.39-6.2-29.95-7.57-.07-.06-.11-2.2-.16-4.62,0,0,0,0,0,0-.01-.54-.01-1.11,0-1.72,1.83-2.42,1.51-6.02,3.32-8.48-.21,2.51-.41,5.03-.62,7.54-.11,1.31-.16,2.79.71,3.77.81.91,2.15,1.08,3.36,1.1,1.48.03,3.01-.1,4.28-.85,1.87-1.1,3.9-5.34,4.16-7.49.25-2.15,1.19-11.83,1.31-17.51.68,5.32.76,13.05.28,16.07-.48,3.02-1.19,6.07-.82,9.11.37,3.04,2.1,6.15,5.01,7.11.38.13.95.35.69.04,1.53-4.39,4.56-31.29,3.62-35.84-.95-4.55-2.32-9.05-2.51-13.7-.07-1.82,0-3.76-.93-5.33-.79-1.31-2.2-2.16-3.67-2.58-1.47-.42-3.03-.46-4.56-.49.95-1.26,2.42-1.57,3.99-1.47.71.05,1.54-.17,2.25-.15.71.02,1.49-.2,1.88-.79.48-.73.2-1.69-.1-2.51-1-2.8-2-5.59-3-8.39,1.83,2.18,3.65,4.35,5.47,6.53-1.13-5.69-2.26-11.38-3.38-17.06.14.21,2.2,6.21,2.13,5.54-.61-6.5.06-11.14,1.39-13.23,1.02.25,1.99.48,2.88.88.08,4.11-1.81,12.97-.56,14.07.02.02.04.03.06.05-.59,6.83,1.19,16.03,2.16,27.07.23,2.57,1.3,50.92,1.3,50.92Z"/>
          <path class="cls-43" d="m326.1,53.52c-.35.41-.74.78-1.18,1.1-1.24.91-2.8,1.38-4.34,1.29-1.2-.07-2.41-.49-3.29-1.31-.85-.8-1.34-2-1.15-3.15.15-.01.28-.02.39-.03,2.91-.29,5.76-.28,7.78,1.1.6.41,1.2.74,1.79,1Z"/>
          <path class="cls-35" d="m317.7,46.93c.11,1.2-.26,2.39-.35,3.6-.09,1.2.22,2.59,1.28,3.18.62.35,1.36.6,2.07.59.85-.01,1.76-.3,2.47-.78.84-.58,1.4-1.68,1.4-1.68,0,0,.84-5,.67-6.97l-7.53,2.06Z"/>
          <path class="cls-36" d="m325.23,44.87l-2.33.64c.51,2.24.53,4.5-.68,6.69-.82,1.47-2.96,1.36-4.5.52.21.41.5.76.91.99.62.35,1.36.6,2.07.59.85-.01,1.76-.3,2.47-.78.84-.58,1.4-1.68,1.4-1.68,0,0,.84-5,.67-6.97Z"/>
          <path class="cls-35" d="m326.26,44.21c-.33,1.37-2.11,4.72-3.08,5.53-1.77,1.48-5.22,2.15-7,.72-2.38-1.9-2.19-6.3-1.83-10.75.36-4.46,3.83-5.02,6.57-2.89,2.74,2.13,6.39,3.04,5.34,7.39Z"/>
          <path class="cls-36" d="m326.26,44.21c1.05-4.35-2.61-5.26-5.34-7.39-2.74-2.14-6.21-1.57-6.57,2.89-.04.51-.08,1.01-.11,1.51.25.12.49.2.66.2,2.44-.41,5.29-.61,6.92,1.83,1.22,2.03,0,4.47,1.22,6.31.05.07.1.13.15.19,0,0,0,0,0,0,.98-.81,2.75-4.16,3.08-5.53Z"/>
          <path class="cls-47" d="m325.97,45.35c.2.83.06,1.74-1.17,2.35-.53.26-1.67.83-2.78,1.38-.51.32-1.47.7-3.15.37-.96-.69-.98-.95-2.53-1.91-.11-.07-.81-.16-1.7.07-.1.03-.23-.49-.26-.55.1.64.96,4.92,3.32,4.87,2.79-.06,4.64-1.39,4.64-1.39,0,0,2.7-2.42,3.25-3.24.09-.13.17-.27.26-.4.38-.4.73-.83,1.02-1.34.03-.06.07-.12.1-.18l-1-.03Zm-8.82,4.15c-.25-.01-.49-.04-.73-.1-.45-.11-.98-.72-1.42-1.34.1,0,.55-.05,1.11.18,1.44.73,1.79,1.12,1.82,1.2,0,.02-.64.06-.79.06Z"/>
          <path class="cls-22" d="m334.7,56.56c-.59-.44-1.44-.39-2.32.04-.15.07-.29.15-.44.24-1.66,1.01-3.33,3.26-3.77,5.94-.09.61-.74-4.14-1.38-4.18-1.84-.11-.13-5.43-.18-6.68-.11-2.37-.22-4.73-.33-7.08-.06-1.34-.13-2.71.18-4.01.31-1.32-.35-2.93.83-3.59.53-.17,1.29-.09,1.36.46.98,2.82,1.38,4.6,1.62,6.16.15.86.22,1.67.33,2.54.09.66.18,1.31.26,1.97.07.53.15,1.09.22,1.62.02.13.09.35.22.63.07.15.15.33.24.52.99,1.93,3.17,5.43,3.17,5.43Z"/>
          <path class="cls-5" d="m325.06,59.82l-1.05.26c-.14-3.33-.21-6.41-.21-6.41,0,0,.54,2.64,1.26,6.15Z"/>
          <path class="cls-5" d="m328.02,75.79c-2.26-8.16-2.8-5.55-3.36-7.77-.26-1.07-.53-4.78-.65-7.93l1.14-.26c1.59,7.79,3.9,19.7,2.87,15.97Z"/>
          <path class="cls-34" d="m329.31,59.22c-.71,5.72-.6,16.59-.71,16.99-.42.39-1.51-5.56-2.54-7.27"/>
          <path class="cls-22" d="m328.85,53.67c-.02.83-.06,1.64-.15,2.45-.07.83-.24,1.66-.39,2.48-.15,1.01-.24,2.37-.28,3.9v.02c-.13,6.27.66,15.49.57,15.83-.7-3.77-1.51-7.69-2.54-9.4-.28-.48-.55-.63-.81-.22v-.06c-.11-1.45-1.45-14.17-1.45-14.37.07-2.06-.52-3.68-.77-5.72-.22-1.86,1.31-5.39-.37-7.4-.99-.75-1.94.11-3.87-1.03-.58-.34-1.23.87-1.61.82s-.2-.99-.71-1.16c-.44-.15-.93.65-1.47.71-.48.06-.9-.11-1.25-.4-.13-.07-.24-.15-.31-.17-.15-.02-.31-.02-.42.09-.17.17.04.52.04.75-.02.39-.22.74-.44,1.03-.24.31-.64.59-.83.92.17-2.5.72-4.73,1.27-5.89.11-.24.26-.48.39-.72.07-.13.13-.24.18-.39.02-.02.04-.06.06-.09.02-.06.06-.09.07-.15.09-.17.2-.33.31-.52.09-.13.2-.24.31-.37.07-.07.13-.15.2-.22,1.31-1.31,3.72-2.45,7.32-2.43,3.22.02,4.91,1.6,5.78,2.87.06.07.11.17.15.24.09.15.17.28.24.4.04.07.07.15.11.22.07.2.15.37.18.48.04.09.06.17.06.18.07.2.11.42.15.66.02.06.04.13.04.18.02.17.02.31.04.48.02.9-.17,1.82-.57,2.61.04.29.07.57.11.86.17,1.49.26,2.98.35,4.47.15,2.67.4,5.35.31,8.02Z"/>
          <path class="cls-34" d="m328.18,35.71s-.04.04-.07.04c-1.14.72-2.47,1.16-3.77,1.4-1.51.28-3.05.29-4.6.22-1.09-.04-2.21-.15-3.22-.57-.96-.37-1.78-1.01-2.45-1.8.09-.13.2-.24.31-.37.07-.07.13-.15.2-.22.28.06.57.06.83-.06-.24.17-.22.55-.04.77.18.24.48.35.74.44.44.17.88.33,1.32.5.22.07.63-.24.85-.18.37.09.59.55.98.59,1.82.15,3.66.09,5.48-.17.52-.07,1.03-.17,1.47-.4.46-.24.83-.68.88-1.2.11.2.37.24.59.15.06.07.11.17.15.24.09.15.17.28.24.4.04.07.07.15.11.22Z"/>
          <path class="cls-34" d="m312.51,39.79c.1-.65.38-1.28.81-1.79.15-.18.4-.42.36-.68-.03-.23-.24-.13-.36-.01-.37.35-.59,1.03-.71,1.51-.08.32-.06.64-.1.97Z"/>
          <path class="cls-34" d="m323.98,40.79c.28.55.41,1.16.53,1.76.18.85.36,1.71.54,2.56-.12-1.82-.53-3.62-.94-5.4-.02-.07-.03-.14-.08-.19-.15-.15-.55-.1-.74-.11-.2,0-.31.05-.21.26.09.19.32.31.46.46.17.19.32.41.43.64Z"/>
          <path class="cls-34" d="m329.6,59.34c-.71.64-1.26,2.63-1.43,3.45-.91-3.06-1.22-11-1.57-14.08-.28-2.43-.79-4.73-1.37-7.09-.09-.35.05-2.89.44-2.56.17.15.1,1.03.12,1.25.05.56.1,1.11.15,1.67.11,1.13.23,2.26.37,3.39.27,2.22.59,4.44.93,6.65.16,1.02,2.06,6.16,2.36,7.32Z"/>
          <path class="cls-34" d="m330.59,46.4c.09.66.18,1.31.26,1.97-.18-.96-.4-1.9-.64-2.85-.06-.18-.04-.99.06-1.66.15.86.22,1.67.33,2.54Z"/>
          <path class="cls-34" d="m334.59,63.26c-.72.64-1.25,2.63-1.44,3.44-.61-2.06-.96-6.35-1.21-9.86-.13-1.69-.22-3.2-.35-4.21-.07-.68-.18-1.34-.29-2.01.07.15.15.33.24.52.2,1.6.44,3.2.68,4.8.02.15.07.37.17.66.52,1.73,1.93,5.65,2.21,6.66Z"/>
          <path class="cls-34" d="m328.46,44.75c.35,3.59.71,7.18,1.06,10.77.02.18.05.39.22.48.18.1.42-.04.5-.22.08-.19.06-.41.04-.61-.56-4.45-1.25-8.89-2.07-13.3-.12-.63-.24-1.26-.36-1.89-.1-.53-.12-1.3-.38-1.77.41,2.18.77,4.32.99,6.54Z"/>
          <path class="cls-47" d="m328.64,37.7c-1.54,1.18-3.96,2.14-6.89,2.1-.15,0-.29,0-.44,0-3.67-.12-6.71-1.24-8.25-2.95-.25-.59.12-1.09.58-1.09,1.21,1.7,4.35,2.86,8.12,2.9,3.04.04,5.45-1.14,6.67-2.29.35.33.55.72.2,1.33Z"/>
          <path class="cls-47" d="m328.32,36.07c-1.44,1.1-3.85,2.13-6.58,2.11-.13-.02-.28-.02-.4-.02-3.35-.11-6.13-1.12-7.58-2.65,0-.69.31-.76.63-.88,1.23,1.45,4.03,2.43,7.38,2.48,2.74.04,4.93-.99,6.07-2.02.35,0,.66.23.49.98Z"/>
          <path class="cls-34" d="m326.45,61.11c-.17.77-.11,5.21-.26,6.29-.07.5-.15,1.03-.13,1.55-.28-.48-.55-.63-.81-.22v-.06c.4-.63.66-1.27.72-2.1.15-2.01.2-4.78.48-5.47Z"/>
          <path class="cls-22" d="m338.81,78.62c-.01.24-.03.47-.05.68-.04.34-.1.68-.19,1-.31,1.17-.9,2.24-1.47,3.07-.76,1.11-1.5,1.82-1.5,1.82-1.73.36-1.37-1.77-1.87-2.56-.44-.7-1.44-2.52-2.38-5.3-1.38-4.09-2.63-10.26-1.76-17.99.18-1.62,1-2.78,1.71-3.38.4-.35.77-.51.96-.47,2.08.65,3.11,1.19,3.64,3.2.51,1.93,3.19,14.33,2.91,19.93Z"/>
          <path class="cls-35" d="m330.41,99.59c.29-.69.6-1.14.91-1.08.53.1,1.05.22,1.54.43.31.14,1.17.52,1.19.93.04,1.23.3,2.45.24,3.68-.08,1.49-.89,2.62-1.6,3.89-.08.14-.16.27-.28.37-.12.09-.31.13-.44.05-.19-.12-.18-.39-.14-.61-.49.31-1.64,1.55-1.45.13.1-.73.79-1.51,1.11-2.17.38-.79.23-1.76-.37-2.41-.29.39-.47.68-.55,1.18-.05.32-.07.66-.22.95-.15.29-.48.52-.8.43-.49-.14.09-3.87.88-5.77Z"/>
          <path class="cls-22" d="m338.81,78.62v.02c0,.23-.02.44-.05.66l-.19,1-3.83,20.16c-.01.08-.22.11-.55.11-1.38.02-4.9-.48-4.87-.66,0,0,.24-15.05,1.82-21.89.06-.24.13-.47.22-.7.7-1.71,2.37-2.82,4.23-2.5.83.14,1.54.53,2.09,1.09.7.71,1.11,1.67,1.12,2.7Z"/>
          <path class="cls-4" d="m338.84,78.59v.02c0,.22-.02.43-.05.66-.04.33-.1.67-.19.99l-3.83,20.17c-.03.22-1.72.1-3.21-.1-.04-.31-.03-.63.05-.94.18-.73.65-1.34,1.07-1.97,2.65-3.96,3.41-8.85,4.09-13.58,0-.02,0-.04,0-.06.22-1.5.43-3.08-.08-4.51-.45-1.26-1.66-2.35-2.96-2.35,1.31-.17,2.68-.5,3.45-1.49.07-.09.14-.19.2-.29.58-.99.42-2.24.23-3.37-.41-2.47-.85-4.92-1.33-7.38-.33-1.7-1.08-10.3-5.97-7.36,0,0,1.75-1.37,2.46-1.43,2.17-.19,2.68,1.19,3.17,3.05.51,1.93,3.18,14.33,2.91,19.93Z"/>
          <path class="cls-46" d="m245.22,13.33c4.68,7.77,4.9,20.47.51,28.35-4.4,7.89-11.75,7.98-16.43.21-4.68-7.77-4.91-20.47-.51-28.36,4.39-7.88,11.75-7.98,16.43-.2Z"/>
          <path class="cls-53" d="m251.11,41.01s.04-.07.05-.11c.04-.08.08-.16.12-.23.05-.09.09-.18.14-.27.03-.07.06-.14.1-.21.04-.08.08-.17.11-.25.02-.06.05-.11.07-.16.05-.12.1-.24.15-.36.03-.07.06-.14.09-.21,0-.02.02-.05.03-.07.09-.22.17-.45.26-.67,0,0,0,0,0-.01.01-.03.02-.07.03-.1.07-.19.14-.38.2-.58.01-.03.02-.07.03-.1.03-.09.06-.19.09-.28.04-.11.07-.22.11-.34.02-.06.04-.13.05-.19.03-.1.06-.21.09-.31.02-.08.05-.16.07-.24.03-.1.05-.19.07-.29.03-.1.05-.21.08-.31.01-.05.03-.1.04-.15.03-.14.06-.28.09-.42.02-.09.04-.18.06-.27,0-.03.01-.05.02-.08.05-.25.1-.5.15-.76,0,0,0,0,0,0,0-.02,0-.05.01-.07.04-.23.08-.45.12-.68,0-.04.01-.07.02-.11.01-.09.03-.17.04-.26.02-.12.04-.25.05-.37.01-.08.02-.16.03-.24.01-.1.02-.19.04-.29,0-.07.02-.14.03-.21.02-.14.03-.28.04-.42,0-.08.02-.16.02-.24,0-.03,0-.05,0-.08.02-.25.04-.5.06-.76,0,0,0-.02,0-.03,0-.07,0-.13.01-.2.01-.2.02-.4.03-.6,0-.03,0-.06,0-.09,0-.16,0-.32.01-.48,0-.13,0-.26.01-.39,0-.02,0-.05,0-.07,0-.42,0-.84,0-1.26,0-.04,0-.07,0-.11,0-.11,0-.21-.01-.32,0-.17-.01-.34-.02-.51,0-.15-.02-.31-.03-.46-.01-.17-.02-.34-.04-.51,0-.06,0-.11-.01-.17,0-.05-.01-.11-.02-.16-.04-.47-.09-.93-.15-1.4,0,0,0,0,0,0,0,0,0,0,0,0-.04-.33-.09-.65-.14-.98,0-.01,0-.03,0-.04-.04-.24-.08-.47-.13-.71,0-.05-.02-.09-.02-.14,0,0,0,0,0,0-.05-.28-.11-.55-.17-.83,0-.01,0-.03,0-.04-.02-.08-.04-.17-.06-.25-.04-.17-.08-.34-.12-.51,0-.03-.02-.06-.02-.09-.03-.12-.06-.23-.09-.34-.03-.13-.06-.25-.1-.38-.01-.05-.03-.09-.04-.14-.03-.12-.07-.24-.11-.36-.03-.1-.06-.21-.09-.31-.02-.06-.04-.11-.06-.17-.04-.13-.08-.25-.12-.38-.03-.09-.06-.18-.09-.26-.02-.07-.05-.13-.07-.2-.04-.12-.09-.24-.13-.37-.03-.07-.05-.15-.08-.22-.03-.08-.06-.16-.09-.23-.05-.12-.09-.23-.14-.35-.02-.06-.05-.12-.07-.18-.04-.1-.08-.19-.12-.28-.05-.1-.09-.21-.14-.31-.02-.04-.04-.08-.06-.13-.06-.12-.12-.25-.18-.37-.04-.08-.08-.17-.12-.25-.01-.02-.02-.04-.03-.06-.11-.22-.22-.43-.34-.64,0,0,0,0,0,0,0-.02-.02-.03-.03-.05-.1-.19-.21-.38-.32-.56-.03-.05-.06-.09-.08-.14-.09-.15-.18-.3-.27-.44-.04-.05-.07-.11-.11-.16-.05-.07-.1-.15-.14-.22-.04-.06-.07-.11-.11-.17-.06-.09-.12-.17-.19-.26-.04-.06-.09-.12-.13-.18-.02-.02-.04-.05-.05-.08-.13-.17-.25-.33-.38-.49,0,0,0,0,0,0-.13-.16-.26-.31-.4-.46-.02-.02-.04-.04-.05-.06-.05-.05-.1-.11-.15-.16-.07-.07-.14-.15-.21-.22-.04-.04-.07-.07-.11-.1-.06-.06-.12-.12-.19-.18-.05-.05-.1-.1-.14-.14-.05-.05-.1-.09-.15-.14-.06-.06-.13-.11-.19-.17-.03-.03-.07-.06-.1-.09-.06-.05-.12-.1-.19-.15-.08-.06-.15-.12-.23-.18-.03-.02-.05-.04-.08-.06-.06-.05-.13-.09-.2-.14-.08-.06-.17-.12-.25-.18-.02-.02-.05-.04-.07-.05-.06-.04-.12-.07-.18-.11-.1-.06-.21-.13-.31-.19-.03-.02-.06-.04-.09-.05-.05-.03-.09-.04-.14-.07-.13-.07-.27-.14-.4-.2-.04-.02-.08-.04-.12-.06-.06-.03-.11-.05-.17-.07-.04-.02-.09-.04-.13-.05-.16-.06-.32-.12-.47-.17,0,0,0,0-.01,0-.04-.01-.09-.02-.13-.04-.13-.04-.27-.08-.4-.11-.07-.02-.13-.03-.2-.04-.09-.02-.17-.04-.26-.05-.02,0-.04,0-.07,0-.13-.02-.27-.04-.4-.05-.07,0-.13-.02-.2-.02-.2-.01-.4-.02-.6-.02l-5.08.11c.2,0,.4,0,.6.02.07,0,.13.01.2.02.13.01.27.03.4.05.11.02.22.04.33.06.07.01.13.02.2.04.13.03.27.07.4.11.04.01.09.02.13.04.16.05.33.11.49.17.04.02.09.04.13.05.1.04.2.09.29.13.13.06.27.13.4.2.08.04.15.08.23.12.1.06.21.12.31.19.08.05.17.1.25.16.08.06.17.12.25.18.09.07.18.13.28.2.08.06.15.12.23.18.1.08.19.15.29.24.06.06.13.11.19.17.1.09.2.18.3.28.06.06.12.12.19.18.11.11.21.22.31.33.05.05.1.1.15.16.15.17.3.34.45.52,0,0,0,0,0,0,0,0,0,0,0,0,.15.18.29.37.44.56.04.06.09.12.13.18.1.14.2.28.3.43.05.07.1.14.14.22.13.2.26.39.38.6.14.23.27.46.4.7,0,.02.02.03.03.05.13.23.25.47.37.71.04.08.08.17.12.25.08.16.16.33.23.49.05.1.09.21.14.31.07.15.13.31.2.46.05.11.09.23.14.35.06.15.12.3.17.46.04.12.09.24.13.37.05.15.11.31.16.46.04.13.08.25.12.38.05.16.1.32.15.48.04.12.07.24.11.36.05.17.09.34.14.51.03.11.06.23.09.34.05.2.1.41.14.61.02.08.04.17.06.25.06.29.12.58.18.88,0,.05.02.09.02.14.05.25.09.5.13.75.05.32.1.64.14.97,0,0,0,.01,0,.02.06.46.11.93.15,1.4,0,.11.02.22.03.33.01.17.02.34.04.51,0,.15.02.31.03.46,0,.17.01.34.02.52,0,.14.01.28.01.43,0,.42.01.84,0,1.26,0,.15,0,.31-.01.46,0,.16,0,.32-.01.48,0,.23-.02.46-.04.69,0,.07,0,.14-.01.2-.02.29-.04.58-.07.87,0,.08-.02.15-.02.23-.02.21-.04.42-.07.63-.01.1-.02.19-.04.29-.03.2-.05.4-.08.61-.01.09-.02.17-.04.26-.04.27-.09.53-.13.79,0,.02,0,.04-.01.06-.05.28-.11.56-.17.84-.02.09-.04.18-.06.27-.04.19-.09.38-.13.57-.03.11-.05.21-.08.31-.05.18-.09.35-.14.52-.03.1-.06.21-.09.31-.05.18-.11.35-.16.53-.03.09-.06.19-.09.28-.07.23-.15.46-.23.68-.01.03-.02.07-.03.1-.09.26-.19.51-.29.76-.03.07-.06.14-.09.21-.07.18-.15.36-.23.53-.04.08-.08.17-.11.25-.08.17-.15.33-.23.49-.04.08-.08.16-.11.23-.12.23-.23.45-.36.68-.13.23-.26.46-.4.67-.04.06-.08.12-.12.18-.09.15-.19.3-.29.44-.06.08-.11.16-.17.24-.08.12-.17.24-.25.35-.06.08-.13.17-.19.25-.08.1-.16.21-.25.31-.07.09-.15.18-.22.26-.08.09-.15.18-.23.26-.09.1-.18.2-.28.29-.07.07-.15.15-.22.22-.12.11-.23.22-.35.32-.06.06-.13.11-.19.17-.2.17-.41.33-.62.48-.16.12-.32.23-.48.33,0,0,0,0,0,0-.17.1-.34.2-.5.29-.03.02-.07.03-.1.05-.13.07-.25.13-.38.19-.05.02-.1.05-.16.07-.12.05-.24.1-.36.14-.05.02-.09.04-.14.05-.16.06-.33.11-.49.15-.02,0-.05.01-.07.02-.14.04-.28.07-.43.1-.05.01-.1.02-.16.03-.12.02-.24.04-.36.05-.05,0-.1.01-.15.02-.17.02-.33.03-.5.03l5.08-.11c.17,0,.33-.02.5-.03.05,0,.1-.01.15-.02.12-.01.24-.03.36-.05.05,0,.1-.02.16-.03.14-.03.29-.06.43-.1.02,0,.05-.01.07-.02.16-.04.33-.1.49-.15.05-.02.09-.03.14-.05.12-.04.24-.09.36-.14.05-.02.1-.04.16-.07.13-.06.26-.12.38-.19.03-.02.07-.03.1-.05,0,0,.02,0,.03-.02.16-.09.32-.18.47-.28,0,0,0,0,0,0,.16-.1.31-.2.46-.31,0,0,.01-.01.02-.02.21-.15.41-.31.62-.48.02-.01.04-.03.05-.04.05-.04.09-.09.14-.13.12-.1.23-.21.35-.32.03-.03.06-.06.09-.09.04-.04.08-.09.13-.13.09-.1.19-.19.28-.29.04-.04.08-.08.11-.12.04-.05.08-.09.12-.14.08-.09.15-.18.23-.27.04-.05.08-.09.12-.14.04-.05.09-.11.13-.17.06-.08.13-.16.19-.25.03-.04.07-.08.1-.13.05-.07.1-.15.16-.22.06-.08.11-.16.17-.24.02-.03.05-.06.07-.1.07-.11.14-.23.22-.34.04-.06.08-.12.12-.18,0-.02.02-.03.03-.04.12-.19.23-.39.35-.59,0-.01.01-.02.02-.04.1-.19.2-.37.3-.57Z"/>
          <ellipse class="cls-3" cx="237.29" cy="27.58" rx="9.92" ry="17.13" transform="translate(-.52 4.95) rotate(-1.19)"/>
          <path class="cls-53" d="m242.48,18.27c3.05,5.07,3.2,13.35.33,18.5-2.87,5.15-7.66,5.21-10.72.13-3.05-5.07-3.2-13.35-.33-18.5,2.87-5.14,7.66-5.2,10.72-.13Z"/>
          <path class="cls-3" d="m240.87,21.15c2.11,3.5,2.21,9.22.23,12.77-1.98,3.55-5.29,3.59-7.4.09-2.11-3.5-2.21-9.22-.23-12.77,1.98-3.55,5.29-3.59,7.4-.09Z"/>
          <path class="cls-14" d="m238.65,25.15c.8,1.33.84,3.5.09,4.84-.75,1.35-2.01,1.36-2.81.04-.8-1.33-.84-3.5-.09-4.85.75-1.35,2.01-1.36,2.81-.03Z"/>
          <polygon class="cls-53" points="235.08 27.46 234.69 28.16 234.04 27.06 234.42 26.37 235.08 27.46"/>
          <polygon class="cls-2" points="235.41 28.01 235.02 28.7 234.69 28.16 235.08 27.46 235.41 28.01"/>
          <polygon class="cls-28" points="210.56 28.24 210.17 28.93 209.71 28.68 210.1 27.98 210.56 28.24"/>
          <polygon class="cls-1" points="210.56 28.24 210.17 28.93 209.96 29.23 210.34 28.53 210.56 28.24"/>
          <polygon class="cls-53" points="235.41 28.01 235.02 28.7 209.96 29.23 210.34 28.53 235.41 28.01"/>
          <polygon class="cls-31" points="236.07 29.11 235.68 29.8 235.02 28.7 235.41 28.01 236.07 29.11"/>
          <polygon class="cls-53" points="238.41 27.39 238.03 28.09 235.68 29.8 236.07 29.11 238.41 27.39"/>
          <polygon class="cls-28" points="209.99 28.23 209.61 28.92 209.18 28.69 209.57 28 209.99 28.23"/>
          <polygon class="cls-42" points="207.66 26.94 207.27 27.63 207.4 27.39 207.78 26.7 207.66 26.94"/>
          <polygon class="cls-53" points="209.57 28 209.18 28.69 207.27 27.63 207.66 26.94 209.57 28"/>
          <polygon class="cls-1" points="209.99 28.23 209.61 28.92 209.38 29.24 209.77 28.55 209.99 28.23"/>
          <polygon class="cls-28" points="208.65 28.28 208.27 28.97 207.81 28.72 208.2 28.02 208.65 28.28"/>
          <polygon class="cls-28" points="208.09 28.27 207.7 28.96 207.27 28.73 207.66 28.04 208.09 28.27"/>
          <polygon class="cls-53" points="207.66 28.04 207.27 28.73 205.37 27.67 205.75 26.98 207.66 28.04"/>
          <polygon class="cls-42" points="205.75 26.98 205.37 27.67 205.49 27.43 205.88 26.74 205.75 26.98"/>
          <polygon class="cls-1" points="208.65 28.28 208.27 28.97 208.05 29.27 208.44 28.57 208.65 28.28"/>
          <polygon class="cls-53" points="209.77 28.55 209.38 29.24 208.05 29.27 208.44 28.57 209.77 28.55"/>
          <polygon class="cls-1" points="208.09 28.27 207.7 28.96 207.47 29.28 207.86 28.58 208.09 28.27"/>
          <polygon class="cls-53" points="210.34 28.53 209.96 29.23 209.06 30.47 209.44 29.77 210.34 28.53"/>
          <polygon class="cls-53" points="209.44 29.77 209.06 30.47 208.66 30.23 209.05 29.53 209.44 29.77"/>
          <polygon class="cls-53" points="207.86 28.58 207.47 29.28 206.15 29.31 206.53 28.61 207.86 28.58"/>
          <g>
            <polygon class="cls-3" points="238.41 27.39 234.42 26.37 235.08 27.46 235.08 27.46 210.1 27.98 210.56 28.24 210.34 28.53 235.41 28.01 236.07 29.11 238.41 27.39"/>
            <polygon class="cls-3" points="210.1 27.98 207.78 26.7 207.66 26.94 209.57 28 209.57 28 208.2 28.02 208.2 28.02 205.88 26.74 205.75 26.98 207.66 28.04 207.66 28.04 206.2 28.07 206.53 28.61 207.86 28.58 207.15 29.57 207.54 29.81 208.44 28.57 209.77 28.55 209.05 29.53 209.44 29.77 210.34 28.53 210.56 28.24 210.1 27.98"/>
          </g>
          <polygon class="cls-53" points="206.53 28.61 206.15 29.31 205.82 28.76 206.2 28.07 206.53 28.61"/>
          <polygon class="cls-53" points="207.54 29.81 207.15 30.51 206.76 30.27 207.15 29.57 207.54 29.81"/>
          <polygon class="cls-53" points="208.44 28.57 208.05 29.27 207.15 30.51 207.54 29.81 208.44 28.57"/>
          <g>
            <path class="cls-43" d="m114.33,153.95v64.65c-10.38,2.62-23.16,1.84-32.87-2.71-7.47-3.47-11.53-8.44-11.89-13.43v-48.52h44.76Z"/>
            <path class="cls-43" d="m131.74,202.47v-40.98l-17.4-7.55v64.66c4.1-1.04,7.83-2.6,10.83-4.7,4.75-3.32,6.87-7.39,6.57-11.43Z"/>
            <path class="cls-4" d="m100.64,133.29v-5.9c-9.23-.21-18.37,1.88-24.5,6.18-4.75,3.32-6.87,7.39-6.57,11.43h10.27c0-6.47,9.31-11.71,20.8-11.71Z"/>
            <path class="cls-6" d="m100.64,133.29c-11.49,0-20.8,5.24-20.8,11.71h20.8v-11.71Z"/>
            <path class="cls-4" d="m69.57,173.78c.36,4.99,4.42,9.95,11.9,13.43,9.71,4.53,22.5,5.33,32.87,2.7l-13.7-16.13h-31.07Z"/>
            <rect class="cls-43" x="69.57" y="145" width="31.07" height="28.78"/>
            <polygon class="cls-23" points="114.34 175.52 100.64 159.39 100.64 173.78 114.34 189.91 114.34 175.52"/>
            <path class="cls-4" d="m131.74,159.39c-.36-4.99-4.42-9.95-11.9-13.43-5.7-2.66-12.48-4.03-19.2-4.18v5.9h0c11.49,0,20.8,5.24,20.8,11.71,0,4.66-4.85,8.67-11.84,10.55l4.73,5.58c4.1-1.04,7.83-2.6,10.83-4.7,4.75-3.32,6.87-7.39,6.57-11.43Z"/>
            <path class="cls-6" d="m100.64,173.74h-20.8c0,6.47,9.31,11.71,20.8,11.71,3.21,0,6.24-.42,8.96-1.15l-8.96-10.55h0Z"/>
            <path class="cls-17" d="m121.44,159.39c0-6.47-9.31-11.71-20.8-11.71h0v11.71l8.96,10.55c7-1.89,11.84-5.9,11.84-10.55Z"/>
            <path class="cls-6" d="m121.44,159.39c0-6.47-9.31-11.71-20.8-11.71h0v11.71l8.96,10.55c7-1.89,11.84-5.9,11.84-10.55Z"/>
            <g>
              <ellipse class="cls-41" cx="143.91" cy="208.61" rx="34.69" ry="5.54" transform="translate(-80.7 91.23) rotate(-27.81)"/>
              <g class="cls-18">
                <path class="cls-50" d="m119.54,138.22l5.96-3.47c.31-.18.67-.26,1.07-.24l-5.96,3.47c-.4-.02-.76.06-1.07.24h0Z"/>
                <path class="cls-50" d="m120.61,137.97l5.96-3.47c.37.02.78.13,1.2.34l-5.96,3.47c-.43-.21-.83-.32-1.2-.33h0Z"/>
                <path class="cls-50" d="m121.81,138.31l5.96-3.47c.09.05.19.1.29.15l-5.96,3.47c-.1-.05-.19-.11-.29-.15h0Z"/>
              </g>
              <g class="cls-18">
                <path class="cls-43" d="m122.75,118.85l-4.34,2.18c1-.58,1.9-.63,2.56-.24l4.47,2.6c-.66-.38-1.69-5.11-2.69-4.53h0Z"/>
              </g>
              <path class="cls-23" d="m136.59,189.42c-.33,2.91-.67,5.82-1.18,8.7l-5.94,10.49c-.29-1.34-1.88-8.8-1.77-10.17.32-3.85.33-7.77-.61-11.52-.13-.52-.32-1.02-.45-1.54-1.3-5.22-2.88-6.11-5.52-8.14-1.89-1.45-4.16-2.42-5.81-4.13-2.24-2.33-3.04-5.94-1.97-8.99l.63-1.35c4.82,1.53,9.7,3.12,13.93,5.9,3.97,2.61,7.36,6.43,8.57,11,.08.29.15.59.21.89.57,2.91.24,5.91-.1,8.85Z"/>
              <path class="cls-21" d="m129.86,151.46c.02-.17.28-.17.28.01-.02.68.05,2,.23,3.4.72,1.65,1.52,2.84,1.52,2.84,0,0,1.02-.65,1.52-.18.3.29.62.52.95.73.65-.58,1.32-1.16,1.87-1.37,0-.06-.01-.12-.02-.18l-1.96-19.95c-.24-1.85-1.96-3.17-3.81-2.92-1.85.24-3.17,1.96-2.93,3.81l2.32,13.97c0-.05.01-.11.02-.16Z"/>
              <path class="cls-30" d="m147.94,200.92c1.78,2.71,3.69,5.09,2.87,5.67-.5.36-1.34.61-2.27.65-1.68.11-3.68-.38-4.64-1.74-1.05-1.47-1.6-3-3.72-4.33-.07-.05-.18-.14-.3-.25h8.06Z"/>
              <path class="cls-30" d="m136.74,200.53c1.84,3.34,6.54,7.14,5.31,8.87-.91,1.3-4.91,1.28-6.57-.34-.45-.45-.69-.99-.92-1.56-.36-.85-.74-1.74-2.01-2.25-.27-.12-1.11-.69-1.34-1.3-.64-1.54-.42-2.5-.05-3.43h5.58Z"/>
              <path class="cls-21" d="m149.51,202.18c-2.85,4.27-16.75,9.37-19,7.13-.07,0-.13,0-.2-.02-1.22-.61-1.06-15.1-3.09-24.25-.66-2.99-2.41-5.63-4.91-7.4-1.29-.91-2.61-1.81-3.18-2.12-.49-.26-1.05-.58-1.64-.94-2.11-1.28-4.54-3.12-4.88-5.16-.03-.15-.05-.3-.07-.44-.31-2.21.03-3.98.35-5.24.26-1.05.47-2.11.65-3.19.06-.4.12-.81.18-1.22.14-1.14.26-2.28.33-3.42.01-.17.02-.34.03-.51.1-1.67.13-3.32.11-4.89-.02-2.49-.15-4.8-.29-6.77-.01-.23-.03-.45-.04-.68h0c-.02-.26-.04-.52-.06-.76.09.05.2.09.31.12,3.88.86,4.89,1.37,5.5,2.22l-.06-.9-.05-.68c-.47-.32-1.14-.42-2.09-.56-.78-.11-1.74-.24-2.93-.53-.22-.06-.48-.26-.75-.61-.02-.37-.05-.72-.07-1.04v-.02c-.01-.11-.02-.23-.02-.35v-.32c0-.09,0-.19.02-.29,0-.04,0-.09.03-.14.01-.07.02-.14.04-.21.04-.1.07-.19.11-.29,0-.01,0-.02,0-.03h0c.04-.11.1-.22.16-.32.23-.44.56-.86.96-1.26.22-.23.47-.45.72-.67.01,0,.02,0,.02,0,.25-.21.5-.4.76-.58,1.69-1.23,3.57-2.09,3.86-2.22h.01s.02,0,.03-.02l7.96,8.42-.04-.58-.57-8.39v-.22s.12,0,.28.02h.01c.3.02.81.07,1.45.22.12.02.25.06.38.09.67.17,1.44.44,2.24.84.14.16.93,3.43,2.34,7.1.76,1.96.73,4.33.35,6.64-.35,2.14-2.48,3.2-3.07,9.93-.03.29-.04.58-.06.87-.04.74-.05,1.49-.01,2.24.03.02.07.05.11.07,1.26.82,7.08,4.64,9.45,6.32,6.94,4.91,8.42,31.26,8.32,35.02Z"/>
              <path class="cls-5" d="m130.77,171.01c-.31.96-1.43,1.34-2.4,1.6-2.57.67-5.25,1.34-7.85.82-.88-.17-1.86-.63-2.03-1.51-.13-.67.3-1.34.83-1.77.53-.43,1.18-.7,1.74-1.09.48-.33.93-.87.8-1.44-.1-.44-.52-.73-.89-.98-2.68-1.77-5.17-3.81-7.42-6.1.25-1.54.42-3.1.52-4.64,1.73.42,3.38,1.02,4.81,2.07,2.19,1.61,3.57,4.08,5.53,5.97,1.7,1.64,3.81,2.81,5.42,4.53.65.69,1.25,1.63.96,2.53Z"/>
              <path class="cls-5" d="m132.12,145.85c-1.16,2.34-3.78,3.79-6.3,3.75-1.54-.02-3.05-.59-4.16-1.87-.08-.1-.16-.19-.24-.28-.35-.43-.62-.81-.82-1.14-.46-.72-.67-1.25-.99-1.67l-.06-.9-.05-.68c-.47-.32-1.14-.42-2.09-.56-.78-.11-1.74-.24-2.93-.53-.22-.06-.48-.26-.75-.61-.18-.23-.37-.53-.57-.9-.1-.18-.2-.38-.29-.6-.2-.43-.39-.92-.58-1.49,0-.02,0-.04,0-.05.6-.39,1.83-1.12,3.16-1.9.01,0,.03,0,.04-.02.33-.19.66-.39.99-.57.91-.53,1.81-1.05,2.51-1.44.04-.03.08-.05.11-.07.34-.19.63-.36.85-.48.11-.06.23-.13.36-.21.01-.01.02-.01.03-.02h.01s.02,0,.03-.02l7.96,8.42-.04-.58-.57-8.38h0s-.01-.12-.01-.12v-.11s-.01,0,0,0c.03,0,.13,0,.29.02h.01c.3.02.81.07,1.45.22.12.02.25.06.38.09.45.64.75,1.47,1.09,2.14.55,1.03.81,2.04,1.03,3.15.01.1.02.21.03.31.11.94.31,1.85.46,2.75.24,1.47.34,2.91-.33,4.35Z"/>
              <path class="cls-5" d="m138.83,195.88c-1.06,3.47.71,9.44-.25,12.74,1.22-.41,2.47-.9,3.68-1.44.46-4.19-.24-8.36-3.43-11.29Z"/>
              <path class="cls-5" d="m141.19,167.16c-2.46-1.74-8.6-5.76-9.56-6.39-.05-1.04-.01-2.09.07-3.11.25-2.91.79-4.75,1.36-6.09-.25.26-.51.5-.77.73-1.35,2.11-5.74,1.94-8.11,2.13,3.84,1.33,4.48.49,5.74,1.74,1.88,2.3.54,4.96-1.55,7.26-.21.21.42.21.63.21,1.47-.63,2.93-1.47,4.4-.42,2.72,1.67,7.33,4.61,4.61,7.74-2.3,2.93-4.61,6.28-8.79,7.12-.21,0-.63.63-.63,1.05.21.84,1.26,1.05,1.88.84,3.14-1.47,7.33-6.49,9.42-3.56,4.19,5.65,4.61,13.19,5.86,20.09.42,2.54,1.03,5.21,1.48,7.88,1.01-.73,1.81-1.48,2.29-2.2.1-3.76-1.37-30.11-8.31-35.02Z"/>
              <path class="cls-24" d="m117.16,136.53c0,.98.41,1.88,1.05,2.53.65.65,1.55,1.05,2.54,1.05l8.62,4.15c1.05,0,1.03-4.6,1.69-5.33-.24-.25-.4-.61-.42-1.03-.01-.92-.27-1.54-.71-2.39-.29-.56-.54-1.24-.94-1.73-.24-.3-.51-.56-.75-.84h-.88s-.5-.02-.5-.02l-5.15-.1c-.08.05-.15.09-.22.13h0c-3.58,2.13-1.82.66-4.33,3.59Z"/>
              <path class="cls-32" d="m127.47,134.99c-.02.09-.04.17-.07.26-.06.18-.12.36-.22.53-.04.04-.06.1-.1.15-.13.21-.31.38-.56.5-.1.06-.21.1-.34.13-.19.07-.39.1-.6.1-.2,0-.39,0-.59,0-.49-.04-.96-.15-1.42-.29-.43-.13-.8-.35-1.09-.59-.13-.1-.22-.18-.32-.27h-.01c-.4-.42-.63-.8-.63-.8v-.52s-.02-.7-.02-.7v-.54s-.01-.52-.01-.52v-.55s-.02-.64-.02-.64l.75-.07.19-.02c.06.09.13.17.2.25,0,0,0,.01.01.01.09.11.2.23.32.34.2.21.44.42.69.62.19.15.4.3.62.45.37.13.76.2,1.15.21.68.02,1.36-.15,1.95-.46v.36s.03.29.03.29v.08l.05.91.03.55v.23Z"/>
              <path class="cls-22" d="m119.71,121.46v7.88s.02.05.03.08c.05.13.09.26.14.39.31.78.66,1.41,1,1.67.18.13.38.26.6.4,1.04.66,2.54,1.4,3.94,1.61.29.03.58.05.85.04.4-.01.77-.08,1.11-.23.18-.07.36-.17.52-.29.11-.08.21-.17.31-.27.08-.07.16-.15.23-.22.07-.07.14-.15.2-.22h0c.06-.06.1-.11.13-.16.04-.05.07-.11.11-.16h.01c.3-.42.56-.89.78-1.42.29-.67.52-1.41.7-2.22.05-.23.1-.47.15-.71.05-.25.08-.5.12-.76.04-.22.06-.45.09-.68.07-.53.11-1.08.15-1.63h0c.05-.74.08-1.49.08-2.24,0-.29.01-.57.01-.86h-11.26Zm10.38,6.72c-.23.76-.53,1.5-.83,2.14-.23.49-.46.92-.69,1.26-.12.16-.26.3-.41.43-.24.22-.51.41-.81.56-.59.31-1.27.48-1.95.46-.39-.01-.78-.08-1.15-.21-.22-.15-.43-.3-.62-.45-.25-.2-.49-.41-.69-.62-.12-.11-.23-.23-.32-.34-.01,0-.01-.01-.01-.01-.07-.08-.14-.16-.2-.25-.53-.66-.85-1.36-1.05-2.1-.04-.16-.07-.33-.1-.5-.03-.15-.06-.3-.08-.45-.02-.15-.03-.31-.04-.46-.03-.36-.06-.88-.1-1.38-.03-.45-.06-.9-.09-1.21v-.02h0c3.01-3.27,5.89-3.61,8.52-2.55,1.62.57,1.39,3.26.62,5.7Z"/>
              <g>
                <path class="cls-36" d="m130.97,120.7v.76c0,.29-.01.57-.01.86-.02.69-.04,1.38-.09,2.06v.04c-.03.6-.08,1.19-.14,1.77-.03.23-.05.46-.09.68-.04.26-.07.51-.12.76-.04.24-.08.48-.14.72-.17.81-.4,1.55-.68,2.22-.18.42-.39.82-.62,1.17,0,0-.02.02-.02.02-.09.13-.18.26-.29.38-.03.05-.07.1-.13.15h0c-.06.08-.13.16-.2.23-.07.07-.15.15-.23.22-.1.08-.2.16-.31.24-.16.12-.34.21-.52.28-.36.15-.77.22-1.19.23h-.05c-1.54,0-3.3-.83-4.51-1.62.73.2,1.44.45,2.13.74.16.08.32.16.49.21.37.13.76.2,1.15.21.68.02,1.36-.15,1.95-.46.3-.15.57-.34.81-.56.15-.13.29-.27.41-.43.23-.34.46-.77.69-1.26.3-.64.6-1.38.83-2.14.77-2.44,1-5.13-.62-5.7-2.63-1.06-5.51-.72-8.52,2.54h0c-.12.13-.22.25-.33.38-.3.34-.61.72-.91,1.13v-5.83h11.26Z"/>
                <path class="cls-36" d="m130.64,126.87c-.04.26-.07.51-.12.76"/>
              </g>
              <path class="cls-15" d="m132.49,142.68c0,.34-.04.73-.13,1.13-.02.09-.04.18-.07.27-.03.12-.07.25-.12.37-.14.42-.33.85-.58,1.26-.22.35-.47.7-.77,1.01-.3.32-.64.62-1.03.87-.19.12-.39.24-.61.35-.2.1-.42.19-.64.27-.11.04-.23.08-.34.11-.24.07-.48.13-.74.17-.71.12-1.5.14-2.38.02-1.05-.14-2.23-.73-3.18-1.63-.21-.21-.41-.42-.59-.65-.19-.23-.36-.48-.51-.74-.14-.25-.27-.52-.38-.8-.06-.14-.11-.28-.14-.43-.27-1-.44-2.68-.98-4.23-.55-1.63-1.5-3.13-3.4-3.59-.05,0-.12-.02-.18-.02,0,0-.02,0-.03,0-.04,0-.08,0-.13,0-.72,0-1.93.35-2.68,1.51.11-.23.22-.46.31-.69.41-.93.74-1.88,1.02-2.84.2-.69.37-1.39.53-2.1.36-1.58.64-3.17.95-4.79.02-.1.04-.2.06-.3.04-.22.09-.44.13-.67.12-.67.24-1.34.36-2.01.09-.44.17-.88.26-1.32h0c.1-.45.2-.89.31-1.32.16-.61.33-1.19.55-1.77.37-.96.9-1.93,1.79-2.97,0,0,0-.03.02-.03,0,0,0-.02.01-.02.03-.04.06-.08.09-.11.07-.08.14-.16.21-.23.01,0,.01-.02.02-.02s.01,0,.02,0c.47-.49.99-.88,1.55-1.19.19-.1.38-.19.58-.27.39-.16.79-.27,1.2-.35,1.69-.32,3.51.03,5.06.99.16.11.32.22.48.34.22.16.42.33.6.51.27.26.49.54.68.84.22.34.41.7.56,1.08.16.37.3.76.42,1.16.09.29.18.58.26.87h.01s.03.09.04.14h0c.04.14.08.27.12.4.2.61.21,1.75.07,2.59-.05.28-.11.52-.18.7-.03.06-.05.12-.08.16v-.06h-.01s0,0,0,0c0-.02-.01-.05-.01-.07h0s-.01-.09-.01-.14v-.04c-.01-.09-.01-.18-.01-.28-.01-.12-.04-.29-.12-.5,0-.03-.01-.06-.03-.09-.02-.08-.06-.17-.1-.26-.29-.64-.91-1.39-2.12-1.61-1.64-.3-3.37-.08-4.85.67-1.37.71-2.12,1.14-2.68,2.57h0s-.01.03-.02.04h0s.01.07.01.1h0v.03c.03.31.06.76.09,1.21.03.5.06,1.01.09,1.37.01.16.03.32.05.47.02.15.04.3.07.45.03.17.07.34.11.5.2.74.52,1.44,1.05,2.1.06.09.13.17.2.25,0,0,0,.01.01.01.09.11.2.23.32.34.2.21.44.42.69.62.19.15.4.3.62.45.07.05.14.1.22.15.15.1.33.19.54.27.1.04.21.08.32.11.25.06.52.1.81.11.12,0,.24,0,.36,0,.19-.02.39-.06.59-.12.09-.03.19-.07.29-.11.17-.07.35-.18.53-.31.06-.04.12-.09.18-.14.17-.16.34-.32.5-.48,0,0,0,0,0,0h.01c.04-.05.09-.09.13-.14.05-.06.09-.11.14-.16h.01c.06-.08.12-.15.17-.22,0,0,.02-.01.02-.02.01-.01.03-.03.04-.05.07-.08.13-.16.17-.22.07-.09.11-.14.11-.14,0,0-.08.61.02,1.42.02.31.08.65.18,1,.03.1.06.21.09.31.07.2.16.4.25.6h0c.06.11.11.21.17.3l.42.69c.07.12.14.23.21.35.05.07.09.14.12.21h.01c.07.12.14.25.22.37.36.66.7,1.4.95,2.32.19.66.32,1.42.39,2.32.04.45.06.93.06,1.46Z"/>
              <path class="cls-21" d="m132.49,142.68c0,.34-.04.73-.13,1.13-.03.09-.05.19-.08.28-.03.12-.07.24-.11.36-.14.42-.33.85-.58,1.26-.22.35-.47.7-.77,1.01-.3.32-.64.62-1.03.87-.19.13-.39.25-.61.36-.2.1-.42.19-.64.26-.11.04-.23.08-.34.11-.24.07-.48.13-.74.17-.71.12-1.5.14-2.38.02-1.05-.14-2.23-.73-3.18-1.63-.21-.21-.41-.42-.59-.65-.19-.23-.36-.48-.51-.74-.14-.25-.27-.52-.38-.8-.06-.14-.11-.28-.14-.43h-.01c-.16-.59-.4-.96-.77-1.2l-.2-3.03v-.04c-.1-2.1-1.85-3.69-3.93-3.59-.49.02-.95.14-1.38.32-.02,0-.04.02-.06.04-.2.1-.38.2-.56.35-.02-.03-.02,0-.04.02-.05.03-.09.06-.13.1-.09.07-.18.14-.26.22-.08.06-.14.12-.2.2-.14.14-.26.3-.36.48-.04.07-.08.13-.1.19v-.02c.62-1.3,1.17-2.69,1.65-4.12.19-.57.38-1.15.55-1.73.49-1.65.89-3.33,1.22-4.95.03-.1.05-.21.07-.31.04-.22.08-.44.12-.66.12-.67.24-1.34.36-2.01.09-.44.17-.88.26-1.32h0c.1-.45.2-.89.31-1.32.16-.61.33-1.19.55-1.77.37-.96.9-1.93,1.79-2.97,0,0,0-.03.02-.03t.02,0s.06-.08.08-.12c.07-.08.13-.16.2-.23h.01s.01-.02.02-.02.01,0,.01-.02h.01c.47-.49.99-.88,1.55-1.18.19-.1.38-.19.58-.27.39-.16.79-.27,1.2-.35,1.69-.32,3.51.03,5.06.99.16.1.33.21.49.33.22.16.41.34.59.52.27.26.49.54.68.84.22.34.4.7.56,1.08.16.37.3.76.42,1.16.09.29.18.58.26.87.02.05.03.09.05.14h0c.04.14.08.27.12.4.2.61.21,1.75.07,2.59-.05.28-.11.52-.18.7-.03.05-.05.1-.08.14,0,.01-.01.01-.01.02v-.06s-.01-.05-.01-.07h0s-.01-.09-.01-.14v-.04c-.01-.09-.01-.18-.02-.28,0-.12-.04-.29-.11-.5,0-.03-.01-.06-.03-.09-.02-.08-.06-.17-.1-.26-.29-.64-.91-1.39-2.12-1.61-1.64-.3-3.37-.08-4.85.67-1.37.71-2.12,1.14-2.68,2.57h0s-.01.03-.02.04h0s.01.07.01.1h0v.03c.03.31.06.76.09,1.21.04.5.07,1.02.1,1.38.01.15.02.31.04.46.02.15.05.3.08.45.03.17.06.34.1.5.2.74.52,1.44,1.05,2.1.06.09.13.17.2.25,0,0,0,.01.01.01.09.11.2.23.32.34.2.21.44.42.69.62.19.15.4.3.62.45.07.05.14.1.22.15.15.1.33.19.54.27.1.04.21.08.32.11.25.07.53.11.83.12.11,0,.22-.01.34-.02.19-.02.39-.06.59-.12.09-.03.19-.06.29-.1.17-.07.35-.18.53-.32.06-.04.12-.09.18-.14.18-.14.35-.31.5-.48,0,0,0,0,0,0h.01c.04-.05.09-.09.13-.14.05-.06.09-.11.14-.16h.01c.06-.08.12-.15.17-.22,0,0,.02-.01.02-.02.01-.01.03-.03.04-.05.07-.08.13-.16.17-.22.07-.09.11-.14.11-.14,0,0-.08.61.02,1.42.02.31.08.65.18,1,.03.1.06.21.09.31.07.2.15.4.25.6h0c.05.11.1.21.16.31.14.23.28.45.43.68.07.12.14.23.21.35.05.07.09.14.13.21.07.12.14.25.22.37.36.66.7,1.4.95,2.32.19.66.32,1.42.39,2.32.04.45.06.93.06,1.46Z"/>
              <path class="cls-5" d="m121.62,121.46c-.36,1.1-.57,2.26-.66,3.42h0s-.01.09-.01.14h0v.03c-.03.49-.04.98-.02,1.48-.07-.14-.13-.27-.18-.41-.04-.1-.07-.2-.09-.31-.02-.14-.04-.28-.04-.41-.12-1.38.23-2.79,1-3.94Z"/>
              <path class="cls-5" d="m121.12,140.08c.52,2.07,2.15,3.66,3.76,5.06,1.3,1.13,2.68,2.24,4.3,2.8,1.72-.86,2.71-2.42,3.11-3.86-1.68,1.25-4.12,1.28-6.08.45-2.1-.9-3.72-2.63-5.09-4.45Z"/>
              <path class="cls-5" d="m117.92,124.38s.02,0,.02,0c-.04,2.19-.06,4.37.28,6.54.31,1.94.67,4.06,2.2,5.44,1.4,1.26,3.57,2.27,5.46,2.32,1.98.06,3.38-1.24,5.13-1.9.14-.05.2.13.13.22-1.21,1.53-3.29,2.63-5.26,2.48-1.92-.14-4.01-1.2-5.5-2.4-1.73-1.4-2.15-3.33-2.45-5.44-.35-2.4-.45-4.87-.01-7.26Z"/>
              <path class="cls-5" d="m119.66,130.38c1.04,1.49,2.13,3.17,3.74,4.09,1.9,1.08,3.89.66,5.63-.51.13-.09.26.1.16.21-1.36,1.4-3.62,1.69-5.38.94-2.02-.86-3.22-2.84-4.22-4.68-.03-.05.04-.08.07-.04Z"/>
              <path class="cls-5" d="m118.24,131.94c.08,2.74,1.67,5.31,3.87,6.94,2.2,1.64,4.95,2.41,7.69,2.6-1.95.06-3.91-.2-5.78-.75-2-.59-4.03-1.64-4.98-3.5-.52-1.01-.66-2.16-.79-3.28-.11-.99-.2-1.99-.28-2.99l.27.97Z"/>
              <g>
                <path class="cls-19" d="m118.99,172.05l9.94,5.63c.47.26,1.23.26,1.69-.02l5.26-3.11-1.44-.81v-.39s-.98.57-.98.57l-.14-.08v-.82s0,.98,0,.98l-2.12,1.25-.14-.08v.16s-2.8,1.65-2.8,1.65l-1.31-.75v-.35s-.3.18-.3.18l-.44-.25-.87-.5-1.52-.87v-.44s-.38.22-.38.22l-1.31-.75v-.34s-.3.17-.3.17l-1.31-.75h0v-.98s1.35-.8,1.35-.8l.26.15v-.3s1.35-.8,1.35-.8l.26.15v-.3s1.35-.8,1.35-.8l.26.15v-.3s1.35-.8,1.35-.8l.26.15v-.3s1.35-.8,1.35-.8l.26.15v-.3s1.36-.8,1.36-.8l.26.15v-.3s1.35-.8,1.35-.8l.26.15v-.3s1.36-.8,1.36-.8l.26.15v-.3s1.36-.8,1.36-.8l1.31.75v.34s.33-.19.33-.19l-.76-.43h0s0,0,0,0v-.98s1.35-.8,1.35-.8l1.31.75v.34s.29-.17.29-.17l1.32.75v.34s.3-.17.3-.17l1.31.75v.34s.29-.17.29-.17l1.31.75v.35s.31-.18.31-.18l1.31.75v.98h.01l-2.88,1.7-.17-.1v-.78s0,.98,0,.98l-1.93,1.14,1.42.8v.39s6.44-3.81,6.44-3.81c.23-.14.35-.32.35-.5,0,.33,0,.65.01.98,0,.18-.11.36-.35.5l-17.06,10.1c-.46.27-1.22.28-1.69.02l-9.94-5.63c-.23-.13-.35-.31-.35-.48,0-.33,0-.65-.01-.98,0,.18.12.35.35.48Z"/>
                <g>
                  <polygon class="cls-52" points="146.12 168.77 147.6 167.91 147.6 167.75 146.12 168.61 146.12 168.77"/>
                  <polygon class="cls-52" points="146.12 169.04 147.6 168.18 147.6 168.02 146.12 168.87 146.12 169.04"/>
                  <polygon class="cls-52" points="146.12 169.28 147.6 168.42 147.6 168.26 146.12 169.12 146.12 169.28"/>
                </g>
                <g>
                  <polygon class="cls-29" points="131.32 178.18 132.48 177.47 132.45 176.64 131.29 177.34 131.32 178.18"/>
                  <polygon class="cls-40" points="132.23 177.34 131.36 177.87 131.36 178.09 132.43 177.45 132.43 177.45 132.23 177.34"/>
                  <g>
                    <polygon class="cls-20" points="131.34 177.37 131.36 177.87 132.23 177.34 132.22 176.84 132.17 176.87 131.34 177.37"/>
                    <polygon class="cls-52" points="131.34 177.45 131.35 177.8 132.18 177.3 132.17 176.95 131.34 177.45"/>
                    <polygon class="cls-51" points="132.42 177.23 132.41 176.73 132.22 176.84 132.23 177.34 132.43 177.45 132.42 177.23"/>
                  </g>
                </g>
                <g>
                  <polygon class="cls-29" points="120.29 173.68 119.13 173.01 119.15 172.18 120.31 172.85 120.29 173.68"/>
                  <polygon class="cls-40" points="119.37 172.88 120.25 173.37 120.24 173.6 119.18 172.98 119.18 172.98 119.37 172.88"/>
                  <g>
                    <polygon class="cls-20" points="120.26 172.88 120.25 173.37 119.37 172.88 119.39 172.38 119.43 172.41 120.26 172.88"/>
                    <polygon class="cls-52" points="120.26 172.95 120.25 173.3 119.42 172.83 119.43 172.48 120.26 172.95"/>
                    <polygon class="cls-51" points="119.18 172.76 119.2 172.26 119.39 172.38 119.37 172.88 119.18 172.98 119.18 172.76"/>
                  </g>
                </g>
                <g>
                  <polygon class="cls-29" points="121.77 174.53 121.17 174.18 121.19 173.35 121.79 173.7 121.77 174.53"/>
                  <polygon class="cls-40" points="121.41 174.05 121.73 174.23 121.72 174.45 121.22 174.16 121.22 174.16 121.41 174.05"/>
                  <g>
                    <polygon class="cls-20" points="121.74 173.73 121.73 174.23 121.41 174.05 121.43 173.55 121.48 173.58 121.74 173.73"/>
                    <polygon class="cls-52" points="121.74 173.8 121.73 174.16 121.46 174.01 121.47 173.66 121.74 173.8"/>
                    <polygon class="cls-51" points="121.23 173.93 121.24 173.44 121.43 173.55 121.41 174.05 121.22 174.16 121.23 173.93"/>
                  </g>
                </g>
                <g>
                  <polygon class="cls-29" points="122.53 174.98 121.94 174.63 121.96 173.8 122.56 174.15 122.53 174.98"/>
                  <polygon class="cls-40" points="122.18 174.5 122.49 174.67 122.49 174.89 121.99 174.6 121.99 174.6 122.18 174.5"/>
                  <g>
                    <polygon class="cls-20" points="122.51 174.17 122.49 174.67 122.18 174.5 122.2 174 122.24 174.03 122.51 174.17"/>
                    <polygon class="cls-52" points="122.51 174.25 122.5 174.6 122.23 174.45 122.24 174.1 122.51 174.25"/>
                    <polygon class="cls-51" points="121.99 174.38 122.01 173.88 122.2 174 122.18 174.5 121.99 174.6 121.99 174.38"/>
                  </g>
                </g>
                <g>
                  <path class="cls-20" d="m134.46,175.93c0,.19-.12.41-.26.5s-.26,0-.26-.2.12-.41.26-.5.26,0,.26.2Z"/>
                  <path class="cls-40" d="m133.97,176.29c.14-.08.26-.31.26-.5,0-.02,0-.05,0-.07.13-.06.24.03.24.21,0,.19-.12.41-.26.5-.13.07-.23.01-.26-.13,0,0,.02,0,.02-.01Z"/>
                  <path class="cls-39" d="m134.13,176.39c.14-.08.26-.31.26-.5,0-.08-.02-.15-.06-.18.08.01.13.1.13.22,0,.19-.12.41-.26.5-.08.05-.15.04-.2-.01.04,0,.08,0,.13-.03Z"/>
                  <path class="cls-20" d="m133.54,176.47c0,.19-.12.41-.26.5-.14.08-.26,0-.26-.2s.12-.41.26-.5c.14-.08.26,0,.26.2Z"/>
                  <path class="cls-40" d="m133.05,176.82c.14-.08.26-.31.26-.5,0-.02,0-.05,0-.07.13-.06.24.03.24.21,0,.19-.12.41-.26.5-.13.07-.23.01-.26-.13,0,0,.02,0,.02-.01Z"/>
                  <path class="cls-39" d="m133.21,176.93c.14-.08.26-.31.26-.5,0-.08-.02-.15-.06-.18.08.01.13.1.13.22,0,.19-.12.41-.26.5-.08.05-.15.04-.2-.01.04,0,.08,0,.13-.03Z"/>
                </g>
                <polygon class="cls-19" points="133.43 163.96 134.75 164.7 136.1 163.9 134.79 163.15 133.43 163.96"/>
                <polygon class="cls-19" points="135.29 164.73 136.6 165.48 139.95 163.51 138.63 162.76 135.29 164.73"/>
                <polygon class="cls-19" points="131.81 164.91 133.13 165.66 134.49 164.86 133.17 164.11 131.81 164.91"/>
                <polygon class="cls-19" points="137.75 165.14 139.06 165.89 141.56 164.42 140.24 163.67 137.75 165.14"/>
                <polygon class="cls-19" points="130.2 165.86 131.51 166.61 132.87 165.81 131.56 165.06 130.2 165.86"/>
                <polygon class="cls-19" points="136.22 166.04 137.53 166.79 138.89 165.99 137.58 165.24 136.22 166.04"/>
                <polygon class="cls-19" points="132.13 166.59 133.44 167.34 134.8 166.54 133.48 165.79 132.13 166.59"/>
                <polygon class="cls-19" points="138.51 166.56 139.82 167.31 143.16 165.34 141.85 164.59 138.51 166.56"/>
                <polygon class="cls-19" points="128.58 166.81 129.89 167.56 131.25 166.76 129.94 166.01 128.58 166.81"/>
                <polygon class="cls-19" points="134.69 166.95 136 167.69 137.36 166.89 136.05 166.15 134.69 166.95"/>
                <polygon class="cls-19" points="140.59 167.21 141.9 167.95 144.78 166.26 143.47 165.51 140.59 167.21"/>
                <polygon class="cls-19" points="130.58 167.5 131.89 168.25 133.25 167.45 131.94 166.7 130.58 167.5"/>
                <polygon class="cls-19" points="136.96 167.47 138.27 168.22 139.63 167.42 138.32 166.67 136.96 167.47"/>
                <polygon class="cls-19" points="133.16 167.84 134.47 168.59 135.83 167.79 134.52 167.04 133.16 167.84"/>
                <polygon class="cls-19" points="135.45 168.36 136.76 169.11 138.12 168.31 136.81 167.56 135.45 168.36"/>
                <polygon class="cls-19" points="125.34 168.72 126.66 169.47 128.02 168.67 126.7 167.92 125.34 168.72"/>
                <polygon class="cls-19" points="138.3 168.56 139.61 169.31 141.73 168.06 140.42 167.31 138.3 168.56"/>
                <polygon class="cls-19" points="131.63 168.75 132.95 169.49 134.3 168.69 132.99 167.94 131.63 168.75"/>
                <polygon class="cls-19" points="133.92 169.26 135.23 170.01 136.59 169.21 135.28 168.46 133.92 169.26"/>
                <polygon class="cls-19" points="123.73 169.67 125.04 170.42 126.4 169.62 125.08 168.87 123.73 169.67"/>
                <polygon class="cls-19" points="130.1 169.65 131.42 170.39 132.78 169.59 131.46 168.85 130.1 169.65"/>
                <polygon class="cls-19" points="125.94 170.23 127.25 170.98 128.61 170.18 127.3 169.43 125.94 170.23"/>
                <polygon class="cls-19" points="132.41 170.15 133.72 170.9 135.08 170.1 133.77 169.35 132.41 170.15"/>
                <polygon class="cls-19" points="122.11 170.63 123.42 171.37 124.78 170.57 123.47 169.83 122.11 170.63"/>
                <polygon class="cls-19" points="120.49 171.57 121.81 172.33 123.17 171.52 121.85 170.77 120.49 171.57"/>
                <polygon class="cls-19" points="128.57 170.55 129.89 171.3 131.25 170.5 129.93 169.75 128.57 170.55"/>
                <polygon class="cls-19" points="124.39 171.14 125.71 171.89 127.07 171.09 125.75 170.34 124.39 171.14"/>
                <polygon class="cls-19" points="130.83 171.08 132.14 171.83 133.5 171.03 132.19 170.28 130.83 171.08"/>
                <polygon class="cls-19" points="127.05 171.45 128.36 172.2 129.72 171.39 128.4 170.65 127.05 171.45"/>
                <polygon class="cls-19" points="129.32 171.97 130.63 172.72 131.99 171.92 130.67 171.17 129.32 171.97"/>
                <polygon class="cls-19" points="125.51 172.35 126.83 173.1 128.19 172.3 126.88 171.55 125.51 172.35"/>
                <polygon class="cls-19" points="122.1 172.49 123.41 173.24 125.52 172 124.21 171.26 122.1 172.49"/>
                <polygon class="cls-19" points="127.79 172.87 129.1 173.62 130.46 172.82 129.15 172.07 127.79 172.87"/>
                <polygon class="cls-19" points="134.43 172.75 136.38 173.86 141.24 170.98 139.29 169.87 134.43 172.75"/>
                <polygon class="cls-19" points="129.87 173.52 131.19 174.27 133.31 173.02 132 172.27 129.87 173.52"/>
                <polygon class="cls-19" points="123.8 173.46 125.32 174.33 126.19 174.83 126.63 175.08 128.93 173.73 127.61 172.98 126.91 173.39 125.38 172.53 123.8 173.46"/>
                <path class="cls-29" d="m136.04,160.97c.46-.27,1.22-.28,1.69-.02l9.94,5.63c.47.26.47.7,0,.98l-17.06,10.1c-.46.28-1.22.28-1.69.02l-9.94-5.63c-.47-.26-.47-.71,0-.98l17.06-10.1Zm.33,12.89l4.86-2.88-1.95-1.1-4.86,2.88,1.95,1.1h0Zm3.04-4.44l-1.31-.75-5.97,3.52,1.31.75,5.97-3.52h0Zm-13.22,5.41l.44.25,2.29-1.35-1.32-.75-.7.42-1.52-.87-1.59.93,1.52.87.87.5h0Zm9.09-10.1l1.31.75,3.35-1.97-1.32-.75-3.34,1.97h0Zm3.22,1.83l1.31.75,3.34-1.97-1.31-.75-3.35,1.97h0Zm6.28-.3l-1.31-.75-2.88,1.7,1.31.75,2.88-1.69h0Zm-13.73,8.09l-1.31-.75-2.8,1.65,1.31.75,2.8-1.65h0Zm6.7-9.21l1.31.75,2.49-1.47-1.31-.75-2.49,1.47h0Zm3.98,2.91l-1.31-.75-2.12,1.25,1.31.75,2.12-1.25h0Zm-8.42,4.96l-1.31-.75-2.12,1.25,1.31.75,2.12-1.25h0Zm-7.79-1.01l-1.31-.75-2.11,1.24,1.31.75,2.11-1.24h0Zm2.67.29l-1.31-.75-1.36.8,1.32.75,1.36-.8h0Zm5.73-3.03l1.31.75,1.36-.8-1.31-.75-1.36.8h0Zm-5.34-2.45l1.31.75,1.36-.8-1.31-.75-1.36.8h0Zm2.25,4.27l1.31.75,1.36-.8-1.32-.75-1.36.8h0Zm-5.08-.74l-1.36.8,1.31.75,1.36-.8-1.31-.75h0Zm7.68-6.39l1.32.75,1.36-.8-1.31-.75-1.36.8h0Zm.05,1.83l-1.36.8,1.31.75,1.36-.8-1.32-.75h0Zm3.47,1.68l1.32.75,1.36-.8-1.31-.75-1.36.8h0Zm-9.66,1.96l-1.36.8,1.31.75,1.36-.8-1.32-.75h0Zm1.55-.91l-1.36.8,1.31.75,1.36-.8-1.31-.75h0Zm1.55-.91l-1.36.8,1.31.75,1.36-.8-1.31-.75h0Zm-9.9,3.97l1.31.75,1.36-.8-1.31-.75-1.36.8h0Zm1.62-.95l1.31.75,1.36-.8-1.31-.75-1.36.8h0Zm16.78-4.63l-1.31-.75-1.36.8,1.31.75,1.36-.8h0Zm-6.11,3.6l-1.31-.75-1.36.8,1.31.75,1.36-.8h0Zm4.58-2.7l-1.31-.75-1.36.8,1.31.75,1.36-.8h0Zm-6.11,3.6l-1.31-.75-1.36.8,1.31.75,1.36-.8h0Zm-5.9-1.78l1.31.75,1.36-.8-1.32-.75-1.36.8h0Zm4.37,2.67l-1.31-.75-1.36.8,1.31.75,1.36-.8h0Zm2.1-6.49l1.32.75,1.36-.8-1.31-.75-1.36.8h0Zm4.02,2.88l-1.32-.75-1.36.8,1.31.75,1.36-.8h0Zm-1.53.9l-1.32-.75-1.36.8,1.32.75,1.36-.8h0Zm-.63-3.02l1.32.75,1.36-.8-1.31-.75-1.36.8h0Zm-9.94,4l1.31.75,1.36-.8-1.31-.75-1.36.8h0Zm5.59,2.3l1.32.75,1.36-.8-1.31-.75-1.36.8h0Zm2.62-5.27l-1.36.8,1.32.75,1.36-.8-1.32-.75h0Zm.47,3.45l1.32.75,1.36-.8-1.31-.75-1.36.8h0Zm-4.62,2.72l1.31.75,1.36-.8-1.31-.75-1.36.8h0Zm2.41-7.01l1.31.75,1.36-.8-1.31-.75-1.36.8h0Zm6.83-4.02l-1.36.8,1.31.75,1.36-.8-1.31-.75h0Zm-10.06,5.93l1.31.75,1.36-.8-1.32-.75-1.36.8h0Zm8.49.59l1.32.75,1.36-.8-1.31-.75-1.36.8h0Z"/>
                <polygon class="cls-19" points="135.67 162.64 136.98 163.39 138.34 162.59 137.02 161.84 135.67 162.64"/>
                <polygon class="cls-19" points="133.67 165.68 134.99 166.43 136.34 165.63 135.03 164.88 133.67 165.68"/>
                <polygon class="cls-19" points="126.96 167.77 128.28 168.52 129.64 167.72 128.32 166.97 126.96 167.77"/>
                <polygon class="cls-19" points="129.03 168.41 130.35 169.16 131.71 168.36 130.39 167.61 129.03 168.41"/>
                <polygon class="cls-19" points="127.49 169.32 128.8 170.07 130.16 169.27 128.84 168.52 127.49 169.32"/>
                <polygon class="cls-19" points="132.13 172.19 133.45 172.94 139.42 169.42 138.1 168.67 132.13 172.19"/>
                <polygon class="cls-19" points="126.94 175.25 128.25 176 131.05 174.35 129.74 173.6 126.94 175.25"/>
              </g>
              <g>
                <path class="cls-21" d="m134.59,151.33c-.05-.03-.1-.05-.15-.08-.95.95-1.46,2.13-1.82,3.44-.27.96-.36,2.07-.73,3.02l3.83,5.68c.32-1.26,4.44-2.29,4.44-2.29l-5.57-9.77Z"/>
                <path class="cls-4" d="m138.61,163.95c-1.08.29-3.05,1.15-3.44,2.4l1.89,4.47c.65-1.68,1.51-2.28,3.22-1.68l-1.4-5.25c-.09.02-.18.04-.27.06Z"/>
              </g>
              <g>
                <path class="cls-21" d="m132.08,165.09l17.06-10.1c.23-.14.45-.15.6-.06.28.16.57.32.85.48-.16-.09-.37-.07-.6.06l-.89.53s.05.01.07.02h0,0c.15.09.33.19.51.29.12.06.23.13.35.2.09.05.15.16.15.32l-2.65,9.28c0,.32-.22.72-.5.88-.13-.08-.27-.15-.4-.23h0l.4.23s-17.46,10.75-17.31,10.84c-.14-.08-.28-.16-.43-.24-.14-.08-.28-.16-.43-.24-.15-.09-.25-.28-.25-.54l2.63-10.24c0-.54.37-1.2.83-1.47Z"/>
                <path class="cls-39" d="m150.85,155.95c0-.53-.39-.75-.86-.47l-17.06,10.1c-.46.27-.84.94-.83,1.47l-2.63,10.24c0,.54.39.75.86.48l17.06-10.1c.46-.27.84-.94.83-1.47l2.63-10.25Zm-.67.88s0-.07-.01-.11c0,.02,0,.03,0,.05,0,.02,0,.04,0,.06Zm-.12-.3s.01.01.02.02c0,0,0,0,0,0-.02-.02-.03-.03-.05-.04,0,0,0,0,.01,0,0,0,.01,0,.02.01Zm-.04-.03s-.04-.02-.05-.02c.02,0,.04.01.05.02Zm-.07-.02s-.03,0-.05,0c.01,0,.03,0,.04,0,0,0,0,0,.01,0Zm-.09,0s-.05,0-.08.02c.02,0,.04-.01.06-.02,0,0,0,0,.01,0Zm-.09.02s-.05.02-.08.04c.02-.01.04-.02.06-.03,0,0,.01,0,.02,0Zm-19.57,20.12s.03.05.05.07c0,0,0,0,0,0-.02-.02-.03-.04-.04-.06Zm-.05-.21s0,.07.01.1c0-.03-.01-.06-.01-.1Zm.02.13s.01.04.02.05c0-.02-.01-.04-.02-.05Zm.15.2s.02,0,.03,0c0,0-.02,0-.03,0Zm.09.02s.02,0,.03,0c-.01,0-.02,0-.03,0Zm.11,0s.02,0,.03,0c-.01,0-.02,0-.03,0Zm16.55-9.77s-.01,0-.02.01c.03-.02.06-.04.08-.06,0,0,0,0-.01,0-.02.01-.04.03-.05.04Zm.1-.08s.03-.03.04-.04c0,0-.01.01-.02.02,0,0-.02.02-.03.02Zm.16-.18s0,0,0,0c.07-.09.12-.19.16-.29-.02.06-.05.11-.08.17-.02.04-.05.08-.07.11Z"/>
                <g>
                  <path class="cls-37" d="m133.71,167.16l1.42-.82c.28-.16.5-.55.5-.87h0c0-.32-.23-.45-.5-.29l-1.42.82c-.28.16-.5.55-.5.87h0c0,.32.23.45.5.29Z"/>
                  <path class="cls-46" d="m133.76,167.24l1.42-.82c.28-.16.5-.55.5-.87h0c0-.32-.23-.45-.5-.29l-1.42.82c-.28.16-.5.55-.5.87h0c0,.32.23.45.5.29Z"/>
                </g>
              </g>
              <path class="cls-35" d="m128.02,165.59c-.57-.35-.89-.86-1.1-.68-.36.32-.71.65-.99,1.04-.17.25-.67.94-.48,1.26.54.96.9,2.02,1.51,2.94.75,1.11,1.89,1.61,3.03,2.25.12.07.25.14.39.15.14.02.3-.04.36-.17.09-.18-.04-.38-.17-.54.52.01,1.98.43,1.18-.56-.42-.52-2.48-2.32-2.68-3.19.4.16.67.3.97.65.19.22.36.47.6.63.25.15.61.18.81-.04.31-.33-1.55-2.6-3.43-3.77Z"/>
              <path class="cls-21" d="m119.61,144.64c-.61-.85-1.62-1.36-5.5-2.22-.11-.03-.22-.07-.31-.12-.31-.15-.56-.41-.76-.73-.35-.57-.53-1.33-.63-1.98-.08-.57-.1-1.05-.12-1.22.19.57.38,1.06.58,1.49.09.22.19.42.29.6.2.37.39.67.57.9.27.35.53.55.75.61,1.19.29,2.15.42,2.93.53.95.14,1.62.24,2.09.56l.05.68.06.9Z"/>
              <path class="cls-21" d="m128.41,165.67c-1.23-.06-1.96,1.01-2.34,2.18-.08.23-.14.47-.19.71l-6.1-4.59-5.85-4.41c-.07-.08-.14-.15-.21-.23-.49-.59-.77-1.29-.84-2.01-.04-.17-.06-.33-.06-.51l-.45-7.09-.42-6.5-.08-1.33-.1-1.51v-.23c0-.22.02-.44.08-.66,0-.04,0-.06.02-.1,0-.03.01-.07.02-.1.02-.17.07-.34.14-.49.02-.02.02-.04.02-.06.06-.14.15-.28.23-.42,0,.01,0,.03,0,.05.02.17.04.65.12,1.22.1.65.28,1.41.63,1.98.2.32.45.58.76.73.09.05.2.09.31.12,3.88.86,4.89,1.37,5.5,2.22l.08,1.24.03.58.56,9.08v.1s.2.23.2.23l.02.04,7.91,9.76Z"/>
              <path class="cls-21" d="m119.5,143.06c-.47-.32-1.14-.42-2.09-.56-.78-.11-1.74-.24-2.93-.53-.22-.06-.48-.26-.75-.61-.18-.23-.37-.53-.57-.9-.1-.18-.2-.38-.29-.6-.2-.43-.39-.92-.58-1.49,0-.02,0-.04,0-.05,0-.02.02-.05.03-.07.02-.04.04-.07.07-.12.1-.18.22-.34.36-.48.06-.08.12-.14.2-.2.08-.08.17-.15.26-.22.04-.04.08-.07.13-.1.02-.02.02-.05.04-.02.18-.15.36-.25.56-.35.02-.02.04-.04.06-.04.43-.18.89-.3,1.38-.32h.11c.07,0,.15,0,.23.01.52,0,1.01.14,1.46.36,1.15.54,1.98,1.65,2.11,3.01,0,.07.02.14.02.21v.05l.2,3.02Z"/>
              <path class="cls-43" d="m112.38,138.14c-.04.06-.08.12-.1.18v-.02c.04-.06.06-.1.1-.16Z"/>
              <path class="cls-5" d="m126.07,167.85c-.08.23-.14.47-.19.71l-6.1-4.59-5.85-4.41c-.07-.08-.14-.15-.21-.23-.49-.59-.77-1.29-.84-2.01-.04-.17-.06-.33-.06-.51l-.45-7.09-.42-6.5-.08-1.33-.1-1.51v-.23c0-.22.02-.44.08-.66,0-.04,0-.06.02-.1,0-.03.01-.07.02-.1.02-.17.07-.34.14-.49.02-.02.02-.04.02-.06.06-.14.15-.28.23-.42,0,.01,0,.03,0,.05.02.17.04.65.12,1.22.1.65.28,1.41.63,1.98-.03.32-.06.65-.07.97-.02.31-.04.62-.04.93-.07,2.23.11,4.44.38,6.64.22,1.78.5,3.55.77,5.29.09.59.18,1.17.26,1.75.53,2.93,3.1,4.59,5.86,6.22,1.58.93,3.23,1.85,4.59,2.99.51.47.91.97,1.28,1.49Z"/>
              <path class="cls-5" d="m115.19,135.89s3.87,1.87,5.17,3.01c1.31,1.14.31-2.55-5.17-3.01Z"/>
            </g>
            <path class="cls-8" d="m35.97,214.24l-18.54-78.61,52.15,25.6v41.23c.36,4.99,6.58,15.42,29.06,17.63l-62.67-5.86Z"/>
          </g>
          <ellipse class="cls-7" cx="237.69" cy="64.25" rx="3.75" ry="19.13" transform="translate(139.73 290.15) rotate(-81.68)"/>
          <g>
            <g>
              <path class="cls-53" d="m289.26,20.13s0,0,0,0c-.52.04-.79.06-1.34.13-.12-.09-.18-.24-.16-.36.02-.14.07-.26.13-.36,0,0,.01-.02.02-.03.06-.09.13-.16.19-.23.02-.02.23-.19.3-.25.65-.53.9-.72,1.45-1.14.44-.34.51-.51.07-.68.03-.02.05-.04.08-.06.23.04.34.06.57.1.05,0,.07.01.11.02.07.01.1.02.17.03.21.03.31.05.52.08.09.01.14.02.23.04-1.05.85-1.34,1.05-2.43,1.93-.21.17-.57.47-.27.61.1.05.25.07.39.08-.02.04-.02.06-.04.1Z"/>
              <path class="cls-53" d="m282.46,16.48s.02-.05.04-.09c-.14,0-.3-.03-.39-.08-.15-.08.02-.39.37-.66,0,0,0,0,.01,0h0s.65-.48.66-.49c-.38-.08-.57-.12-.96-.19,0,0-.64.48-.64.48-.18.14-.33.24-.46.3,0,0-.01,0-.02.01-.25.11-.43.06-.79-.08h0c-.22-.12-.33-.18-.55-.29h0c-.31-.25-.29-.36.26-.77.39-.28.56-.41.89-.64-.38-.08-.57-.12-.96-.2-.3.21-.45.32-.79.57-.38.28-.5.69-.27.93.74.4,1.11.59,1.85.99.06.01.12.02.18.03,0,0,0,.01,0,.01,0,0,0,.02,0,.02h0c0,.11.04.22.17.28,0,0,0,0,0,0,.56-.06.84-.08,1.37-.11h0s0,0,0-.01Z"/>
              <path class="cls-53" d="m286,18.38s-.03,0-.05-.01c-.02,0-.04-.01-.06-.02-.03,0-.05-.02-.07-.03-.01,0-.02-.01-.03-.02-.01,0-.03-.02-.04-.02,0,0-.01,0-.02-.01,0,0-.01-.01-.02-.02-.01,0-.02-.02-.03-.03-.01-.01-.02-.02-.03-.03,0-.01-.02-.02-.02-.04,0,0,0-.02-.01-.03-.04-.08-.04-.18,0-.29.04-.11.13-.23.27-.34.3-.23.62-.24,1.05-.17.24.04.7.11.94.14-.44.33-.66.5-1.19.93-.16.02-.35.03-.53,0-.04,0-.07,0-.1-.01-.02,0-.03,0-.05,0Zm1.74.94s.02-.06.04-.1c-.14,0-.29-.03-.39-.08-.11-.06-.11-.19.03-.37,0,0,0-.01.01-.02.05-.06.12-.13.21-.2,0,0,1.39-1.09,1.41-1.1-.04,0-.06-.01-.1-.02-.02,0-.03,0-.05,0-.02,0-.04,0-.06-.01-.24-.05-.64-.13-1.06-.21-.07-.01-.1-.02-.17-.03-.04,0-.08-.01-.11-.02-.13-.03-.2-.04-.33-.06-.21-.04-.39-.07-.54-.1-.09-.02-.16-.03-.21-.04-.59-.11-1.02-.08-1.43.24-.26.2-.44.47-.48.74,0,0-.29-.19-.34-.24-.2-.19-.1-.32.35-.67.4-.31.58-.44.92-.7-.39-.07-.58-.11-.98-.18-.23.17-.35.26-.61.46-.04.03-.08.06-.12.09-.03.03-.05.04-.09.07-.35.27-.47.66-.29.9.58.31.86.46,1.44.77.02.08.07.16.14.22.02.02.05.04.07.05.11,0,.17,0,.28-.01.02,0,.03,0,.05,0,0,0,.01,0,.02,0,.16,0,.35-.01.54-.02.17,0,.33-.02.49-.02,0,0,0,0,0,0,.01,0,.02,0,.03,0-.11.14-.19.27-.21.43-.01.06,0,.13.01.19.03.07.09.13.16.17.56-.07.83-.09,1.35-.12,0,0,0,0,0,0Z"/>
              <path class="cls-53" d="m281.79,14.79c-.09-.2-.13-.3-.22-.5-.02-.05-.16-.1-.2-.08-.24.17-.36.26-.63.46-.04.03.06.11.15.11.34.01.51.02.85.04.04,0,.06-.01.05-.03Z"/>
            </g>
            <g>
              <g>
                <path class="cls-44" d="m291.42,21.29c-.52.04-.78.06-1.33.13-.12-.09-.18-.24-.16-.36.02-.14.06-.26.13-.36,0-.01.01-.02.02-.03.06-.09.13-.16.19-.23,0,0,.08-.07.15-.13,0,0,0,0,0,0,.04-.03.08-.07.13-.1.54-.44.76-.62,1.21-.98.03-.02.05-.04.07-.06.39-.35.43-.67-.03-.92-.17-.09-.4-.14-.64-.16.1-.08.14-.11.24-.19.1,0,.21,0,.33,0,.36.01.64.05.88.18.21.11.35.25.41.4.14.31,0,.67-.45,1.03-.46.38-.68.55-1.23,1.01,0,0,0,0,0,0-.03.02-.05.05-.08.07,0,0,0,0,0,0-.19.17-.42.41-.16.53.1.05.25.07.39.08-.01.03-.02.05-.03.09,0,0,0,0,0,0,0,0,0,0,0,.01Z"/>
                <path class="cls-44" d="m289.23,17.29c-.36-.07-.54-.1-.9-.17.36-.31.39-.6.13-.8,0,0,0,0,0,0-.01-.01-.03-.02-.05-.03,0,0,0,0,0,0-.01,0-.02-.01-.03-.02,0,0,0,0,0,0-.02,0-.04-.02-.05-.03-.13-.05-.28-.07-.42-.06-.2.02-.43.1-.72.23-.15.06-.27.06-.38.01-.01,0-.03-.01-.04-.02-.01,0-.02-.01-.03-.02-.14-.09-.19-.29-.03-.41.11-.08.3-.09.55-.08.38.01,1.21.08,1.75.26,0,0,0,0,0,0,.05.03.09.05.13.08.18.12.3.26.34.43.04.24-.04.45-.23.64Z"/>
                <path class="cls-44" d="m278.31,14.29c-.15-.08-.09-.3.29-.57.61-.44.86-.61,1.39-.97.39-.27.61-.53.56-.86-.04-.2-.21-.36-.47-.5-.54-.18-1.39-.26-1.78-.27-.26-.01-.46,0-.57.07-.18.12-.12.33.04.42.12.07.26.08.44.02.31-.12.55-.2.75-.21.16-.01.34.01.48.09.38.21.35.55-.18.91-.05.04-.08.05-.13.09-.31,0-1.06-.17-1.74-.34-.58-.14-1.02-.11-1.46.2-.55.39-.8,1.09-.19,1.42.23.12,1,.04,1.58.03-.11.13-.2.27-.23.42-.02.13,0,.28.16.36.58-.06.85-.08,1.39-.11.02-.04.03-.06.04-.1-.15,0-.3-.03-.39-.08Zm-.69-.74c-.3.04-.71,0-.9-.1-.24-.13-.32-.48.13-.79.31-.22.64-.23,1.09-.15.24.04.71.11.95.15-.47.32-.7.48-1.26.89Z"/>
              </g>
              <path class="cls-44" d="m286.19,15.73s.11-.12.15-.19c.23-.37.13-.74-.33-.99-.23-.12-.52-.16-.8-.18-.32-.01-.68-.03-1.08-.04.21-.36.11-.73-.27-.93-.25-.14-.53-.17-.88-.2-.37-.03-.67-.02-.94-.04.04-.03.07-.06.1-.1.03-.04.06-.09.08-.14,0-.02.02-.04.02-.06h0c.02-.09.01-.19-.07-.28,0,0,0,0,0,0,0,0,0,0,0,0h0c-.43-.09-.64-.14-1.07-.23-.01,0-.02,0-.03,0,0,0,0,0,0,0,0,0,0,0,0,0-.02.03-.03.04-.05.06.05.02.11.04.16.06.06.03.11.06.14.1.04.04.02.1-.02.17-.05.09-.15.18-.33.31-.01,0-.02.02-.04.03-.28.2-.42.29-.71.5.39.08.59.12.98.21.26-.18.39-.27.65-.46.08,0,.12,0,.2.01.35.02.72.06.97.19.38.2.4.46.09.76-.26.19-.39.28-.66.48.39.08.59.12.98.2.27-.2.41-.29.68-.49.35.02.94.13,1.13.23.33.18.39.4.21.65,0,0-.09.12-.16.18-.05.05-.11.09-.18.14-.15.11-.23.17-.39.29.39.07.58.11.97.18.11-.08.17-.13.28-.21.1-.08.19-.15.26-.23Z"/>
              <path class="cls-53" d="m291.5,16.93c-.17-.08-.28-.21-.32-.33-.03-.09,0-.18.09-.26.04-.04.13-.06.23-.07.12-.01.31,0,.41.04.09.04.11.09.1.17-.01.05-.02.08-.03.14-.01.05.05.08.13.06.14-.05.25-.11.33-.19.18-.16.16-.35-.03-.44-.19-.08-.56-.08-.92,0-.22.05-.54.16-.74.33-.21.18-.16.36,0,.53.02.02.03.03.05.05-.02,0-.27-.04-.46-.07-.05.04-.08.06-.13.11.04,0,.08.01.13.02.45.07.9.14,1.31.2.08.01.12.02.2.03.06-.05.09-.08.16-.13-.16-.05-.34-.11-.49-.18Z"/>
            </g>
          </g>
          <circle class="cls-22" cx="317.79" cy="60.65" r=".27"/>
          <g>
            <path class="cls-5" d="m324.01,60.08c.02.14.02.28.04.44l-5.95,1.45-1.07-.25-.05-.04-6.78-6.27c.05-.16.11-.32.14-.47l6.9,6.37.86.19,5.92-1.44Z"/>
            <path class="cls-43" d="m317.49,76.77c-.12-3.8-.16-16.11,2.26-21.6-.42,0-.63-.34-1.05-.34-2.6,7.97-2.38,18.15-2.26,21.95l.54.7.51-.7Z"/>
            <circle class="cls-22" cx="318.85" cy="56.03" r=".27"/>
            <circle class="cls-22" cx="318.57" cy="57.07" r=".27"/>
            <circle class="cls-22" cx="317.79" cy="60.65" r=".27"/>
            <circle class="cls-22" cx="317.24" cy="64.94" r=".27"/>
            <circle class="cls-22" cx="316.97" cy="68.86" r=".27"/>
            <circle class="cls-22" cx="316.91" cy="72.82" r=".27"/>
          </g>
        </g>
      </g>
    </g>
  </g>
</svg>