<?xml version="1.0" encoding="UTF-8"?>
<svg xmlns="http://www.w3.org/2000/svg" xmlns:xlink="http://www.w3.org/1999/xlink" viewBox="0 0 284.18 239.02">
  <defs>
    <style>
      .cls-1 {
        clip-path: url(#clippath-11);
      }

      .cls-2 {
        fill: #ae9463;
      }

      .cls-3 {
        fill: #98539b;
      }

      .cls-4, .cls-5 {
        fill: #dfe1e9;
      }

      .cls-6, .cls-7, .cls-8, .cls-9 {
        mix-blend-mode: multiply;
      }

      .cls-6, .cls-10 {
        fill: #8e92b2;
      }

      .cls-11 {
        fill: #d59469;
      }

      .cls-12 {
        fill: url(#linear-gradient-2);
      }

      .cls-12, .cls-13 {
        opacity: .05;
      }

      .cls-14 {
        fill: #cdcddd;
      }

      .cls-14, .cls-15, .cls-16 {
        opacity: .58;
      }

      .cls-7 {
        fill: #b9bec7;
        opacity: .2;
      }

      .cls-17 {
        fill: #ecf5f7;
      }

      .cls-18 {
        fill: #f2f4f5;
      }

      .cls-5, .cls-19 {
        opacity: .51;
      }

      .cls-20 {
        clip-path: url(#clippath-2);
      }

      .cls-21 {
        clip-path: url(#clippath-13);
      }

      .cls-22 {
        isolation: isolate;
      }

      .cls-23 {
        fill: #abb0ca;
      }

      .cls-24 {
        fill: #646b89;
      }

      .cls-25 {
        fill: #484c66;
      }

      .cls-26 {
        clip-path: url(#clippath-6);
      }

      .cls-27 {
        fill: url(#radial-gradient-2);
        opacity: .39;
      }

      .cls-28 {
        fill: #dddfe8;
      }

      .cls-29 {
        fill: #f0f2f5;
      }

      .cls-30 {
        clip-path: url(#clippath-7);
      }

      .cls-31 {
        clip-path: url(#clippath-1);
      }

      .cls-32 {
        clip-path: url(#clippath-4);
      }

      .cls-33 {
        fill: #9599a3;
      }

      .cls-34 {
        fill: #e5bd99;
      }

      .cls-35 {
        fill: url(#radial-gradient);
      }

      .cls-15, .cls-36 {
        fill: #a7a9c8;
      }

      .cls-37 {
        clip-path: url(#clippath-12);
      }

      .cls-13 {
        fill: url(#linear-gradient);
      }

      .cls-38, .cls-19 {
        fill: #dddde9;
      }

      .cls-39 {
        fill: #004e62;
      }

      .cls-40, .cls-8 {
        fill: #ffc29f;
      }

      .cls-41 {
        fill: url(#linear-gradient-3);
        opacity: .43;
      }

      .cls-42 {
        clip-path: url(#clippath-9);
      }

      .cls-43 {
        fill: #f0f0f2;
      }

      .cls-44 {
        clip-path: url(#clippath);
      }

      .cls-45 {
        fill: url(#radial-gradient-3);
      }

      .cls-46 {
        clip-path: url(#clippath-3);
      }

      .cls-47 {
        clip-path: url(#clippath-8);
      }

      .cls-16, .cls-48 {
        fill: #c8cbdd;
      }

      .cls-49 {
        fill: #af5b9c;
      }

      .cls-50 {
        clip-path: url(#clippath-14);
      }

      .cls-51 {
        clip-path: url(#clippath-5);
      }

      .cls-52 {
        fill: #f8f9fb;
      }

      .cls-53 {
        clip-path: url(#clippath-10);
      }

      .cls-54 {
        fill: url(#linear-gradient-4);
      }

      .cls-55 {
        fill: #edecf8;
      }

      .cls-56 {
        fill: #f2f4f7;
      }

      .cls-57 {
        fill: #69439a;
      }
    </style>
    <radialGradient id="radial-gradient" cx="-77.35" cy="-664.83" fx="-77.35" fy="-664.83" r="11.52" gradientTransform="translate(504.43 416.21) scale(3.83 .36)" gradientUnits="userSpaceOnUse">
      <stop offset="0" stop-color="#8e92b2"/>
      <stop offset=".04" stop-color="#8e92b2" stop-opacity=".9"/>
      <stop offset=".15" stop-color="#8e92b2" stop-opacity=".67"/>
      <stop offset=".27" stop-color="#8e92b2" stop-opacity=".46"/>
      <stop offset=".39" stop-color="#8e92b2" stop-opacity=".29"/>
      <stop offset=".51" stop-color="#8e92b2" stop-opacity=".16"/>
      <stop offset=".65" stop-color="#8e92b2" stop-opacity=".07"/>
      <stop offset=".8" stop-color="#8e92b2" stop-opacity=".02"/>
      <stop offset="1" stop-color="#8e92b2" stop-opacity="0"/>
    </radialGradient>
    <radialGradient id="radial-gradient-2" cx="128.45" cy="-1029.34" fx="128.45" fy="-1029.34" r="11.52" gradientTransform="translate(-372.53 -596.32) rotate(90) scale(5.87 .52)" xlink:href="#radial-gradient"/>
    <linearGradient id="linear-gradient" x1="94.06" y1="120.05" x2="258.73" y2="120.05" gradientUnits="userSpaceOnUse">
      <stop offset=".19" stop-color="#fff" stop-opacity=".08"/>
      <stop offset="1" stop-color="#000"/>
    </linearGradient>
    <linearGradient id="linear-gradient-2" x1="92.89" y1="119.5" x2="257.88" y2="119.5" xlink:href="#linear-gradient"/>
    <linearGradient id="linear-gradient-3" x1="121.27" y1="87.46" x2="233.78" y2="152.42" gradientUnits="userSpaceOnUse">
      <stop offset="0" stop-color="#dddde9" stop-opacity=".51"/>
      <stop offset="1" stop-color="#fff"/>
    </linearGradient>
    <linearGradient id="linear-gradient-4" x1="-1387.71" y1="-677.12" x2="-1387.71" y2="-667.18" gradientTransform="translate(1645.08 -382.84) rotate(-45)" xlink:href="#linear-gradient-3"/>
    <clipPath id="clippath">
      <path class="cls-55" d="m126.83,70.24l4.54-8.01c1.71,0,2.83-.37,3.39-1.06l-4.54,8.01c-.55.7-1.68,1.06-3.39,1.07Z"/>
    </clipPath>
    <clipPath id="clippath-1">
      <path class="cls-55" d="m134.9,60.95l-4.54,8.01c-.04.08-.09.15-.15.22l4.54-8.01c.06-.07.1-.14.15-.22Z"/>
    </clipPath>
    <clipPath id="clippath-2">
      <path class="cls-55" d="m126.95,48.42l-4.54,8.01c-.45.79-1.68,1.2-3.71,1.24l4.54-8.01c2.03-.04,3.26-.45,3.71-1.24Z"/>
    </clipPath>
    <clipPath id="clippath-3">
      <path class="cls-24" d="m142.78,64.36l-4.54,8.01c.84-1.48.51-3.5-.98-6.07-.99-1.71-2.34-3.14-4.06-4.31l4.54-8.01c1.72,1.17,3.07,2.61,4.06,4.31,1.49,2.57,1.82,4.59.98,6.07Z"/>
    </clipPath>
    <clipPath id="clippath-4">
      <path class="cls-24" d="m127.57,59.65l4.54-8.01c2.03.38,3.9,1.15,5.62,2.33l-4.54,8.01c-1.73-1.18-3.59-1.95-5.62-2.33Z"/>
    </clipPath>
    <clipPath id="clippath-5">
      <path class="cls-52" d="m134.02,50.08l-4.54,8.01c.16-.29.28-.6.34-.94.23-1.13-.09-2.44-.95-3.93-1.57-2.72-3.87-4.77-6.89-6.16-3.02-1.4-6.66-2.09-10.93-2.07l4.54-8c4.27-.02,7.91.67,10.93,2.07,3.02,1.39,5.31,3.45,6.89,6.16.86,1.48,1.18,2.8.95,3.93-.07.34-.18.65-.34.94Z"/>
    </clipPath>
    <clipPath id="clippath-6">
      <path class="cls-55" d="m151.58,58.97l4.54-8.01c1.81,0,2.99-.41,3.53-1.21l-4.54,8.01c-.54.8-1.72,1.2-3.53,1.21Z"/>
    </clipPath>
    <clipPath id="clippath-7">
      <path class="cls-55" d="m159.72,49.63l-4.54,8.01s-.05.08-.07.12l4.54-8.01s.05-.08.07-.12Z"/>
    </clipPath>
    <clipPath id="clippath-8">
      <path class="cls-52" d="m167.19,52.34l-4.54,8.01c.22-.39.37-.8.44-1.25.24-1.38-.24-3.11-1.44-5.17-1.69-2.91-4.12-5.15-7.29-6.73-3.17-1.59-6.84-2.37-10.99-2.35l4.54-8.01c4.15-.02,7.82.76,10.99,2.35,3.18,1.58,5.61,3.83,7.29,6.73,1.2,2.06,1.68,3.79,1.44,5.17-.07.45-.22.86-.44,1.25Z"/>
    </clipPath>
    <clipPath id="clippath-9">
      <path class="cls-55" d="m264.85,59.7l-4.54,8.01c-.72,1.28-2.36,1.92-4.89,1.93l4.54-8.01c2.53-.01,4.16-.66,4.89-1.93Z"/>
    </clipPath>
    <clipPath id="clippath-10">
      <path class="cls-52" d="m272.15,62.71l-4.54,8c.5-.88.77-1.9.81-3.06.08-2.19-.69-4.7-2.33-7.51l4.54-8.01c1.63,2.82,2.41,5.32,2.33,7.51-.04,1.16-.31,2.18-.81,3.06Z"/>
    </clipPath>
    <clipPath id="clippath-11">
      <path class="cls-52" d="m258.86,51.23l4.54-8.01c2.64,2.2,4.79,4.71,6.42,7.52l-4.54,8c-1.63-2.82-3.78-5.32-6.42-7.52Z"/>
    </clipPath>
    <clipPath id="clippath-12">
      <path class="cls-52" d="m240.85,44.38l4.54-8.01c3.09-.01,6.2.57,9.33,1.76,3.13,1.19,6.03,2.88,8.68,5.09l-4.54,8.01c-2.65-2.21-5.54-3.9-8.68-5.09-3.13-1.19-6.25-1.77-9.33-1.76Z"/>
    </clipPath>
    <radialGradient id="radial-gradient-3" cx="332.48" cy="-1244.05" fx="332.48" fy="-1244.05" r="14.26" gradientTransform="translate(-456.56 -567.89) rotate(90) scale(2.4 .48)" xlink:href="#radial-gradient"/>
    <clipPath id="clippath-13">
      <path class="cls-10" d="m148.11,159.28l-.06-.22c.02.06.07.11.17.13l.06.22c-.09-.02-.15-.07-.17-.13Z"/>
    </clipPath>
    <clipPath id="clippath-14">
      <path class="cls-10" d="m149.71,159.05l.06.22c.02.06,0,.13-.07.2-.13.13-.39.21-.57.16l-.06-.22c.18.05.44-.03.57-.16.06-.07.09-.14.07-.2Z"/>
    </clipPath>
  </defs>
  <g class="cls-22">
    <g id="Layer_1" data-name="Layer 1">
      <g>
        <g>
          <path class="cls-28" d="m284.18,149.9c-76.29-1.16-161.86-2.81-238.13-4.59,76.29,1.16,161.86,2.81,238.13,4.59h0Z"/>
          <polygon class="cls-52" points="163.47 199.8 95.19 212.41 58.15 189.49 101.89 164.24 163.47 199.8"/>
          <polygon class="cls-48" points="78.51 194.43 58.15 205.84 39.31 193.83 78.51 194.43"/>
          <polygon class="cls-24" points="203.07 180.43 170.55 210.8 96.47 184.36 128.99 153.98 203.07 180.43"/>
          <ellipse class="cls-35" cx="207.79" cy="176.12" rx="61.95" ry="3.09" transform="translate(-54.3 101.94) rotate(-24.48)"/>
          <polygon class="cls-43" points="231.66 158.63 232.75 158.1 231.66 158.63 170.46 193.66 .07 190.65 92.46 153.95 231.66 158.63"/>
          <polygon class="cls-52" points="231.66 158.63 231.66 158.63 231.66 158.63 170.46 193.66 .07 190.65 92.46 153.95 231.66 158.63"/>
          <polygon class="cls-16" points="130.21 187.55 87.04 187.55 105.76 177.23 147.42 177.23 130.21 187.55"/>
          <polygon class="cls-15" points="31.35 187.55 19.93 187.55 28.95 183.95 39.31 183.95 31.35 187.55"/>
          <polygon class="cls-19" points="187.44 173.07 75.08 170.04 96.6 159.71 208.97 162.75 187.44 173.07"/>
          <polygon class="cls-23" points="231.66 158.62 231.6 161.12 171.01 195.72 170.46 193.67 231.66 158.62"/>
          <ellipse class="cls-27" cx="160.3" cy="157.11" rx="4.43" ry="94.75" transform="translate(-1.71 312.46) rotate(-88.22)"/>
          <polygon class="cls-38" points=".08 190.65 .01 193.15 171.01 195.72 170.46 193.67 .08 190.65"/>
          <polygon class="cls-33" points="171.11 196.13 171 196.13 90.45 194.92 90.46 194.11 170.9 195.31 231.61 160.65 231.6 161.44 171.11 196.13"/>
          <rect class="cls-33" x="44.82" y="148.6" width=".82" height="90.46" transform="translate(-149.26 236.12) rotate(-89.13)"/>
          <path class="cls-13" d="m124.16,83.02l-27.06,63.27-2.39,5.59-.18.42-.47,1.1,30.35.82,1.82.05,2.27.07h.11l1.5.04,2.85.08h.39s12.29.34,12.29.34h.33s1.1.04,1.1.04h.14l1.28.04h.08l6.46.18.91.02h.03l1.78.05,4.37.12h.02l2.42.07h.05l1.38.03.4.02,11.06.3h.18l2.62.07,50.33,1.37.29-.77,2.82-7.41,11.35-29.9.33-.88.55-1.44h.01s.5-1.34.5-1.34l3.46-9.11,8.81-23.19.03-.09-134.57.04Zm30.67,41.92s-.1.01-.15.01c-.32-.37-.56-.81-.73-1.29.12,0,.24-.01.38-.03.8-.13,1.52-.33,2.17-.57.68-.24,1.28-.52,1.79-.8h.01c.19-.02.38-.02.56-.02-.18,0-.37,0-.56,0,1.26-.69,1.96-1.36,1.96-1.36,0,0,.39-.46.91-1.1.14.86.09,1.89-.02,2.66-.07.41-.16.75-.25.94-.51,1.08-1.52,1.92-2.73,2.07-.84.11-1.68-.1-2.52-.32-.27-.07-.55-.14-.82-.2Z"/>
          <path class="cls-12" d="m124.16,83.02l-28.56,63.25-2.55,5.63-.16.36,1.64.04,30.54.83,3.64.1,5.79.16,11.17.3h.11s1.06.04,1.06.04h.19l2.37.07h.07l6.39.17,6.51.18h.04l1.62.04.8.02h.13s.3.02.3.02l2.63.07.74.02,8.67.23h.05s.4.02.4.02h.27l2.38.07,44.11,1.2,4.9.13,2.76-7.07,11.53-29.54.38-.97.38-.97.35-.91,3.15-8.06,9.9-25.38.02-.04H124.16Zm31.49,42.11c-.27-.07-.55-.14-.82-.2-.05.01-.1.01-.15.01-.32-.37-.56-.81-.73-1.29.12,0,.24-.01.38-.03.8-.13,1.52-.33,2.17-.57.68-.24,1.28-.52,1.79-.8h.01c.19-.02.38-.02.56-.02-.18,0-.37,0-.56,0,1.26-.69,1.96-1.36,1.96-1.36,0,0,.39-.46.91-1.1.14.86.09,1.89-.02,2.66-.07.41-.16.75-.25.94-.51,1.08-1.52,1.92-2.73,2.07-.84.11-1.68-.1-2.52-.32Z"/>
          <path class="cls-56" d="m257.86,83.07l-133.7-.05-29.05,63.24-2.6,5.65-1.01,2.2-.04.08-.03.07h.23s33,.95,33,.95l.93.02,1.99.06h.01l4.01.11,1.03.03.47.02h.01l4.39.12,8.11.23.54.02,1.13.03h.37s2.12.07,2.12.07l2.19.06,7.63.22.92.03,1.32.04h.07l1.96.05.54.02h.01l3.73.11h.01l8.92.25h.11l.51.02h.04l2.31.06h.02s50.37,1.44,50.37,1.44h.33s.02-.05.02-.05l.09-.23.6-1.55,2.85-7.45,11.53-30.11.31-.82.66-1.73v-.03s.63-1.6.63-1.6l3.8-9.94,8.29-21.64h-1.68Zm-103.53,40.56c.8-.13,1.52-.33,2.17-.57.68-.24,1.28-.52,1.79-.8h.01c.19-.02.38-.02.56-.02-.18,0-.37,0-.56,0,1.26-.69,1.96-1.36,1.96-1.36,0,0,.39-.46.91-1.1.14.86.09,1.89-.02,2.66-.07.41-.16.75-.25.94-.51,1.08-1.52,1.92-2.73,2.07-.84.11-1.68-.1-2.52-.32-.27-.07-.55-.14-.82-.2-.05.01-.1.01-.15.01-.32-.37-.56-.81-.73-1.29.12,0,.24-.01.38-.03Z"/>
          <path class="cls-41" d="m257.86,83.07l-133.7-.05h-.33l-28.76,63.23-2.57,5.66-1,2.2-.04.08-.03.07h.23s33,.95,33,.95l.94.03,1.98.05h.01l4,.12,1.06.03h.45s.01.01.01.01l4.4.13,8.1.23h.54s1.13.04,1.13.04h0s.11.01.11.01h.25s0,0,.01,0l2.1.06,2.21.06,8.55.24,1.32.04h.07l1.96.06h.54s.01,0,.01,0l3.73.11h.01l8.92.26h.62s.04.01.04.01l2.31.07h.02l50.37,1.44h0s.16-.42.16-.42l.56-1.45,2.84-7.43,11.49-30.01.33-.85.61-1.6v-.02s.58-1.48.58-1.48l3.67-9.59,8.54-22.31h-1.35Zm-103.53,40.56c.8-.13,1.52-.33,2.17-.57.68-.24,1.28-.52,1.79-.8h.01c.19-.02.38-.02.56-.02-.18,0-.37,0-.56,0,1.26-.69,1.96-1.36,1.96-1.36,0,0,.39-.46.91-1.1.14.86.09,1.89-.02,2.66-.07.41-.16.75-.25.94-.51,1.08-1.52,1.92-2.73,2.07-.84.11-1.68-.1-2.52-.32-.27-.07-.55-.14-.82-.2-.05.01-.1.01-.15.01-.32-.37-.56-.81-.73-1.29.12,0,.24-.01.38-.03Z"/>
          <polygon class="cls-5" points="231.62 136.37 226.76 149.5 202.89 148.92 208.03 136.37 231.62 136.37"/>
          <polygon class="cls-5" points="237.67 121.3 232.87 133.12 208.85 133.12 213.69 121.3 237.67 121.3"/>
          <polygon class="cls-5" points="243.74 105.62 238.93 118.05 214.96 118.05 219.81 105.62 243.74 105.62"/>
          <path class="cls-5" d="m123.18,105.61l-16.84,40.86-.26.63,35.66.66,3.14.05.83.02h.41s5.89.12,5.89.12l3.88.07,7.41.13h.33s2.15.05,2.15.05l.99.02h.53s1.37.03,1.37.03h.25s.08.01.08.01l7.63.14h.03l1.89.03h.37s1.56.04,1.56.04l18.55.34.21-.55,16.49-42.65h-92.55Zm31.65,19.33s-.1.01-.15.01c-.32-.37-.56-.81-.73-1.29.12,0,.24-.01.38-.03.8-.13,1.52-.33,2.17-.57.68-.24,1.28-.52,1.79-.8h.01c.19-.02.38-.02.56-.02-.18,0-.37,0-.56,0,1.26-.69,1.96-1.36,1.96-1.36,0,0,.39-.46.91-1.1.14.86.09,1.89-.02,2.66-.07.41-.16.75-.25.94-.51,1.08-1.52,1.92-2.73,2.07-.84.11-1.68-.1-2.52-.32-.27-.07-.55-.14-.82-.2Z"/>
          <path class="cls-16" d="m161.82,110.16l-.02.06-.59,1.41-.62,1.5-.84,2.05-1.93,4.69-.99,2.39-.04.11-.29.69c-.65.24-1.37.44-2.17.57-.14.02-.26.03-.38.03.17.48.41.92.73,1.29.05,0,.1,0,.15-.01.27.06.55.13.82.2l-.2.48-.65,1.57-.19.46-1.01,2.45h-.89s-6.34-.1-6.34-.1l-1.42-.02h-.42s-.89-.02-.89-.02l-24.28-.34,7.97-19.34,17.24-.06h2.37s1.03-.01,1.03-.01l4.8-.02h2.52s.68,0,.68,0h4.14s1.67-.02,1.67-.02h.04Z"/>
          <path class="cls-14" d="m207.75,110.59l-9.13,22.61-.89,2.22-.92,2.24c-.6-.04-1.2-.1-1.84-.19-2.78-.36-5.03-1.55-6.96-2.96-.61-.44-1.19-.91-1.75-1.37-2.79-2.34-5.04-4.79-7.65-5.01-1.99-.18-4.78.52-7.38,1.39l8.21-18.8,28.32-.13Z"/>
          <polygon class="cls-5" points="249.12 91.43 245.63 100.38 125.42 100.38 129.58 91.43 249.12 91.43"/>
          <polygon class="cls-48" points="259.57 83.83 231.19 158.43 230.76 158.15 230.76 158.15 230.79 157.82 259.56 82.67 259.57 83.83"/>
          <polygon class="cls-38" points="231.19 158.43 231.19 158.43 91.67 154.72 91.43 154.12 230.79 157.82 231.19 158.43"/>
          <g>
            <polygon class="cls-48" points="242.83 97.08 242.02 98.43 235.22 98.43 236.03 97.08 242.83 97.08"/>
            <polygon class="cls-48" points="243.8 95.23 242.99 96.58 236.19 96.58 237 95.23 243.8 95.23"/>
            <polygon class="cls-48" points="244.63 93.39 243.82 94.74 237.01 94.74 237.82 93.39 244.63 93.39"/>
          </g>
          <polygon class="cls-48" points="195.37 97.27 154.66 97.27 156.4 94.02 197.11 94.02 195.37 97.27"/>
          <polygon class="cls-48" points="136.54 140.92 136.25 141.64 114.39 141.18 114.68 140.46 136.54 140.92"/>
          <polygon class="cls-48" points="137.77 137.93 137.49 138.65 137.48 138.65 115.62 138.2 115.91 137.48 137.77 137.93"/>
          <polygon class="cls-48" points="139.12 134.68 138.82 135.4 116.95 134.94 117.25 134.23 139.12 134.68"/>
          <polygon class="cls-18" points="141.89 119.48 137.96 117.07 136.34 121.93 141.89 119.48"/>
          <path class="cls-3" d="m196.81,137.66l-1.13,2.81-1.03,2.53-.36.91-29.09-.56.88-2.03,3.7-8.47,1.45-3.31c2.6-.87,5.39-1.57,7.38-1.39,2.62.22,4.86,2.67,7.65,5.01.55.46,1.14.93,1.75,1.37,1.93,1.41,4.18,2.6,6.96,2.96.64.09,1.25.14,1.84.19Z"/>
          <path class="cls-49" d="m198.62,133.2l-.89,2.22-.92,2.24c-.6-.04-1.2-.1-1.84-.19-2.78-.36-5.03-1.55-6.96-2.96-.61-.44-1.19-.91-1.75-1.37,1.04-.5,2.58-1.13,4.8-1.79,3.1-.93,5.86.55,7.55,1.84Z"/>
          <path class="cls-57" d="m194.66,143l-.36.91-29.09-.56.88-2.03c2.41-1.31,5.51-2.81,9.44-4.34,7.83-3.06,14.81,1.75,19.13,6.03Z"/>
          <circle class="cls-54" cx="188.54" cy="123.13" r="4.97"/>
          <polygon class="cls-49" points="251.6 104.33 257.38 107.67 257.38 108.51 257.38 115.96 236.82 121.07 251.6 104.33"/>
          <polygon class="cls-57" points="241.44 118.88 257.38 107.67 258.65 110.56 241.44 118.88"/>
          <polygon class="cls-49" points="260.55 109.49 267.43 113.47 257.38 115.96 241.56 118.85 260.55 109.49"/>
          <polygon class="cls-55" points="120.63 70.27 125.17 62.26 131.37 62.23 126.83 70.24 120.63 70.27"/>
          <polygon class="cls-24" points="115.89 62.1 120.43 54.09 125.17 62.26 120.63 70.27 115.89 62.1"/>
          <g class="cls-22">
            <path class="cls-55" d="m126.83,70.24l4.54-8.01c1.71,0,2.83-.37,3.39-1.06l-4.54,8.01c-.55.7-1.68,1.06-3.39,1.07Z"/>
            <g class="cls-44">
              <g class="cls-22">
                <path class="cls-55" d="m126.83,70.24l4.54-8.01c.5,0,.96-.04,1.36-.1l-4.54,8c-.4.06-.86.1-1.36.1Z"/>
                <path class="cls-55" d="m128.18,70.14l4.54-8c.72-.11,1.28-.32,1.68-.63l-4.54,8.01c-.4.31-.96.52-1.68.63Z"/>
                <path class="cls-55" d="m129.87,69.51l4.54-8.01c.13-.1.25-.22.35-.34l-4.54,8.01c-.1.12-.21.24-.35.34Z"/>
              </g>
            </g>
          </g>
          <g class="cls-22">
            <path class="cls-55" d="m134.9,60.95l-4.54,8.01c-.04.08-.09.15-.15.22l4.54-8.01c.06-.07.1-.14.15-.22Z"/>
            <g class="cls-31">
              <g class="cls-22">
                <path class="cls-55" d="m130.22,69.17l4.54-8.01c.06-.07.1-.14.15-.22l-4.54,8.01c-.04.08-.09.15-.15.22Z"/>
              </g>
            </g>
          </g>
          <polygon class="cls-55" points="113.33 57.69 117.88 49.68 123.24 49.66 118.69 57.66 113.33 57.69"/>
          <polygon class="cls-24" points="108.91 50.07 113.45 42.06 117.88 49.68 113.33 57.69 108.91 50.07"/>
          <g class="cls-22">
            <path class="cls-55" d="m126.95,48.42l-4.54,8.01c-.45.79-1.68,1.2-3.71,1.24l4.54-8.01c2.03-.04,3.26-.45,3.71-1.24Z"/>
            <g class="cls-20">
              <g class="cls-22">
                <path class="cls-55" d="m118.69,57.66l4.54-8.01c.57-.01,1.07-.05,1.52-.12l-4.54,8.01c-.44.07-.95.11-1.52.12Z"/>
                <path class="cls-55" d="m120.21,57.55l4.54-8.01c.78-.12,1.37-.33,1.77-.64l-4.54,8.01c-.4.3-.99.52-1.77.64Z"/>
                <path class="cls-55" d="m121.98,56.91l4.54-8.01c.18-.14.33-.3.43-.48l-4.54,8.01c-.1.18-.24.34-.43.48Z"/>
              </g>
            </g>
          </g>
          <g>
            <path class="cls-24" d="m142.78,64.36l-4.54,8.01c.84-1.48.51-3.5-.98-6.07-.99-1.71-2.34-3.14-4.06-4.31l4.54-8.01c1.72,1.17,3.07,2.61,4.06,4.31,1.49,2.57,1.82,4.59.98,6.07Z"/>
            <g class="cls-46">
              <g class="cls-22">
                <path class="cls-24" d="m133.19,61.98l4.54-8.01c.87.59,1.65,1.25,2.33,1.98l-4.54,8.01c-.68-.73-1.46-1.39-2.33-1.98Z"/>
                <path class="cls-24" d="m135.52,63.96l4.54-8.01c.67.71,1.24,1.49,1.73,2.33,1.49,2.57,1.82,4.59.98,6.07l-4.54,8.01c.84-1.48.51-3.5-.98-6.07-.49-.84-1.07-1.62-1.73-2.33Z"/>
              </g>
            </g>
          </g>
          <g>
            <path class="cls-24" d="m127.57,59.65l4.54-8.01c2.03.38,3.9,1.15,5.62,2.33l-4.54,8.01c-1.73-1.18-3.59-1.95-5.62-2.33Z"/>
            <g class="cls-32">
              <g class="cls-22">
                <path class="cls-24" d="m127.57,59.65l4.54-8.01c1.92.36,3.7,1.07,5.35,2.15l-4.54,8.01c-1.65-1.07-3.43-1.79-5.35-2.15Z"/>
                <path class="cls-24" d="m132.91,61.8l4.54-8.01c.09.06.18.12.28.18l-4.54,8.01c-.09-.06-.18-.12-.28-.18Z"/>
              </g>
            </g>
          </g>
          <polygon class="cls-52" points="98.74 45.05 103.28 37.04 115.59 36.98 111.05 44.99 98.74 45.05"/>
          <path class="cls-48" d="m133.19,61.98c1.72,1.17,3.07,2.61,4.06,4.31,1.69,2.91,1.89,5.11.59,6.62-1.29,1.51-3.92,2.28-7.89,2.33l-13.67.06-17.55-30.26,12.31-.06c4.27-.02,7.91.67,10.93,2.07,3.02,1.39,5.31,3.45,6.89,6.16.86,1.48,1.18,2.8.95,3.93-.23,1.14-.98,1.97-2.25,2.5,2.03.38,3.9,1.15,5.62,2.33Zm-2.97,7.19c.56-.71.47-1.68-.24-2.91-1.61-2.77-4.09-4.17-7.44-4.2l-6.64.03,4.74,8.17,6.2-.03c1.71,0,2.83-.37,3.39-1.07Zm-21.3-19.11l4.42,7.62,5.36-.02c3.62-.07,4.72-1.33,3.3-3.79-.79-1.37-1.82-2.36-3.1-2.95-1.28-.6-2.91-.89-4.91-.88l-5.07.02Z"/>
          <g>
            <path class="cls-52" d="m134.02,50.08l-4.54,8.01c.16-.29.28-.6.34-.94.23-1.13-.09-2.44-.95-3.93-1.57-2.72-3.87-4.77-6.89-6.16-3.02-1.4-6.66-2.09-10.93-2.07l4.54-8c4.27-.02,7.91.67,10.93,2.07,3.02,1.39,5.31,3.45,6.89,6.16.86,1.48,1.18,2.8.95,3.93-.07.34-.18.65-.34.94Z"/>
            <g class="cls-51">
              <g class="cls-22">
                <path class="cls-52" d="m111.05,44.99l4.54-8c4.27-.02,7.91.67,10.93,2.07.77.35,1.48.75,2.16,1.19l-4.54,8.01c-.67-.44-1.39-.83-2.16-1.19-3.02-1.4-6.66-2.09-10.93-2.07Z"/>
                <path class="cls-52" d="m124.14,48.24l4.54-8.01c1.02.67,1.94,1.43,2.74,2.29l-4.54,8.01c-.81-.86-1.72-1.63-2.74-2.29Z"/>
                <path class="cls-52" d="m126.88,50.54l4.54-8.01c.76.81,1.42,1.7,1.99,2.68.86,1.48,1.18,2.8.95,3.93-.07.34-.18.65-.34.94l-4.54,8.01c.16-.29.28-.6.34-.94.23-1.13-.09-2.44-.95-3.93-.57-.98-1.23-1.88-1.99-2.68Z"/>
              </g>
            </g>
          </g>
          <polygon class="cls-24" points="148.66 64.05 153.2 56.04 159.63 67.12 155.09 75.13 148.66 64.05"/>
          <polygon class="cls-55" points="175.06 74.75 179.6 66.74 179.76 67.03 175.22 75.03 175.06 74.75"/>
          <polygon class="cls-55" points="145.73 59 150.27 50.99 156.12 50.96 151.58 58.97 145.73 59"/>
          <polygon class="cls-24" points="160.28 62.41 164.82 54.41 179.6 66.74 175.06 74.75 160.28 62.41"/>
          <polygon class="cls-24" points="140.47 49.92 145.01 41.91 150.27 50.99 145.73 59 140.47 49.92"/>
          <g class="cls-22">
            <path class="cls-55" d="m151.58,58.97l4.54-8.01c1.81,0,2.99-.41,3.53-1.21l-4.54,8.01c-.54.8-1.72,1.2-3.53,1.21Z"/>
            <g class="cls-26">
              <g class="cls-22">
                <path class="cls-55" d="m151.58,58.97l4.54-8.01c.51,0,.96-.04,1.37-.1l-4.54,8.01c-.41.06-.86.1-1.37.1Z"/>
                <path class="cls-55" d="m152.94,58.87l4.54-8.01c.73-.11,1.3-.33,1.72-.64l-4.54,8.01c-.41.31-.98.53-1.72.64Z"/>
                <path class="cls-55" d="m154.66,58.23l4.54-8.01c.18-.14.33-.29.45-.47l-4.54,8.01c-.12.18-.27.33-.45.47Z"/>
              </g>
            </g>
          </g>
          <g class="cls-22">
            <path class="cls-55" d="m159.72,49.63l-4.54,8.01s-.05.08-.07.12l4.54-8.01s.05-.08.07-.12Z"/>
            <g class="cls-30">
              <g class="cls-22">
                <path class="cls-55" d="m155.11,57.76l4.54-8.01s.05-.08.07-.12l-4.54,8.01s-.05.08-.07.12Z"/>
              </g>
            </g>
          </g>
          <polygon class="cls-52" points="130.3 44.9 134.84 36.89 147.9 36.83 143.36 44.84 130.3 44.9"/>
          <g>
            <path class="cls-52" d="m167.19,52.34l-4.54,8.01c.22-.39.37-.8.44-1.25.24-1.38-.24-3.11-1.44-5.17-1.69-2.91-4.12-5.15-7.29-6.73-3.17-1.59-6.84-2.37-10.99-2.35l4.54-8.01c4.15-.02,7.82.76,10.99,2.35,3.18,1.58,5.61,3.83,7.29,6.73,1.2,2.06,1.68,3.79,1.44,5.17-.07.45-.22.86-.44,1.25Z"/>
            <g class="cls-47">
              <g class="cls-22">
                <path class="cls-52" d="m143.36,44.84l4.54-8.01c4.15-.02,7.82.76,10.99,2.35.68.34,1.32.7,1.93,1.1l-4.54,8.01c-.61-.4-1.25-.76-1.93-1.1-3.17-1.59-6.84-2.37-10.99-2.35Z"/>
                <path class="cls-52" d="m156.28,48.29l4.54-8.01c1.17.76,2.21,1.63,3.13,2.61l-4.54,8.01c-.92-.98-1.96-1.85-3.13-2.61Z"/>
                <path class="cls-52" d="m159.4,50.9l4.54-8.01c.85.91,1.6,1.92,2.24,3.03,1.2,2.06,1.68,3.79,1.44,5.17-.07.45-.22.86-.44,1.25l-4.54,8.01c.22-.39.37-.8.44-1.25.24-1.38-.24-3.11-1.44-5.17-.64-1.1-1.39-2.11-2.24-3.03Z"/>
              </g>
            </g>
          </g>
          <path class="cls-48" d="m160.28,62.41l14.78,12.33.17.29-7.77.04-13.02-11.05-5.77.03,6.42,11.08-7.24.03-17.55-30.26,13.06-.06c4.15-.02,7.82.76,10.99,2.35,3.18,1.58,5.61,3.83,7.29,6.73,1.2,2.06,1.68,3.79,1.44,5.17-.23,1.39-1.17,2.49-2.81,3.32Zm-5.17-4.65c.54-.8.4-1.91-.41-3.3-.83-1.43-1.95-2.55-3.36-3.36-1.42-.81-3.1-1.21-5.05-1.21l-5.82.03,5.26,9.08,5.84-.03c1.81,0,2.99-.41,3.53-1.21Z"/>
          <polygon class="cls-24" points="182.93 68.75 187.47 60.74 188.67 66.99 184.13 74.99 182.93 68.75"/>
          <polygon class="cls-55" points="181.95 63.68 186.5 55.68 195.29 55.64 190.74 63.64 181.95 63.68"/>
          <polygon class="cls-24" points="179.75 52.33 184.3 44.33 186.5 55.68 181.95 63.68 179.75 52.33"/>
          <polygon class="cls-52" points="171.97 44.7 176.51 36.7 183.22 36.67 178.68 44.67 171.97 44.7"/>
          <polygon class="cls-24" points="178.68 44.67 183.22 36.67 213.92 66.87 209.38 74.87 178.68 44.67"/>
          <path class="cls-48" d="m178.68,44.67l30.71,30.2-7.7.04-6.05-6.22-12.7.06,1.2,6.25-7.7.04-4.46-30.32,6.71-.03Zm3.28,19.01l8.79-.04-10.99-11.31,2.2,11.35Z"/>
          <polygon class="cls-24" points="208.36 54.92 212.9 46.91 224.45 66.82 219.9 74.82 208.36 54.92"/>
          <polygon class="cls-52" points="195.12 44.6 199.66 36.59 206.9 36.56 202.36 44.56 195.12 44.6"/>
          <polygon class="cls-24" points="202.36 44.56 206.9 36.56 232.6 56.45 228.05 64.45 202.36 44.56"/>
          <polygon class="cls-24" points="223.7 44.46 228.24 36.46 245.79 66.72 241.25 74.72 223.7 44.46"/>
          <polygon class="cls-52" points="216.48 44.5 221.03 36.49 228.24 36.46 223.7 44.46 216.48 44.5"/>
          <polygon class="cls-48" points="223.7 44.46 241.25 74.72 234 74.76 208.36 54.92 219.9 74.82 212.66 74.86 195.12 44.6 202.36 44.56 228.05 64.45 216.48 44.5 223.7 44.46"/>
          <polygon class="cls-55" points="251.92 69.65 256.46 61.65 259.96 61.63 255.41 69.64 251.92 69.65"/>
          <g class="cls-22">
            <path class="cls-55" d="m264.85,59.7l-4.54,8.01c-.72,1.28-2.36,1.92-4.89,1.93l4.54-8.01c2.53-.01,4.16-.66,4.89-1.93Z"/>
            <g class="cls-42">
              <g class="cls-22">
                <path class="cls-55" d="m255.41,69.64l4.54-8.01c.63,0,1.2-.04,1.71-.13l-4.54,8.01c-.52.08-1.09.12-1.71.12Z"/>
                <path class="cls-55" d="m257.13,69.51l4.54-8.01c1-.16,1.79-.46,2.38-.9l-4.54,8.01c-.59.45-1.38.75-2.38.9Z"/>
                <path class="cls-55" d="m259.51,68.61l4.54-8.01c.33-.25.6-.56.8-.9l-4.54,8.01c-.2.35-.46.65-.8.9Z"/>
              </g>
            </g>
          </g>
          <polygon class="cls-24" points="240.21 49.45 244.75 41.45 256.46 61.65 251.92 69.65 240.21 49.45"/>
          <g>
            <path class="cls-52" d="m272.15,62.71l-4.54,8c.5-.88.77-1.9.81-3.06.08-2.19-.69-4.7-2.33-7.51l4.54-8.01c1.63,2.82,2.41,5.32,2.33,7.51-.04,1.16-.31,2.18-.81,3.06Z"/>
            <g class="cls-53">
              <g class="cls-22">
                <path class="cls-52" d="m266.09,60.14l4.54-8.01c1.63,2.82,2.41,5.32,2.33,7.51-.04,1.16-.31,2.18-.81,3.06l-4.54,8c.5-.88.77-1.9.81-3.06.08-2.19-.69-4.7-2.33-7.51Z"/>
              </g>
            </g>
          </g>
          <polygon class="cls-52" points="265.28 58.75 269.82 50.75 270.63 52.14 266.09 60.14 265.28 58.75"/>
          <polygon class="cls-52" points="230.03 44.43 234.57 36.43 245.39 36.38 240.85 44.38 230.03 44.43"/>
          <g>
            <path class="cls-52" d="m258.86,51.23l4.54-8.01c2.64,2.2,4.79,4.71,6.42,7.52l-4.54,8c-1.63-2.82-3.78-5.32-6.42-7.52Z"/>
            <g class="cls-1">
              <g class="cls-22">
                <path class="cls-52" d="m258.86,51.23l4.54-8.01c.98.82,1.89,1.67,2.74,2.57l-4.54,8.01c-.84-.9-1.75-1.76-2.74-2.57Z"/>
                <path class="cls-52" d="m261.59,53.81l4.54-8.01c1.43,1.53,2.66,3.18,3.69,4.95l-4.54,8c-1.03-1.77-2.26-3.42-3.69-4.95Z"/>
              </g>
            </g>
          </g>
          <path class="cls-48" d="m258.86,51.23c2.64,2.2,4.79,4.71,6.42,7.52l.81,1.39c1.63,2.82,2.41,5.32,2.33,7.51-.07,2.2-.98,3.91-2.73,5.12-1.75,1.22-4.15,1.84-7.21,1.87l-10.9.05-17.55-30.26,10.82-.05c3.09-.01,6.2.57,9.33,1.76,3.13,1.19,6.03,2.88,8.68,5.09Zm0,9.13l-.93-1.6c-1.78-3.07-3.88-5.41-6.28-6.98-2.4-1.58-5.03-2.36-7.87-2.35l-3.57.02,11.71,20.2,3.5-.02c2.83-.01,4.54-.82,5.11-2.42.57-1.6.02-3.89-1.67-6.85Z"/>
          <g>
            <path class="cls-52" d="m240.85,44.38l4.54-8.01c3.09-.01,6.2.57,9.33,1.76,3.13,1.19,6.03,2.88,8.68,5.09l-4.54,8.01c-2.65-2.21-5.54-3.9-8.68-5.09-3.13-1.19-6.25-1.77-9.33-1.76Z"/>
            <g class="cls-37">
              <g class="cls-22">
                <path class="cls-52" d="m240.85,44.38l4.54-8.01c3.09-.01,6.2.57,9.33,1.76,2.01.76,3.92,1.73,5.73,2.91l-4.54,8.01c-1.81-1.18-3.72-2.15-5.73-2.91-3.13-1.19-6.25-1.77-9.33-1.76Z"/>
                <path class="cls-52" d="m255.91,49.05l4.54-8.01c1.01.66,2,1.39,2.95,2.18l-4.54,8.01c-.95-.79-1.93-1.52-2.95-2.18Z"/>
              </g>
            </g>
          </g>
          <polygon class="cls-49" points="160.59 0 174.12 7.81 174.12 9.79 174.12 27.21 126.02 39.16 160.59 0"/>
          <polygon class="cls-57" points="136.83 34.04 174.12 7.81 177.09 14.58 136.83 34.04"/>
          <polygon class="cls-49" points="181.52 12.08 197.61 21.37 174.12 27.21 137.1 33.96 181.52 12.08"/>
          <g>
            <ellipse class="cls-45" cx="146.43" cy="230.32" rx="6.95" ry="47.99" transform="translate(-98.63 350.45) rotate(-83.67)"/>
            <path class="cls-11" d="m124.96,160.99s0-.06-.01-.08c-.08-.72.47-1.33,1.02-1.74.75-.56,1.66-.79,2.44-1.28.8-.51,1.52-1.17,2.42-1.51.33-.13.74-.19,1,.04.23.2.25.56.15.85-.17.48-.58.82-.98,1.12-.79.58-1.63,1.06-2.44,1.59-.36.23-.66.59-1,.86-.38.3-.79.59-1.22.82-.72.4-1.25.12-1.37-.66Z"/>
            <path class="cls-34" d="m151.17,125.5c-2.65-.01-4.82,2.15-4.83,4.81l-.76,26.3,10.27-1.7.1-24.56c.01-2.67-2.13-4.84-4.79-4.85Z"/>
            <g>
              <path class="cls-25" d="m162.09,218.59s6.66-3.52,6.96,4.71c.01.32-.42,2.15-3.24,2.49-1.87.23-3.1,2.29-3.51,2.83-2.45,3.19-6.04,4.14-8.77,4.5-5.81.76-.97-6.19,2.37-9.1,3.5-3.05,6.18-5.44,6.18-5.44Z"/>
              <path class="cls-25" d="m147.16,215.3s6.66-3.52,6.96,4.71c.01.32-.42,2.15-3.24,2.49-1.87.23-3.1,2.29-3.51,2.83-2.45,3.19-6.04,4.14-8.77,4.5-5.81.76-.97-6.19,2.37-9.1,3.5-3.05,6.18-5.44,6.18-5.44Z"/>
            </g>
            <path class="cls-29" d="m148.08,124.85c-1.09-.11-3.31,1.15-4.22,4.34-2.13,7.47-2.45,14.02-2.08,19.16l-14.69,10.2,1.57-.44,1.38,4.91,13.3-5.63c.09.32.18.62.27.88,3.65-.94,6.43-4.72,7.72-8.06.85-2.21,1.17-4.53,1.4-6.86.22-6.07.11-11.9-.02-13.36-.25-2.68-.6-4.73-4.63-5.13Z"/>
            <path class="cls-7" d="m148.08,124.85c-.72-.07-1.95.46-2.95,1.76-2.17,9.91-.57,20.23,1.22,30.35,2.29-1.63,4.03-4.3,4.97-6.75.85-2.21,1.17-4.53,1.4-6.86.22-6.07.11-11.9-.02-13.36-.25-2.68-.6-4.73-4.63-5.13Z"/>
            <path class="cls-36" d="m148.08,124.85c-.72-.07-1.62,1.01-2.62,2.31-2.17,9.91-.03,19.63,1.82,28.7,2.29-1.63,3.11-3.21,4.05-5.65.85-2.21,1.17-4.53,1.4-6.86.22-6.07.11-11.9-.02-13.36-.25-2.68-.6-4.73-4.63-5.13Z"/>
            <path class="cls-29" d="m158.86,122.24c-.18,0-.37,0-.56.02h0c.19-.02.38-.02.56-.02Z"/>
            <path class="cls-29" d="m152.65,123.16c-.06,0-.13.03-.21.04.08-.02.15-.03.21-.05.38-.09.77-.18,1.15-.26h0c-.38.09-.77.18-1.15.27Z"/>
            <path class="cls-29" d="m154.93,125.22c-.08-.08-.17-.18-.25-.27.05,0,.1,0,.15-.01.27.06.55.13.82.2.84.22,1.68.43,2.52.32,1.21-.15,2.22-.99,2.73-2.07.09-.19.18-.53.25-.94.41.08.8.18,1.18.31.26.09.51.19.76.31-.13.25-.28.53-.47.8-.2.3-.43.59-.71.84h0c-.21.2-.44.38-.69.54-.24.17-.5.31-.77.44-.54.26-1.12.44-1.68.53-.59.09-1.21.06-1.81-.07-.37-.07-.73-.18-1.08-.31-.12-.05-.23-.1-.34-.16-.03-.03-.06-.04-.09-.06-.19-.12-.36-.25-.52-.4Z"/>
            <path class="cls-29" d="m182.8,182.18c-.33.7-1.31,1.71-2.66,2.86-.61.51-1.28,1.07-2,1.64-.01,0-.02,0-.03.02-3.04,2.38-6.85,5.04-9.4,6.93-.88.64-1.6,1.2-2.09,1.62-.01.01-.02.15-.01.4,0,.11.01.25.01.41.01.28.03.63.05,1.04.04.89.1,2.05.18,3.4.15,2.59.35,5.86.55,9.18.01.17.02.33.03.5,0,.03,0,.07.01.1.2,3.2.41,6.41.58,9.06.15,2.35.28,4.25.35,5.33.02.38.04.65.05.81.01.1.01.16.01.16,0,0-1.18.11-3.07.25-.08,0-.16,0-.25.02-.9.06-1.94.13-3.09.19-.06,0-.13.01-.19.01-2.44.14-5.31.25-8.19.27-2.41.01-4.82-.05-6.99-.21-3.05-.24-5.63-.7-7.04-1.52-.41-.23-.84-.6-1.29-1.08-.29-.32-.6-.69-.9-1.11-1.07-1.43-2.18-3.41-3.23-5.75-1.04-2.32-2.02-5.01-2.83-7.88-1.16-4.06-1.99-8.49-2.18-12.8-.01-.17-.02-.35-.02-.53-.01-.13-.01-.27-.01-.41-.01-.14-.01-.27-.01-.41-.02-.58-.01-1.17.01-1.75.05-1.85.24-3.66.6-5.38.03-.17.06-.33.1-.5.48-1.23,1.75-2.91,3.39-4.7,1.57-1.7,3.47-3.51,5.31-5.12.78-.67,1.55-1.31,2.28-1.9.62-.49,1.24-.98,1.87-1.46.34-.26.67-.51,1.01-.76.53-.4,1.07-.79,1.59-1.16.01,0,.01-.01.02-.02,1.5-1.06,2.94-2.02,4.2-2.82-.16-1.29-.39-2.81-.67-4.5-.1-.66-.22-1.34-.33-2.05-.06-.35-.12-.71-.18-1.07h0c-.02-.12-.04-.23-.06-.35,0-.01-.01-.02-.01-.03-.01-.08-.03-.17-.04-.26-.08-.43-.15-.88-.22-1.33-.08-.39-.14-.8-.21-1.2-.05-.27-.09-.53-.14-.8-.06-.4-.13-.81-.2-1.22-.01-.03-.01-.07-.02-.1-.01-.04-.01-.08-.02-.12h0c0-.08-.02-.15-.03-.22h0s-.01-.05-.01-.07h-.01c-.01-.07-.02-.13-.03-.19-.04-.25-.08-.51-.13-.76l-.18-1.11c-.07-.47-.15-.94-.23-1.42-.23-1.48-.47-2.98-.68-4.47-.03-.2-.06-.4-.09-.6-.05-.33-.09-.67-.14-1.01-.8-5.79-1.32-11.38-1.05-15.44,0-.03,0-.06,0-.09.02-.25.04-.49.07-.72.1-1.08.28-2.03.53-2.83.2-.65.46-1.2.78-1.63,0,0,0,0,.01,0,0-.01.01-.01.01-.02.84-1.11,3.86-1.77,5.61-2.15.05,0,.09-.02.13-.03v.02c-.01.84.24,1.67.7,2.42.36.63.88,1.19,1.5,1.63.13.09.27.18.42.27.24.14.49.26.76.37,1.06.44,2.28.62,3.55.51.17-.01.34-.03.51-.05,1.18-.17,2.31-.57,3.34-1.16.06-.03.11-.07.17-.1.3-.19.6-.39.88-.62.26-.2.51-.42.75-.65.53-.52.99-1.1,1.38-1.72l.03-.04c.17.05.35.1.52.13.35.09.69.17,1.03.23.33.07.66.12.98.16.21.04.42.06.63.09.06.01.13.01.19.02.11,0,.21.03.32.04.07,0,.14,0,.22.02.18.02.35.03.52.05.04,0,.07,0,.11,0,.37.04.74.08,1.1.12.11.01.22.03.33.04t.02,0c.14.02.27.03.4.06.09,0,.18.02.27.03.01,0,.02.01.03.01.15.02.3.04.44.07.38.06.75.14,1.11.24.01,0,.02,0,.03,0,.05.01.11.02.16.04.11.03.22.06.33.1.15.05.3.11.44.19.04.03.09.06.13.1.67.44,1.2,1.25,1.6,2.21,1.02,2.4,1.25,5.75.81,6.83-.01.03-.03.07-.04.1-.08.21-.16.42-.24.63h0c-.02.06-.03.1-.05.15-.06.18-.13.37-.17.56h-.01c-.31,1.01-.52,2.06-.65,3.17-.05.33-.08.66-.1,1-.08.94-.1,1.93-.08,2.95.01.32.02.64.04.97.06,1.04.12,2.15.19,3.31.02.19.03.38.04.57.11,1.56.26,3.19.49,4.87.05.43.11.85.18,1.28.05.35.11.7.17,1.04,0,.03,0,.05.02.08.01.08.03.17.04.25.03.16.06.32.09.48.02.11.04.21.07.32,0,.03.01.06.02.09.01.07.02.13.04.2.16.79.35,1.59.57,2.38.08.33.17.66.27.98.04.16.09.32.15.48.08.29.18.58.27.87.03.07.06.15.08.22,0,.03.03.07.04.1.46,1.31,1,2.6,1.65,3.86h0c.46,1.06.94,2.13,1.4,3.23.18.44.36.88.52,1.32h0c.17.46.33.91.47,1.36.13.38.24.76.33,1.15.05.18.09.35.13.52.61,2.72.6,5.6-.83,8.7Z"/>
            <path class="cls-7" d="m158.29,178.71c-.62.65-1.65.57-2.54.43-5.08-.8-10.08-2.08-14.92-3.81,1.48-1.19,3.01-2.33,4.47-3.37,1.15,0,2.3.06,3.45.2,2.94.34,5.88,1.21,8.29,2.94.59.42,1.16.92,1.47,1.58.31.66.29,1.52-.21,2.04Z"/>
            <path class="cls-4" d="m136.19,224.9c11.86,3.38,33.32.44,33.32.44,0,0-4.27-25.02-2.02-29.25,1.86-3.49,14-11.1,15.3-13.9,2.85-6.15.1-11.41-2.02-16.28-3.42-6.24-4.04-15.39-4.37-21.39-.2-3.58.15-6.76,1.29-9.53.67-1.63-.2-8.43-2.98-9.33-.11-.03-.22-.07-.32-.1-1.26-.36-2.59-.48-4.01-.63-.41-.04-.82-.09-1.24-.14-1.36,4.38-.91,9.08-1.42,13.41-.32,4.94.53,10.97-3.97,14.24-.45.41.11,1.4.18,1.66,1.92,1.74,7.27,2.51,4.88,5.18-3.94,4.25-9.81,1.62-14.94,1.64-1.4.11-3.58.44-3.89,1.38-.95,1.69,2.21,2.8,4.1,3.41,7.8,2.37,20.41-1.26,22.73,2.72,4.88,8.39-2.73,13.6-6.41,19.77-2.35,3.8-7.7,3.03-12.11,2.56-2,0,1.78,1.48,2.45,1.86,2.18,1.67,2.58,3.85,2.6,6.98-.01,4,1.29,7.62,1.54,11.54,1.03,7.7-4.89,17.06-13.13,13.11-2.99-3.66-3.45-6.16-3.89-9.74-.39-6.45,2.1-16.46,2.67-17.86-6.34,7.28-9.54,25.98-10.52,24.54-1.9-1.4-5.23-5.3-8.57-12.32-.09-.06-.19-.11-.28-.16,1.98,8.34,4.3,15.97,5.01,16.17Z"/>
            <path class="cls-29" d="m165.98,124.19l-.03.04c-.39.62-.85,1.2-1.38,1.72-.24.23-.49.45-.75.65-.28.23-.58.43-.88.62-.06.03-.11.07-.17.1-1.03.59-2.16.99-3.34,1.16-.17.02-.34.04-.51.05-1.27.11-2.49-.07-3.55-.51-.27-.11-.52-.23-.76-.37-.15-.09-.29-.18-.42-.27-.62-.44-1.14-1-1.5-1.63-.46-.75-.71-1.58-.7-2.42v-.02s.1-.02.14-.03c.11-.03.22-.05.31-.08.08-.01.15-.03.21-.04.38-.09.77-.18,1.15-.26h0c.41-.1.83-.18,1.23-.26.59-.11,1.18-.2,1.76-.27.51-.06,1.01-.1,1.5-.11-.51.28-1.11.56-1.79.8-.65.24-1.37.44-2.17.57-.14.02-.26.03-.38.03.17.48.41.92.73,1.29.08.09.17.19.25.27.16.15.33.28.52.4.03.02.06.03.09.06.11.06.22.11.34.16.35.13.71.24,1.08.31.6.13,1.22.16,1.81.07.56-.09,1.14-.27,1.68-.53.27-.13.53-.27.77-.44.25-.16.48-.34.69-.53h0c.28-.26.51-.55.71-.85.19-.27.34-.55.47-.8.06.03.11.05.17.08.88.44,1.74.76,2.57,1,.05.02.1.03.15.04Z"/>
            <path class="cls-7" d="m165.98,124.19l-.03.04c-.39.62-.85,1.2-1.38,1.72-.24.23-.49.45-.75.65-.28.23-.58.43-.88.62-.06.03-.11.07-.17.1-1.03.59-2.16.99-3.34,1.16-.17.02-.34.04-.51.05-1.27.11-2.49-.07-3.55-.51-.27-.11-.52-.23-.76-.37-.15-.09-.29-.18-.42-.27-.62-.44-1.14-1-1.5-1.63-.46-.75-.71-1.58-.7-2.42v-.02s.1-.02.14-.03c.11-.03.22-.05.31-.08.08-.01.15-.03.21-.04.38-.09.77-.18,1.15-.26h0c.41-.1.83-.18,1.23-.26.59-.11,1.18-.2,1.76-.27.51-.06,1.01-.1,1.5-.11-.51.28-1.11.56-1.79.8-.65.24-1.37.44-2.17.57-.14.02-.26.03-.38.03.17.48.41.92.73,1.29.08.09.17.19.25.27.16.15.33.28.52.4.03.02.06.03.09.06.11.06.22.11.34.16.35.13.71.24,1.08.31.6.13,1.22.16,1.81.07.56-.09,1.14-.27,1.68-.53.27-.13.53-.27.77-.44.25-.16.48-.34.69-.53h0c.28-.26.51-.55.71-.85.19-.27.34-.55.47-.8.06.03.11.05.17.08.88.44,1.74.76,2.57,1,.05.02.1.03.15.04Z"/>
            <path class="cls-29" d="m163.09,123.07c-.13.25-.28.53-.47.8-.2.3-.43.59-.71.84h0c-.21.2-.44.38-.69.54-.24.17-.5.31-.77.44-.54.26-1.12.44-1.68.53-.59.09-1.21.06-1.81-.07-.37-.07-.73-.18-1.08-.31-.12-.05-.23-.1-.34-.16-.03-.03-.06-.04-.09-.06-.19-.12-.36-.25-.52-.4-.08-.08-.17-.18-.25-.27.05,0,.1,0,.15-.01.27.06.55.13.82.2.84.22,1.68.43,2.52.32,1.21-.15,2.22-.99,2.73-2.07.09-.19.18-.53.25-.94.41.08.8.18,1.18.31.26.09.51.19.76.31Z"/>
            <path class="cls-17" d="m145.89,108.39c.1,1.31,1.32,2.32,2.61,2.56,1.29.24,2.61-.13,3.84-.59.77-.29,1.6-.63,2.4-.41.83.23,1.38,1,2.06,1.52.99.75,2.36.98,3.54.59,1.18-.39,2.15-1.38,2.5-2.58l-16.95-1.08Z"/>
            <path class="cls-36" d="m147.71,124.52c2.84-.88,2.86-1.12,5.4-1.2,2.42-.08-2.34-3.5-2.85-4.79-1.71-4.26-2.65-8.83-2.76-13.43,0,.05-1.93.39-2.18.69-.55.67-.5,2.58-.56,3.41-.2,2.58-.08,5.17.14,7.76.1,1.2.76,4.94,2.81,7.56Z"/>
            <path class="cls-40" d="m164.29,111.69c-.18,1.89-1.92,6.71-3.07,7.98-2.09,2.31-6.57,3.86-9.22,2.29-3.54-2.09-4.12-8-4.48-14.02-.36-6.03,4.16-7.44,8.23-5.1,4.06,2.33,9.12,2.85,8.54,8.86Z"/>
            <path class="cls-40" d="m161.15,122.45c-.07.41-.16.75-.25.94-.51,1.08-1.52,1.92-2.73,2.07-.84.11-1.68-.1-2.52-.32-.27-.07-.55-.14-.82-.2-.05.01-.1.01-.15.01-.32-.37-.56-.81-.73-1.29.12,0,.24-.01.38-.03.8-.13,1.52-.33,2.17-.57.68-.24,1.28-.52,1.79-.8h.01c.09-.01.19-.02.28-.01-.09,0-.19,0-.28,0,1.26-.69,1.96-1.36,1.96-1.36,0,0,.39-.46.91-1.1.14.86.09,1.89-.02,2.66Z"/>
            <path class="cls-29" d="m158.86,122.24c-.18,0-.37,0-.56.02h0c.19-.02.38-.02.56-.02Z"/>
            <path class="cls-29" d="m163.48,120.29c0,.42,0,.8,0,1.1,0,.51-.01.82-.01.82,0,0-.13.37-.37.86-.13.25-.28.53-.47.8-.2.3-.43.59-.71.84-.21.19-.44.38-.69.54-.24.17-.5.31-.77.44-.54.26-1.12.44-1.68.53-.59.09-1.21.06-1.81-.07-.37-.07-.73-.18-1.08-.31-.12-.05-.23-.1-.34-.16-.03-.03-.06-.04-.09-.06-.19-.12-.36-.25-.52-.4-.08-.08-.17-.18-.25-.27.05,0,.1,0,.15-.01.27.06.55.13.82.2.84.22,1.68.43,2.52.32,1.21-.15,2.22-.99,2.73-2.07.09-.19.18-.53.25-.94.11-.77.16-1.8.02-2.66.04-.04.08-.09.12-.14.4-.49.86-1.07,1.3-1.63.3-.4.59-.78.83-1.13.01.29.02.59.03.88.02.91.03,1.79.03,2.52Z"/>
            <path class="cls-8" d="m163.48,120.29c0,.42,0,.8,0,1.1,0,.51-.01.82-.01.82,0,0-.13.37-.37.86-.13.25-.28.53-.47.8-.2.3-.43.59-.71.84h0c-.21.2-.44.38-.69.54-.24.17-.5.31-.77.44-.54.26-1.12.44-1.68.53-.59.09-1.21.06-1.81-.07-.37-.07-.73-.19-1.08-.32-.12-.05-.23-.1-.34-.15-.03-.03-.06-.04-.09-.06-.19-.12-.36-.25-.52-.4-.08-.08-.17-.18-.25-.27.05,0,.1,0,.15-.01.27.06.55.13.82.2.84.22,1.68.43,2.52.32,1.21-.15,2.22-.99,2.73-2.07.09-.19.18-.53.25-.94.11-.77.16-1.8.02-2.66,0-.03,0-.05,0-.07-.08-.47-.22-.89-.44-1.18l.08-.02.12-.04,1.24-.34h0s.42-.12.42-.12l.86-.25h.01c.03.91.03,1.79.02,2.52Z"/>
            <path class="cls-8" d="m164.29,111.69c.57-6.01-4.48-6.53-8.54-8.86-4.07-2.33-8.59-.92-8.23,5.1.04.61.08,1.23.12,1.83,1.36.74,2.35-.6,3.47-1.16.32-.16.29.15.63.19.21.02.78-.32,1-.2.68.38.98,1.44,1.84,1.48,5.66-.17,4.5,5.86,6.53,9,.09.14.18.27.28.39,1.14-1.52,2.73-5.97,2.9-7.77Z"/>
            <path class="cls-25" d="m164.57,113.21h-.02l-.31.03h-.13c.31.81.37,1.71-.24,2.54-.07.1-.16.2-.25.3-.07.07-.14.14-.22.21-.12.12-.25.22-.41.32-.06.04-.13.09-.21.15-.47.33-1.18.82-1.97,1.35h0s-.1.08-.15.11c-.36.25-.74.51-1.12.77-.35.29-.9.65-1.72.88-.63.17-1.42.27-2.41.22-.84-.44-1.22-.75-1.84-1.13-.44-.25-1-.54-1.9-.95-.12-.05-.73-.05-1.54.17-.23.06-.47.14-.73.24-.11.04-.32-.45-.41-.62-.01-.02-.01-.03-.02-.04,0,.02,0,.04.02.07.05.12.09.24.13.36-.01.01,0,.03.01.04.43,1.21,1.58,3.91,3.31,4.97.06.05.13.09.2.12.4.22.84.35,1.31.34.12,0,.24-.01.38-.03.8-.13,1.52-.33,2.17-.57.68-.24,1.28-.52,1.79-.8h.01c1.26-.7,1.96-1.37,1.96-1.37,0,0,.39-.46.91-1.1.04-.04.08-.09.12-.14.4-.49.86-1.07,1.3-1.63.3-.4.59-.78.83-1.13,0,0,0-.02.01-.03.11-.16.2-.31.29-.44.09-.14.16-.27.21-.38.02-.04.04-.07.05-.1.09-.19.17-.4.27-.59.16-.22.32-.46.47-.7.03-.04.05-.09.08-.13.03-.05.06-.1.09-.15.17-.32.33-.65.47-1,.03-.09.07-.19.09-.25l-.88.09Zm-14.08,5.69c.27-.02.62,0,1.01.11,1,.33,1.64.61,2.05.82.43.23.58.38.61.43,0,.02-.3.08-.59.14h-.02c-.18.04-.36.07-.43.09-.33,0-.68.03-1-.01-.08,0-.16-.02-.24-.05h-.01c-.57-.19-1.27-.81-1.88-1.45.07-.02.24-.07.5-.08Z"/>
            <path class="cls-29" d="m176.01,126.16c.42.27-3.73-1.66-4.36-.92-.28.33-.53.62-.7.82-.05.05-.09.11-.14.16-.52.58-1.18,1.09-1.99,1.16-2.48.21-2.31-3.8-2.62-5.46-.59-3.13-1.19-6.26-1.78-9.4-.34-1.78-.68-3.59-.52-5.4.16-1.81-1.01-3.84.42-4.95.69-.32,1.7-.36,1.9.37,2.86,5.53,3.38,8.04,4.27,11.26.43,1.57.87,3.13,1.3,4.7.33,1.17,2,6.24,4.21,7.66Z"/>
            <path class="cls-16" d="m160.98,160.16c-.6.78,4.63-12.88,1.73-25.59-.49-3.72.24-8.66.21-8.94l1.14,1.24,1.78,22.24-1.7,8.52-3.17,2.53Z"/>
            <path class="cls-29" d="m169.81,127.12c.03,1.14-2.63,23.78-3.18,24.76-4.13,7.41-5.79,7.31-5.86,7.88-.6.78,5.48-12.92,2.58-25.63-.49-3.74-.41-8.24-.42-8.52-.31-2.77-1.39-4.81-2.12-7.5-.67-2.43.72-7.42-1.89-9.79-1.48-.82-2.34.23-5.25-.63-1.24-.37-1.39.73-1.83.69-.52-.06-.06-1.05-1.06-.98-.76.05-1.37,1.26-2.22,1.48-.62.16-1.24.03-1.76-.29-.18-.08-.36-.16-.46-.16-.2-.02-.42.03-.54.2-.18.26.15.68.2,1,.07.52-.15,1.03-.41,1.48-.26.44-.73.88-.93,1.35-.24-3.36.07-6.44.59-8.09.11-.34.26-.69.39-1.04.07-.16.13-.34.18-.54.02-.05.03-.1.05-.15.07-.23.16-.46.28-.7.13-.28.28-.54.47-.82.08-.15.18-.28.28-.41.05-.05.08-.1.11-.13,1.55-1.92,4.5-3.77,9.15-4.4,4.24-.57,6.82,1.17,8.19,2.69.1.08.16.16.23.24.23.24.41.49.55.72.11.16.21.31.29.44.07.11.11.21.16.29.07.13.1.21.11.23.15.36.28.73.39,1.11.05.21.1.42.13.64.21,1.21.15,2.46-.26,3.6.11.38.21.75.31,1.13.51,1.96.91,3.93,1.32,5.91.7,3.54,1.55,7.08,1.96,10.67.11,1.09.21,2.19.26,3.28Z"/>
            <path class="cls-36" d="m145.07,108.39c0-.89.27-1.78.74-2.54.17-.27.45-.64.36-.97-.09-.31-.34-.13-.48.05-.43.54-.6,1.49-.66,2.15-.04.45.05.87.04,1.31Z"/>
            <path class="cls-36" d="m160.59,107.56c.47.68.72,1.49,1.05,2.25.83,1.93,3.32,11.1,3.72,12.2-1.23-5.78-3.15-12.58-4.79-15.92-.04-.08-.07-.18-.14-.24-.23-.18-.75-.03-1.01,0-.27.03-.41.12-.23.39.16.23.49.35.7.53.27.23.5.49.7.78Z"/>
            <path class="cls-36" d="m169.81,127.13c.04,1.14.04,2.27-.04,3.4-1.8-3.91-3.12-8.84-4.18-12.9-.83-3.2-1.95-6.16-3.18-9.22-.18-.45-.48-3.87.1-3.51.26.17.33,1.36.4,1.65.17.73.34,1.47.52,2.2.36,1.49.74,2.98,1.14,4.46.78,2.92,1.63,5.82,2.51,8.71.4,1.33,2.11,3.7,2.73,5.2Z"/>
            <path class="cls-36" d="m171.65,125.24c-.28.33-.53.62-.7.82-.05.05-.09.11-.14.16,0-.02,0-.04-.01-.05-1.15-4.73-2.31-9.45-3.46-14.18-.71-2.92-1.59-5.71-2.56-8.55.44.57.6,1.6.84,2.29.28.82.56,1.64.84,2.46,1.89,5.64,3.64,11.32,5.2,17.06Z"/>
            <path class="cls-25" d="m166.22,102.54c-1.83,1.87-4.89,3.61-8.81,4.12-.2.03-.39.05-.58.07-4.93.53-9.2-.38-11.58-2.37-.13-.47,0-1.17.56-1.57,1.95,2.04,6.35,2.99,11.4,2.34,4.07-.53,7.07-2.56,8.48-4.33.48.34.7,1,.53,1.74Z"/>
            <path class="cls-36" d="m164.58,99.11c.23.24.41.49.55.72-1.37,1.22-3.03,2.09-4.78,2.66-1.84.62-3.75.91-5.68,1.11-1.39.13-2.79.2-4.14-.15-1.5-.36-2.82-1.24-3.91-2.33.08-.15.18-.28.28-.41.05-.05.08-.1.11-.13.52.29,1.19.31,1.71,0-.26.26-.16.73.1.98.28.24.65.34,1.01.42.57.13,1.14.24,1.73.38.29.07.73-.41,1.03-.38.47.05.83.59,1.31.55,2.32-.15,4.6-.54,6.82-1.17.62-.18,1.26-.38,1.76-.77.52-.39.91-1,.9-1.63.16.23.54.21.8.05.07-.03.13-.08.18-.15.1.08.16.16.23.24Z"/>
            <path class="cls-25" d="m165.42,100.27c-1.73,1.71-4.52,3.25-8.06,3.7-.2.03-.38.05-.55.07-4.52.49-8.43-.33-10.67-2.1-.21-.63.43-1.25.75-1.22,1.96,1.66,5.86,2.41,10.28,1.84,3.34-.44,5.92-1.97,7.41-3.44.6.09.93.84.85,1.16Z"/>
            <path class="cls-40" d="m156.21,163.41c.95-2.1-.3-5.51-1.11-6.49-.89-.07-2.65-.07-4.55.12-2.72.29-5.75,1-7.02,2.58-2.71,3.36-1.44,4.66.18,5.6,2.45,1.42,9.52-3.23,12.5-1.82Z"/>
            <path class="cls-29" d="m172.87,125.05c-1.1.03-3.14,1.57-3.63,4.85-1.21,8.08-.82,15.44.04,21.13.17,1.1.68,3.08-1.94,3.36-6.56.71-15.4,1-15.4,1l.28,8.56,21.97.49c.49-.03.95-.13,1.39-.29.55-.09,1.12-.38,1.69-.97,1.78-1.87,2.57-5.48,2.9-7.03,1.4-6.62-1.46-23.99-2.05-26.62-.59-2.63-1.21-4.61-5.25-4.49Z"/>
            <path class="cls-36" d="m172.87,125.05c-.14,0-.31.04-.48.09.55.14,2.42.43,2.9.81,1.43,1.02,6.18,24.64.76,32.73-4.94,7.31-15.46,1.98-23.92,2.69l.08,2.58,22.01,1.53c.49-.03,1.35-.35,1.79-.51.55-.09,1.35-.88,1.92-1.47,1.78-1.87,1.9-5.79,2.23-7.34,1.4-6.62-1.46-23.99-2.05-26.62-.59-2.63-1.21-4.61-5.25-4.49Z"/>
            <path class="cls-4" d="m172.87,125.05c-.14,0-.31.04-.48.09.55.14,2.42.43,2.9.81.33.52,1.4,2.6,1.39,4.6,1.02,9.69,4.79,20.04-.63,28.13-4.94,7.31-15.46,1.98-23.92,2.69l.08,2.58,21.97.49c.49-.03.95-.13,1.39-.29.55-.09,1.12-.38,1.69-.97,1.78-1.87,2.57-5.48,2.9-7.03,1.4-6.62-1.46-23.99-2.05-26.62-.59-2.63-1.21-4.61-5.25-4.49Z"/>
            <g>
              <path class="cls-36" d="m151.42,159.28l-25.16-6.69c-.34-.09-.62-.03-.79.13-.3.31-.6.61-.9.92.17-.17.44-.23.79-.13l1.31.35s-.06.03-.08.06h0c-.16.16-.35.36-.54.54-.12.12-.24.25-.37.37-.1.1-.13.26-.08.46l3.54,13.27c.11.41.53.83.94.94.14-.14.28-.29.43-.43h0l-.43.43,24.16,6.43c.2.05.37.02.47-.08.3-.3.59-.6.89-.9l.35,1.31c.09.34.03.61-.13.77.15-.15.3-.31.45-.46.15-.15.3-.3.45-.46.16-.17.22-.44.13-.78l-3.87-14.49c-.18-.68-.89-1.38-1.57-1.57Z"/>
              <g class="cls-9">
                <g class="cls-22">
                  <g class="cls-22">
                    <path class="cls-10" d="m148.11,159.28l-.06-.22c.02.06.07.11.17.13l.06.22c-.09-.02-.15-.07-.17-.13Z"/>
                    <g class="cls-21">
                      <g class="cls-22">
                        <path class="cls-10" d="m148.22,159.19l.06.22c-.09-.02-.15-.07-.17-.13l-.06-.22c.02.06.07.11.17.13h0Z"/>
                      </g>
                    </g>
                  </g>
                  <polygon class="cls-10" points="149.06 159.41 149.12 159.63 148.28 159.41 148.22 159.19 149.06 159.41"/>
                  <g class="cls-22">
                    <path class="cls-10" d="m149.71,159.05l.06.22c.02.06,0,.13-.07.2-.13.13-.39.21-.57.16l-.06-.22c.18.05.44-.03.57-.16.06-.07.09-.14.07-.2Z"/>
                    <g class="cls-50">
                      <g class="cls-22">
                        <path class="cls-10" d="m149.71,159.05l.06.22s0,.08-.01.12l-.06-.22s.02-.08.01-.12h0Z"/>
                        <path class="cls-10" d="m149.69,159.17l.06.22s-.03.05-.06.08c-.05.05-.11.09-.18.12l-.06-.22c.07-.03.13-.07.18-.12.03-.03.04-.05.06-.08h0Z"/>
                        <path class="cls-10" d="m149.45,159.37l.06.22c-.13.05-.27.07-.39.04l-.06-.22c.12.03.26.01.39-.04h0Z"/>
                      </g>
                    </g>
                  </g>
                  <path class="cls-10" d="m149.54,158.92c.18.05.23.2.1.33-.13.13-.39.21-.57.16l-.85-.22c-.18-.05-.23-.19-.1-.33s.39-.21.57-.16l.85.22Z"/>
                </g>
              </g>
              <path class="cls-10" d="m150.52,160.19l-25.16-6.69c-.69-.18-1.09.22-.91.9l3.87,14.49c.18.68.89,1.39,1.57,1.57l25.16,6.69c.68.18,1.09-.23.91-.91l-3.87-14.49c-.18-.68-.89-1.38-1.57-1.57Z"/>
              <path class="cls-6" d="m150.49,162.65c-.17-.6-.8-1.22-1.41-1.37s-.96.21-.79.81.8,1.22,1.41,1.37c.61.15.96-.21.79-.81Z"/>
              <polygon class="cls-6" points="153.33 165.41 153.81 164.91 153.28 163.03 152.8 163.53 153.33 165.41"/>
              <polygon class="cls-6" points="154.04 167.93 154.52 167.43 153.99 165.55 153.51 166.06 154.04 167.93"/>
              <ellipse class="cls-6" cx="146.82" cy="158.64" rx=".44" ry=".25" transform="translate(-37.53 45.77) rotate(-15.74)"/>
              <path class="cls-6" d="m145.45,157.95c-.19-.05-.46.03-.59.17-.14.14-.09.29.1.34.19.05.46-.03.59-.17.14-.14.09-.29-.1-.34Z"/>
              <polygon class="cls-6" points="143.87 157.54 143.43 157.99 142.09 157.65 142.53 157.2 143.87 157.54"/>
            </g>
            <path class="cls-40" d="m129.69,161.53c-.29-.13-.56-.25-.74-.36.3-.1.65-.26.68-.57.02-.22-.14-.43-.34-.52-.2-.1-.42-.11-.64-.12-.97-.04-2.16-.29-3.12-.32-.89.5-.84,3.07-.77,3.65.09.82.42,2.05,1.22,2.47.34-.03.68-.07,1.09-.1.29-.03.56-.07.81-.12.12-.11.18-.36.2-.38,0-.11-.04-.23-.11-.35-.1-.17-.02-.33.14-.41.4-.19,1.31-.35,1-1.11-.04-.1.03-.22.13-.25.79-.3.68-.93.48-1.52Z"/>
          </g>
          <g>
            <g>
              <path class="cls-2" d="m144.76,97.78h0c-.43.27-.65.42-1.1.73-.15-.02-.27-.12-.31-.24-.05-.13-.06-.25-.05-.37,0-.01,0-.02,0-.03.01-.1.04-.2.06-.29,0-.02.11-.27.14-.36.32-.76.45-1.04.73-1.66.22-.5.2-.68-.25-.62.02-.04.02-.05.04-.09.22-.07.33-.11.54-.18.04-.01.07-.02.11-.04.07-.02.1-.03.16-.06.2-.07.29-.1.49-.17.09-.03.13-.05.22-.08-.52,1.22-.68,1.53-1.21,2.8-.1.24-.28.67.05.65.11,0,.25-.05.37-.11,0,.04,0,.06.01.11Z"/>
              <path class="cls-2" d="m137.18,97.76s0-.06,0-.09c-.13.06-.27.11-.38.11-.16,0-.17-.35.02-.75,0,0,0,0,0-.01h0s.34-.72.34-.73c-.37.11-.55.16-.92.28,0,0-.34.71-.34.71-.1.21-.18.36-.26.47,0,0,0,.01-.01.02-.16.21-.34.25-.71.3h0c-.24,0-.36,0-.61,0h0c-.38-.07-.42-.18-.13-.79.2-.42.29-.61.47-.97-.37.11-.55.16-.92.27-.16.32-.24.49-.42.86-.2.42-.12.83.2.93h2.06c.06-.01.11-.03.17-.06,0,0,0,0,0,.01,0,0,0,.01.01.02h0c.05.1.14.17.28.17,0,0,0,0,0,0,.46-.31.69-.46,1.13-.73,0,0,0,0,0,0,0,0,0,0,0-.01Z"/>
              <path class="cls-2" d="m141.13,97.77s-.03,0-.05.01c-.02,0-.04,0-.06.01-.03,0-.05,0-.07.01-.01,0-.03,0-.04,0-.02,0-.03,0-.05,0,0,0-.02,0-.02,0,0,0-.02,0-.02,0-.01,0-.03,0-.04-.01-.01,0-.03-.01-.04-.02-.01,0-.02-.01-.04-.02,0,0-.02-.01-.02-.02-.07-.05-.12-.14-.14-.25-.02-.11,0-.25.08-.42.15-.34.42-.49.83-.63.22-.08.66-.23.88-.31-.22.49-.33.74-.6,1.36-.13.1-.29.19-.45.25-.03.01-.06.02-.1.04-.02,0-.03.01-.05.01Zm1.94,0s0-.06-.01-.1c-.12.06-.27.11-.37.11-.12,0-.19-.11-.14-.34,0,0,0-.01,0-.02.01-.08.04-.17.09-.27,0,0,.7-1.59.71-1.61-.04.01-.05.02-.09.03-.01,0-.03,0-.05.01-.02,0-.03.01-.06.02-.23.07-.62.19-1.02.31-.07.02-.1.03-.16.05-.04.01-.07.02-.11.03-.13.04-.19.06-.32.1-.2.06-.37.12-.51.16-.09.03-.16.05-.2.06-.56.17-.92.41-1.13.87-.13.29-.16.61-.07.87,0,0-.34-.03-.4-.05-.26-.07-.23-.23,0-.74.2-.46.3-.65.47-1.03-.37.12-.56.18-.93.3-.12.26-.18.39-.31.68-.02.05-.04.1-.06.14-.02.04-.03.06-.04.1-.18.39-.11.79.17.91h1.6c.05.06.13.11.22.13.03,0,.06,0,.09,0,.09-.06.14-.08.24-.14.02-.01.03-.02.04-.03,0,0,.01,0,.02-.01.14-.08.3-.17.46-.27.14-.09.28-.17.41-.25,0,0,0,0,0,0,0,0,.02-.01.03-.02-.03.17-.04.32.02.47.02.06.05.12.1.16.06.04.14.07.22.08.45-.32.68-.46,1.11-.73,0,0,0,0,0,0Z"/>
              <path class="cls-2" d="m135.69,96.5c-.1-.08-.14-.11-.24-.19-.08-.06-.26,0-.32.13-.07.15-.11.23-.19.39-.06.13.04.21.19.14.17-.08.26-.12.43-.2.14-.06.21-.21.13-.27Z"/>
            </g>
            <g>
              <g>
                <path class="cls-39" d="m147.17,97.78c-.43.27-.65.42-1.1.73-.15-.02-.27-.12-.31-.24-.05-.13-.06-.25-.06-.37,0-.01,0-.02,0-.03,0-.1.03-.2.06-.29,0-.01.04-.1.07-.18,0,0,0,0,0,0,.02-.05.04-.1.06-.15.26-.63.37-.89.59-1.4.01-.03.02-.06.03-.09.18-.48.06-.78-.46-.78-.19,0-.41.06-.63.16.05-.11.07-.17.12-.28.09-.05.19-.09.29-.14.32-.15.58-.25.84-.25.23,0,.41.05.54.15.26.2.31.59.09,1.1-.23.54-.34.8-.6,1.44,0,0,0,0,0,.01-.01.03-.03.07-.04.1,0,0,0,0,0,0-.09.24-.17.55.1.53.11,0,.25-.05.37-.11,0,.04,0,.05.01.09,0,0,0,0,0,0,0,0,0,0,0,.01Z"/>
                <path class="cls-39" d="m143.42,95.33c-.34.11-.52.16-.86.27.17-.43.06-.7-.25-.75,0,0,0,0-.01,0-.02,0-.04,0-.05,0,0,0,0,0,0,0-.01,0-.02,0-.04,0h0s-.04,0-.06,0c-.13.01-.27.06-.39.14-.16.1-.32.28-.52.53-.1.12-.21.18-.33.19-.02,0-.03,0-.05,0-.01,0-.02,0-.03,0-.16-.02-.3-.17-.22-.34.05-.12.22-.21.44-.32.34-.17,1.09-.49,1.63-.59h0c.05,0,.1,0,.15,0,.21.02.38.09.5.21.15.19.17.41.1.66Z"/>
                <path class="cls-39" d="m132.58,97.79c-.17,0-.21-.22-.01-.63.33-.67.46-.93.75-1.48.21-.41.29-.74.09-1.01-.13-.15-.35-.22-.63-.22-.55.1-1.32.42-1.67.59-.23.11-.4.21-.46.32-.1.19.05.34.23.34.14,0,.26-.05.39-.19.21-.25.38-.43.55-.53.14-.09.3-.14.45-.14.43,0,.56.31.27.87-.03.05-.04.08-.07.14-.27.14-1,.35-1.66.51-.57.14-.94.38-1.17.85-.3.59-.19,1.31.5,1.31.26,0,.89-.43,1.38-.71-.04.17-.05.32,0,.47.04.12.13.24.3.24.47-.32.7-.46,1.15-.74,0-.04,0-.06,0-.11-.13.06-.27.11-.38.11Zm-.94-.32c-.24.18-.61.34-.83.34-.27,0-.5-.27-.26-.74.17-.34.45-.49.87-.64.23-.08.67-.23.9-.31-.25.49-.38.74-.68,1.36Z"/>
              </g>
              <path class="cls-39" d="m140.07,95.38s.04-.16.04-.23c.03-.43-.23-.7-.74-.7-.25,0-.53.1-.77.22-.28.14-.61.29-.96.46.01-.41-.24-.68-.67-.68-.28,0-.54.1-.85.23-.33.15-.59.29-.83.4.02-.04.03-.09.04-.13,0-.05.01-.1,0-.16,0-.02,0-.04-.01-.06h0c-.02-.09-.08-.17-.19-.21,0,0,0,0,0,0h0s0,0,0,0c-.41.12-.62.18-1.04.29-.01,0-.02,0-.03,0,0,0,0,0,0,0h0s-.01.06-.02.09c.06-.01.11-.02.17-.02.06,0,.12,0,.17.02.05.02.06.08.06.16,0,.1-.05.23-.14.43,0,.01-.01.03-.02.04-.15.3-.23.45-.39.76.38-.11.57-.17.94-.27.14-.28.21-.42.35-.7l.18-.08c.31-.15.65-.29.92-.29.43,0,.56.22.43.62-.14.28-.21.42-.35.72.38-.11.56-.17.94-.28.15-.3.22-.44.36-.74.32-.14.87-.32,1.09-.32.37,0,.52.17.48.46,0,0-.02.15-.06.23-.02.06-.05.13-.09.21-.08.17-.12.25-.2.43.37-.12.56-.18.92-.29.06-.13.09-.19.15-.31.05-.11.09-.22.12-.32Z"/>
              <path class="cls-39" d="m145.22,93.96c-.18.01-.34-.05-.43-.14-.07-.07-.08-.16-.04-.26.02-.05.09-.12.17-.17.1-.06.26-.15.38-.15.09,0,.14.03.16.1.01.05.02.08.04.13.01.05.09.05.14-.01.1-.11.16-.21.2-.32.08-.22-.02-.38-.23-.36-.2.02-.53.19-.8.42-.17.15-.39.39-.49.63-.09.25.03.39.24.46.03,0,.04,0,.07.01-.02,0-.25.09-.43.16-.03.06-.04.09-.07.15.04-.01.08-.03.12-.04.42-.14.84-.29,1.23-.43.07-.03.11-.04.18-.07.03-.07.05-.11.08-.18-.16.03-.35.06-.51.07Z"/>
            </g>
          </g>
        </g>
        <g>
          <path class="cls-48" d="m155.94,128.15c-2.24,11.25.38,19.05,1.43,24.65l.98.94.67-1.2c-1.34-5.18-3.74-15.95-1.46-24.11"/>
          <circle class="cls-29" cx="156.62" cy="128.72" r=".45"/>
          <circle class="cls-29" cx="156.43" cy="130.48" r=".45"/>
          <circle class="cls-29" cx="155.99" cy="135.37" r=".45"/>
          <circle class="cls-29" cx="157.08" cy="147.27" r=".45"/>
          <circle class="cls-29" cx="156.24" cy="141.24" r=".45"/>
          <polygon class="cls-48" points="145.09 128.48 155.06 136.6 155.06 137.36 144.94 128.97 145.09 128.48"/>
          <path class="cls-48" d="m162.68,133.92c0,.23.03.45.03.65l-6.05,2.84-.02-.76,6.05-2.73Z"/>
        </g>
      </g>
    </g>
  </g>
</svg>