<?xml version="1.0" encoding="UTF-8"?>
<svg xmlns="http://www.w3.org/2000/svg" xmlns:xlink="http://www.w3.org/1999/xlink" viewBox="0 0 206.21 242.92">
  <defs>
    <style>
      .cls-1 {
        fill: #bd825a;
      }

      .cls-2 {
        fill: url(#linear-gradient-2);
      }

      .cls-3 {
        fill: #fff;
      }

      .cls-4 {
        fill: #dfe1e9;
      }

      .cls-5 {
        fill: #773cec;
      }

      .cls-6 {
        isolation: isolate;
      }

      .cls-7 {
        fill: #248cb8;
      }

      .cls-8 {
        fill: #484c66;
      }

      .cls-9 {
        fill: #0972b8;
      }

      .cls-10 {
        fill: #feffff;
      }

      .cls-11 {
        fill: #f0f2f5;
      }

      .cls-12 {
        fill: #59bfb9;
      }

      .cls-13 {
        fill: url(#radial-gradient);
      }

      .cls-14 {
        fill: #ffc29f;
      }

      .cls-15 {
        fill: #ffce00;
      }

      .cls-16 {
        fill: none;
      }

      .cls-17 {
        fill: #432f82;
      }

      .cls-18 {
        fill: #a7a9c8;
      }

      .cls-19 {
        fill: #338781;
      }

      .cls-20 {
        fill: url(#linear-gradient-3);
      }

      .cls-21 {
        fill: #453282;
      }

      .cls-22 {
        fill: #c8cbdd;
      }

      .cls-23 {
        fill: #e6e8ed;
        mix-blend-mode: multiply;
      }

      .cls-24 {
        fill: url(#linear-gradient);
      }

      .cls-25 {
        fill: #252842;
      }

      .cls-26 {
        fill: #154902;
      }

      .cls-27 {
        fill: #8e92b2;
      }

      .cls-28 {
        fill: url(#linear-gradient-4);
      }
    </style>
    <linearGradient id="linear-gradient" x1="114.48" y1="218.9" x2="94.53" y2="242.09" gradientUnits="userSpaceOnUse">
      <stop offset="0" stop-color="#8e92b2"/>
      <stop offset=".02" stop-color="#8e92b2" stop-opacity=".9"/>
      <stop offset=".07" stop-color="#8e92b2" stop-opacity=".67"/>
      <stop offset=".13" stop-color="#8e92b2" stop-opacity=".46"/>
      <stop offset=".19" stop-color="#8e92b2" stop-opacity=".29"/>
      <stop offset=".25" stop-color="#8e92b2" stop-opacity=".16"/>
      <stop offset=".32" stop-color="#8e92b2" stop-opacity=".07"/>
      <stop offset=".39" stop-color="#8e92b2" stop-opacity=".02"/>
      <stop offset=".49" stop-color="#8e92b2" stop-opacity="0"/>
    </linearGradient>
    <linearGradient id="linear-gradient-2" x1="102.95" y1="214.98" x2="143.51" y2="214.98" gradientUnits="userSpaceOnUse">
      <stop offset="0" stop-color="#8e92b2" stop-opacity="0"/>
      <stop offset=".11" stop-color="#8e92b2" stop-opacity=".06"/>
      <stop offset=".31" stop-color="#8e92b2" stop-opacity=".22"/>
      <stop offset=".57" stop-color="#8e92b2" stop-opacity=".48"/>
      <stop offset=".88" stop-color="#8e92b2" stop-opacity=".84"/>
      <stop offset="1" stop-color="#8e92b2"/>
    </linearGradient>
    <linearGradient id="linear-gradient-3" x1="3.74" y1="94.61" x2="3.74" y2="94.61" gradientUnits="userSpaceOnUse">
      <stop offset="0" stop-color="#ffcb68"/>
      <stop offset="1" stop-color="#ff426b"/>
    </linearGradient>
    <linearGradient id="linear-gradient-4" x1="4.75" y1="93.44" x2="2.74" y2="95.78" gradientUnits="userSpaceOnUse">
      <stop offset="0" stop-color="#d8d6f2"/>
      <stop offset=".13" stop-color="#e3e1f5"/>
      <stop offset=".37" stop-color="#f2f2fa"/>
      <stop offset=".65" stop-color="#fcfbfe"/>
      <stop offset="1" stop-color="#fff"/>
    </linearGradient>
    <radialGradient id="radial-gradient" cx="49.51" cy="-1334.84" fx="49.51" fy="-1334.84" r="17.35" gradientTransform="translate(-590.07 96.7) rotate(90) scale(2.4 .48)" gradientUnits="userSpaceOnUse">
      <stop offset="0" stop-color="#8e92b2"/>
      <stop offset=".04" stop-color="#8e92b2" stop-opacity=".9"/>
      <stop offset=".15" stop-color="#8e92b2" stop-opacity=".67"/>
      <stop offset=".27" stop-color="#8e92b2" stop-opacity=".46"/>
      <stop offset=".39" stop-color="#8e92b2" stop-opacity=".29"/>
      <stop offset=".51" stop-color="#8e92b2" stop-opacity=".16"/>
      <stop offset=".65" stop-color="#8e92b2" stop-opacity=".07"/>
      <stop offset=".8" stop-color="#8e92b2" stop-opacity=".02"/>
      <stop offset="1" stop-color="#8e92b2" stop-opacity="0"/>
    </radialGradient>
  </defs>
  <g class="cls-6">
    <g id="Layer_1" data-name="Layer 1">
      <g>
        <polygon class="cls-24" points="111.71 211.55 79.77 230.74 101.96 242.92 134.54 224.09 111.71 211.55"/>
        <g>
          <polyline class="cls-3" points="167.89 207.82 167.76 209.2 167.39 210.34 166.81 211.24 166.03 211.86 165.1 212.21 164.03 212.26 162.85 211.99 161.58 211.41 106.03 179.34 106.03 179.34 104.77 178.46 103.59 177.36 102.52 176.07 101.59 174.66 100.83 173.14 100.25 171.58 99.89 170.01 99.76 168.48 100.21 11 100.34 9.62 100.71 8.47 101.3 7.58 102.07 6.95 103 6.61 104.07 6.56 105.25 6.82 106.52 7.4 113.44 11.39 113.77 11.62 114.08 11.91 114.36 12.25 114.6 12.63 114.81 13.03 114.96 13.44 115.05 13.85 115.09 14.25 115.08 15.95 115.16 16.87 115.37 17.8 115.71 18.73 116.17 19.63 116.72 20.48 117.36 21.25 118.06 21.9 118.82 22.43 149.73 40.27 150.48 40.62 151.19 40.78 151.83 40.75 152.38 40.54 152.84 40.17 153.19 39.64 153.41 38.95 153.49 38.13 153.49 36.43 153.53 36.06 153.63 35.76 153.78 35.53 153.98 35.36 154.23 35.27 154.51 35.26 154.82 35.33 155.16 35.48 162.07 39.47 163.33 40.35 164.51 41.45 165.58 42.74 166.51 44.16 167.28 45.67 167.85 47.23 168.22 48.8 168.34 50.33 167.89 207.82"/>
          <g>
            <path class="cls-22" d="m109.45,1.18c-.14-.07-.27-.14-.41-.21-.13-.07-.27-.13-.4-.19-.13-.06-.27-.12-.4-.17-.13-.05-.27-.1-.4-.15-.13-.05-.27-.09-.4-.13-.14-.04-.27-.08-.41-.11-.14-.03-.27-.06-.41-.09-.15-.03-.29-.05-.43-.07-.15-.02-.3-.03-.44-.05-.16-.01-.31-.02-.47-.02-.17,0-.35,0-.51.02-.19.02-.39.05-.57.08-.24.05-.47.11-.69.19-.28.1-.55.22-.8.37l-3.24,1.88c.25-.15.52-.27.8-.37.22-.08.45-.14.69-.19.19-.04.38-.06.57-.08.17-.02.34-.02.51-.02.15,0,.31,0,.47.02.15.01.29.03.44.05.14.02.29.04.43.07.13.03.27.06.41.09.14.03.27.07.41.11.13.04.26.08.4.13.13.05.27.1.4.15.13.05.26.11.4.17.13.06.27.12.4.19.13.07.27.14.41.21.1.06.21.12.32.18l3.24-1.88c-.11-.06-.21-.12-.32-.18Z"/>
            <polygon class="cls-27" points="106.53 3.24 109.77 1.36 165.32 33.43 162.08 35.31 106.53 3.24"/>
            <path class="cls-22" d="m162.07,37.39c4.47,2.58,8.09,8.86,8.08,13.99l-.45,157.48c-.01,5.13-3.66,7.21-8.13,4.63l-55.55-32.07c-4.47-2.58-8.09-8.86-8.08-13.99l.45-157.48c.01-5.13,3.66-7.21,8.13-4.63l55.55,32.07Zm5.82,170.43l.45-157.48c.01-3.99-2.8-8.86-6.27-10.86l-6.91-3.99c-.92-.53-1.66-.1-1.66.95v1.7c-.01,2.38-1.7,3.34-3.77,2.14l-30.91-17.85c-2.07-1.2-3.74-4.09-3.74-6.47v-1.7c0-1.05-.73-2.33-1.65-2.86l-6.91-3.99c-3.47-2.01-6.3-.39-6.31,3.6l-.45,157.48c-.01,3.99,2.79,8.85,6.27,10.86l55.55,32.07c3.47,2.01,6.3.4,6.31-3.59"/>
            <path class="cls-11" d="m162.08,35.31c5.47,3.16,9.9,10.82,9.88,17.11l-.45,157.48c-.02,6.29-4.47,8.83-9.94,5.67l-55.55-32.07c-5.47-3.16-9.9-10.82-9.88-17.11l.45-157.48c.02-6.29,4.47-8.83,9.94-5.67l55.55,32.07Zm7.62,173.55l.45-157.48c.01-5.13-3.61-11.41-8.08-13.99L106.53,5.32c-4.47-2.58-8.11-.5-8.13,4.63l-.45,157.48c-.01,5.13,3.61,11.41,8.08,13.99l55.55,32.07c4.47,2.58,8.11.5,8.13-4.63"/>
            <path class="cls-22" d="m175.2,50.54c0-.15,0-.3,0-.45,0-.16-.01-.32-.02-.48-.01-.16-.02-.32-.04-.48-.02-.16-.03-.32-.05-.49-.02-.17-.04-.33-.07-.5-.03-.17-.06-.33-.09-.5-.03-.17-.07-.34-.11-.52-.04-.17-.08-.35-.12-.52-.04-.18-.09-.35-.14-.53-.05-.17-.1-.35-.15-.52-.05-.17-.11-.34-.16-.51-.06-.17-.12-.34-.18-.51-.06-.16-.12-.32-.18-.49-.06-.16-.13-.32-.19-.48-.07-.16-.13-.32-.2-.47-.07-.16-.14-.32-.22-.48-.08-.18-.17-.35-.25-.52-.1-.2-.2-.4-.31-.59-.16-.29-.32-.58-.49-.87-.23-.4-.48-.79-.73-1.17-.2-.3-.41-.6-.63-.89-.14-.2-.29-.39-.44-.58-.13-.16-.25-.32-.38-.47-.13-.15-.25-.3-.38-.45-.13-.14-.26-.29-.39-.43-.13-.14-.27-.29-.41-.43-.14-.14-.28-.28-.42-.41-.14-.14-.29-.27-.44-.41-.15-.13-.29-.26-.44-.38-.15-.12-.29-.24-.44-.36-.14-.11-.29-.22-.44-.33-.14-.11-.29-.21-.43-.31-.14-.1-.28-.19-.42-.28-.14-.09-.28-.17-.42-.26-.03-.02-.06-.04-.1-.06l-3.24,1.88s.06.04.1.06c.14.08.28.17.42.26.14.09.28.18.42.28.14.1.29.2.43.31.15.11.29.22.44.33.15.12.3.24.44.36.15.13.3.25.44.38.15.13.29.27.44.41.14.14.28.27.42.41.14.14.27.28.41.43.13.14.26.28.39.43.13.15.26.3.38.45.13.16.26.31.38.47.15.19.3.38.44.58.22.29.42.59.63.89.26.38.5.77.73,1.17.17.29.33.58.49.87.11.2.21.4.31.59.09.17.17.35.25.52.07.16.15.32.22.48.07.16.14.31.2.47.07.16.13.32.19.48.06.16.12.32.18.49.06.17.12.34.18.51.06.17.11.34.16.51.05.17.1.35.15.52.05.18.09.35.14.53.04.17.08.35.12.52.04.17.07.35.1.52.03.17.06.33.09.5.03.17.05.33.07.5.02.16.04.32.05.49.02.16.03.32.04.48.01.16.02.32.02.48,0,.15,0,.3,0,.45l-.45,157.34h0c0,.16,0,.49-.01.65,0,.16-.02.31-.03.47-.01.16-.03.32-.05.48-.02.16-.04.32-.07.47-.03.17-.06.33-.1.48-.04.17-.08.34-.13.51-.05.18-.11.35-.17.52-.07.2-.15.38-.24.56-.11.24-.24.47-.37.68-.46.72-1.04,1.28-1.72,1.68l3.24-1.88c.68-.39,1.26-.96,1.72-1.68.14-.21.26-.44.37-.68.09-.18.16-.37.24-.56.06-.17.12-.34.17-.52.05-.16.09-.33.13-.51.04-.16.07-.32.1-.48.03-.15.05-.31.07-.47.02-.16.04-.32.05-.48l.03-.47c0-.13,0-.34.01-.51h0s.45-157.48.45-157.48Z"/>
            <ellipse class="cls-10" cx="147.56" cy="34.53" rx="1.11" ry="1.92" transform="translate(2.78 79.32) rotate(-30.36)"/>
            <path class="cls-18" d="m110.69,15.77l-.22-.13-.08-.05v-.42c0-.3-.21-.66-.47-.82l-5.19-3c-.26-.15-.47-.03-.47.27v2c0,.3.21.66.47.82l5.19,3c.26.15.47.03.47-.27v-.44s.08.05.08.05l.22.13c.15.09.27.02.27-.15v-.52c0-.17-.12-.38-.27-.46Z"/>
            <g>
              <polygon class="cls-22" points="158.98 43.47 158.35 43.11 158.35 45.22 158.98 45.59 158.98 43.47"/>
              <polygon class="cls-22" points="160.22 42.72 159.59 42.35 159.59 45.93 160.22 46.3 160.22 42.72"/>
              <polygon class="cls-22" points="161.48 42.33 160.84 41.96 160.84 46.66 161.48 47.02 161.48 42.33"/>
              <polygon class="cls-18" points="162.71 41.77 162.08 41.4 162.08 47.37 162.71 47.74 162.71 41.77"/>
            </g>
            <g>
              <path class="cls-27" d="m173.06,85.55v-15c0-.38.27-.85.61-1.04.05-.03.09-.05.13-.06-.11-.1-.29-.11-.48,0-.33.19-.61.66-.61,1.04v15c0,.33.2.49.47.4-.08-.07-.12-.19-.12-.35Z"/>
              <path class="cls-5" d="m173.06,94.72v-5.52c0-.38.27-.85.61-1.04.05-.03.09-.05.13-.06-.11-.1-.29-.11-.48,0-.33.19-.61.66-.61,1.04v5.52c0,.33.2.49.47.4-.08-.07-.12-.19-.12-.35Z"/>
              <path class="cls-27" d="m173.8,69.44s-.09.03-.13.06c-.33.19-.61.66-.61,1.04v15c0,.16.05.27.12.35.11.1.29.11.48,0,.33-.19.61-.66.61-1.04v-15c0-.33-.2-.49-.47-.4Z"/>
              <path class="cls-21" d="m173.8,88.1s-.09.03-.13.06c-.33.19-.61.66-.61,1.04v5.52c0,.16.05.27.12.35.11.1.29.11.48,0,.33-.19.61-.66.61-1.04v-5.52c0-.33-.2-.49-.47-.4Z"/>
            </g>
          </g>
        </g>
        <g>
          <g>
            <polygon class="cls-18" points="104.93 53.9 104.93 54.81 139.18 74.59 139.18 73.68 104.93 53.9"/>
            <polygon class="cls-18" points="104.93 50.02 104.93 51.42 122.53 61.58 122.53 60.18 104.93 50.02"/>
            <polygon class="cls-18" points="104.93 56.5 104.93 57.41 139.18 77.18 139.18 76.27 104.93 56.5"/>
            <line class="cls-18" x1="139.18" y1="79.81" x2="139.18" y2="78.89"/>
            <line class="cls-18" x1="104.93" y1="59.12" x2="104.93" y2="60.03"/>
          </g>
          <path class="cls-11" d="m137.42,61.13c-1.08,0-2.19-.3-3.23-.9l-28.83-16.65c-2.63-1.52-4.46-4.69-4.46-7.71v-7.15c0-2.26,1.07-4.23,2.86-5.27,1.8-1.04,4.04-.98,6.01.16l28.83,16.65c2.63,1.52,4.46,4.69,4.46,7.71v7.15c0,2.26-1.07,4.23-2.86,5.27-.85.49-1.81.74-2.78.74Zm-27.54-25.13l24.36,14.07v-1.95c-.03-.08-.1-.19-.15-.26l-24.36-14.06v1.95c.03.08.1.19.15.26Zm24.38,12.16h0s0,0,0,0Zm-.2-.34h0Z"/>
          <path class="cls-11" d="m161.32,74.44c-1.08,0-2.19-.3-3.23-.9l-14.84-8.57c-2.62-1.51-4.46-4.68-4.46-7.7v-6.04c0-2.26,1.07-4.23,2.86-5.26,1.8-1.04,4.04-.98,6.01.16l14.84,8.57c2.62,1.52,4.46,4.68,4.46,7.7v6.04c0,2.26-1.07,4.23-2.86,5.26-.85.49-1.81.74-2.78.74Zm-13.55-17.05l10.37,5.98v-.83c-.03-.08-.1-.19-.15-.26l-10.37-5.98v.83c.03.08.1.19.15.26Zm10.38,5.2h0Zm-.06-.24s0,0,0,0h0Zm-.13-.09h0Z"/>
        </g>
        <path class="cls-11" d="m121.51,125.96c-.99,0-2.02-.29-3.01-.86l-11.71-6.76c-2.68-1.55-4.63-4.91-4.63-7.99v-13.43c0-2.12.92-3.87,2.53-4.8,1.62-.93,3.6-.86,5.45.21l11.71,6.76c2.68,1.55,4.63,4.91,4.63,7.99v13.43c0,2.12-.92,3.87-2.53,4.79-.75.43-1.58.65-2.44.65Zm-12.64-26.61v10.99c0,.68.68,1.84,1.27,2.18l9.63,5.56v-10.99c0-.68-.68-1.83-1.27-2.18l-9.63-5.56Z"/>
        <g>
          <path class="cls-16" d="m148.02,75.31s0,0,.01,0c0,0,0,0-.01,0Z"/>
          <path class="cls-16" d="m148.23,75.4s0,0,0,0c0,0,0,0,0,0Z"/>
          <polygon class="cls-16" points="147.83 75.24 147.83 75.24 147.83 75.24 147.83 75.24"/>
          <path class="cls-16" d="m148.42,75.49s.03.01.04.02c-.01,0-.03-.01-.04-.02Z"/>
          <path class="cls-19" d="m206.21,110.62c0-1.85-1.54-4.23-3.45-5.32l-53.14-30.25c-.8-.46-1.53-.61-2.12-.5h0s-1.04.14-1.81,1c.23-.24.53-.39.88-.45.37-.06.8-.02,1.26.14,0,0,0,0,0,0,0,0,0,0,0,0,.06.02.13.04.19.07,0,0,0,0,.01,0,.06.03.13.05.2.08,0,0,0,0,0,0,.06.03.12.06.18.09.01,0,.03.01.04.02.06.03.13.07.19.1l53.14,30.25c1.91,1.08,3.45,3.47,3.45,5.32v29.37c0,.56-.14,1.01-.4,1.33-.19.24-.45.41-.75.51,0,0,0,0,0,0,1.93-.45,2.06-1.84,2.06-1.84h0c.04-.17.05-.36.05-.56v-29.37Z"/>
          <path class="cls-3" d="m145.56,75.71s0,0,0,0c0,0,0,0,0,0,0,0,0,0,0,0Z"/>
          <path class="cls-12" d="m204.84,141.88c.25-.32.4-.77.4-1.33v-29.37c0-1.85-1.54-4.23-3.45-5.32l-53.14-30.25c-.06-.04-.13-.07-.19-.1-.01,0-.03-.01-.04-.02-.06-.03-.12-.06-.18-.09,0,0,0,0,0,0-.07-.03-.13-.06-.2-.08,0,0,0,0-.01,0-.06-.03-.13-.05-.19-.07,0,0,0,0,0,0-.47-.16-.89-.2-1.26-.14-.35.06-.65.21-.88.45-.05.05-.09.1-.13.15,0,0,0,0,0,0-.23.32-.36.75-.36,1.28v29.37c0,1.85,1.54,4.23,3.45,5.32l53.14,30.25c.89.5,1.69.64,2.3.45.3-.09.56-.26.75-.51Z"/>
          <g>
            <path class="cls-3" d="m149.97,87.09c0-.65.55-.87,1.22-.49l1.13.64v-.63s-2.64-1.5-2.64-1.5c-.41-.23-.75-.1-.75.3v1.47s1.03.59,1.03.59v-.37Z"/>
            <polygon class="cls-3" points="155.66 90.93 155.66 91.99 155.66 93.06 157.95 94.36 158.96 94.94 158.96 92.81 157.95 92.23 155.66 90.93"/>
            <path class="cls-3" d="m158.21,89.96l-2.64-1.5v.63l1.13.64c.67.38,1.22,1.23,1.22,1.88v.37l1.03.59v-1.47c0-.4-.34-.92-.75-1.15Z"/>
            <polygon class="cls-3" points="155.34 89.05 155.34 88.33 153.95 87.53 152.55 86.74 152.55 87.45 153.95 89.71 155.34 89.05"/>
            <polygon class="cls-3" points="152.23 91.11 152.23 90.04 152.23 88.98 149.94 87.68 148.93 87.1 148.93 89.23 149.94 89.8 152.23 91.11"/>
            <path class="cls-3" d="m149.97,90.42v-.37l-1.03-.59v1.47c0,.4.34.92.75,1.15l2.64,1.5v-.63l-1.13-.64c-.67-.38-1.22-1.23-1.22-1.88Z"/>
            <path class="cls-3" d="m157.93,94.95c0,.65-.55.87-1.22.49l-1.13-.64v.63l2.64,1.5c.41.23.75.1.75-.3v-1.47s-1.03-.59-1.03-.59v.37Z"/>
            <polygon class="cls-3" points="152.55 92.99 152.55 93.7 155.34 95.3 155.34 94.58 153.95 92.32 152.55 92.99"/>
            <path class="cls-3" d="m157.39,95.34c.41-.19.3-.9.3-.9l-2.24-1.27s-.03-.03-.03-.05v-1.26s0-1.26,0-1.26c0-.02.01-.02.03-.01l2.24,1.27s.11-.58-.3-1.24c0,0-.28-.47-.87-.77l-.96-.55-1.62.75-1.62-2.59-.96-.55c-.59-.37-.87-.22-.87-.22-.41.19-.3.9-.3.9l2.24,1.27s.03.03.03.05v1.26s0,1.26,0,1.26c0,.02-.01.02-.03.01l-2.24-1.27s-.11.58.3,1.24c0,0,.28.47.87.77l.96.55,1.62-.75,1.62,2.59.96.55c.59.37.87.22.87.22Z"/>
          </g>
          <g>
            <polygon class="cls-3" points="165.7 113.15 148.91 103.59 148.91 102.59 165.7 112.14 165.7 113.15"/>
            <polygon class="cls-3" points="174.59 120.6 148.91 105.98 148.91 104.98 174.59 119.59 174.59 120.6"/>
          </g>
          <g>
            <path class="cls-3" d="m193.69,109.28c0,.42-.32.49-.92.15l-1.17-.67v-2.47s1.1.63,1.1.63c.57.32.87.75.87,1.14,0,.25-.12.37-.3.37.25.23.42.53.42.86Zm-1.65-2.38v.68l.62.35c.3.17.47.16.47-.07,0-.23-.17-.44-.47-.61l-.62-.35Zm1.21,2.09c0-.25-.18-.46-.51-.65l-.71-.4v.71l.71.4c.33.19.51.18.51-.07Z"/>
            <path class="cls-3" d="m195.68,110.51l-1.18-.67-.23.44-.45-.26,1.06-1.87.43.25,1.06,3.08-.46-.26-.24-.71Zm-.14-.44l-.44-1.33-.44.83.88.5Z"/>
            <path class="cls-3" d="m198.77,110.37v2.47s-.36-.2-.36-.2l-1.3-2.41v1.68s-.43-.25-.43-.25v-2.47s.36.2.36.2l1.3,2.41v-1.68s.43.25.43.25Z"/>
            <path class="cls-3" d="m200.21,112.63l-.37.19v.63l-.44-.25v-2.47s.44.25.44.25v1.27s1.16-.61,1.16-.61l.49.28-.99.54,1.05,1.97-.51-.29-.83-1.51Z"/>
          </g>
          <g>
            <path class="cls-3" d="m151.18,98.39c0,.06,0,.13,0,.22,0,.09,0,.19,0,.3,0,.12,0,.22,0,.3v.21c0,.31-.02.53-.07.66-.05.15-.15.22-.3.21-.14,0-.37-.1-.67-.27-.42-.24-.69-.48-.83-.72-.12-.22-.19-.56-.19-1.01v-1.06c0-.45.06-.72.19-.8.14-.09.42,0,.84.23s.69.48.83.73c.13.23.2.56.2,1Zm-.55-.44c0-.19-.04-.34-.11-.44-.06-.09-.19-.19-.38-.3-.14-.08-.23-.12-.3-.13-.1-.02-.15.03-.17.13,0,.04,0,.09,0,.15v.06s0,.06,0,.09c0,.04,0,.07,0,.1v.29c0,.08,0,.18,0,.3v.51c0,.2.03.34.1.44.06.09.19.2.38.31s.31.15.37.12c.06-.03.09-.14.09-.33,0-.07,0-.16,0-.27,0-.11,0-.23,0-.38,0-.29,0-.5,0-.65Z"/>
            <path class="cls-3" d="m154.1,100.06c0,.06,0,.13,0,.22,0,.09,0,.19,0,.3,0,.12,0,.22,0,.3v.21c0,.31-.02.53-.07.66-.05.15-.15.22-.3.21-.14,0-.37-.1-.67-.27-.42-.24-.69-.48-.83-.72-.12-.22-.19-.56-.19-1.01v-1.06c0-.45.06-.72.19-.8.14-.09.42,0,.84.23.41.23.69.48.83.73.13.23.2.56.2,1Zm-.55-.44c0-.19-.04-.34-.11-.44-.06-.09-.19-.19-.38-.3-.14-.08-.23-.12-.3-.13-.1-.02-.15.03-.17.13,0,.04,0,.09,0,.15v.06s0,.06,0,.09c0,.04,0,.07,0,.1v.29c0,.08,0,.18,0,.3v.51c0,.2.03.34.1.44.06.09.19.2.38.31s.31.15.37.12c.06-.03.09-.14.09-.33,0-.07,0-.16,0-.27,0-.11,0-.23,0-.38,0-.29,0-.5,0-.65Z"/>
            <path class="cls-3" d="m157.03,101.72c0,.06,0,.13,0,.22,0,.09,0,.19,0,.3,0,.12,0,.22,0,.3v.21c0,.31-.02.53-.07.66-.05.15-.15.22-.3.21-.14,0-.37-.1-.67-.27-.42-.24-.69-.48-.83-.72-.12-.22-.19-.56-.19-1.01v-1.06c0-.45.06-.72.19-.8.14-.09.42,0,.84.23s.69.48.83.73c.13.23.2.56.2,1Zm-.55-.44c0-.19-.04-.34-.11-.44-.06-.09-.19-.19-.38-.3-.14-.08-.23-.12-.3-.13-.1-.02-.15.03-.17.13,0,.04,0,.09,0,.15v.06s0,.06,0,.09c0,.04,0,.07,0,.1v.29c0,.08,0,.18,0,.3v.51c0,.2.03.34.1.44.06.09.19.2.38.31s.31.15.37.12c.06-.03.09-.14.09-.33,0-.07,0-.16,0-.27,0-.11,0-.23,0-.38,0-.29,0-.5,0-.65Z"/>
            <path class="cls-3" d="m159.95,103.39c0,.06,0,.13,0,.22,0,.09,0,.19,0,.3,0,.12,0,.22,0,.3v.21c0,.31-.02.53-.07.66-.05.15-.15.22-.3.21-.14,0-.37-.1-.67-.27-.42-.24-.69-.48-.83-.72-.12-.22-.19-.56-.19-1.01v-1.06c0-.45.06-.72.19-.8.14-.09.42,0,.84.23s.69.48.83.73c.13.23.2.56.2,1Zm-.55-.44c0-.19-.04-.34-.11-.44-.06-.09-.19-.19-.38-.3-.14-.08-.23-.12-.3-.13-.1-.02-.15.03-.17.13,0,.04,0,.09,0,.15v.06s0,.06,0,.09c0,.04,0,.07,0,.1v.29c0,.08,0,.18,0,.3v.51c0,.2.03.34.1.44.06.09.19.2.38.31s.31.15.37.12c.06-.03.09-.14.09-.33,0-.07,0-.16,0-.27,0-.11,0-.23,0-.38,0-.29,0-.5,0-.65Z"/>
            <path class="cls-3" d="m165.02,106.27c0,.06,0,.13,0,.22,0,.09,0,.19,0,.3,0,.12,0,.22,0,.3v.21c0,.31-.02.53-.07.66-.05.15-.15.22-.3.21-.14,0-.37-.1-.67-.27-.42-.24-.69-.48-.83-.72-.12-.22-.19-.56-.19-1.01v-1.06c0-.45.06-.72.19-.8.14-.09.42,0,.84.23s.69.48.83.73c.13.23.2.56.2,1Zm-.55-.44c0-.19-.04-.34-.11-.44-.06-.09-.19-.19-.38-.3-.14-.08-.23-.12-.3-.13-.1-.02-.15.03-.17.13,0,.04,0,.09,0,.15v.06s0,.06,0,.09c0,.04,0,.07,0,.1v.29c0,.08,0,.18,0,.3v.51c0,.2.03.34.1.44.06.09.19.2.38.31s.31.15.37.12c.06-.03.09-.14.09-.33,0-.07,0-.16,0-.27,0-.11,0-.23,0-.38,0-.29,0-.5,0-.65Z"/>
            <path class="cls-3" d="m167.94,107.94c0,.06,0,.13,0,.22,0,.09,0,.19,0,.3,0,.12,0,.22,0,.3v.21c0,.31-.02.53-.07.66-.05.15-.15.22-.3.21-.14,0-.37-.1-.67-.27-.42-.24-.69-.48-.83-.72-.12-.22-.19-.56-.19-1.01v-1.06c0-.45.06-.72.19-.8.14-.09.42,0,.84.23s.69.48.83.73c.13.23.2.56.2,1Zm-.55-.44c0-.19-.04-.34-.11-.44-.06-.09-.19-.19-.38-.3-.14-.08-.23-.12-.3-.13-.1-.02-.15.03-.17.13,0,.04,0,.09,0,.15v.06s0,.06,0,.09c0,.04,0,.07,0,.1v.29c0,.08,0,.18,0,.3v.51c0,.2.03.34.1.44.06.09.19.2.38.31s.31.15.37.12c.06-.03.09-.14.09-.33,0-.07,0-.16,0-.27,0-.11,0-.23,0-.38,0-.29,0-.5,0-.65Z"/>
            <path class="cls-3" d="m170.87,109.6c0,.06,0,.13,0,.22,0,.09,0,.19,0,.3,0,.12,0,.22,0,.3v.21c0,.31-.02.53-.07.66-.05.15-.15.22-.3.21-.14,0-.37-.1-.67-.27-.42-.24-.69-.48-.83-.72-.12-.22-.19-.56-.19-1.01v-1.06c0-.45.06-.72.19-.8.14-.09.42,0,.84.23s.69.48.83.73c.13.23.2.56.2,1Zm-.55-.44c0-.19-.04-.34-.11-.44-.06-.09-.19-.19-.38-.3-.14-.08-.23-.12-.3-.13-.1-.02-.15.03-.17.13,0,.04,0,.09,0,.15v.06s0,.06,0,.09c0,.04,0,.07,0,.1v.29c0,.08,0,.18,0,.3v.51c0,.2.03.34.1.44.06.09.19.2.38.31s.31.15.37.12c.06-.03.09-.14.09-.33,0-.07,0-.16,0-.27,0-.11,0-.23,0-.38,0-.29,0-.5,0-.65Z"/>
            <path class="cls-3" d="m173.79,111.27c0,.06,0,.13,0,.22,0,.09,0,.19,0,.3,0,.12,0,.22,0,.3v.21c0,.31-.02.53-.07.66-.05.15-.15.22-.3.21-.14,0-.37-.1-.67-.27-.42-.24-.69-.48-.83-.72-.12-.22-.19-.56-.19-1.01v-1.06c0-.45.06-.72.19-.8.14-.09.42,0,.84.23s.69.48.83.73c.13.23.2.56.2,1Zm-.55-.44c0-.19-.04-.34-.11-.44-.06-.09-.19-.19-.38-.3-.14-.08-.23-.12-.3-.13-.1-.02-.15.03-.17.13,0,.04,0,.09,0,.15v.06s0,.06,0,.09c0,.04,0,.07,0,.1v.29c0,.08,0,.18,0,.3v.51c0,.2.03.34.1.44.06.09.19.2.38.31s.31.15.37.12c.06-.03.09-.14.09-.33,0-.07,0-.16,0-.27,0-.11,0-.23,0-.38,0-.29,0-.5,0-.65Z"/>
            <path class="cls-3" d="m178.86,114.15c0,.06,0,.13,0,.22,0,.09,0,.19,0,.3,0,.12,0,.22,0,.3v.21c0,.31-.02.53-.07.66-.05.15-.15.22-.3.21-.14,0-.37-.1-.67-.27-.42-.24-.69-.48-.83-.72-.12-.22-.19-.56-.19-1.01v-1.06c0-.45.06-.72.19-.8.14-.09.42,0,.84.23s.69.48.83.73c.13.23.2.56.2,1Zm-.55-.44c0-.19-.04-.34-.11-.44-.06-.09-.19-.19-.38-.3-.14-.08-.23-.12-.3-.13-.1-.02-.15.03-.17.13,0,.04,0,.09,0,.15v.06s0,.06,0,.09c0,.04,0,.07,0,.1v.29c0,.08,0,.18,0,.3v.51c0,.2.03.34.1.44.06.09.19.2.38.31s.31.15.37.12c.06-.03.09-.14.09-.33,0-.07,0-.16,0-.27,0-.11,0-.23,0-.38,0-.29,0-.5,0-.65Z"/>
            <path class="cls-3" d="m181.78,115.82c0,.06,0,.13,0,.22,0,.09,0,.19,0,.3,0,.12,0,.22,0,.3v.21c0,.31-.02.53-.07.66-.05.15-.15.22-.3.21-.14,0-.37-.1-.67-.27-.42-.24-.69-.48-.83-.72-.12-.22-.19-.56-.19-1.01v-1.06c0-.45.06-.72.19-.8.14-.09.42,0,.84.23.41.23.69.48.83.73.13.23.2.56.2,1Zm-.55-.44c0-.19-.04-.34-.11-.44-.06-.09-.19-.19-.38-.3-.14-.08-.23-.12-.3-.13-.1-.02-.15.03-.17.13,0,.04,0,.09,0,.15v.06s0,.06,0,.09c0,.04,0,.07,0,.1v.29c0,.08,0,.18,0,.3v.51c0,.2.03.34.1.44.06.09.19.2.38.31s.31.15.37.12c.06-.03.09-.14.09-.33,0-.07,0-.16,0-.27,0-.11,0-.23,0-.38,0-.29,0-.5,0-.65Z"/>
            <path class="cls-3" d="m184.71,117.48c0,.06,0,.13,0,.22,0,.09,0,.19,0,.3,0,.12,0,.22,0,.3v.21c0,.31-.02.53-.07.66-.05.15-.15.22-.3.21-.14,0-.37-.1-.67-.27-.42-.24-.69-.48-.83-.72-.12-.22-.19-.56-.19-1.01v-1.06c0-.45.06-.72.19-.8.14-.09.42,0,.84.23s.69.48.83.73c.13.23.2.56.2,1Zm-.55-.44c0-.19-.04-.34-.11-.44-.06-.09-.19-.19-.38-.3-.14-.08-.23-.12-.3-.13-.1-.02-.15.03-.17.13,0,.04,0,.09,0,.15v.06s0,.06,0,.09c0,.04,0,.07,0,.1v.29c0,.08,0,.18,0,.3v.51c0,.2.03.34.1.44.06.09.19.2.38.31s.31.15.37.12c.06-.03.09-.14.09-.33,0-.07,0-.16,0-.27,0-.11,0-.23,0-.38,0-.29,0-.5,0-.65Z"/>
            <path class="cls-3" d="m187.63,119.15c0,.06,0,.13,0,.22,0,.09,0,.19,0,.3,0,.12,0,.22,0,.3v.21c0,.31-.02.53-.07.66-.05.15-.15.22-.3.21-.14,0-.37-.1-.67-.27-.42-.24-.69-.48-.83-.72-.12-.22-.19-.56-.19-1.01v-1.06c0-.45.06-.72.19-.8.14-.09.42,0,.84.23s.69.48.83.73c.13.23.2.56.2,1Zm-.55-.44c0-.19-.04-.34-.11-.44-.06-.09-.19-.19-.38-.3-.14-.08-.23-.12-.3-.13-.1-.02-.15.03-.17.13,0,.04,0,.09,0,.15v.06s0,.06,0,.09c0,.04,0,.07,0,.1v.29c0,.08,0,.18,0,.3v.51c0,.2.03.34.1.44.06.09.19.2.38.31s.31.15.37.12c.06-.03.09-.14.09-.33,0-.07,0-.16,0-.27,0-.11,0-.23,0-.38,0-.29,0-.5,0-.65Z"/>
            <path class="cls-3" d="m192.7,122.03c0,.06,0,.13,0,.22,0,.09,0,.19,0,.3,0,.12,0,.22,0,.3v.21c0,.31-.02.53-.07.66-.05.15-.15.22-.3.21-.14,0-.37-.1-.67-.27-.42-.24-.69-.48-.83-.72-.12-.22-.19-.56-.19-1.01v-1.06c0-.45.06-.72.19-.8.14-.09.42,0,.84.23s.69.48.83.73c.13.23.2.56.2,1Zm-.55-.44c0-.19-.04-.34-.11-.44-.06-.09-.19-.19-.38-.3-.14-.08-.23-.12-.3-.13-.1-.02-.15.03-.17.13,0,.04,0,.09,0,.15v.06s0,.06,0,.09c0,.04,0,.07,0,.1v.29c0,.08,0,.18,0,.3v.51c0,.2.03.34.1.44.06.09.19.2.38.31s.31.15.37.12c.06-.03.09-.14.09-.33,0-.07,0-.16,0-.27,0-.11,0-.23,0-.38,0-.29,0-.5,0-.65Z"/>
            <path class="cls-3" d="m195.63,123.7c0,.06,0,.13,0,.22,0,.09,0,.19,0,.3,0,.12,0,.22,0,.3v.21c0,.31-.02.53-.07.66-.05.15-.15.22-.3.21-.14,0-.37-.1-.67-.27-.42-.24-.69-.48-.83-.72-.12-.22-.19-.56-.19-1.01v-1.06c0-.45.06-.72.19-.8.14-.09.42,0,.84.23s.69.48.83.73c.13.23.2.56.2,1Zm-.55-.44c0-.19-.04-.34-.11-.44-.06-.09-.19-.19-.38-.3-.14-.08-.23-.12-.3-.13-.1-.02-.15.03-.17.13,0,.04,0,.09,0,.15v.06s0,.06,0,.09c0,.04,0,.07,0,.1v.29c0,.08,0,.18,0,.3v.51c0,.2.03.34.1.44.06.09.19.2.38.31s.31.15.37.12c.06-.03.09-.14.09-.33,0-.07,0-.16,0-.27,0-.11,0-.23,0-.38,0-.29,0-.5,0-.65Z"/>
            <path class="cls-3" d="m198.55,125.36c0,.06,0,.13,0,.22,0,.09,0,.19,0,.3,0,.12,0,.22,0,.3v.21c0,.31-.02.53-.07.66-.05.15-.15.22-.3.21-.14,0-.37-.1-.67-.27-.42-.24-.69-.48-.83-.72-.12-.22-.19-.56-.19-1.01v-1.06c0-.45.06-.72.19-.8.14-.09.42,0,.84.23s.69.48.83.73c.13.23.2.56.2,1Zm-.55-.44c0-.19-.04-.34-.11-.44-.06-.09-.19-.19-.38-.3-.14-.08-.23-.12-.3-.13-.1-.02-.15.03-.17.13,0,.04,0,.09,0,.15v.06s0,.06,0,.09c0,.04,0,.07,0,.1v.29c0,.08,0,.18,0,.3v.51c0,.2.03.34.1.44.06.09.19.2.38.31s.31.15.37.12c.06-.03.09-.14.09-.33,0-.07,0-.16,0-.27,0-.11,0-.23,0-.38,0-.29,0-.5,0-.65Z"/>
            <path class="cls-3" d="m201.47,127.03c0,.06,0,.13,0,.22,0,.09,0,.19,0,.3,0,.12,0,.22,0,.3v.21c0,.31-.02.53-.07.66-.05.15-.15.22-.3.21-.14,0-.37-.1-.67-.27-.42-.24-.69-.48-.83-.72-.12-.22-.19-.56-.19-1.01v-1.06c0-.45.06-.72.19-.8.14-.09.42,0,.84.23s.69.48.83.73c.13.23.2.56.2,1Zm-.55-.44c0-.19-.04-.34-.11-.44-.06-.09-.19-.19-.38-.3-.14-.08-.23-.12-.3-.13-.1-.02-.15.03-.17.13,0,.04,0,.09,0,.15v.06s0,.06,0,.09c0,.04,0,.07,0,.1v.29c0,.08,0,.18,0,.3v.51c0,.2.03.34.1.44.06.09.19.2.38.31s.31.15.37.12c.06-.03.09-.14.09-.33,0-.07,0-.16,0-.27,0-.11,0-.23,0-.38,0-.29,0-.5,0-.65Z"/>
          </g>
          <path class="cls-17" d="m171.29,85.06s0,0,.01-.01c-.01,0-.01.03,0,.04-.02-.02-.02-.02-.02-.03Z"/>
        </g>
        <g>
          <path class="cls-19" d="m138.91,94.35c0-1.03-.73-2.28-1.63-2.8l-29.01-16.75c-.16-.09-.32-.16-.46-.19,0,0-1.62-.49-2.65,1.44.26-.47.82-.58,1.46-.21h.02s.71.42.71.42h0s.26.15.26.15h0s28.01,16.17,28.01,16.17c.9.52,1.63,1.77,1.63,2.8v9.1c0,.51-.18.87-.47,1.04h0c1.26-.21,1.78-.95,1.99-1.43.01-.03.03-.06.04-.1.07-.18.09-.31.09-.31h-.02c.01-.08.02-.16.02-.25v-9.1Z"/>
          <path class="cls-12" d="m137.26,104.5v-9.1c0-1.03-.73-2.28-1.63-2.8l-28.01-16.17-.26-.15-.71-.41h-.02c-.64-.39-1.2-.28-1.46.19,0,0,0,0,0,0,0,0,0,0,0,0-.1.18-.16.42-.16.71v9.1c0,1.03.73,2.28,1.63,2.8l29.01,16.75c.45.26.86.29,1.15.12.29-.17.47-.53.47-1.04Z"/>
          <g>
            <path class="cls-3" d="m112.09,86.35c0,.64-.41.78-1.2.32l-1.55-.89v-3.71s1.46.84,1.46.84c.75.43,1.13,1.04,1.13,1.62,0,.37-.15.57-.4.59.33.33.55.77.55,1.23Zm-2.06-3.24v.87l.69.4c.34.2.52.15.52-.14s-.18-.54-.52-.74l-.69-.4Zm1.36,2.75c0-.31-.19-.57-.55-.78l-.81-.47v.92l.81.47c.36.21.55.18.55-.14Z"/>
            <path class="cls-3" d="m112.59,86.02v-2.08s.69.4.69.4v2.05c0,.71.25,1.14.67,1.38s.67.09.67-.61v-2.05s.68.4.68.4v2.08c0,1.09-.5,1.41-1.36.91s-1.36-1.39-1.36-2.48Z"/>
            <path class="cls-3" d="m117.38,89.1v1.32s-.69-.4-.69-.4v-1.33s-1.16-3.06-1.16-3.06l.74.42.8,2.11.8-1.19.68.39-1.16,1.73Z"/>
            <path class="cls-3" d="m122.79,89.83v3.71s-.57-.33-.57-.33l-1.49-3.12v2.25s-.68-.4-.68-.4v-3.71s.57.33.57.33l1.49,3.11v-2.25s.68.4.68.4Z"/>
            <path class="cls-3" d="m123.32,91.99c0-1.1.69-1.52,1.64-.97.94.54,1.64,1.76,1.64,2.87,0,1.11-.7,1.52-1.64.97s-1.64-1.76-1.64-2.87Zm2.58,1.49c0-.71-.4-1.42-.94-1.73s-.94-.06-.94.65c0,.71.4,1.42.94,1.73s.94.06.94-.65Z"/>
            <path class="cls-3" d="m131.54,94.88l-.98,3.15-.74-.43-.66-2.89-.68,2.12-.74-.43-.98-4.28.72.41.68,3,.71-2.2.64.37.68,3.03.7-2.23.66.38Z"/>
          </g>
        </g>
        <g>
          <polygon class="cls-16" points="104.66 216.99 120.27 226 104.66 216.99 104.66 216.99"/>
          <polygon class="cls-16" points="104.66 216.99 120.27 226 104.66 216.99 104.66 216.99"/>
          <path class="cls-22" d="m143.51,214.84s0,0,0,0c.03.54-.26,1.1-.87,1.55-.1.07-.21.15-.33.21l-16.26,9.38c-1.6.92-4.19.93-5.78.01l-15.61-9.01h0s-.52-.3-.52-.3c-.11-.06-.21-.13-.31-.2-.66-.48-.94-1.06-.86-1.64h-.01s-.64,3.11.44,4.16h0c.19.22.44.42.75.6l16.14,9.32c1.59.92,4.18.91,5.78-.01l16.26-9.38c.33-.19.59-.41.79-.64h0c1.22-1.4.42-4.05.42-4.05Z"/>
          <path class="cls-11" d="m103.83,216.49c.09.07.2.14.31.2l.52.3,15.61,9.01c1.59.92,4.18.91,5.78-.01l16.26-9.38c.12-.07.23-.14.33-.21.62-.45.91-1,.87-1.55-.03-.57-.43-1.14-1.18-1.57l-16.14-9.32c-1.59-.92-4.18-.91-5.78.01l-16.26,9.38c-.72.42-1.12.95-1.19,1.49-.08.58.21,1.17.86,1.64Z"/>
          <path class="cls-2" d="m103.83,216.49c.09.07.2.14.31.2l.52.3,15.61,9.01c1.59.92,4.18.91,5.78-.01l16.26-9.38c.12-.07.23-.14.33-.21.62-.45.91-1,.87-1.55-.03-.57-.43-1.14-1.18-1.57l-16.14-9.32c-1.59-.92-4.18-.91-5.78.01l-16.26,9.38c-.72.42-1.12.95-1.19,1.49-.08.58.21,1.17.86,1.64Z"/>
          <g>
            <path class="cls-3" d="m118.28,212.37h0s-1.89,1.65-1.89,1.65c-.18.15-.14.36.09.49l6.69,3.87c.23.13.58.15.85.05l1.07-.41h0l1.78-.68h0s5.24-2.01,5.24-2.01l1.52.88c.26.15.69.15.95,0s.26-.4,0-.55l-1.91-1.1c-.23-.13-.58-.15-.85-.05l-2.39.92-8.21-4.74s-.07-.03-.1-.05c-.31-.12-.73-.07-.93.11l-1.89,1.65Zm10.01,3.48l-.11.04-1.6.61-6.87-3.96,1.14-.99,7.44,4.29Zm-10.47-1.66l1.14-.99,6.48,3.74-1.71.66-5.91-3.41Z"/>
            <ellipse class="cls-3" cx="119.83" cy="218.63" rx=".78" ry="1.35" transform="translate(-99.55 337.09) rotate(-89.64)"/>
            <ellipse class="cls-3" cx="116.01" cy="216.43" rx=".78" ry="1.35" transform="translate(-101.15 331.07) rotate(-89.64)"/>
          </g>
        </g>
        <g>
          <path class="cls-25" d="m145.84,124.95c1.64-.78,3.56-.7,5.11.21l.81.47c3.41,1.98,5.45,5.31,5.45,8.9v6.96c0,.19-.18.35-.4.35s-.4-.16-.4-.35v-6.96c0-3.36-1.9-6.46-5.09-8.32l-.81-.47c-1.31-.76-2.91-.82-4.29-.17-1.38.65-2.21,1.86-2.21,3.24v4.62c0,.19-.18.35-.4.35s-.4-.16-.4-.35v-4.62c0-1.64.98-3.08,2.63-3.86Z"/>
          <polygon class="cls-22" points="134.7 129.04 158.58 143.22 152.99 175.97 127.86 161.05 134.68 129.13 134.7 129.04"/>
          <polygon class="cls-27" points="158.49 168.54 152.99 175.97 158.58 143.22 158.49 168.54"/>
          <path class="cls-27" d="m137.6,127.2l24.65,14.82-4.18-.45.51,1.65-23.87-14.18,2.96.32c.05-.67-.06-2.09-.06-2.15Z"/>
          <polygon class="cls-22" points="162.2 142.02 162.25 142.02 166.04 168.27 158.49 168.54 158.58 143.25 158.07 141.57 162.2 142.02"/>
          <path class="cls-25" d="m142.37,127.18c1.64-.78,3.56-.7,5.11.21l.81.47c3.41,1.98,5.45,5.31,5.45,8.9v6.96c0,.19-.18.35-.4.35s-.4-.16-.4-.35v-6.96c0-3.35-1.9-6.46-5.09-8.32l-.81-.47c-1.31-.76-2.91-.82-4.29-.17-1.38.65-2.21,1.86-2.21,3.24v4.62c0,.19-.18.35-.4.35s-.4-.16-.4-.35v-4.62c0-1.64.98-3.08,2.63-3.86Z"/>
        </g>
        <g>
          <path class="cls-25" d="m130.28,126.27c2.15-1.02,4.66-.91,6.69.27l1.07.62c4.46,2.6,7.13,6.95,7.13,11.66v9.12c0,.25-.23.46-.52.46s-.52-.21-.52-.46v-9.12c0-4.39-2.49-8.46-6.66-10.89l-1.06-.62c-1.71-.99-3.81-1.08-5.62-.23-1.81.85-2.89,2.44-2.89,4.24v6.04c0,.25-.23.46-.52.46s-.52-.21-.52-.46v-6.04c0-2.15,1.29-4.03,3.44-5.05Z"/>
          <polygon class="cls-22" points="115.69 131.63 146.95 150.19 139.64 193.07 106.74 173.54 115.66 131.74 115.69 131.63"/>
          <polygon class="cls-27" points="146.83 183.34 139.64 193.07 146.95 150.19 146.83 183.34"/>
          <path class="cls-27" d="m119.49,129.22l32.27,19.4-5.47-.59.66,2.16-31.26-18.57,3.87.41c.07-.88-.07-2.74-.08-2.82Z"/>
          <polygon class="cls-22" points="151.69 148.63 151.76 148.63 156.72 182.98 146.83 183.34 146.95 150.23 146.29 148.03 151.69 148.63"/>
          <path class="cls-25" d="m125.73,129.19c2.15-1.02,4.66-.92,6.69.27l1.07.62c4.46,2.6,7.13,6.95,7.13,11.65v9.12c0,.25-.23.46-.52.46s-.52-.21-.52-.46v-9.12c0-4.39-2.49-8.46-6.66-10.89l-1.06-.62c-1.71-.99-3.81-1.08-5.62-.23-1.81.85-2.89,2.44-2.89,4.24v6.04c0,.25-.23.46-.52.46s-.52-.21-.52-.46v-6.04c0-2.15,1.29-4.03,3.44-5.05Z"/>
        </g>
        <g>
          <g>
            <path class="cls-25" d="m135.01,166.47s0,0,0,0c-.56.1-.85.17-1.45.33-.17-.13-.28-.38-.3-.58-.03-.23-.01-.43.02-.6,0-.02,0-.03.01-.05.03-.15.09-.27.13-.38.01-.03.18-.33.24-.43.52-.89.7-1.18,1.13-1.86.35-.55.37-.82-.17-1.05.03-.04.04-.06.07-.1.27.05.4.08.67.13.05,0,.08.01.13.02.08.01.12.02.2.04.24.04.37.06.61.1.11.02.16.03.27.04-.93,1.4-1.09,1.65-1.95,3.13-.16.28-.46.8-.08,1,.13.07.3.1.46.09,0,.07,0,.1,0,.17Z"/>
            <path class="cls-25" d="m126.21,161.1c0-.06,0-.09,0-.14-.16,0-.34-.02-.46-.09-.19-.12-.12-.64.16-1.1,0,0,0-.01,0-.02h0s.51-.81.52-.83c-.44-.1-.67-.15-1.11-.25,0,0-.51.81-.51.81-.15.24-.27.41-.39.52,0,0-.01.01-.02.02-.23.2-.44.14-.89-.05h0c-.28-.17-.42-.26-.7-.43h0c-.43-.38-.45-.57,0-1.28.31-.49.44-.7.71-1.09-.44-.1-.67-.15-1.12-.25-.24.36-.36.55-.63.98-.3.48-.29,1.17.05,1.54.96.58,1.43.87,2.39,1.45.07.02.14.03.21.03,0,0,0,.02,0,.02,0,.01,0,.03,0,.04h0c.04.18.12.35.28.45,0,0,0,0,.01,0,.6-.16.89-.22,1.46-.31,0,0,0,0,0,0,0,0,0-.01,0-.02Z"/>
            <path class="cls-25" d="m130.79,163.89s-.04,0-.06-.01c-.02,0-.05-.01-.07-.02-.03-.01-.06-.02-.09-.04-.02,0-.03-.02-.04-.02-.02-.01-.04-.02-.05-.04,0,0-.02-.01-.03-.02-.01,0-.02-.02-.03-.03-.02-.01-.03-.03-.05-.05-.01-.02-.03-.03-.04-.05-.01-.02-.03-.04-.04-.06,0-.01-.02-.03-.02-.04-.07-.13-.12-.29-.11-.47,0-.18.05-.37.17-.57.23-.39.57-.42,1.08-.33.27.05.8.13,1.07.17-.34.54-.51.82-.93,1.55-.17.05-.38.07-.57.05-.04,0-.08,0-.12-.01-.02,0-.04,0-.06-.01Zm2.25,1.38c0-.06,0-.1,0-.16-.16,0-.33-.02-.46-.09-.14-.08-.19-.3-.1-.6,0,0,0-.02,0-.03.03-.1.08-.22.15-.34,0,0,1.09-1.77,1.1-1.8-.04,0-.07-.02-.11-.03-.02,0-.04,0-.06-.01-.03,0-.04,0-.07-.02-.27-.06-.75-.17-1.24-.28-.08-.02-.12-.03-.2-.04-.04,0-.09-.02-.13-.03-.15-.03-.23-.05-.39-.08-.24-.05-.45-.1-.62-.13-.11-.02-.19-.04-.25-.05-.68-.15-1.13-.07-1.46.47-.21.34-.3.8-.26,1.25,0,0-.39-.29-.46-.36-.29-.29-.22-.52.14-1.11.32-.53.46-.75.73-1.17-.45-.09-.68-.14-1.13-.23-.18.29-.28.44-.48.78-.03.06-.07.11-.1.16-.03.04-.04.07-.07.11-.28.46-.28,1.11,0,1.5.74.45,1.12.68,1.86,1.13.05.13.13.26.23.36.03.03.06.05.1.08.12-.02.18-.03.31-.05.02,0,.03,0,.06-.01,0,0,.01,0,.02,0,.18-.02.38-.05.59-.09.18-.03.36-.06.53-.08,0,0,0,0,0,0,.01,0,.02,0,.04,0-.07.23-.11.46-.08.73.01.11.04.22.08.31.06.11.14.21.23.27.6-.16.89-.23,1.46-.33,0,0,0,0,0,0Z"/>
            <path class="cls-25" d="m124.76,158.3c-.16-.28-.23-.42-.39-.7-.05-.09-.19-.1-.24-.02-.18.26-.26.4-.45.69-.06.09,0,.21.12.21.34,0,.51,0,.84,0,.1,0,.17-.1.12-.19Z"/>
          </g>
          <g>
            <g>
              <path class="cls-9" d="m137.8,168.17c-.56.1-.85.17-1.44.34-.17-.13-.28-.38-.3-.58-.03-.23-.01-.43.02-.6,0-.02,0-.03.01-.05.03-.15.08-.27.13-.38,0-.02.06-.12.12-.22,0,0,0,0,0,0,.03-.05.07-.11.1-.18.42-.74.58-1.02.93-1.59.02-.03.04-.07.05-.1.29-.55.22-1.06-.38-1.43-.22-.14-.49-.2-.77-.23.08-.12.12-.18.2-.31.12,0,.24,0,.37,0,.41,0,.74.05,1.04.24.27.17.47.37.59.61.25.48.22,1.06-.12,1.62-.36.59-.51.87-.94,1.62,0,0,0,0,0,.01-.02.04-.04.08-.06.12,0,0,0,0,0,0-.15.28-.31.69,0,.86.13.07.3.1.45.09,0,.06,0,.09,0,.15,0,0,0,0,0,0,0,0,0,.01,0,.02Z"/>
              <path class="cls-9" d="m133.89,161.99c-.42-.09-.63-.14-1.05-.24.27-.5.21-.95-.14-1.25,0,0,0,0-.01,0-.02-.02-.04-.03-.06-.05,0,0,0,0,0,0-.01,0-.03-.02-.04-.03,0,0,0,0,0,0-.02-.01-.05-.03-.07-.04-.16-.08-.33-.1-.48-.07-.21.03-.44.17-.71.39-.14.1-.28.1-.42.03-.02,0-.04-.02-.06-.03-.01,0-.03-.02-.04-.03-.18-.14-.32-.45-.19-.64.09-.13.3-.15.58-.15.42,0,1.38.07,2.03.32,0,0,0,0,0,0,.06.04.12.08.17.12.24.18.42.4.52.66.13.37.1.7-.03,1.02Z"/>
              <path class="cls-9" d="m120.86,157.88c-.19-.12-.21-.48.1-.96.49-.77.69-1.05,1.13-1.64.33-.44.49-.86.33-1.38-.11-.31-.35-.56-.68-.76-.66-.25-1.65-.34-2.09-.35-.29,0-.51.01-.61.14-.16.2-.01.54.19.66.16.1.32.11.49,0,.3-.21.54-.34.76-.37.18-.03.38,0,.56.12.5.3.56.84.12,1.44-.04.06-.07.09-.11.15-.34.02-1.22-.21-2.02-.43-.68-.19-1.15-.1-1.5.43-.44.67-.45,1.85.34,2.33.3.18,1.11-.03,1.74-.1-.07.23-.12.45-.09.71.02.22.1.45.3.58.61-.15.9-.21,1.48-.31,0-.07,0-.1.01-.16-.16,0-.34-.02-.46-.09Zm-1.04-1.14c-.31.09-.77.07-1.02-.08-.31-.19-.53-.76-.17-1.3.25-.38.61-.41,1.12-.32.28.05.82.14,1.1.18-.38.54-.57.81-1.02,1.53Z"/>
            </g>
            <path class="cls-9" d="m129.99,159.67s.08-.19.1-.3c.12-.59-.09-1.16-.69-1.53-.29-.18-.64-.23-.95-.24-.36,0-.78-.02-1.22-.02.1-.57-.11-1.15-.61-1.45-.33-.2-.66-.25-1.05-.27-.42-.02-.76,0-1.06-.01.03-.05.06-.1.08-.16.02-.07.04-.14.05-.22,0-.03,0-.07,0-.1h0c0-.14-.05-.3-.16-.43,0,0,0,0,0,0,0,0,0,0,0,0,0,0,0,0,0,0-.51-.12-.77-.19-1.28-.32-.02,0-.02,0-.04-.01,0,0,0,0,0,0,0,0,0,0,0,.02-.02.04-.02.06-.04.1.07.03.14.06.2.09.07.04.14.09.19.14.06.06.05.15.03.26-.03.14-.1.3-.26.51-.01.01-.02.03-.03.04-.24.32-.35.48-.59.83.46.11.69.16,1.14.27.21-.31.32-.45.54-.75.09,0,.13,0,.22,0,.4,0,.82.05,1.14.25.49.3.6.71.37,1.19-.22.31-.32.46-.54.78.46.1.68.16,1.14.27.22-.33.33-.48.56-.8.4.02,1.08.16,1.33.31.42.26.56.61.46,1.01,0,0-.06.19-.11.29-.04.08-.08.15-.14.23-.12.18-.19.28-.31.47.45.09.68.14,1.12.24.09-.14.13-.2.22-.34.08-.12.15-.25.2-.37Z"/>
            <path class="cls-25" d="m136.32,161.3c-.22-.11-.38-.32-.46-.51-.06-.15-.04-.3.03-.42.04-.07.14-.11.25-.13.13-.03.36-.03.49.04.11.06.15.14.15.26,0,.09,0,.13,0,.22,0,.09.08.13.17.08.15-.09.26-.2.34-.34.17-.28.11-.6-.13-.72-.24-.12-.68-.08-1.08.08-.25.1-.59.3-.77.6-.19.31-.08.59.14.84.03.03.04.04.07.07-.02,0-.31-.04-.54-.08-.05.07-.07.11-.12.17.05,0,.1.02.15.03.52.09,1.06.18,1.54.25.09.01.14.02.23.03.06-.08.08-.13.14-.21-.2-.07-.42-.16-.62-.26Z"/>
          </g>
        </g>
        <g>
          <path class="cls-9" d="m118.03,152.75c0-1.41-1-3.13-2.23-3.84l-39.75-22.95c-.22-.13-.43-.21-.63-.26,0,0-2.22-.67-3.63,1.97.36-.65,1.12-.8,2.01-.29l.03.02.97.56h0s.36.21.36.21h0s38.38,22.16,38.38,22.16c1.23.71,2.23,2.43,2.23,3.84v12.47c0,.7-.25,1.2-.65,1.43h0c1.73-.29,2.45-1.31,2.73-1.96.02-.04.04-.09.05-.13.1-.25.12-.42.12-.42h-.02c.01-.11.02-.22.02-.34v-12.47Z"/>
          <path class="cls-7" d="m115.77,166.65v-12.47c0-1.41-1-3.13-2.23-3.84l-38.38-22.16-.36-.21-.97-.56-.03-.02c-.88-.51-1.65-.36-2.01.29,0,0,0,0,0,0,0,0,0,0,0,0-.14.25-.22.58-.22.97v12.47c0,1.41,1,3.13,2.23,3.84l39.75,22.95c.62.36,1.18.39,1.58.16.4-.23.65-.72.65-1.43Z"/>
          <g>
            <polygon class="cls-3" points="82.18 138.96 83.92 138.92 83.59 140.94 84.99 143.31 83.05 142.51 82.18 144.03 81.32 141.52 79.38 140.08 80.78 139.32 80.45 136.92 82.18 138.96"/>
            <polygon class="cls-15" points="89.89 143.41 91.62 143.37 91.29 145.38 92.69 147.76 90.75 146.96 89.89 148.47 89.02 145.96 87.09 144.52 88.49 143.77 88.16 141.37 89.89 143.41"/>
            <polygon class="cls-15" points="97.64 147.88 99.37 147.84 99.04 149.86 100.44 152.23 98.5 151.44 97.64 152.95 96.77 150.44 94.84 149 96.24 148.24 95.91 145.84 97.64 147.88"/>
            <polygon class="cls-15" points="105.39 152.36 107.12 152.31 106.79 154.33 108.19 156.71 106.25 155.91 105.39 157.42 104.52 154.91 102.59 153.47 103.99 152.72 103.66 150.31 105.39 152.36"/>
          </g>
        </g>
        <path class="cls-16" d="m68.56,57.74s0,.03,0,.04c0-.01,0-.03,0-.04Z"/>
        <polygon class="cls-20" points="3.74 94.61 3.74 94.61 3.74 94.61 3.74 94.61"/>
        <polygon class="cls-28" points="3.74 94.61 3.74 94.61 3.74 94.61 3.74 94.61"/>
      </g>
      <g>
        <ellipse class="cls-13" cx="56.93" cy="215.55" rx="8.46" ry="58.4" transform="translate(-165.91 222.52) rotate(-77)"/>
        <path class="cls-23" d="m76.78,82c-3.27.34.55,5.61,1.34,8.79.43,1.72,4.51.79,9.56-.52-.8-3.14-2.19-6.38-2.47-9.04-4.58.42-8.43.77-8.43.77Z"/>
        <path class="cls-8" d="m63.85,204.68c-.07.31-.18.6-.31.9-.76,1.54-2.24,2.64-3.76,3.45-1.92,1.05-4.05,1.77-6.22,2.17-1.61.29-5.51,1.92-5.77,2.13-.51.38-1.19.38-1.81.38-2.44-.02-4.34-.18-4.14-3.07.11-1.75.63-3.65,1.39-5.24.18-.4.43-.74.69-1.07.49-.58,1.12-1.07,1.75-1.52,1.34-1.01,3.04-2.55,4.86-2.15.96.2,1.45.6,2.51.54,1.19-.07,2.39-.29,3.56-.56,1.07-.25,2.1-.56,3.2-.65,1.07-.07,2.22.16,3.07.85.2.18.38.38.54.6.63.92.76,2.15.47,3.25Z"/>
        <path class="cls-8" d="m83.26,208.39c.02.76-.13,1.52-.47,2.19-.65,1.3-1.77,2.26-3.02,3.04-.25.13-.47.27-.72.4-1.95,1.05-4.05,1.77-6.22,2.15-1.61.29-5.53,1.95-5.8,2.15-.49.38-1.16.38-1.79.38-2.44-.02-4.34-.2-4.16-3.09.11-1.75.65-3.65,1.39-5.24.38-.83,1.03-1.48,1.75-2.04.22-.2.47-.38.72-.56,1.34-1.01,3.04-2.53,4.86-2.15.96.22,1.43.63,2.48.56,1.21-.07,2.42-.29,3.58-.58,1.05-.25,2.1-.56,3.18-.63,1.1-.07,2.24.13,3.07.83.22.18.4.38.56.6.04.09.11.16.13.25.29.51.45,1.1.47,1.72Z"/>
        <path class="cls-11" d="m85.68,211.17c-2.26,2.07-7.41,3.79-10.52,3.73-3.44-.06-23.9-1.97-26.55-3.88-2.02-1.45-3.71-3.31-5.77-4.72-.94-.65-7.58-2.33-8.75-2.49-.55-2.17,4.45-64.91,14.45-93.26,2.48-7.04-1.23-25.24-2.21-32.18-.13-.94-.82-4.15-.79-4.79.21-4.47,2.79-8.92,12.5-7.68l13.6,3.73c1.57.88,5.49,1.43,8.67,3.07.16.08.32.17.48.26,1.98,1.12.29,3.11.7,5.56,0,0-1.21,19.28-1.3,26.25-.08,5.47,4.75,86.4,5.49,106.39Z"/>
        <path class="cls-4" d="m85.68,211.26c-2.27,2.07-7.4,3.78-10.53,3.73-3.43-.05-23.89-1.97-26.56-3.88-2.02-1.46-3.7-3.3-5.75-4.71-.96-.66-7.59-2.34-8.75-2.49,0-2.47.68-9.1.96-15.4,3.16,4.82,4.17,8.41,4.5,9.9,10.53-25.85,6.52-38.5,7.43-55.78,3.96,22.51.03,48.6,1.23,57.33.5,3.63,3.55,7.11,7.21,6.98,4.91-.13,7.25-4.35,6.75-9.26-.48-4.89.23-12.39,1.24-17.21,0,8.72.73,16.62.93,20.17.2,3.55,2.4,7.21,5.92,7.84,11.32,2.01,10.85-27.42,10.22-35.81l-2.57-34.17c-.43-5.47-3.64-11.91-7.32-15.99-2.97-3.33-7.43-4.81-11.69-6.17,5.85-.4,11.16-5.06,12.27-10.84.93-4.69-.98-9.85-4.59-12.94.6-.68,1.34-1.36,2.24-2.09.53-.4.86-1.14,1.13-2.17.45-.6.86-1.26,1.16-1.94,1.06-2.34,1.41-4.91,2.22-7.31.15-.53.35-1.06.58-1.56.53-1.13,1.31-2.24,2.27-3.07,1.18-1.06,2.65-1.71,4.13-1.59.15.08.33.18.48.25,1.99,1.13.3,3.12.71,5.57,0,0-1.21,19.28-1.31,26.26-.08,5.47,4.4,86.87,5.49,106.38Z"/>
        <path class="cls-1" d="m59.51,65.84c0,3.13,5.48,3.97,9.67,4.4,0,0,.02,0,.02,0,.87-.79,1.35-1.55,1.35-1.55l.12-6.3-11.02-.96-.22,4.3s.08.07.08.1Z"/>
        <path class="cls-14" d="m75.44,41.83c-.47,2.79-.17,5.64-.03,8.46.15,2.82.12,5.74-.95,8.36-1.07,2.62-3.41,4.89-6.22,5.12-.67.06-1.37-.01-1.97-.32-1.18-.61-5.48.15-5.91-1.1-1.11-3.21,1.52-8.73,2.09-12.08.49-2.89,2.23-5.47,4.43-7.41,1.86-1.64,4.06-2.89,6.42-3.63l2.16,2.61Z"/>
        <path class="cls-8" d="m74.21,59.22c-.06-.05-2.14,1.13-2.92,1.58-.2.11-.33.19-.34.43,0,.1.02.22.06.34-.12.18,0,.45.2.49.03.05.06.1.08.14.05.06.14.12.22.1.57-.1,1.1-.68,1.44-1.11.21-.27.97-1.34,1.05-1.6.02-.05.2-.38.2-.38Z"/>
        <path class="cls-23" d="m76.26,74.04c-.03.08-.05.27-.08.35-.98.98-1.62,1.69-2.15,2.83-.23.5-.58,1.36-.73,1.89-.4.45-.83.71-1.28,1.11-1.34,1.18-1.41,5.27-2.07,7.96-.28,1.03-.6,1.86-1.13,2.27-.91.73-1.64,1.41-2.24,2.09-3.93,4.46-3.25,17.23-8.11,23.03-.58.68-5.72-18.83-6.83-30.31-.11-1.12-1.49-4.06-2.34-4.79-.58-.45-1.21-2.77-1.36-3.53-.33-1.89,4.43-.3,5.22.03,1.29.53,2.42,1.36,3.68,1.89,2.42,1.06,5.19,1.03,7.69.3,3.3-.98,6.2-3.2,8.01-6.1.33-.5.6-1.06,1.03-1.46.43-.4,1.06-.68,1.64-.55.55.15.98.68,1.13,1.23.15.58.08,1.18-.08,1.76Z"/>
        <path class="cls-11" d="m48.05,76.33c.21.35.97,3,1.25,3.28.05.05.12.16.23.32.44.74,1.45,2.49,1.52,2.66.53,1.39,1.09,3.9,1.69,6.95,0,.07,0,.12.02.18.72,8.52,3.79,22.02,5.99,25.5.39.61,1.42-4.35,2.53-7.12.78-1.87,1.8-9.97,2.56-11.89.95-2.33,1.78-4.22,2.29-4.53.14-.09,3.67-2.7,3.83-3.53.32-1.66-.35-2.82.88-7.8.25-1.02,5.13-5.54,5.36-5.96.23-.39,1.43-1.18,1.73-1.27.44-.12,2.52-.69,3.39-.35-.32-2.66-5.54-6.07-7.06-8.29-1.5-2.19-4.39-5.08-4.53-9.47.12-.44.21-.88.37-1.34.85-2.65,4.06-4.27,4.5-4.48,0,0,2.15-1.34,2.19-2.59.02-.88-.3-2.59-.37-2.84-.23-.88-.6-1.75-1.04-2.56-.07-.16-.18-.28-.3-.44-.32-.62-.78-1.2-1.34-1.73-.65-.74-1.43-1.36-2.29-1.85-3.97-2.22-9.03-1.85-13.09.16-2.45,1.18-4.62,2.96-5.89,5.33-.05.02-.05.07-.09.09-.23.46-.44.95-.62,1.41,0,.05-.02.09-.02.12-.09.21-.14.39-.23.62-.18.62-.35,1.29-.46,1.94-.42,2.1-.48,4.29-.74,6.4-.58,4.83-3.28,14.89-3.62,16.41-.69,3-.44,5.01,1.36,6.65Z"/>
        <path class="cls-8" d="m76.41,43.79c-.2.21-.4.4-.59.58-2.16,2.02-4.77,3.19-7.61,3.92-5.75,1.47-12.16,2.21-17.19-1.4-.3-.67-.09-1.54.48-1.96.01,0,.03.02.04.03,4.52,3.57,10.9,2.27,16.01.96,2.42-.62,4.68-1.56,6.52-3.29.47-.44.91-.92,1.31-1.43.86.38,1.41,1.33,1.02,2.59Z"/>
        <path class="cls-8" d="m75.16,40.93l-.03.03c-1.5,2.11-4.65,3.8-7.35,4.51-5.41,1.43-11.41,2.6-16.17-.89-.14-.4-.04-1.27.74-1.67,4.25,3.18,10.09,1.51,14.82.26,2.29-.6,4.37-1.8,6.1-3.49.18-.18.36-.36.53-.55.83.09,1.22.66,1.35,1.8Z"/>
        <path class="cls-4" d="m78.05,73.19c-.32.1-1.55.88-1.86,1.2-.28.29-.71.67-1.12,1.2-.42.76-1.02,1.08-1.72,1.75-.94.9-1.3,1.44-2.09,2.32.55-.86.84-3.45.9-4.49.17-2.82-.65-5.6-1.66-8.23-1.01-2.63-2.24-5.19-2.95-7.92-.7-2.73-.86-5.71.26-8.3-.93,6.56,1.25,13.49,5.77,18.34.71.76,3.82,3.33,4.47,4.14Z"/>
        <path class="cls-4" d="m49.53,79.93c.44.74,1.45,2.49,1.52,2.66.53,1.39,1.09,3.9,1.69,6.95-1.15-9.56,1.25-26.3,3.81-33.96-.9,1.85-1.78,3.74-2.24,5.75-.58,2.59-1.27,6.14-1.39,8.8-.09,2.66-.02,4.8-1.29,6.7-.37.55-1.32,2.26-2.1,3.12Z"/>
        <path class="cls-4" d="m63.03,92.31c0,1.34.3,2.65.81,3.91-.76,1.92-.92,6.43-1.7,8.32.08-.18-.02-3.7.03-3.88.33-1.46-.3-2-.35-3.49-.2-4.94.35-11.49,4.59-25.68-1.36,5.9-3.43,13.3-3.38,20.81Z"/>
        <path class="cls-11" d="m84.03,110.38c-3.45.8-6.86-1.23-7.95-4.54v-.05c-.05-.17-.1-.36-.14-.56l-1.79-8.21c-.85-7.63-1.96-15.53,2.13-22.1.75-1.14,1.79-1.79,2.92-2.05.8-.14,1.64-.12,2.46.1.87.87,1.5,1.98,1.79,3.28l3.79,20.67.41,2.22.7,3.84c.82,3.67-.68,6.54-4.32,7.39Z"/>
        <path class="cls-26" d="m106.33,84.71l.14-.09c0,.14-.07.24-.15.28l-.13.09c.08-.04.14-.14.14-.28h0Z"/>
        <path class="cls-14" d="m107.98,84.26c.18-.24.31-.52.13-.75-.54-.71-3.39,1.73-3.96,2.2-1.02.81-2.31,1.59-3.31,2.41.04-.12-1.54.88-1.97,1.27-.68.63-.31,1.34-.72,1.93l-3.39,1.98c.56,1.25,2.13,1.76,3.35,2.83.27.23,1.02.69,1.33.91l2.12-1.82c.78-.41,1.93-.77,2.68-1.34,5-3.78,2.68-4.64,1.08-6.76-.2-.26,2.53-2.75,2.67-2.86Z"/>
        <path class="cls-11" d="m101.49,96.59c-5.39,5.63-11.74,11.21-16.3,14.25-3.45,2.29-7.87,0-8.94-4.25-.07-.27-.12-.53-.17-.75v-.05c-.41-2.75,1.69-1.96,4.06-4.59,0,0,2.03-1.21,4.69-2.8.77-.46,1.59-.97,2.41-1.47,3.72-2.25,7.87-4.76,9.68-6.01.17.22.7.85,1.33,1.59,1.23,1.47,2.87,3.45,3.24,4.08Z"/>
        <path class="cls-4" d="m98.25,92.51c-2.32,1.69-4.73,3.21-7.22,4.59-1.16.65-2.34,1.26-3.38,2.05-.46.31-.89.68-1.28,1.06-1.26,1.28-2.1,2.92-2.75,4.59.22-2.17.89-4.27,1.21-6.4.14-1.01.22-2.03.12-3.04-.14-1.57-.65-3.04-1.11-4.54-1.28-4.13-2.22-8.38-2.8-12.68-.22-1.76-.43-3.65-1.57-5-.07-.1-.17-.19-.27-.27.8-.14,1.64-.12,2.46.1.87.87,1.5,1.98,1.79,3.28l3.79,20.67c3.72-2.25,7.87-4.76,9.68-6.01.17.22.7.85,1.33,1.59Z"/>
      </g>
    </g>
  </g>
</svg>