<svg width="1920" height="1653" viewBox="0 0 1920 1653" fill="none" xmlns="http://www.w3.org/2000/svg">
<path d="M1373.28 1363.37C1375.49 1363.37 1377.28 1361.58 1377.28 1359.37C1377.28 1357.16 1375.49 1355.37 1373.28 1355.37C1371.07 1355.37 1369.28 1357.16 1369.28 1359.37C1369.28 1361.58 1371.07 1363.37 1373.28 1363.37Z" fill="black"/>
<path d="M558.29 1150.3C560.499 1150.3 562.29 1148.51 562.29 1146.3C562.29 1144.09 560.499 1142.3 558.29 1142.3C556.081 1142.3 554.29 1144.09 554.29 1146.3C554.29 1148.51 556.081 1150.3 558.29 1150.3Z" fill="black"/>
<path d="M675.02 1391.74C677.229 1391.74 679.02 1389.95 679.02 1387.74C679.02 1385.53 677.229 1383.74 675.02 1383.74C672.811 1383.74 671.02 1385.53 671.02 1387.74C671.02 1389.95 672.811 1391.74 675.02 1391.74Z" fill="black"/>
<path d="M52.45 1376.28C54.6591 1376.28 56.45 1374.49 56.45 1372.28C56.45 1370.07 54.6591 1368.28 52.45 1368.28C50.2408 1368.28 48.45 1370.07 48.45 1372.28C48.45 1374.49 50.2408 1376.28 52.45 1376.28Z" fill="black"/>
<path d="M539.89 1227.3C542.099 1227.3 543.89 1225.51 543.89 1223.3C543.89 1221.09 542.099 1219.3 539.89 1219.3C537.681 1219.3 535.89 1221.09 535.89 1223.3C535.89 1225.51 537.681 1227.3 539.89 1227.3Z" fill="black"/>
<path d="M994.58 1088.68C996.789 1088.68 998.58 1086.89 998.58 1084.68C998.58 1082.47 996.789 1080.68 994.58 1080.68C992.371 1080.68 990.58 1082.47 990.58 1084.68C990.58 1086.89 992.371 1088.68 994.58 1088.68Z" fill="black"/>
<path d="M1177.52 1039.57C1179.73 1039.57 1181.52 1037.78 1181.52 1035.57C1181.52 1033.36 1179.73 1031.57 1177.52 1031.57C1175.31 1031.57 1173.52 1033.36 1173.52 1035.57C1173.52 1037.78 1175.31 1039.57 1177.52 1039.57Z" fill="black"/>
<path d="M1406.53 1204.66C1408.74 1204.66 1410.53 1202.87 1410.53 1200.66C1410.53 1198.45 1408.74 1196.66 1406.53 1196.66C1404.32 1196.66 1402.53 1198.45 1402.53 1200.66C1402.53 1202.87 1404.32 1204.66 1406.53 1204.66Z" fill="black"/>
<path d="M1793.7 1196.5C1795.91 1196.5 1797.7 1194.71 1797.7 1192.5C1797.7 1190.29 1795.91 1188.5 1793.7 1188.5C1791.49 1188.5 1789.7 1190.29 1789.7 1192.5C1789.7 1194.71 1791.49 1196.5 1793.7 1196.5Z" fill="black"/>
<path d="M52.45 1370.78L319.89 1538L925.92 994.94L558.29 1146.2L351 993.94L675.02 1388.68L1487.49 993.94L1177.52 1035.57L1481.03 1534.99L1406.53 1200.93L926.37 1537.5L1793.7 1191.26L994.49 1084.23L52.45 1370.78Z" stroke="#887C7C" stroke-width="0.25" stroke-miterlimit="10"/>
<path d="M297.94 1319.15L294.27 1319.49C293.74 1318.83 293.42 1318.13 293.22 1317.39C293.18 1317.23 293.15 1317.06 293.12 1316.89L293.59 1316.62L297.94 1319.15Z" fill="#FFC29F"/>
<path d="M299.21 1320.91C298.62 1321.22 297.94 1321.39 297.26 1321.37L294.48 1319.75L294.47 1319.74C294.4 1319.66 294.33 1319.58 294.27 1319.49L297.94 1319.15L299.16 1319.86L299.19 1320.45L299.21 1320.91Z" fill="#FFC29F"/>
<path d="M297.26 1321.37C296.87 1321.36 296.48 1321.29 296.11 1321.16C295.89 1321.01 295.68 1320.86 295.49 1320.71C295.24 1320.51 295 1320.3 294.8 1320.09C294.68 1319.98 294.57 1319.86 294.48 1319.75L297.26 1321.37Z" fill="#FFC29F"/>
</svg>
