<?xml version="1.0" encoding="UTF-8"?>
<svg id="Layer_1" data-name="Layer 1" xmlns="http://www.w3.org/2000/svg" viewBox="0 0 1749.25 548.41">
  <defs>
    <style>
      .cls-1 {
        fill: none;
        stroke: #a5a5a5;
        stroke-miterlimit: 10;
        stroke-width: .25px;
      }

      .cls-2 {
        fill: #ffc29f;
      }
    </style>
  </defs>
  <circle cx="1324.82" cy="369.62" r="4"/>
  <circle cx="509.83" cy="156.55" r="4"/>
  <circle cx="626.57" cy="397.99" r="4"/>
  <circle cx="4" cy="382.53" r="4"/>
  <circle cx="491.43" cy="233.55" r="4"/>
  <circle cx="946.13" cy="94.93" r="4"/>
  <circle cx="1129.07" cy="45.82" r="4"/>
  <circle cx="1358.08" cy="210.91" r="4"/>
  <circle cx="1745.25" cy="202.75" r="4"/>
  <rect x="278.69" y="4.19" width="111" height="1"/>
  <rect x="1388.66" y="4.19" width="111" height="1"/>
  <polygon class="cls-1" points="4 381.03 271.44 548.25 877.47 5.19 509.83 156.45 302.55 4.19 626.57 398.93 1439.04 4.19 1129.07 45.82 1432.58 545.24 1358.08 211.18 877.92 547.75 1745.25 201.51 946.04 94.48 4 381.03"/>
  <path d="m893.9,4.41c-9.21,0-11.4-1.89-13.37-3.06-.7-.54-1.58-.86-2.53-.86-.3,0-.58.03-.86.09,0,0-.23.06-.34.09-.02,0-.05.01-.07.02-2.76.85-3.46,3.71-14.79,3.71v.54c11.33,0,12.03,2.86,14.79,3.71.02,0,.05.02.07.02.11.03.22.06.34.09h0c.28.06.57.09.86.09.95,0,1.83-.32,2.53-.86,1.98-1.17,4.16-3.06,13.37-3.06v-.54Z"/>
  <path d="m1449.77,3.91c-9.21,0-11.4-1.89-13.37-3.06-.7-.54-1.58-.86-2.53-.86-.3,0-.58.03-.86.09,0,0-.23.06-.34.09-.02,0-.05.01-.07.02-2.76.85-3.46,3.71-14.79,3.71v.54c11.33,0,12.03,2.86,14.79,3.71.02,0,.05.02.07.02.11.03.22.06.34.09h0c.28.06.57.09.86.09.95,0,1.83-.32,2.53-.86,1.98-1.17,4.16-3.06,13.37-3.06v-.54Z"/>
  <path d="m323.42,3.91c-9.21,0-11.4-1.89-13.37-3.06-.7-.54-1.58-.86-2.53-.86-.3,0-.58.03-.86.09h0c-.12.03-.23.06-.34.09-.02,0-.05.01-.07.02-2.76.85-3.46,3.71-14.79,3.71v.54c11.33,0,12.03,2.86,14.79,3.71.02,0,.05.02.07.02.11.03.22.06.34.09h0c.28.06.57.09.86.09.95,0,1.83-.32,2.53-.86,1.98-1.17,4.16-3.06,13.37-3.06v-.54Z"/>
  <rect x="792.98" y="4.19" width="111" height="1"/>
  <path class="cls-2" d="m249.43,324.41l-2.27,1.3,5.5,3.2c-.23.49-.46.92-.69,1.26-.12.16-.26.3-.41.43l-.86-.49-.04-.82-.53.05-.65.06-4.35-2.53-.47.27c-.03-.15-.06-.3-.08-.45-.02-.15-.03-.31-.04-.46-.03-.36-.06-.88-.1-1.38-.03-.45-.06-.9-.09-1.21v-.02h0c3.01-3.27,5.89-3.61,8.52-2.55,1.62.57,1.39,3.26.62,5.7l-4.06-2.36Z"/>
  <path class="cls-2" d="m249.48,329.4l-3.67.34c-.53-.66-.85-1.36-1.05-2.1-.04-.16-.07-.33-.1-.5l.47-.27,4.35,2.53Z"/>
  <path class="cls-2" d="m250.75,331.16c-.59.31-1.27.48-1.95.46l-2.78-1.62s-.01-.01-.01-.01c-.07-.08-.14-.16-.2-.25l3.67-.34,1.22.71.03.59.02.46Z"/>
  <path class="cls-2" d="m248.8,331.62c-.39-.01-.78-.08-1.15-.21-.22-.15-.43-.3-.62-.45-.25-.2-.49-.41-.69-.62-.12-.11-.23-.23-.32-.34l2.78,1.62Z"/>
  <polygon class="cls-2" points="250.7 330.11 249.48 329.4 250.13 329.34 250.66 329.29 250.7 330.11"/>
  <path class="cls-2" d="m251.56,330.6c-.24.22-.51.41-.81.56l-.02-.46-.03-.59.86.49Z"/>
  <path class="cls-2" d="m253.49,326.77c-.23.76-.53,1.5-.83,2.14l-5.5-3.2,2.27-1.3,4.06,2.36Z"/>
</svg>