<svg width="1920" height="568" viewBox="0 0 1920 568" fill="none" xmlns="http://www.w3.org/2000/svg">
<g clip-path="url(#clip0_12_36)">
<path d="M1498 416.16C1498.3 411.74 1532.36 406.85 1539.79 412.14C1545.8 416.41 1532.75 420.56 1522.49 421.93C1511.44 423.4 1497.81 418.77 1497.99 416.16H1498Z" fill="#EDEEF2"/>
<path d="M166.99 510.07C169.64 503.38 199.87 502.4 208.76 514.25C215.94 523.83 193.71 523.79 177.18 520.84C159.36 517.66 165.43 514.03 167 510.07H166.99Z" fill="#EDEEF2"/>
<path d="M180.35 439.36C191.66 424.88 274.8 459.4 277.6 488.4C279.86 511.83 242.5 506.3 217.72 495.56C191.01 483.98 173.66 447.93 180.35 439.37V439.36Z" fill="#EDEEF2"/>
<path d="M1265.01 423.19C1266.44 397.63 1427.87 369.38 1463.11 399.95C1491.59 424.65 1429.73 448.66 1381.13 456.57C1328.75 465.09 1264.17 438.32 1265.01 423.2V423.19Z" fill="#EDEEF2"/>
<path d="M0 558.06V419.51C67.09 416.05 128.61 422.6 155.03 445.52C210.51 493.64 96.28 540.47 0 558.06Z" fill="#EDEEF2"/>
<g style="mix-blend-mode:multiply">
<path d="M0 397.21V-9H536.84C543.73 -4.19 628.76 -2.96 634.78 2.26C819.89 162.81 543.61 319.85 221.67 411.47C41.58 330.88 0 397.21 0 397.21Z" fill="#00495E"/>
</g>
<path d="M634.78 2.26C628.76 -2.96 558.89 -4.19 552 -9H1920V422.21C1920 422.21 1846 496.21 1700 435.66C1565.63 379.93 1526.36 308.35 1299.3 359.81C1264.85 367.61 1226.08 378.25 1182 392.21C923 474.21 686 657.21 278 439.21C257.86 428.45 239.12 419.27 221.67 411.47C543.61 319.85 819.89 162.81 634.78 2.26Z" fill="#004E63"/>
<g style="mix-blend-mode:multiply">
<path d="M1299.3 359.81C1310.84 280.44 1650.79 196.42 1920 193.52V422.21C1920 422.21 1846 496.21 1700 435.66C1565.63 379.93 1526.36 308.35 1299.3 359.81Z" fill="#EDEEF2"/>
</g>
</g>
<defs>
<clipPath id="clip0_12_36">
<rect width="1920" height="567.06" fill="white"/>
</clipPath>
</defs>
</svg>
