<?xml version="1.0" encoding="UTF-8"?>
<svg id="Layer_1" data-name="Layer 1" xmlns="http://www.w3.org/2000/svg" viewBox="0 0 17.21 15.91">
  <defs>
    <style>
      .cls-1 {
        fill: #004e63;
        fill-rule: evenodd;
      }
    </style>
  </defs>
  <path class="cls-1" d="m16.34,11.29c-.43-.21-2.51-1.23-2.89-1.37-.39-.15-.67-.21-.95.21-.28.42-1.1,1.37-1.34,1.64-.25.28-.49.32-.92.11-.42-.21-1.79-.65-3.4-2.09-1.25-1.11-2.11-2.48-2.35-2.9-.24-.42-.02-.65.19-.86.19-.19.42-.49.64-.74.06-.07.11-.14.15-.2.1-.15.17-.3.27-.5.15-.28.07-.53-.03-.74-.11-.21-.95-2.28-1.31-3.12C4.03-.11,3.67.04,3.42.04s-.53-.04-.81-.04-.74.11-1.13.53c-.39.42-1.48,1.44-1.48,3.51,0,.49.09.97.22,1.43.43,1.48,1.35,2.7,1.51,2.91.21.27,2.93,4.66,7.23,6.35,4.31,1.67,4.31,1.12,5.09,1.04.78-.07,2.51-1.01,2.85-2,.36-.98.36-1.82.25-2-.11-.17-.39-.27-.81-.49Z"/>
</svg>