<?xml version="1.0" encoding="UTF-8"?>
<svg id="Layer_1" data-name="Layer 1" xmlns="http://www.w3.org/2000/svg" viewBox="0 0 41.71 41.71">
  <defs>
    <style>
      .cls-1 {
        fill: #f8f8f8;
      }
    </style>
  </defs>
  <g>
    <g>
      <rect class="cls-1" x="12.25" y="16.54" width="3.71" height="11.98"/>
      <path class="cls-1" d="m14.09,14.97c1.21,0,2.19-.99,2.19-2.21s-.98-2.21-2.19-2.21-2.19.99-2.19,2.21.98,2.21,2.19,2.21Z"/>
    </g>
    <path class="cls-1" d="m21.89,22.23c0-1.68.78-2.69,2.26-2.69,1.36,0,2.02.96,2.02,2.69v6.29h3.69v-7.59c0-3.21-1.82-4.76-4.36-4.76s-3.61,1.98-3.61,1.98v-1.61h-3.56v11.98h3.56v-6.29Z"/>
  </g>
  <path class="cls-1" d="m20.86,41.71C9.36,41.71,0,32.36,0,20.86S9.36,0,20.86,0s20.86,9.36,20.86,20.86-9.36,20.86-20.86,20.86Zm0-39.95C10.33,1.76,1.76,10.33,1.76,20.86s8.57,19.09,19.09,19.09,19.09-8.57,19.09-19.09S31.39,1.76,20.86,1.76Z"/>
</svg>