<?xml version="1.0" encoding="UTF-8"?>
<svg id="Layer_1" data-name="Layer 1" xmlns="http://www.w3.org/2000/svg" viewBox="0 0 25.25 25.25">
  <defs>
    <style>
      .cls-1 {
        fill: #f8f8f8;
      }
    </style>
  </defs>
  <path class="cls-1" d="m12.63,2.27c3.37,0,3.77.01,5.1.07,1.23.06,1.9.26,2.34.43.59.23,1.01.5,1.45.94.44.44.72.86.94,1.45.17.45.38,1.11.43,2.34.06,1.33.07,1.73.07,5.1s-.01,3.77-.07,5.1c-.06,1.23-.26,1.9-.43,2.34-.23.59-.5,1.01-.94,1.45s-.86.72-1.45.94c-.45.17-1.11.38-2.34.43-1.33.06-1.73.07-5.1.07s-3.77-.01-5.1-.07c-1.23-.06-1.9-.26-2.34-.43-.59-.23-1.01-.5-1.45-.94-.44-.44-.72-.86-.94-1.45-.17-.44-.38-1.11-.43-2.34-.06-1.33-.07-1.73-.07-5.1s.01-3.77.07-5.1c.06-1.23.26-1.9.43-2.34.23-.59.5-1.01.94-1.45.44-.44.86-.72,1.45-.94.44-.17,1.11-.38,2.34-.43,1.33-.06,1.73-.07,5.1-.07m0-2.27c-3.43,0-3.86.01-5.21.08-1.34.06-2.26.27-3.06.59-.83.32-1.53.75-2.24,1.46-.7.7-1.13,1.41-1.46,2.24-.31.8-.53,1.72-.59,3.06-.06,1.35-.08,1.78-.08,5.21s.01,3.86.08,5.21c.06,1.34.27,2.26.59,3.06.32.83.75,1.53,1.46,2.24s1.41,1.13,2.24,1.46c.8.31,1.72.53,3.06.59,1.35.06,1.78.08,5.21.08s3.86-.01,5.21-.08c1.34-.06,2.26-.27,3.06-.59.83-.32,1.53-.75,2.24-1.46.7-.7,1.13-1.41,1.46-2.24.31-.8.53-1.72.59-3.06.06-1.35.08-1.78.08-5.21s-.01-3.86-.08-5.21c-.06-1.34-.27-2.26-.59-3.06-.32-.83-.75-1.53-1.46-2.24-.7-.7-1.41-1.13-2.24-1.46-.8-.31-1.72-.53-3.06-.59-1.35-.06-1.78-.08-5.21-.08"/>
  <path class="cls-1" d="m12.63,6.14c-3.58,0-6.48,2.9-6.48,6.48s2.9,6.48,6.48,6.48,6.48-2.9,6.48-6.48-2.9-6.48-6.48-6.48m0,10.69c-2.32,0-4.21-1.88-4.21-4.21s1.88-4.21,4.21-4.21,4.21,1.88,4.21,4.21-1.88,4.21-4.21,4.21"/>
  <path class="cls-1" d="m20.88,5.89c0,.84-.68,1.52-1.52,1.52s-1.52-.68-1.52-1.52.68-1.52,1.52-1.52,1.52.68,1.52,1.52"/>
</svg>