<svg width="250" height="450" viewBox="0 0 250 450" fill="none" xmlns="http://www.w3.org/2000/svg">
<path d="M152.29 386.35C158.87 401.57 250.33 387.03 249.31 405.39C247.58 436.43 51.54 470.73 8.74999 433.61C-25.83 403.61 49.28 374.46 108.3 364.86C171.91 354.51 135.92 348.49 152.29 386.34V386.35Z" fill="#EDEEF2"/>
<path d="M240.31 371.309C239.8 380.419 182.29 390.479 169.74 379.589C159.59 370.789 181.63 362.239 198.95 359.419C217.61 356.379 240.62 365.919 240.32 371.309H240.31Z" fill="#EDEEF2"/>
<path opacity="0.5" d="M122.14 417.78C179.036 417.78 225.16 414.381 225.16 410.19C225.16 405.998 179.036 402.6 122.14 402.6C65.2436 402.6 19.12 405.998 19.12 410.19C19.12 414.381 65.2436 417.78 122.14 417.78Z" fill="url(#paint0_radial_123_18)"/>
<path d="M158.36 411.729L141.52 411.949C141.52 411.949 141.27 406.249 144.4 403.809C144.59 403.559 144.78 403.429 144.96 403.309C146.71 402.249 149.47 402.619 152.41 403.689C154.13 404.289 156.55 405.089 159.22 405.949C162.41 406.979 161.71 411.679 158.36 411.729Z" fill="#171716"/>
<path d="M82.38 411.929H97.64C98.36 411.929 98.84 411.179 98.54 410.529C97.28 407.849 93.99 402.279 88.57 402.789C85.33 403.089 82.65 408.039 81.49 410.519C81.19 411.179 81.66 411.929 82.38 411.929Z" fill="#171716"/>
<path d="M80.69 164.02C80.69 164.58 80.63 165.12 80.55 165.64C80.61 165.1 80.69 164.55 80.69 164.02Z" fill="#939496"/>
<path d="M135.54 155.19C144.23 151.03 137.6 82.4501 121.32 75.8401C107.64 72.9001 119.13 101.31 118.91 119.91C118.69 138.22 119.79 162.73 135.54 155.19Z" fill="#2D313F"/>
<path d="M133.39 186.229C131.12 186.259 128.22 187.959 128.22 187.959C128.22 187.959 129.02 190.249 129.45 191.929C129.59 192.449 129.68 192.919 129.71 193.229C129.82 194.549 129.48 195.719 129.18 196.289C128.87 196.859 128.18 198.759 128.01 199.699C127.85 200.629 127.46 202.159 127.46 202.159C127.46 202.159 126.59 203.109 126.4 203.249C126.21 203.389 125.35 203.619 125.17 204.219C124.99 204.819 125.74 205.199 126.1 205.169C126.46 205.139 126.86 205.389 127.34 205.099C127.73 204.859 128.5 204.019 128.79 203.699C128.79 203.699 128.79 203.699 128.79 203.689C128.85 203.619 128.89 203.579 128.89 203.579C128.89 203.579 129.06 203.809 129.08 204.159C129.08 204.219 129.08 204.289 129.08 204.349C129.03 204.819 128.04 205.899 128.04 205.899C127.84 205.839 126.73 206.269 126.73 206.269C126.44 206.329 126.1 206.419 125.93 206.539C125.65 206.749 125.5 207.319 125.9 207.699C125.94 207.749 125.99 207.799 126.06 207.829C126.733 208.115 127.7 208.019 128.96 207.539C129.44 207.359 129.76 207.129 130.31 206.459C130.86 205.789 131.01 205.399 131.28 205.759C131.54 206.119 130.97 209.369 128.47 210.769C127.64 211.229 127.4 212.559 127.92 212.719C127.92 212.719 131.03 210.659 131.61 209.879C131.8 209.619 132.51 208.679 132.81 208.009C133.12 207.329 133.22 206.159 133.83 206.779C134.44 207.389 134.36 208.799 134.2 209.879C134.1 210.569 133.97 213.839 134.12 214.839C134.2 215.389 134.41 215.769 134.85 215.699C135.37 215.619 136.06 211.159 136.15 210.429C136.3 209.149 136.56 208.559 136.53 207.259C136.5 205.959 136.75 202.559 136.75 202.559C136.75 202.559 138.48 205.189 140.37 204.469C141.57 204.009 138.36 202.639 138.3 200.909C138.23 200.629 138.16 200.309 138.08 199.959C138.01 199.649 137.91 199.329 137.8 199.009C137.49 198.189 136.44 195.599 135.88 194.069C135.81 193.879 135.75 193.709 135.69 193.549C135.22 192.179 133.4 186.249 133.4 186.249L133.39 186.229Z" fill="#FFC29F"/>
<path d="M130.83 197.579L137.73 196.749C137.74 196.459 137.78 196.119 137.76 195.759C137.79 195.419 137.78 195.059 137.81 194.599C138.15 185.949 139.56 164.739 138.76 151.569C138.64 149.859 138.51 148.329 138.35 146.959C138.32 146.769 138.26 146.629 138.26 146.509C137.99 145.149 137.58 143.839 137.04 142.549L136.22 140.709L136.17 140.689C132.32 137.799 127.25 141.989 125.04 146.319C122.76 150.679 129.56 194.779 130.69 197.349C130.77 197.439 130.79 197.509 130.82 197.579H130.83Z" fill="#2D313F"/>
<path d="M129.16 189.268L130.86 196.858L138.12 197.458L139.75 187.808C139.75 187.808 134.01 183.638 129.16 189.268Z" fill="#2D313F"/>
<g style="mix-blend-mode:multiply">
<path d="M129.16 189.268L130.86 196.858L138.12 197.458L139.75 187.808C139.75 187.808 134.01 183.638 129.16 189.268Z" fill="#DFE1E9"/>
</g>
<g style="mix-blend-mode:multiply">
<path d="M129.16 189.268L130.86 196.858L138.12 197.458L139.75 187.808C139.75 187.808 134.01 183.638 129.16 189.268Z" fill="#DFE1E9"/>
</g>
<path d="M58.76 394.039C58.88 394.849 59.01 395.669 59.19 396.479C59.38 397.229 59.51 398.049 59.69 398.739C60.01 400.239 60.38 401.489 60.76 402.799V402.859C60.76 402.859 62.63 403.049 66.08 403.179C69.28 403.369 73.78 403.429 79.22 403.309C80.6 403.309 81.98 403.239 83.35 403.119H83.48C84.17 403.119 84.86 403.049 85.61 402.989C86.79 402.929 87.99 402.859 89.24 402.739C91.11 402.609 92.99 402.369 95.06 402.179C95.43 402.179 95.87 402.049 96.31 402.049C96.74 401.979 97.19 401.919 97.56 401.859C97.99 401.789 98.43 401.729 98.87 401.729C99.3 401.669 99.68 401.599 100.12 401.539C101.87 401.219 103.62 400.979 105.44 400.729C107.26 400.409 109.07 400.039 110.95 399.719V399.659C120.46 397.759 131.2 398.929 141.9 398.319C145.04 398.139 148.16 397.809 151.25 397.209C156.71 396.129 162.04 394.209 167.09 390.759C167.09 390.759 125.16 226.009 135.42 144.079C135.42 143.879 135.49 143.639 135.49 143.389C135.49 143.139 135.55 142.889 135.55 142.699C136.74 133.809 138.56 125.799 141.05 118.909C141.05 118.909 124.59 69.9586 102.5 73.0786C80.34 76.2086 70.51 75.8286 70.51 75.8286C67.83 76.9586 65.57 77.8286 63.62 78.7086H63.5V78.7786C63.37 78.8386 63.13 78.8986 62.94 78.9686C62.75 79.0286 62.57 79.0886 62.38 79.2186C62.25 79.2186 62.19 79.2786 62.06 79.3486C62 79.3486 61.93 79.4086 61.87 79.4086C61.8 79.4086 61.74 79.4686 61.68 79.5386H61.61C61.42 79.5986 61.23 79.6586 61.05 79.7886C60.99 79.7886 60.93 79.7886 60.86 79.8486C60.55 79.9786 60.3 80.1686 60.05 80.3486C59.68 80.5386 59.3 80.7886 58.98 81.0386C58.85 81.1686 58.66 81.2286 58.55 81.4086L58.48 81.4686C58.42 81.5386 58.29 81.5986 58.23 81.6586C58.23 81.6586 58.16 81.5986 58.16 81.7286L57.97 81.9186C57.78 82.1086 57.6 82.2386 57.48 82.4186C57.4333 82.4186 57.39 82.4386 57.35 82.4786C57.22 82.6686 57.03 82.8486 56.92 83.0386C56.8733 83.0786 56.85 83.1219 56.85 83.1686C56.73 83.2286 56.73 83.2886 56.66 83.3586C56.66 83.4786 56.6 83.5486 56.6 83.6086V83.6686C56.53 83.8586 56.41 83.9886 56.34 84.1686C56.28 84.2386 56.22 84.2986 56.28 84.3586C56.22 84.4886 56.15 84.6186 56.15 84.7286C56.03 84.9886 55.96 85.0986 55.9 85.4186V85.4786C55.84 85.7386 55.77 85.9786 55.77 86.2386C55.71 86.4886 55.71 86.7986 55.71 87.0486V88.1186C55.71 88.3686 55.71 88.5486 55.77 88.8086C55.77 89.3686 55.77 89.9886 55.9 90.6286C55.96 91.1886 56.03 91.7486 56.15 92.3786C56.59 95.0086 58.09 97.8886 60.17 101.339C61.92 104.339 64.18 107.719 66.48 111.669C66.55 111.669 66.55 111.729 66.55 111.729C71.81 120.749 77.56 132.639 79.69 149.419C80.07 151.799 80.25 154.299 80.38 156.929C80.51 157.749 80.57 158.629 80.57 159.499C80.63 161.009 80.63 162.509 80.63 164.079V164.139C80.63 164.829 80.57 165.519 80.44 166.199C80.32 167.269 80.07 168.269 79.69 169.399C79.69 169.589 79.63 169.769 79.57 169.899C79.37 170.519 79.13 171.209 78.81 171.899C78.43 172.839 78.06 173.829 77.56 174.839V174.899H77.5C77.25 175.459 76.94 176.089 76.69 176.719H76.62C72.24 185.739 65.04 197.749 59.59 217.039C59.28 218.159 58.97 219.349 58.65 220.539C57.09 226.489 55.71 233.119 54.59 240.569C54.27 242.639 54.03 245.449 53.77 248.839C53.65 250.339 53.58 252.039 53.46 253.779C53.39 254.969 53.33 256.289 53.33 257.599C53.2 260.479 53.08 263.549 52.96 266.859V267.609C52.02 304.419 53.33 364.579 58.72 394.069L58.76 394.039Z" fill="#373C49"/>
<g style="mix-blend-mode:multiply">
<path d="M124.25 96.5292C113.16 102.659 100.64 104.619 100.64 104.619L100.3 101.239L99.51 98.6492L101.83 97.7692L102.02 97.7092L126.37 88.4492C127 89.8292 126.17 95.4692 124.25 96.5392V96.5292Z" fill="#DFE1E9"/>
</g>
<g style="mix-blend-mode:multiply">
<path d="M141.07 118.91C139.32 125.67 136.81 134.12 135.62 142.7C135.62 142.89 135.56 143.14 135.5 143.39C135.5 143.64 135.44 143.89 135.44 144.08C125.05 147.59 117.1 153.53 111.09 161.48C96.94 180.01 77.64 209.49 77.33 243.48V244.23C76.77 297.38 100.89 360.91 110.97 399.66V399.72C109.09 400.03 107.28 400.41 105.46 400.72C103.64 400.97 101.89 401.22 100.14 401.53C99.7 401.59 99.33 401.66 98.89 401.72C98.45 401.78 98.01 401.78 97.58 401.91C97.2 401.91 96.77 401.97 96.33 402.04C95.89 402.04 95.45 402.17 95.08 402.17C93.01 402.36 91.14 402.61 89.26 402.73C88.01 402.79 86.82 402.92 85.63 403.04C84.94 403.04 84.19 403.04 83.5 403.1H83.37C81.99 403.23 80.62 403.29 79.24 403.29C73.79 403.42 69.29 403.35 66.09 403.16C62.65 402.97 60.77 402.78 60.77 402.78C60.39 401.53 60.08 400.21 59.71 398.71C59.52 398.02 59.4 397.21 59.21 396.46C59.02 395.65 58.9 394.83 58.71 394.02C53.33 364.6 52.07 304.44 53.01 267.57V266.82C53.07 263.5 53.2 260.43 53.39 257.56C53.39 256.25 53.45 254.93 53.51 253.74C53.64 251.99 53.7 250.3 53.82 248.79C54.07 245.41 54.32 242.59 54.63 240.53C55.76 233.08 57.13 226.45 58.7 220.5C59.01 219.31 59.33 218.12 59.64 216.99C65.09 197.71 72.28 185.69 76.67 176.68C76.98 176.05 77.3 175.43 77.55 174.86L77.61 174.8C78.11 173.8 78.49 172.8 78.86 171.86C79.17 171.17 79.42 170.48 79.61 169.86C79.67 169.74 79.73 169.55 79.73 169.36C80.11 168.23 80.36 167.23 80.48 166.17C80.61 165.48 80.67 164.79 80.67 164.1V164.04C80.67 162.48 80.67 160.97 80.61 159.47C80.61 158.59 80.55 157.72 80.42 156.9C80.31 154.66 80.11 152.56 79.83 150.5C79.76 150.05 79.69 149.59 79.6 149.14C79.35 147.45 79.04 145.82 78.72 144.26C78.53 143.07 78.28 141.94 77.97 140.82C77.72 139.76 77.41 138.63 77.09 137.63C76.84 136.75 76.53 135.88 76.28 135C75.4 132.18 74.4 129.55 73.28 127.11C73.03 126.42 72.78 125.8 72.47 125.23C72.22 124.6 71.97 123.98 71.66 123.41C69.72 119.22 67.59 115.52 65.59 112.14C66.09 112.08 66.4 111.95 66.53 111.64C66.66 111.58 66.72 111.45 66.72 111.39C66.72 111.26 66.78 111.08 66.78 110.89C66.78 110.51 66.66 110.08 66.53 109.58C66.34 109.08 66.09 108.52 65.78 107.89C65.47 107.33 65.09 106.64 64.65 105.95C64.21 105.26 63.77 104.51 63.27 103.76C62.96 103.2 62.64 102.7 62.27 102.13C61.96 101.63 61.64 101.07 61.27 100.57C61.02 100.19 60.77 99.7596 60.52 99.3796C59.64 97.8796 58.77 96.3096 58.08 94.8096C57.77 94.3096 57.52 93.7496 57.27 93.2496C57.14 92.9996 57.08 92.8096 56.96 92.5596C56.71 91.8096 56.46 91.1196 56.27 90.4296C56.02 89.8696 55.89 89.3696 55.83 88.7996C55.77 88.5496 55.77 88.3596 55.77 88.1096C55.71 87.8596 55.71 87.6096 55.71 87.3596C55.71 87.2396 55.71 87.1696 55.77 87.0496C55.77 86.7996 55.77 86.4896 55.83 86.2396C55.83 85.9896 55.89 85.7396 55.96 85.4896V85.4296C56.02 85.3096 56.02 85.1796 56.02 85.0496C56.08 84.7996 56.15 84.6096 56.33 84.3596C56.27 84.2996 56.33 84.2296 56.39 84.1696C56.45 83.9796 56.58 83.8596 56.64 83.6696V83.6096L56.7 83.5496C56.76 83.4196 56.83 83.2996 56.89 83.1696C56.89 83.1296 56.91 83.0863 56.95 83.0396C57.2 82.8496 57.39 82.5996 57.51 82.4796V82.4196C57.64 82.2296 57.82 82.1096 58.01 81.9196L58.2 81.7296H58.26V81.6696C58.32 81.6096 58.45 81.5396 58.51 81.4796L58.57 81.4196C58.7 81.2896 58.88 81.1096 59.01 80.9796C59.39 80.7296 59.7 80.4796 60.07 80.3496C60.32 80.1596 60.57 79.9696 60.88 79.8496C60.94 79.7896 61.01 79.7896 61.07 79.7896C61.26 79.6596 61.45 79.5996 61.63 79.5396H61.69C61.75 79.4796 61.82 79.4196 61.88 79.4196C61.94 79.4196 62 79.3596 62.07 79.3596C62.2 79.2996 62.26 79.2296 62.38 79.2296C62.57 79.0996 62.76 79.0396 62.94 78.9796C63.13 78.9196 63.38 78.7896 63.5 78.7296H63.62C63.81 78.6696 64 78.6096 64.18 78.5396C65.62 78.0996 66.93 77.8496 68.19 77.8496C68.63 77.8496 69.13 77.8496 69.57 77.9096C74.7 78.7196 77.9 83.7896 80.34 90.0496V90.1096C83.09 96.9996 84.91 105.32 87.41 111.02C88.66 113.96 90.16 116.15 92.04 117.15C100.99 121.78 109.5 123.47 118.27 123.16H118.39C125.65 122.91 133.1 121.28 141.05 118.9L141.07 118.91Z" fill="#DFE1E9"/>
</g>
<path d="M80.69 164.02C80.69 164.71 80.62 165.36 80.5 166C80.59 165.34 80.69 164.67 80.69 164.02Z" fill="#C1C3C9"/>
<g style="mix-blend-mode:multiply">
<path d="M129.31 121.989C113.03 146.899 97.82 172.189 76.73 176.699C77.04 176.069 77.29 175.449 77.61 174.879V174.819C78.11 173.819 78.49 172.819 78.86 171.879C79.17 171.189 79.42 170.499 79.61 169.879C79.67 169.689 79.73 169.499 79.73 169.379C80.11 168.249 80.36 167.249 80.48 166.189C80.61 165.499 80.67 164.809 80.67 164.119V164.059C80.67 162.499 80.67 160.989 80.61 159.489C80.61 158.609 80.55 157.739 80.42 156.919C80.36 155.099 80.11 153.479 79.92 151.849C79.92 151.539 79.86 151.289 79.86 151.039C79.8 150.409 79.67 149.789 79.61 149.159C79.36 147.469 79.05 145.839 78.73 144.279C78.54 143.089 78.29 141.959 77.98 140.839C77.73 139.779 77.42 138.649 77.1 137.649C76.85 136.769 76.54 135.899 76.29 135.019C75.41 132.199 74.41 129.569 73.29 127.129C73.04 126.439 72.79 125.819 72.54 125.249C72.23 124.619 71.98 123.999 71.66 123.429C69.72 119.239 67.59 115.539 65.59 112.159C66.09 112.099 66.4 111.969 66.53 111.659C66.66 111.599 66.72 111.469 66.72 111.409C66.72 111.279 66.78 111.099 66.78 110.909C66.78 110.529 66.66 110.099 66.53 109.599C66.34 109.099 66.09 108.539 65.78 107.909C65.47 107.349 65.09 106.659 64.65 105.969C64.27 105.219 63.77 104.469 63.34 103.719C63.03 103.219 62.65 102.719 62.28 102.159C61.97 101.659 61.65 101.099 61.28 100.599C61.03 100.219 60.78 99.7894 60.53 99.4094C59.65 97.9094 58.78 96.3394 58.09 94.8394C57.84 94.4594 57.65 94.0894 57.53 93.7094C57.47 93.5794 57.4 93.3994 57.28 93.2694C57.15 93.0194 57.03 92.8294 56.97 92.5794C56.72 91.8294 56.47 91.1394 56.28 90.4494C55.97 89.3894 55.78 88.3794 55.78 87.4494V87.0694C55.78 86.8194 55.78 86.5094 55.84 86.2594C55.84 86.0094 55.9 85.7594 55.97 85.5094V85.4494C56.03 85.1394 56.1 85.0094 56.22 84.7594C56.22 84.6294 56.28 84.5094 56.35 84.3794C56.29 84.3194 56.35 84.2494 56.41 84.1894C56.47 83.9994 56.6 83.8794 56.66 83.6894V83.6294L56.72 83.5694C56.78 83.4394 56.85 83.3194 56.91 83.1894C56.91 83.1494 56.93 83.106 56.97 83.0594C57.22 82.8694 57.41 82.6194 57.53 82.4994C57.78 82.1894 58.03 81.9394 58.28 81.7494C58.34 81.6894 58.41 81.5594 58.53 81.4994L58.59 81.4394H58.65C58.78 81.3194 58.9 81.1894 59.03 81.0594C59.34 80.8094 59.72 80.5594 60.09 80.3694C60.34 80.1794 60.59 79.9894 60.9 79.8694C60.96 79.8094 61.03 79.8094 61.09 79.8094C61.28 79.6894 61.47 79.6194 61.65 79.5594H61.71C61.77 79.4994 61.84 79.4294 61.9 79.4294C61.96 79.4294 62.03 79.3694 62.09 79.3694C62.22 79.3094 62.28 79.2394 62.4 79.2394C62.59 79.1094 62.78 79.0494 62.96 78.9894C63.15 78.9294 63.4 78.8694 63.52 78.7994C63.58 78.7994 63.58 78.7394 63.64 78.7394C63.83 78.6794 64.02 78.6094 64.2 78.5494C65.64 78.0494 66.89 77.8594 68.21 77.8594C68.65 77.8594 69.15 77.8594 69.59 77.9194C71.28 78.1094 72.78 78.6694 74.28 79.4794C75.78 80.3594 77.22 81.4794 78.66 82.9194C81.66 85.8594 84.42 89.9294 87.24 94.2494L87.3 94.3094C90.12 98.6294 93 103.259 96.19 107.519C96.44 107.899 96.75 108.269 97 108.579C101.51 114.589 106.64 119.659 113.09 121.979C114.72 122.539 116.47 122.979 118.29 123.169H118.41C120.48 123.289 129.3 121.979 129.3 121.979L129.31 121.989Z" fill="#DFE1E9"/>
</g>
<g style="mix-blend-mode:multiply">
<path d="M94.25 162.62C84.4 164.7 47.16 100.18 56.6 83.6002C66.17 71.9702 73.62 105.02 85.44 121.26C97.07 137.25 112.11 158.85 94.26 162.62H94.25Z" fill="#DFE1E9"/>
</g>
<path d="M92.77 162.93C83.32 164.99 47.48 100.62 56.54 84.1501C65.73 72.6001 73.57 105.01 84.91 121.14C96.07 137.02 109.9 159.19 92.77 162.93Z" fill="#2D313F"/>
<g style="mix-blend-mode:multiply">
<path d="M102.52 138.519C103.9 139.579 104.49 135.629 105.99 135.699C108.6 143.339 99.51 144.969 98.2 139.709C96.76 134.139 92.13 123.179 85.68 111.669C79.23 100.279 71.03 88.3791 62.27 80.6191L65.34 81.0591L69.47 81.6191L78.67 82.9291L88 84.2391C93.38 88.3091 98.08 92.9991 101.83 97.7591C102.27 98.2591 98.14 107.279 97.01 108.589C94.63 110.969 93.75 115.229 94.51 121.919C95.39 129.429 98.58 135.629 102.46 138.509C102.46 138.569 102.52 138.509 102.52 138.509V138.519Z" fill="#DFE1E9"/>
</g>
<path d="M62.01 77.7388C62.28 80.2288 68.28 82.4988 82.47 94.7788C99.12 109.189 130.28 97.3188 126.47 87.3288C123.34 79.1288 108.76 73.2388 113.19 54.1288C117.21 36.7988 66.38 31.3688 66.77 34.6088C70.78 67.8888 61.1 69.3188 62.01 77.7388Z" fill="#2D313F"/>
<path d="M97.31 100.07C97.12 100.07 97 100.01 96.81 100.01C91.61 99.51 86.29 99.2 82.16 96.25C78.59 93.68 75.65 91.49 73.15 89.55C73.09 89.55 73.09 89.49 73.09 89.42C66.96 84.6 63.89 81.47 62.64 79.4V79.34C62.26 78.71 62.08 78.15 62.01 77.71C61.7 75.08 62.39 73.14 63.26 70.64C65.2 65.26 68.33 57.37 65.58 34.58C65.39 32.95 79.48 33.52 91.81 36.77C81.48 46.54 78.48 64.88 85.49 82.28C88.31 89.35 92.5 95.36 97.32 100.06L97.31 100.07Z" fill="#2D313F"/>
<path d="M121.02 38.3694C120.3 44.2194 119.07 50.1294 117.66 55.3894C117.64 55.4594 117.62 55.5294 117.6 55.5994C115.71 62.5694 113.49 68.3694 111.71 71.3094C111.59 71.5094 111.47 71.6894 111.36 71.8594C111.26 71.9994 111.16 72.1394 111.05 72.2694C104.78 80.0094 78.19 72.4394 73.48 66.0094C73.44 65.9494 73.39 65.8894 73.35 65.8394C73.28 65.7294 73.21 65.6194 73.15 65.5094C73.02 65.2794 72.9 65.0494 72.77 64.8094C70.5 60.6194 67.53 54.1194 65.43 46.6694C64.43 35.2694 65.62 22.2294 71.32 12.3694C74.98 5.78937 80.48 2.17937 86.5 0.749371C86.78 0.619371 87.05 0.489371 87.32 0.369371C87.31 0.439371 87.3 0.499371 87.29 0.569371C93.34 -0.680629 99.85 0.209371 105.51 2.43937C109.68 4.17937 113.34 6.48937 115.96 9.06937C116.15 9.25937 116.34 9.44937 116.52 9.63937C116.7 9.82937 116.87 10.0194 117.04 10.2194C121.89 15.8094 122.42 26.9594 121.02 38.3694Z" fill="#EDEEF2"/>
<path d="M115.96 17.9694C115.96 17.9694 115.98 17.7994 116 17.4994C113.66 12.8594 109.55 9.30937 102.86 7.44937C98.2 7.50937 94.07 9.18937 90.77 13.2594C87.71 18.7894 86.69 24.6694 87.08 30.7894C87.08 30.7894 96.38 4.29937 115.96 17.9794V17.9694ZM120.69 16.3994C120.17 14.7494 119.6 13.1594 117.04 10.2194C116.87 10.0194 116.7 9.82937 116.52 9.63937C116.34 9.44937 116.15 9.25937 115.96 9.06937C113.24 6.34937 109.59 4.04937 105.51 2.43937C99.85 0.209371 93.34 -0.680629 87.29 0.569371C87.03 0.619371 86.77 0.679371 86.5 0.749371C80.48 2.17937 74.98 5.78937 71.32 12.3694C61.08 30.7494 67.24 54.3294 72.77 64.8094C72.9 65.0494 73.02 65.2794 73.15 65.5094C73.21 65.6194 73.28 65.7294 73.35 65.8394C73.39 65.8894 73.44 65.9494 73.48 66.0094C75.4 68.4794 81.32 70.9294 88.07 72.4794C93.26 73.6594 98.93 74.3094 103.66 74.0294C106.62 73.8394 109.2 73.2994 111.05 72.2694C111.09 72.2694 111.12 72.2394 111.15 72.2194C111.32 72.1294 111.47 72.0294 111.63 71.9194H111.64C112.73 71.1894 113.5 70.2494 113.85 69.0994C114.35 67.4294 115.96 62.2594 117.6 55.5994C117.62 55.5294 117.64 55.4594 117.66 55.3894C118.91 50.2794 120.19 44.3094 121.02 38.3694C122.17 30.1994 122.46 22.0894 120.69 16.3994Z" fill="#2D313F"/>
<path d="M113.25 89.8491C103.33 87.0091 74.89 75.4491 71.2 69.0591C68.64 64.6191 66.27 56.2191 65.43 46.6691C64.43 35.2691 65.62 22.2291 71.32 12.3691C74.28 7.24914 81.2 3.20914 86.5 0.749141C86.78 0.619141 87.05 0.489141 87.32 0.369141C87.31 0.439141 87.3 0.499141 87.29 0.569141C86.34 6.65914 79.73 11.6691 81.01 18.4791C85.41 42.1591 100.36 52.9091 117.04 52.2491C113.95 59.9391 112.39 66.2291 111.71 71.3091C111.68 71.5191 111.66 71.7191 111.64 71.9191H111.63C109.96 85.6691 114.87 90.3091 113.25 89.8491Z" fill="#2D313F"/>
<path opacity="0.8" d="M106.03 79.8791L94.66 59.5591L115.53 49.8691L106.03 79.8791Z" fill="#151723"/>
<path d="M98.51 64.1893C98.81 64.3193 99.1 64.4493 99.4 64.5593C101.16 65.2493 102.96 65.6693 104.72 65.8093C110.34 63.2893 113.99 56.5493 116.18 49.3893C117.62 44.6593 118.4 39.7593 118.69 35.7693C118.72 35.3893 118.74 34.9993 118.76 34.6393C121.44 21.1693 119.77 14.3493 115.32 10.8593C112.96 9.00927 109.83 8.09927 106.15 7.60927C105.03 7.45927 103.94 7.39927 102.85 7.40927C109.55 9.27927 113.66 12.8293 115.99 17.4693C115.97 17.7793 115.95 17.9493 115.95 17.9493C96.37 4.26927 87.07 30.7593 87.07 30.7593C86.68 24.6393 87.71 18.7593 90.76 13.2193C88.84 15.5893 87.19 18.7793 85.89 22.9193C85.08 25.5093 84.39 28.4593 83.85 31.8393C81.22 48.4193 89.23 60.0393 98.49 64.1693L98.51 64.1893Z" fill="#FFC29F"/>
<path d="M84.18 68.9191L89 72.4691L112.79 89.9891C110.26 84.6791 107.42 79.3391 104.59 74.0191C102.85 70.7291 101.56 67.1791 99.44 64.1891C93.62 55.9791 89.88 50.3691 88.02 30.7691C87.44 24.6691 88.65 18.7691 91.71 13.2391C93.59 9.82906 96.25 6.53906 99.82 3.40906C100.24 3.02906 100.68 2.65906 101.13 2.28906C100.99 2.34906 100.21 2.68906 98.99 3.31906C96.07 4.81906 90.6 7.92906 85.34 12.6391C73.41 23.2891 62.48 42.1391 84.19 68.9191H84.18Z" fill="#2D313F"/>
<g style="mix-blend-mode:multiply">
<path d="M80.19 42.9492C77.27 30.5792 79 15.3792 86.95 4.19922C65.38 24.2292 65.19 52.1792 99.19 74.0992C93.34 65.7092 83.06 55.1292 80.19 42.9492Z" fill="#DFE1E9"/>
</g>
<g style="mix-blend-mode:multiply">
<path d="M92.55 7.50882C96.71 5.07882 102.41 4.01882 107.35 5.66882C97.7 0.0688186 87.54 3.09882 83.37 17.8588C85.76 14.8088 88.46 9.90882 92.55 7.51882V7.50882Z" fill="#DFE1E9"/>
</g>
<path d="M116 17.4895C120.2 25.8195 118.69 37.6195 116.18 49.3995C114.48 57.3795 112.31 65.3495 111.15 72.2195C109.8 80.0895 109.77 86.5195 113.25 89.8495L113 72.9495C118.91 55.0495 125.19 25.1695 120.69 16.3995C119.15 13.3895 117.13 11.3095 114.96 9.86949C108.56 5.59949 100.92 6.93949 100.92 6.93949C101.59 7.08949 102.24 7.24949 102.86 7.42949C109.55 9.28949 113.66 12.8495 116 17.4795V17.4895Z" fill="#2D313F"/>
<g style="mix-blend-mode:multiply">
<path d="M143.02 183.549L96.2 165.709C90.44 163.519 85.83 160.289 82.76 154.969L79.44 150.459L84.59 155.789L86.91 158.129C88.04 159.319 89.21 160.019 90.52 160.949C90.64 161.009 90.77 161.139 90.96 161.259C92.46 162.259 94.01 162.809 95.7 163.559C109.28 170.699 132.45 179.269 141.77 183.029C142.27 183.219 142.65 183.409 143.02 183.529V183.549Z" fill="#DFE1E9"/>
</g>
<g style="mix-blend-mode:multiply">
<path d="M142.14 183.529C132.81 179.769 109.65 171.199 96.07 164.059L142.14 183.529Z" fill="#DFE1E9"/>
</g>
<g style="mix-blend-mode:multiply">
<path d="M91.39 86.1797C91.39 86.1797 101.06 93.0297 107.65 92.8897C107.65 92.8897 104.32 95.1197 98.52 92.6497C92.71 90.1797 91.4 86.1797 91.4 86.1797H91.39Z" fill="#DFE1E9"/>
</g>
<path d="M148.59 177.459L144.46 184.469C144.15 184.339 143.77 184.219 143.4 184.029C143.02 183.899 142.65 183.719 142.15 183.529C132.82 179.769 109.66 171.199 96.08 164.059C94.33 163.119 92.76 162.239 91.39 161.429C91.2 161.299 91.08 161.179 90.95 161.119C89.64 160.179 88.45 159.119 87.32 157.929L85.76 156.179V156.119C84.51 150.609 91.33 147.169 96.97 146.859C102.67 146.479 146.24 174.779 148.43 177.219C148.49 177.349 148.55 177.409 148.62 177.469L148.59 177.459Z" fill="#2D313F"/>
<path d="M100.64 101.239C98.7 101.049 109.64 140.529 105.95 142.029C103.07 143.159 102.44 147.419 92.55 123.989C92.49 124.049 91.18 122.069 91.11 122.069C90.48 122.319 85.98 111.579 85.42 111.709C83.42 112.399 81.66 112.839 80.29 112.899C79.73 112.899 79.23 112.839 78.85 112.709C70.9 110.389 64.83 104.379 60.7 98.6888C59.45 96.9988 58.38 95.3087 57.51 93.6787C57.45 93.5587 57.38 93.3687 57.26 93.2387C56.76 92.2987 56.32 91.4187 55.95 90.6087C55.64 89.9787 55.39 89.3587 55.2 88.8587C55.01 88.6087 54.95 88.2987 54.89 88.1087C55.2 86.2887 55.77 84.6687 56.71 83.3487C56.77 83.2887 56.77 83.2188 56.9 83.1588C56.9 83.1188 56.92 83.0754 56.96 83.0287C57.09 82.8387 57.27 82.6488 57.4 82.4688C57.44 82.4288 57.4833 82.4088 57.53 82.4088C57.66 82.2188 57.84 82.0988 58.03 81.9088L58.22 81.7188H58.28V81.6588C58.34 81.5988 58.47 81.5287 58.53 81.4688L58.59 81.4088H58.65C58.78 81.2788 58.9 81.1587 59.03 81.0287C59.34 80.7787 59.72 80.5287 60.09 80.3387C60.34 80.1487 60.59 79.9587 60.9 79.8387C60.96 79.7787 61.03 79.7787 61.09 79.7787C61.28 79.6487 61.47 79.5887 61.65 79.5287H61.71C61.77 79.4687 61.84 79.4088 61.9 79.4088C61.96 79.4088 62.02 79.3487 62.09 79.3487C62.22 79.2887 62.28 79.2188 62.4 79.2188L62.65 79.3487V79.4088L69.16 83.3487L80.37 90.0488V90.1087L87.26 94.2387L87.32 94.2988L96.84 99.9987L100.67 101.229L100.64 101.239Z" fill="#2D313F"/>
<path d="M144.15 175.049C142.35 176.739 141.27 180.239 141.27 180.239C141.27 180.239 143.6 181.489 145.18 182.519C145.67 182.839 146.09 183.139 146.35 183.369C147.41 184.349 148 185.539 148.17 186.229C148.34 186.919 149.18 188.949 149.74 189.829C150.29 190.699 151.11 192.209 151.11 192.209C151.11 192.209 151.11 193.609 151.06 193.859C151.01 194.119 150.48 194.929 150.79 195.539C151.09 196.159 151.97 195.909 152.23 195.619C152.5 195.339 153.01 195.239 153.18 194.649C153.32 194.179 153.32 192.929 153.32 192.459C153.32 192.459 153.32 192.449 153.32 192.439C153.32 192.339 153.32 192.279 153.32 192.279C153.32 192.279 153.63 192.339 153.9 192.609C153.95 192.649 154 192.709 154.04 192.769C154.34 193.179 154.34 194.779 154.34 194.779C154.13 194.879 153.56 196.049 153.56 196.049C153.37 196.309 153.16 196.639 153.12 196.859C153.05 197.239 153.35 197.799 153.94 197.809C154.01 197.809 154.09 197.809 154.16 197.789C154.913 197.529 155.62 196.739 156.28 195.419C156.53 194.919 156.62 194.499 156.57 193.559C156.52 192.619 156.36 192.189 156.84 192.289C157.32 192.389 159.25 195.419 158.26 198.379C157.93 199.359 158.71 200.609 159.25 200.349C159.25 200.349 160.24 196.399 160.13 195.349C160.09 194.999 159.97 193.719 159.72 192.959C159.47 192.189 158.69 191.169 159.63 191.219C160.57 191.269 161.54 192.449 162.21 193.439C162.64 194.069 164.94 196.789 165.79 197.479C166.26 197.859 166.71 198.009 167.01 197.639C167.37 197.199 164.64 193.099 164.18 192.449C163.36 191.309 163.13 190.639 162.16 189.629C161.18 188.609 158.88 185.689 158.88 185.689C158.88 185.689 162.21 186.529 163.2 184.559C163.82 183.309 160.24 184.559 158.92 183.219C158.66 183.049 158.37 182.839 158.05 182.619C157.76 182.429 157.45 182.229 157.12 182.059C156.27 181.619 153.52 180.319 151.94 179.499C151.74 179.399 151.56 179.309 151.41 179.219C150.02 178.459 144.2 175.029 144.2 175.029L144.15 175.049Z" fill="#FFC29F"/>
<path d="M137.77 184.009L147.32 185.749L151.55 177.699L141.25 171.119C141.25 171.119 133.66 175.699 137.77 184.009Z" fill="#2D313F"/>
<g style="mix-blend-mode:multiply">
<path d="M137.77 184.009L147.32 185.749L151.55 177.699L141.25 171.119C141.25 171.119 133.66 175.699 137.77 184.009Z" fill="#DFE1E9"/>
</g>
<g style="mix-blend-mode:multiply">
<path d="M137.77 184.009L147.32 185.749L151.55 177.699L141.25 171.119C141.25 171.119 133.66 175.699 137.77 184.009Z" fill="#DFE1E9"/>
</g>
<g style="mix-blend-mode:multiply">
<path d="M91.68 123.249C91.68 123.249 87.24 115.899 85.42 111.709C83.79 107.889 80.49 103.339 75.15 98.4388C65.24 89.3488 62.25 79.2188 62.38 79.2188C62.38 79.2188 64.64 85.5687 72.91 94.6987C81.76 103.439 85.69 105.279 87.3 111.079C88.46 115.259 91.68 123.249 91.68 123.249Z" fill="#DFE1E9"/>
</g>
<path d="M141.9 398.329L143.19 401.159L144.39 403.809C144.58 403.559 144.76 403.439 144.95 403.309C146.7 402.239 149.46 402.619 152.4 403.679L151.8 400.339L151.25 397.209C148.16 397.809 145.03 398.149 141.9 398.319V398.329Z" fill="#FFC29F"/>
<path d="M141.9 398.329L143.19 401.159C145.42 400.709 149.29 400.119 151.8 400.339L151.25 397.209C148.16 397.809 145.03 398.149 141.9 398.319V398.329Z" fill="#FFAE81"/>
<g style="mix-blend-mode:multiply">
<path d="M100.64 104.619C100.64 104.619 100.51 127.319 102.48 132.049C104.46 136.769 105.94 139.569 105.94 139.569C105.94 139.569 102.82 130.979 102.48 125.629C102.14 120.279 100.64 104.619 100.64 104.619Z" fill="#DFE1E9"/>
</g>
<g style="mix-blend-mode:multiply">
<path d="M73.04 72.1699C73.04 72.1699 83.58 95.1599 88.88 100.06C94.18 104.96 93.94 117.84 95.96 122.34C97.98 126.84 99.51 131.83 99.51 131.83C99.51 131.83 96.55 122.8 95.96 116.85C95.37 110.91 93.23 101.39 90.14 96.5199C87.05 91.6499 80.66 89.5299 73.04 72.1699Z" fill="#DFE1E9"/>
</g>
<path d="M90.88 43.0499C90.88 43.0499 90.93 34.7799 97.41 29.9699C100.87 27.3999 104.7 29.9699 114.22 29.9699C117.96 29.9699 118.31 24.3099 118.31 23.3699C118.31 23.3699 119.83 14.0899 106.65 19.7099C101.99 19.7699 97.86 21.4499 94.56 25.5199C91.5 31.0499 90.48 36.9299 90.87 43.0499H90.88Z" fill="#FFAE81"/>
<path d="M118.32 23.3694C118.32 23.3694 116.95 30.0494 105.32 27.3694C92.32 24.3694 92.32 53.3694 92.32 53.3694C92.32 53.3694 87.05 -0.260606 118.32 23.3694Z" fill="black"/>
<path d="M88.32 14.3693C88.32 14.3693 87.29 16.1693 87.32 16.3693C87.49 17.6793 85.52 35.1493 86.15 39.4393C86.77 43.5393 94.32 56.3693 94.32 56.3693C91.32 42.3693 93.78 30.7793 100.32 22.3693C103.62 18.2993 108.64 16.7593 119.77 25.1693C119.83 24.0493 117.06 15.3493 116.25 12.7493C116.15 12.3993 116.03 12.0693 115.88 11.7393C115.42 10.6093 109.52 9.07934 108.55 8.35934C105.94 6.39934 103.7 7.88934 99.31 7.36934C99.02 7.33934 100.58 8.39934 100.31 8.36934C98.53 8.17934 98.31 9.36934 98.31 9.36934C98.31 9.36934 88.45 14.7393 88.31 14.3693H88.32Z" fill="#2D313F"/>
<g style="mix-blend-mode:multiply">
<path d="M96.32 13.37C100.48 10.94 105.42 13.02 110.36 14.66C100.71 9.05995 84.32 23.37 86.32 42.37C86.32 21.37 92.22 15.76 96.32 13.37Z" fill="#DFE1E9"/>
</g>
<path d="M96.42 59.7186L100.16 65.3186C101.92 66.0086 102.96 66.2486 104.73 65.8086C110.35 63.2886 114 56.5486 116.19 49.3886C117.19 44.7086 118.03 40.0186 118.42 35.5586C118.42 35.5586 109.51 61.5786 104.84 63.4486C100.46 65.2086 96.56 59.8086 96.43 59.7086L96.42 59.7186Z" fill="#FFAE81"/>
<g style="mix-blend-mode:multiply">
<path d="M115.99 17.4995C118.53 22.5195 118.99 28.7895 118.41 35.5695C118.02 40.0295 117.18 44.7195 116.18 49.3995C114.48 57.3795 112.3 65.3495 111.15 72.2195C109.8 80.0895 109.77 86.5195 113.25 89.8495L113 72.9495C117.04 62.5295 125.2 25.1795 120.69 16.3995C119.15 13.3895 117.13 11.3095 114.96 9.86949C108.55 5.59949 100.91 6.93949 100.91 6.93949C101.58 7.08949 102.24 7.24949 102.85 7.43949C109.55 9.30949 113.66 12.8595 115.99 17.4995Z" fill="#DFE1E9"/>
</g>
<defs>
<radialGradient id="paint0_radial_123_18" cx="0" cy="0" r="1" gradientUnits="userSpaceOnUse" gradientTransform="translate(121.646 409.637) scale(73.3704 8.3668)">
<stop stop-color="#8E92B2"/>
<stop offset="0.04" stop-color="#8E92B2" stop-opacity="0.9"/>
<stop offset="0.15" stop-color="#8E92B2" stop-opacity="0.67"/>
<stop offset="0.27" stop-color="#8E92B2" stop-opacity="0.46"/>
<stop offset="0.39" stop-color="#8E92B2" stop-opacity="0.29"/>
<stop offset="0.51" stop-color="#8E92B2" stop-opacity="0.16"/>
<stop offset="0.65" stop-color="#8E92B2" stop-opacity="0.07"/>
<stop offset="0.8" stop-color="#8E92B2" stop-opacity="0.02"/>
<stop offset="1" stop-color="#8E92B2" stop-opacity="0"/>
</radialGradient>
</defs>
</svg>
