<svg width="257" height="463" viewBox="0 0 257 463" fill="none" xmlns="http://www.w3.org/2000/svg">
<path d="M29.26 389.41C82.11 407.23 9.27999 400.46 10.3 418.71C12.02 449.55 206.75 483.62 249.26 446.75C283.61 416.95 195.88 386.26 137.25 376.72C74.06 366.44 -58.81 359.72 29.26 389.41Z" fill="#EDEEF2"/>
<g style="mix-blend-mode:multiply">
<path d="M108.03 90.6C109.03 82.05 115.47 69.47 120.79 69.47C124.46 69.47 117.73 59.94 116.85 56.38C113.96 44.57 113.2 32.25 114.62 20.18C114.6 20.32 109.41 20.48 108.66 21.18C106.98 22.73 106.39 27.75 105.91 29.9C104.42 36.6 103.73 43.43 103.38 50.28C102.69 63.85 104.24 77.54 108.03 90.6Z" fill="#DFE1E9"/>
</g>
<g style="mix-blend-mode:multiply">
<path d="M108.03 90.6C109.03 82.05 115.47 69.47 120.79 69.47C124.46 69.47 117.73 59.94 116.85 56.38C113.96 44.57 113.2 32.25 114.62 20.18C114.6 20.32 109.41 20.48 108.66 21.18C106.98 22.73 106.39 27.75 105.91 29.9C104.42 36.6 103.73 43.43 103.38 50.28C102.69 63.85 104.24 77.54 108.03 90.6Z" fill="#DFE1E9"/>
</g>
<path opacity="0.8" d="M108.03 90.6C109.03 82.05 115.47 69.47 120.79 69.47C124.46 69.47 117.73 59.94 116.85 56.38C113.96 44.57 113.2 32.25 114.62 20.18C114.6 20.32 109.41 20.48 108.66 21.18C106.98 22.73 106.39 27.75 105.91 29.9C104.42 36.6 103.73 43.43 103.38 50.28C102.69 63.85 104.24 77.54 108.03 90.6Z" fill="#151723"/>
<path d="M94.74 83.36C97.96 75.48 100.69 72.66 108.78 70.83C111.64 70.18 114.94 68.95 116.99 71.05C118.33 72.42 118.58 74.51 118.53 76.43C118.42 81.78 116.64 86.92 115.1 92.04C109.9 109.32 109.91 155.42 94.08 157.41C89.9 157.94 82.45 153.97 82.8 149.8C83.39 142.75 91.67 90.85 94.74 83.36Z" fill="#EDEEF2"/>
<path d="M85.76 216.22C85.89 215.68 86.02 215.26 86.14 214.91C86.52 213.8 86.81 213.46 87.02 212.31C87.29 210.81 86.91 204.29 86.91 204.29C87.07 203.88 87.32 203.56 87.65 203.31C89.5 201.89 93.61 202.78 94.66 203.04C94.82 203.08 94.91 203.1 94.91 203.1C94.91 203.1 94.69 208.19 95.11 209.38C95.53 210.57 96.58 212.96 96.95 213.39C97.32 213.82 98.64 217.03 99.4 218.8C99.52 219.08 99.61 219.37 99.68 219.69C100.07 221.39 99.84 223.5 99.87 224.43C99.91 225.52 99.92 229 100.01 229.69C100.1 230.38 99.93 232.25 99.22 232.59C98.85 232.77 98.53 232.71 98.3 232.61C98.12 232.53 98 232.43 97.97 232.41C97.97 232.41 98.09 234.79 98.14 235.59C98.19 236.39 97.73 236.88 96.96 236.96C96.19 237.04 95.85 236.32 95.85 236.32L95.89 236.84C95.93 237.36 96.01 238.84 94.93 238.83C93.85 238.82 93.53 237.91 93.53 237.91C92.97 238.21 92.48 238.17 92.1 238C91.94 237.93 91.8 237.83 91.68 237.73C91.27 237.38 90.89 236.37 90.4 234.34C89.91 232.31 89.38 229.1 89.38 229.1C89.16 230.14 87.92 230.88 87.33 230.6C87.27 230.57 87.21 230.53 87.17 230.47C86.85 230.07 87.02 229.08 87.08 228.56C87.08 228.49 87.09 228.43 87.09 228.38C87.11 227.9 86.44 226.52 86.38 225.77C86.32 225.02 85.38 222.63 85.25 221.89C85.12 221.15 85.21 218.52 85.78 216.23L85.76 216.22Z" fill="#FFC29F"/>
<path d="M97.07 225.01C97.24 224.44 97.86 224.06 97.88 224.1C97.9 224.14 97.37 224.79 97.3 224.9C97.23 225.01 97.4 225.59 97.44 225.96C97.48 226.33 97.58 227.88 97.76 228.55C97.95 229.21 97.89 231.58 97.98 231.96C98.06 232.31 98.25 232.54 98.28 232.58C98.1 232.5 97.98 232.4 97.95 232.38C97.85 232.13 97.71 229.94 97.64 229.24C97.57 228.53 97.5 228.41 97.42 227.77C97.34 227.13 96.89 225.59 97.06 225.02L97.07 225.01Z" fill="#FFAE81"/>
<path d="M96.22 236.73C96.22 236.73 95.97 236.36 95.9 235.96C95.84 235.56 95.71 233.36 95.7 232.8C95.69 232.24 95.69 231.41 95.57 230.77C95.46 230.13 95.12 227.88 95.04 227.53C94.96 227.18 94.91 227 94.94 226.74C94.97 226.48 95.23 225.93 95.23 225.93C95.23 225.93 94.74 226.28 94.67 226.69C94.6 227.1 95.08 228.73 95.16 229.34C95.24 229.95 95.48 231.54 95.47 231.9C95.47 232.26 95.66 234.25 95.71 234.85C95.76 235.45 95.82 236.29 95.82 236.29C95.82 236.29 96.02 236.62 96.2 236.73H96.22Z" fill="#FFAE81"/>
<path d="M93.52 237.88C93.52 237.88 93.68 237.71 93.69 237.14C93.69 236.57 93.37 235.13 93.22 234.59C93.07 234.05 92.9 232.52 92.87 231.83C92.84 231.14 92.57 229.31 92.45 228.61C92.32 227.91 92.11 227.16 92.32 226.96C92.52 226.76 92.69 226.76 92.69 226.76C92.69 226.76 92.41 226.9 92.45 227.3C92.48 227.7 92.64 228.63 92.79 229.88C92.94 231.13 92.95 231.59 93.02 232.33C93.09 233.07 93.31 234.43 93.48 235.12C93.65 235.81 93.86 237.09 93.83 237.44C93.81 237.78 93.6 238.04 93.6 238.04L93.52 237.88Z" fill="#FFAE81"/>
<path d="M89.11 223.99C89.11 223.04 89.16 222.6 89.11 222C89.06 221.44 89.48 221.21 89.53 221.19C89.21 221.47 89.34 222.08 89.37 222.38C89.39 222.68 89.19 223.81 89.27 224.43C89.35 225.05 89.77 226.58 89.78 227.06C89.8 227.53 89.53 229.01 89.62 229.46C89.71 229.91 90.1 231.02 90.27 231.04C90.44 231.06 90.33 231.37 90.16 231.53C90 231.69 90.28 233.5 90.46 233.84C90.64 234.18 91.13 233.96 91.17 234.11C91.22 234.26 90.75 234.28 90.69 234.45C90.63 234.62 91.01 235.98 91.2 236.68C91.37 237.34 92 237.9 92.07 237.98C91.91 237.91 91.77 237.81 91.65 237.71C91.24 237.36 90.86 236.35 90.37 234.32C89.88 232.29 89.35 229.08 89.35 229.08C89.35 229.08 89.48 227.97 89.43 226.96C89.38 225.95 89.09 224.95 89.09 224L89.11 223.99Z" fill="#FFAE81"/>
<path d="M92.45 224.99C92.45 224.99 92.45 223.23 94 222.37C95.3 221.65 98.56 220.94 98.56 220.94C98.56 220.94 94.7 222.15 94.03 222.6C92.99 223.29 92.44 224.98 92.44 224.98L92.45 224.99Z" fill="#FFAE81"/>
<path d="M89.29 223.26C89.29 223.26 89.22 223.5 89.52 223.47C89.83 223.44 90.62 222.77 91.18 222.05C91.74 221.32 92.15 219.15 91.79 216.6C91.79 216.6 92.47 218.67 91.91 220.87C91.35 223.07 89.77 223.55 89.44 223.77C89.11 223.99 89.26 224.43 89.26 224.43L89.2 223.64L89.29 223.26Z" fill="#FFAE81"/>
<path d="M89.26 221.91C89.26 221.91 89.29 222.04 89.56 222.05C89.82 222.07 90.3 221.7 90.3 221.7C90.3 221.7 90.06 222.16 89.74 222.26C89.43 222.36 89.42 222.35 89.35 222.55C89.28 222.75 89.25 222.29 89.25 222.29V221.91H89.26Z" fill="#FFAE81"/>
<path d="M86.14 214.91C86.52 213.8 86.81 213.46 87.02 212.31C87.29 210.81 86.91 204.29 86.91 204.29C87.07 203.88 87.32 203.56 87.65 203.31C87.79 203.83 87.91 204.45 87.89 204.96C87.84 206.07 87.58 211.85 87.66 212.29C87.74 212.73 89.46 211.98 91.19 215.37C91.19 215.37 89.48 213.57 88.65 213.47C87.82 213.37 86.15 214.92 86.15 214.92L86.14 214.91Z" fill="#FFAE81"/>
<path d="M94.65 203.03C94.81 203.07 94.9 203.09 94.9 203.09C94.9 203.09 94.68 208.18 95.1 209.37C95.52 210.56 96.57 212.95 96.94 213.38C97.31 213.81 98.63 217.02 99.39 218.79C99.51 219.07 99.6 219.36 99.67 219.68C99.21 218.59 98.6 217.32 97.97 216.4C96.67 214.46 95.99 212.14 95.27 210.59C94.94 209.88 94.16 205.29 94.66 203.05L94.65 203.03Z" fill="#FFAE81"/>
<path d="M95.35 211.23C95.35 211.23 93.83 211.02 93.24 211.32C92.65 211.62 90.62 212.17 89.22 212C89.22 212 91.4 211.76 92.03 211.55C92.66 211.34 93.43 210.88 94.15 210.96C94.87 211.04 95.34 211.24 95.34 211.24L95.35 211.23Z" fill="#FFAE81"/>
<path d="M94.38 210.1C94.38 210.1 93.19 210.01 92.61 210.21C92.03 210.41 91.1 210.81 90.38 210.62C90.38 210.62 91.26 210.53 91.69 210.32C92.12 210.11 92.99 209.92 93.54 209.95C94.08 209.98 94.39 210.1 94.39 210.1H94.38Z" fill="#FFAE81"/>
<path d="M98.03 229.22C98.03 229.22 98.69 229.74 99.66 229.11C99.66 229.11 98.55 229.48 98.03 229.22Z" fill="#FFAE81"/>
<path d="M97.69 226.59C97.69 226.59 98.21 227.13 98.87 226.99C99.53 226.86 99.75 226.32 99.75 226.32C99.75 226.32 99.26 226.79 98.77 226.78C98.27 226.77 97.7 226.59 97.7 226.59H97.69Z" fill="#FFAE81"/>
<path d="M95.63 229.54C95.63 229.54 96.23 229.88 96.76 229.76C97.29 229.64 97.52 229.29 97.52 229.29C97.52 229.29 97.22 229.6 96.7 229.64C96.18 229.68 95.63 229.54 95.63 229.54Z" fill="#FFAE81"/>
<path d="M96.06 232.77C96.06 232.77 96.86 233.34 97.65 232.77C97.65 232.77 96.59 233.01 96.06 232.77Z" fill="#FFAE81"/>
<path d="M93.14 231.15C93.14 231.15 94.5 231.54 94.98 230.81C94.98 230.81 93.8 231.21 93.14 231.15Z" fill="#FFAE81"/>
<path d="M93.51 234.7C93.51 234.7 94.32 235.01 94.86 234.92C95.4 234.83 95.48 234.56 95.48 234.56C95.48 234.56 95.23 234.73 94.72 234.74C94.21 234.74 93.52 234.7 93.52 234.7H93.51Z" fill="#FFAE81"/>
<path d="M92.83 227.06C92.83 227.06 93.47 227.23 93.71 227.11C93.95 226.99 94.57 226.66 94.57 226.66C94.57 226.66 94.02 226.94 93.54 226.97C93.05 227 92.84 227.05 92.84 227.05L92.83 227.06Z" fill="#FFAE81"/>
<path d="M92.48 230.8C92.17 230.99 91.82 231.28 91.22 231.4C90.62 231.51 90.45 231.16 90.16 231.53C89.87 231.9 89.91 230.93 89.91 230.93L90.13 230.9C90.13 230.9 90.77 231.24 91.4 231.09L92.48 230.81V230.8Z" fill="#FFAE81"/>
<path d="M90.7 234.44C90.7 234.44 91.56 234.22 91.9 234.18C92.24 234.14 92.92 234.15 92.92 234.15C92.92 234.15 91.78 233.95 91.18 234.1C90.58 234.25 90.7 234.44 90.7 234.44Z" fill="#FFAE81"/>
<path d="M89.87 224.35C89.87 224.35 94.03 221.57 94.4 219.57C94.4 219.57 94.59 220.86 92.67 222.42C90.75 223.98 89.87 224.34 89.87 224.34V224.35Z" fill="#FFAE81"/>
<path d="M87.06 228.54C87.06 228.54 87.16 228.56 87.21 228.61C87.38 228.8 87.51 230.03 87.42 230.23C87.37 230.35 87.26 230.42 87.15 230.44C86.83 230.04 87 229.05 87.06 228.53V228.54Z" fill="#FFD7BB"/>
<path d="M107.09 150.46C107.18 151.17 107.14 151.83 107.12 152.55L100.64 220.29C100.57 221.56 83.39 220.85 83.43 220.15C83.43 220.15 79.8 172.73 82.78 150.74C83.69 143.99 89.14 138.87 95.86 139.39C101.87 139.85 106.54 144.62 107.1 150.46H107.09Z" fill="#EDEEF2"/>
<g style="mix-blend-mode:multiply">
<path d="M119.62 73.41C118.12 70.89 114.62 71.33 111.69 71.3C106.17 71.23 102.86 72.16 99.8 74.81C93.76 94.85 86.89 121.48 100.63 214.26C109.22 215.98 106.77 103.96 112.91 93.39C115.6 88.77 118.52 84.17 119.87 79C120.35 77.15 120.6 75.06 119.62 73.41Z" fill="#DFE1E9"/>
</g>
<path d="M127.781 436.709C133.928 430.562 123.655 410.323 104.835 391.504C86.0159 372.684 65.7768 362.411 59.6299 368.558C53.4831 374.705 63.7562 394.944 82.5755 413.763C101.395 432.583 121.634 442.856 127.781 436.709Z" fill="url(#paint0_radial_1_3)"/>
<path d="M148.158 441.402C174.268 436.246 194.07 425.153 192.386 416.625C190.702 408.096 168.17 405.362 142.059 410.518C115.949 415.674 96.1473 426.767 97.8313 435.295C99.5153 443.824 122.047 446.558 148.158 441.402Z" fill="url(#paint1_radial_1_3)"/>
<path d="M104.4 378.24C104.4 378.24 118.5 372.62 119.19 390.98C119.37 395.75 110.63 397.58 110.63 397.58C110.63 397.58 107.72 397.37 106.03 398.72C103.91 400.44 103.16 402.02 102.51 402.69C95.86 409.84 83.23 409.39 79.53 406.02C74.23 401.2 83.21 394.57 91.98 388.32C101.14 381.79 104.39 378.24 104.39 378.24H104.4Z" fill="#171716"/>
<path d="M161.81 409.53L161.67 409.56C162.14 405.49 161 401.21 158.22 398.18C156.96 396.81 155.37 395.67 153.54 395.32C150.63 394.77 147.59 396.41 145.95 398.87C144.31 401.34 143.91 404.46 144.26 407.4C144.53 409.74 145.24 412 146.03 414.23C144.16 417.33 142.38 420.53 141.72 424.07C140.99 428.04 141.96 432.59 145.17 435.05C148.68 437.74 154.01 437.11 157.44 434.33C160.88 431.55 162.6 427.08 162.99 422.68C163.38 418.28 162.6 413.86 161.81 409.51V409.53Z" fill="#171716"/>
<path d="M183.46 231.92C183.46 231.92 183.46 231.85 183.46 231.82C183.43 231.43 183.39 231.13 183.37 230.92C182.54 221.35 181.53 212.18 180.52 203.41C179.62 195.62 178.71 188.15 177.9 181.04C177.8 180.14 177.69 179.24 177.6 178.35C177.46 177.11 177.33 175.88 177.2 174.66C176.99 172.74 176.8 170.84 176.62 168.97C176.56 168.39 176.51 167.81 176.46 167.24C175.33 154.96 174.84 143.91 175.68 134.18C176.5 124.74 178.56 116.54 182.62 109.73C185 105.67 185.25 87.53 178.25 84.16C178.01 84.04 177.76 83.92 177.46 83.8C177.46 83.8 177.44 83.8 177.43 83.8C177.12 83.65 176.81 83.53 176.49 83.39C176.41 83.36 176.33 83.32 176.24 83.29C173.83 82.32 171.27 81.66 168.54 81C168.08 80.89 167.63 80.79 167.17 80.67C163.48 79.73 159.61 78.73 155.55 76.92C153.48 75.98 151.3 74.79 149.17 73.35C141.98 68.41 131.79 68.41 121.41 69.42C120.97 69.48 120.53 69.48 119.97 69.54C115.41 69.86 106.53 70.42 103.72 73.17C101.91 74.98 100.46 78.05 99.28 82.05C99.16 82.61 98.97 83.18 98.78 83.73C91.53 112.12 96.65 180.71 98.72 195.4C101.55 215.62 89.24 289 83 339.66C82.81 341.17 82.63 342.66 82.47 344.13C81.7 350.56 81.04 356.56 80.55 361.96C80.52 362.32 80.49 362.68 80.46 363.03C80.29 365.08 80.44 367.03 80.51 368.81C80.51 368.92 80.53 369.04 80.53 369.15V369.6C80.71 378.1 80.83 385.48 81.09 385.71C86.68 390.59 154.96 424.67 188.06 412.74C188.06 412.74 184.41 248.76 183.47 231.91L183.46 231.92Z" fill="#EDEEF2"/>
<g style="mix-blend-mode:multiply">
<path d="M134.99 371.46C134.99 371.46 134.96 372.03 134.83 372.96C134.86 372.44 134.92 371.94 134.99 371.46Z" fill="#DFE1E9"/>
</g>
<g style="mix-blend-mode:multiply">
<path d="M188.05 412.75C154.95 424.67 86.67 390.6 81.08 385.72C80.82 385.49 80.7 378.11 80.52 369.61C80.52 369.47 80.52 369.34 80.52 369.21C80.52 369.21 80.52 369.19 80.52 369.18C80.52 369.06 80.52 368.94 80.52 368.82C80.49 367.01 80.49 365.07 80.5 363.03C80.52 362.67 80.54 362.32 80.56 361.96C81.56 345.44 83.08 337.75 83.01 339.66C83.01 340.15 82.87 341.29 82.61 343.1C82.56 343.44 82.52 343.79 82.48 344.12C80.1 365.94 104.09 389.81 109.24 390.35C130.11 392.51 134.1 377.78 134.85 372.95C134.15 384 143.32 402.27 155.52 400.04C172.16 397.02 174.3 288.43 170.92 272.18C167.54 255.92 162.62 239.85 161.94 223.25C161.67 216.75 161.96 209.82 158.62 204.23C155.81 199.54 150.76 196.52 145.5 195.04C140.23 193.55 134.69 193.41 129.23 193.27C132.61 188.78 137.85 187.65 143.48 188.03C146.01 188.2 148.98 187.44 151.51 187.5C154.04 187.57 156.83 186.79 158.21 184.67C159.91 182.07 158.91 178.63 157.87 175.71C154.3 165.72 150.73 155.74 147.16 145.75C153.68 153.52 160.2 161.3 166.71 169.07C162.68 148.75 158.65 128.44 154.62 108.13C155.13 108.89 162.47 130.31 162.25 127.9C160.06 104.71 162.45 88.13 167.19 80.67L168.56 81.01C171.26 81.68 173.83 82.35 176.26 83.3C176.35 83.33 176.43 83.37 176.51 83.4C176.84 83.53 177.15 83.67 177.47 83.8V83.82C177.75 98.51 170.99 130.14 175.47 134.04C175.54 134.11 175.62 134.17 175.68 134.23C174.84 143.95 175.34 154.99 176.47 167.26C176.52 167.83 176.57 168.4 176.63 168.99C176.8 170.85 177 172.75 177.21 174.68C177.34 175.9 177.47 177.13 177.61 178.37C177.7 179.26 177.81 180.16 177.91 181.06C178.72 188.17 179.63 195.64 180.53 203.43C181.55 212.18 182.57 221.36 183.41 230.93C183.43 231.14 183.45 231.45 183.47 231.84C183.47 231.87 183.47 231.91 183.47 231.94C184.41 248.79 188.06 412.77 188.06 412.77L188.05 412.75Z" fill="#DFE1E9"/>
</g>
<path d="M155.55 76.92C154.31 78.39 152.9 79.71 151.35 80.85C146.9 84.1 141.33 85.76 135.84 85.45C134.56 85.38 133.28 85.2 132.03 84.9C130.8 84.61 129.61 84.2 128.47 83.67C126.86 82.95 125.39 81.98 124.1 80.77C121.08 77.92 119.32 73.61 119.99 69.53C120.52 69.49 121 69.44 121.39 69.41C131.78 68.39 141.96 68.41 149.17 73.34C151.33 74.82 153.46 75.98 155.55 76.92Z" fill="#FFC29F"/>
<path d="M155.55 76.92C154.31 78.39 152.9 79.71 151.35 80.85C146.9 84.1 141.33 85.76 135.84 85.45C134.56 85.38 133.28 85.2 132.03 84.9C130.8 84.61 129.61 84.2 128.47 83.67C126.86 82.95 125.39 81.98 124.1 80.77C121.08 77.92 119.32 73.61 119.99 69.53C120.52 69.49 121 69.44 121.39 69.41C131.78 68.39 141.96 68.41 149.17 73.34C151.33 74.82 153.46 75.98 155.55 76.92Z" fill="#FFAE81"/>
<path d="M125.56 53.41C125.97 57.7 124.61 61.95 124.29 66.25C123.97 70.55 125.09 75.5 128.85 77.61C131.07 78.85 133.71 79.75 136.26 79.72C139.3 79.67 142.56 78.66 145.06 76.94C148.07 74.87 150.06 70.94 150.06 70.94C150.06 70.94 153.06 53.08 152.45 46.04L125.56 53.41Z" fill="#FFC29F"/>
<path d="M152.45 46.04L144.11 48.32C145.95 56.34 146.02 64.4 141.68 72.21C138.75 77.48 131.11 77.08 125.6 74.07C126.33 75.54 127.39 76.79 128.85 77.61C131.07 78.85 133.71 79.75 136.26 79.72C139.3 79.67 142.56 78.66 145.06 76.94C148.07 74.87 150.06 70.94 150.06 70.94C150.06 70.94 153.06 53.08 152.45 46.04Z" fill="#FFAE81"/>
<path d="M156.14 43.69C154.96 48.59 148.62 60.55 145.13 63.45C138.8 68.73 126.49 71.12 120.12 66.02C111.62 59.22 112.3 43.53 113.59 27.62C114.88 11.69 127.27 9.68001 137.05 17.31C146.82 24.92 159.87 28.16 156.13 43.7L156.14 43.69Z" fill="#FFC29F"/>
<path d="M156.14 43.69C159.88 28.16 146.83 24.91 137.06 17.3C127.28 9.67 114.89 11.69 113.6 27.61C113.45 29.42 113.32 31.22 113.2 33C114.09 33.45 114.94 33.71 115.54 33.71C124.26 32.26 134.43 31.53 140.24 40.25C144.6 47.51 140.24 56.23 144.6 62.77C144.77 63.01 144.95 63.23 145.12 63.46C145.12 63.46 145.13 63.46 145.14 63.45C148.62 60.55 154.97 48.59 156.15 43.69H156.14Z" fill="#FFAE81"/>
<path d="M155.09 47.74C155.82 50.71 155.29 53.96 150.91 56.14C149.02 57.09 144.93 59.11 140.98 61.07C139.17 62.23 135.71 63.59 129.75 62.4C126.33 59.93 126.26 59.01 120.72 55.58C120.33 55.34 117.83 55.01 114.65 55.83C114.3 55.92 113.84 54.09 113.73 53.88C114.07 56.18 117.17 71.46 125.59 71.28C135.54 71.07 142.16 66.31 142.16 66.31C142.16 66.31 151.79 57.68 153.76 54.73C154.08 54.25 154.38 53.77 154.69 53.29C156.03 51.88 157.28 50.34 158.33 48.5C158.45 48.29 158.56 48.08 158.68 47.87L155.11 47.75L155.09 47.74ZM123.61 62.57C122.72 62.52 121.84 62.42 121.01 62.22C119.42 61.82 117.5 59.64 115.96 57.45C116.32 57.43 117.93 57.26 119.93 58.08C125.07 60.7 126.34 62.06 126.43 62.37C126.46 62.46 124.13 62.59 123.61 62.57Z" fill="#151723"/>
<path d="M186.26 87.79C184.36 86.37 181.72 86.4 178.91 87.52C178.61 87.64 178.3 87.78 177.99 87.92C177.47 88.19 176.93 88.44 176.41 88.77C170.5 92.39 165.92 96.55 165.06 123.18C164.99 125.38 160.31 95.21 158.01 95.08C151.44 94.68 157.55 75.69 157.36 71.22C156.96 62.74 156.57 54.33 156.17 45.92C155.97 41.12 155.71 36.26 156.83 31.59C157.95 26.86 155.58 21.14 159.79 18.78C161.7 18.19 164.39 18.44 164.65 20.42C168.13 30.47 169.58 36.85 170.43 42.43C170.95 45.52 171.22 48.42 171.62 51.5C171.95 53.86 172.27 56.16 172.54 58.54C172.81 60.44 173.06 62.41 173.33 64.32C173.39 64.78 173.66 65.57 174.12 66.55C174.38 67.07 174.64 67.74 174.97 68.39C177.49 73.29 182.13 81.02 184.62 85.07C185.57 86.64 186.21 87.66 186.27 87.77L186.26 87.79Z" fill="#F4F6F9"/>
<g style="mix-blend-mode:multiply">
<path d="M151.86 99.43L148.11 100.37C147.61 88.49 147.36 77.49 147.36 77.49C147.36 77.49 149.3 86.93 151.86 99.44V99.43Z" fill="#DFE1E9"/>
</g>
<g style="mix-blend-mode:multiply">
<path d="M162.42 156.45C154.35 127.31 152.42 136.63 150.42 128.69C149.48 124.88 148.54 111.62 148.11 100.37L152.17 99.43C157.86 127.25 166.11 169.77 162.42 156.45Z" fill="#DFE1E9"/>
</g>
<path d="M165.37 77.48C165.3 80.44 165.17 83.33 164.84 86.22C164.58 89.18 163.99 92.13 163.46 95.09C162.93 98.7 162.61 103.57 162.47 109.02V109.09C162.01 131.5 164.84 164.42 164.51 165.6C162.01 152.13 159.12 138.13 155.44 132.02C154.45 130.31 153.47 129.79 152.55 131.23V131.03C152.16 125.84 147.36 80.43 147.36 79.71C147.62 72.35 145.52 66.57 144.6 59.27C143.81 52.63 149.27 40.02 143.29 32.85C139.74 30.16 136.38 33.25 129.48 29.18C127.41 27.96 125.09 32.28 123.73 32.11C122.42 31.94 123.01 28.59 121.2 27.95C119.64 27.4 117.88 30.26 115.96 30.49C114.25 30.69 112.74 30.1 111.49 29.04C111.03 28.78 110.64 28.51 110.37 28.45C109.84 28.38 109.25 28.38 108.86 28.78C108.27 29.37 108.99 30.62 108.99 31.47C108.92 32.85 108.2 34.1 107.41 35.15C106.56 36.27 105.11 37.25 104.45 38.44C105.04 29.5 107.01 21.55 108.98 17.41C109.37 16.56 109.9 15.7 110.36 14.85C110.62 14.39 110.82 14 111.02 13.47C111.09 13.4 111.15 13.27 111.22 13.14C111.29 12.94 111.42 12.81 111.48 12.61C111.81 12.02 112.2 11.43 112.6 10.77C112.93 10.31 113.32 9.92 113.72 9.46C113.98 9.2 114.18 8.93 114.44 8.67C119.11 4.01 127.71 -0.060001 140.59 -1.01177e-06C152.09 0.069999 158.14 5.72 161.22 10.25C161.42 10.51 161.61 10.84 161.75 11.1C162.08 11.63 162.34 12.09 162.6 12.55C162.73 12.81 162.86 13.08 162.99 13.34C163.25 14.06 163.52 14.65 163.65 15.05C163.78 15.38 163.85 15.64 163.85 15.71C164.11 16.43 164.24 17.22 164.38 18.08C164.45 18.28 164.51 18.54 164.51 18.74C164.58 19.33 164.58 19.86 164.64 20.45C164.71 23.67 164.05 26.96 162.6 29.78C162.73 30.83 162.86 31.82 162.99 32.87C163.58 38.19 163.91 43.52 164.24 48.84C164.77 58.37 165.69 67.96 165.36 77.49L165.37 77.48Z" fill="#F4F6F9"/>
<g style="mix-blend-mode:multiply">
<path d="M163 13.34C162.93 13.41 162.87 13.47 162.74 13.47C158.67 16.03 153.93 17.61 149.27 18.46C143.88 19.45 138.36 19.51 132.84 19.25C128.96 19.12 124.95 18.72 121.34 17.21C117.92 15.9 114.97 13.6 112.6 10.77C112.93 10.31 113.32 9.92 113.72 9.46C113.98 9.2 114.18 8.93 114.44 8.67C115.43 8.87 116.48 8.87 117.4 8.47C116.55 9.06 116.61 10.44 117.27 11.23C117.93 12.08 118.98 12.48 119.9 12.81C121.48 13.4 123.05 13.99 124.63 14.58C125.42 14.84 126.86 13.73 127.65 13.92C128.96 14.25 129.75 15.89 131.13 16.02C137.64 16.55 144.21 16.35 150.71 15.43C152.55 15.17 154.39 14.84 155.97 13.98C157.61 13.13 158.93 11.55 159.12 9.71C159.51 10.43 160.43 10.56 161.22 10.24C161.42 10.5 161.61 10.83 161.75 11.09C162.08 11.62 162.34 12.08 162.6 12.54C162.73 12.8 162.86 13.07 162.99 13.33L163 13.34Z" fill="#DFE1E9"/>
</g>
<g style="mix-blend-mode:multiply">
<path d="M107.02 27.88C107.37 25.54 108.38 23.3 109.91 21.49C110.44 20.86 111.33 19.99 111.21 19.07C111.1 18.23 110.37 18.61 109.93 19.02C108.6 20.27 107.81 22.69 107.4 24.42C107.13 25.58 107.2 26.72 107.03 27.87L107.02 27.88Z" fill="#DFE1E9"/>
</g>
<g style="mix-blend-mode:multiply">
<path d="M147.99 31.49C148.97 33.46 149.44 35.63 149.89 37.78C150.54 40.83 151.18 43.88 151.83 46.94C151.39 40.42 149.93 34.02 148.47 27.66C148.42 27.42 148.35 27.17 148.18 26.99C147.65 26.44 146.23 26.62 145.54 26.59C144.82 26.56 144.42 26.76 144.8 27.53C145.13 28.2 145.95 28.64 146.44 29.19C147.06 29.88 147.57 30.66 147.98 31.49H147.99Z" fill="#DFE1E9"/>
</g>
<g style="mix-blend-mode:multiply">
<path d="M170.21 92.27C164.2 110.31 165.68 120.27 165.06 123.2C161.81 112.28 158.6 70.77 157.34 59.74C156.35 51.06 154.52 42.86 152.44 34.41C152.13 33.17 152.63 24.1 154 25.26C154.62 25.79 154.35 28.94 154.42 29.73C154.58 31.72 154.76 33.71 154.96 35.7C155.36 39.74 155.8 43.77 156.3 47.8C157.26 55.74 158.41 63.65 159.63 71.56C160.19 75.2 164.2 102.58 170.22 92.27H170.21Z" fill="#DFE1E9"/>
</g>
<g style="mix-blend-mode:multiply">
<path d="M171.61 51.52C171.94 53.89 172.27 56.19 172.53 58.55C171.87 55.13 171.08 51.78 170.23 48.36C170.03 47.7 170.1 44.81 170.43 42.45C170.96 45.54 171.22 48.43 171.61 51.52Z" fill="#DFE1E9"/>
</g>
<g style="mix-blend-mode:multiply">
<path d="M185.87 111.72C183.31 114.02 181.4 121.12 180.74 124.01C178.57 116.65 177.32 101.34 176.4 88.79C175.94 82.74 175.61 77.36 175.15 73.74C174.89 71.31 174.49 68.94 174.1 66.58C174.36 67.11 174.63 67.76 174.95 68.42C175.67 74.14 176.53 79.85 177.38 85.57C177.45 86.1 177.64 86.88 177.97 87.94C179.81 94.12 184.87 108.11 185.86 111.73L185.87 111.72Z" fill="#DFE1E9"/>
</g>
<g style="mix-blend-mode:multiply">
<path d="M164 45.61C165.27 58.43 166.53 71.24 167.8 84.06C167.86 84.71 167.99 85.47 168.57 85.78C169.22 86.13 170.06 85.65 170.37 84.98C170.67 84.31 170.59 83.53 170.5 82.8C168.51 66.9 166.03 51.07 163.11 35.31C162.69 33.06 162.27 30.81 161.83 28.56C161.47 26.68 161.42 23.92 160.49 22.25C161.96 30.04 163.23 37.69 164.01 45.6L164 45.61Z" fill="#DFE1E9"/>
</g>
<path d="M164.62 19.58C159.14 23.81 150.47 27.22 140.01 27.09C139.49 27.09 138.97 27.08 138.45 27.06C125.34 26.62 114.5 22.63 109 16.54C108.36 14.95 108.36 13.23 111.06 12.64C115.39 18.72 126.68 22.52 140.15 22.68C151 22.81 159.54 18.91 163.89 14.82C165.06 14.95 165.92 17.52 164.62 19.57V19.58Z" fill="#151723"/>
<path d="M163.49 14.6C158.36 18.54 149.73 22.21 140 22.15C139.54 22.08 139.01 22.08 138.55 22.08C126.59 21.69 116.67 18.07 111.48 12.62C110.94 11.52 111.8 8.94 113.71 9.47C118.11 14.66 128.1 18.14 140.06 18.34C149.85 18.47 157.67 14.79 161.75 11.11C163.34 11.52 164.2 13.24 163.49 14.6Z" fill="#151723"/>
<g style="mix-blend-mode:multiply">
<path d="M156.83 104.03C156.24 106.79 156.44 122.63 155.91 126.5C155.65 128.27 155.38 130.18 155.45 132.02C154.46 130.31 153.48 129.79 152.56 131.23V131.03C154.01 128.8 154.93 126.5 155.12 123.54C155.65 116.38 155.84 106.45 156.83 104.02V104.03Z" fill="#DFE1E9"/>
</g>
<path d="M200.97 166.57C200.93 167.43 200.86 168.25 200.78 169.01C200.65 170.22 200.42 171.42 200.1 172.58C198.99 176.76 196.88 180.56 194.84 183.53C192.12 187.5 189.5 190.02 189.5 190.02C183.33 191.3 184.61 183.7 182.84 180.88C181.28 178.37 177.7 171.87 174.35 161.94C169.41 147.33 164.95 125.31 168.07 97.7C168.72 91.92 174.24 90.35 176.75 88.21C178.19 86.97 187.4 78.51 190.58 95.4C191.9 102.41 201.96 146.58 200.97 166.57Z" fill="#EDEEF2"/>
<path d="M179.71 239.38C180.11 241.58 181.69 251.05 181.42 252.12C181.15 253.18 178.56 254.92 177.27 256C175.98 257.07 175.49 258.08 174.25 258.51C173.02 258.94 171.52 258.66 170.6 258.91C169.69 259.16 167.49 258.61 166.85 258.73C166.21 258.85 165.49 258.82 165.26 258.28C165.19 258.11 165.18 257.94 165.21 257.79C165.27 257.48 165.48 257.25 165.48 257.25C165.48 257.25 165.46 257.22 165.45 257.15C165.43 257.02 165.42 256.74 165.58 256.25C165.83 255.49 167.04 253.4 167.04 253.4C167.04 253.4 166.83 253.3 166.55 253.13C166.11 252.87 165.47 252.46 165.16 252.08C165.11 252.02 165.08 251.96 165.05 251.91C165.01 251.83 164.98 251.76 164.98 251.69C164.97 251.03 165.68 250.3 166.72 250.52C167.76 250.74 168.48 251.33 168.48 251.33L168.76 250.95H168.74C168.67 250.9 168.37 250.73 168.04 250.48C167.72 250.25 167.37 249.94 167.15 249.61C166.99 249.38 166.83 249.09 166.68 248.79C166.36 248.14 166.09 247.45 165.93 247.17C165.77 246.89 165.71 246.44 165.93 246.1C166.04 245.94 166.21 245.8 166.46 245.73C166.82 245.62 167.12 245.67 167.34 245.75C167.6 245.85 167.75 246.01 167.75 246.01C167.75 246.01 167.73 245.9 167.7 245.72C167.65 245.32 167.6 244.59 167.83 244.12C167.86 244.05 167.9 243.99 167.95 243.93C168.46 243.32 169.25 244.1 169.53 244.42C169.81 244.74 169.74 245.63 169.83 245.81C169.92 245.99 170.38 246.16 170.38 246.16C170.38 246.16 170.38 245.79 170.45 245.25C170.53 244.52 170.72 243.46 171.11 242.52C171.8 240.88 171.94 240.45 171.91 240.17C171.88 239.89 171.39 237.97 171.88 236.91C172.36 235.85 176.14 226.49 176.14 226.49C176.14 226.49 177.26 226.27 178.65 226.64C180.17 227.05 182.02 228.16 183.09 231.04C183.09 231.04 179.28 237.17 179.67 239.38H179.71ZM171.78 255.56C171.19 255.34 170.19 255.08 170.19 255.08L169.36 256.36C169.42 256.36 169.83 256.41 169.88 256.41C169.94 256.41 171.92 255.98 172.16 255.82C172.16 255.82 172.16 255.82 172.17 255.8C172.21 255.75 172.03 255.66 171.76 255.56H171.78ZM172.66 251.43C172.37 251.64 171.62 252.56 171.62 252.56C171.62 252.56 171.89 252.79 172.17 252.58C172.46 252.37 173.46 251.6 173.8 251.47C174.08 251.36 174.54 251.3 174.7 251.18C174.73 251.16 174.75 251.14 174.76 251.11C174.8 250.95 174.18 250.7 174.02 250.76C173.86 250.82 172.94 251.22 172.65 251.43H172.66Z" fill="#FFC29F"/>
<path d="M165.41 257L165.43 257.16C165.44 257.23 165.46 257.27 165.46 257.27L165.52 257.39V257.26C165.52 257.26 165.5 257.18 165.48 257.15L165.4 257.01L165.41 257Z" fill="#FFC29F"/>
<path d="M175.42 253.57C175.35 253.38 175.65 252.52 176.08 252.39C176.85 252.17 176.22 251.76 176.15 251.82C175.42 252.44 174.74 253.67 174.15 254.21C173.56 254.75 171.78 255.55 171.78 255.55C172.05 255.65 172.23 255.74 172.19 255.79C172.27 255.8 172.29 255.81 172.18 255.81C171.93 255.96 169.95 256.39 169.9 256.4C169.85 256.4 169.44 256.36 169.38 256.35C169.38 256.35 168.7 257.4 168.05 257.84C167.4 258.29 166.87 258.3 166.47 258.29C166.07 258.27 165.53 257.7 165.51 257.25C165.51 257.25 165.3 257.48 165.24 257.79C165.46 258.02 165.71 258.23 165.92 258.3C166.45 258.47 166.63 258.62 167.27 258.4C167.9 258.18 168.69 257.41 169.16 257.1C169.62 256.8 169.86 257.72 169.99 257.67C170.12 257.62 169.79 256.95 170.28 256.68C170.77 256.41 171.83 256.32 172.24 256.24C172.65 256.17 173.31 257.14 173.66 257.13C174.01 257.12 173.47 256.86 173.25 256.49C173.03 256.12 173.17 255.63 173.42 255.32C173.67 255.01 174.44 254.21 174.8 254.01C175.16 253.81 176.04 254.41 176.37 254.24C176.7 254.07 175.58 253.96 175.44 253.57H175.42Z" fill="#FFAE81"/>
<path d="M170.18 255.07C170.18 255.07 171.17 253.08 171.61 252.55C172.05 252.03 174.75 251.1 174.75 251.1C174.75 251.1 175.03 251.9 175.17 252.24C175.31 252.58 174.69 251.51 174.56 251.48C174.43 251.45 172.42 252.16 172.35 252.45C172.29 252.74 172.78 253.99 172.77 254.1C172.75 254.21 172.31 252.8 171.92 252.8C171.54 252.8 170.5 255.15 170.5 255.15L170.17 255.06L170.18 255.07Z" fill="#FFAE81"/>
<path d="M167.05 253.39L168.49 251.32L168.16 251.09C168.16 251.09 167.81 252.01 167.54 252.38C167.28 252.76 166.67 253.17 166.67 253.17L167.06 253.38L167.05 253.39Z" fill="#FFAE81"/>
<path d="M177.24 251.42C177.63 251.53 178.18 251.42 178.5 251.36C177.9 251.43 176.96 251.02 176.7 250.92C176.4 250.79 175.33 250.2 174.96 250.28C174.6 250.36 174.02 250.76 174.02 250.76C174.18 250.7 174.8 250.95 174.76 251.11C174.76 251.14 174.73 251.16 174.7 251.18L174.81 251.25C174.81 251.25 175.02 251.14 175.66 251.13C176.3 251.13 176.17 251.72 175.93 252.01C175.42 252.64 176.89 252.37 176.89 252.37C176.89 252.37 176.3 251.93 176.38 251.63C176.46 251.33 176.67 251.27 177.25 251.43L177.24 251.42Z" fill="#FFAE81"/>
<path d="M169.86 245.8C169.77 245.62 169.83 244.73 169.56 244.41C169.28 244.09 168.49 243.31 167.98 243.92C167.98 243.92 168.3 243.85 168.71 244.08C169.12 244.31 169.35 244.93 169.43 245.31C169.51 245.67 169.07 246.9 169.05 246.98C169.09 246.92 169.51 246.25 169.8 246.24C170.1 246.23 170.14 247.32 169.97 247.67C169.8 248.02 169.69 248.16 169.49 248.15C169.28 248.15 168.91 247.68 168.73 247.42C168.55 247.16 167.79 245.98 167.79 245.98L167.38 245.72C167.16 245.63 166.86 245.59 166.5 245.7C166.24 245.78 166.07 245.91 165.97 246.07C165.97 246.07 166.66 245.57 167.22 245.99C167.78 246.41 168.38 247.54 168.52 247.87C168.66 248.2 168.64 249 168.72 249.07C168.81 249.14 168.84 248.71 169.16 248.64C169.48 248.58 169.51 248.81 169.48 249.07C169.45 249.32 169.07 249.99 168.85 250.21C168.69 250.37 168.29 250.44 168.06 250.47C168.39 250.72 168.69 250.89 168.76 250.94H168.78C168.78 250.94 169.18 250.17 169.51 249.48C169.7 249.1 169.86 248.75 169.93 248.56C170.12 248.05 170.49 246.72 170.42 246.15C170.42 246.15 169.96 245.98 169.87 245.8H169.86Z" fill="#FFAE81"/>
<path d="M167.22 258.09C167.22 258.09 168.37 256.73 168.35 256.08C168.33 255.43 167.54 254.82 167.22 254.91C166.89 255 165.64 256.32 165.57 256.78C165.5 257.24 165.8 258.46 167.23 258.09H167.22Z" fill="#FFD7BB"/>
<path d="M165.29 251.83C165.12 251.8 165.06 251.92 165.06 251.92L165.17 252.09C165.48 252.47 166.12 252.88 166.56 253.14C166.62 253.06 166.65 252.97 166.65 252.89C166.65 252.58 165.46 251.87 165.28 251.84L165.29 251.83Z" fill="#FFD7BB"/>
<path d="M166.44 247.42C166.21 247.13 165.94 247.15 165.94 247.15C166.1 247.43 166.37 248.13 166.69 248.77C166.69 248.7 166.66 247.69 166.44 247.42Z" fill="#FFD7BB"/>
<path d="M168.57 244.83C168.5 244.65 168.25 244.75 168.03 244.57C167.8 244.39 167.86 244.11 167.86 244.11C167.63 244.58 167.68 245.31 167.73 245.71C168.01 246.13 168.23 245.96 168.44 245.86C168.65 245.75 168.64 245.01 168.58 244.84L168.57 244.83Z" fill="#FFD7BB"/>
<path d="M178.68 226.64C177.29 226.27 176.17 226.48 176.17 226.48C176.17 226.48 172.39 235.84 171.91 236.9C171.42 237.96 171.92 239.87 171.94 240.16C171.96 240.45 171.83 240.87 171.14 242.51C170.74 243.45 170.56 244.51 170.48 245.24C170.48 245.24 170.97 242.87 172.26 241.39C173.55 239.91 172.41 237.25 173.18 236.28C173.95 235.31 175.55 230.62 176.16 229.17C176.77 227.72 178.68 226.64 178.68 226.64Z" fill="#FFAE81"/>
<path d="M173.39 250.99C173.39 250.99 174.04 250.16 174.21 250C174.39 249.84 175.63 248.57 175.58 247.38C175.58 247.38 175.85 248.68 175.44 249.34C175.03 250 174.74 250.48 174.74 250.48L173.38 250.98L173.39 250.99Z" fill="#FFAE81"/>
<path d="M200.97 166.57V166.65C200.99 167.46 200.88 168.2 200.78 169.01L200.1 172.58L186.41 244.56C186.37 244.84 185.63 244.95 184.45 244.97C179.52 245.05 166.96 243.24 167.06 242.6C167.06 242.6 167.92 188.85 173.57 164.43C173.77 163.57 174.03 162.74 174.35 161.95C176.83 155.83 182.82 151.88 189.47 153.03C192.42 153.53 194.98 154.94 196.94 156.92C199.42 159.44 200.92 162.88 200.96 166.57H200.97Z" fill="#EDEEF2"/>
<g style="mix-blend-mode:multiply">
<path d="M201.07 166.47V166.56C201.09 167.36 200.98 168.11 200.88 168.91C200.75 170.11 200.51 171.29 200.2 172.44L186.51 244.46C186.4 245.25 180.36 244.8 175.05 244.1C174.9 243 174.94 241.86 175.22 240.74C175.86 238.14 177.54 235.93 179.04 233.71C191.69 215.1 191.69 199.64 193.68 185.04C194.41 179.67 197.8 170.39 195.98 165.28C194.37 160.77 190.29 167.86 185.67 167.86C190.34 167.25 192.41 158.75 195.15 155.22C195.4 154.9 195.63 154.56 195.85 154.19C197.91 150.64 197.33 146.2 196.66 142.15C195.2 133.34 193.61 124.57 191.9 115.8C190.94 110.85 188.03 89.21 177.95 87.11C179.67 85.39 182.92 84.38 184.62 85.09C187.4 86.25 189.44 90.54 190.69 95.3C192.5 102.2 202.06 146.47 201.08 166.46L201.07 166.47Z" fill="#DFE1E9"/>
</g>
<path d="M125.89 103.38C126.431 103.38 126.87 102.941 126.87 102.4C126.87 101.859 126.431 101.42 125.89 101.42C125.349 101.42 124.91 101.859 124.91 102.4C124.91 102.941 125.349 103.38 125.89 103.38Z" fill="#F0F2F5"/>
<g style="mix-blend-mode:multiply">
<path d="M123.77 104.68C123.68 105.23 123.6 105.78 123.52 106.33L123.15 106.24L122.97 106.12L98.77 83.73C98.96 83.17 99.15 82.6 99.27 82.05L123.77 104.68Z" fill="#DFE1E9"/>
</g>
<g style="mix-blend-mode:multiply">
<path d="M127.27 105.43L148.1 100.37C148.17 100.88 148.17 101.38 148.23 101.93L127.04 107.1" fill="#DFE1E9"/>
</g>
<g style="mix-blend-mode:multiply">
<path d="M132.03 84.9C129.9 90.51 128.37 97.68 127.27 105.42C127.19 105.98 127.12 106.54 127.04 107.1C124.37 127.27 124.53 150.69 124.83 159.95L123.01 162.44L121.08 159.95C120.76 150.14 120.26 128.39 123.53 106.33C123.61 105.78 123.69 105.23 123.78 104.68C124.9 97.55 126.42 90.42 128.48 83.68C129.61 84.21 130.81 84.62 132.04 84.91L132.03 84.9Z" fill="#DFE1E9"/>
</g>
<path d="M129.65 86.88C130.191 86.88 130.63 86.4412 130.63 85.9C130.63 85.3588 130.191 84.92 129.65 84.92C129.109 84.92 128.67 85.3588 128.67 85.9C128.67 86.4412 129.109 86.88 129.65 86.88Z" fill="#F0F2F5"/>
<path d="M128.67 90.6C129.211 90.6 129.65 90.1612 129.65 89.62C129.65 89.0788 129.211 88.64 128.67 88.64C128.129 88.64 127.69 89.0788 127.69 89.62C127.69 90.1612 128.129 90.6 128.67 90.6Z" fill="#F0F2F5"/>
<path d="M125.89 103.38C126.431 103.38 126.87 102.941 126.87 102.4C126.87 101.859 126.431 101.42 125.89 101.42C125.349 101.42 124.91 101.859 124.91 102.4C124.91 102.941 125.349 103.38 125.89 103.38Z" fill="#F0F2F5"/>
<path d="M123.93 118.71C124.471 118.71 124.91 118.271 124.91 117.73C124.91 117.189 124.471 116.75 123.93 116.75C123.389 116.75 122.95 117.189 122.95 117.73C122.95 118.271 123.389 118.71 123.93 118.71Z" fill="#F0F2F5"/>
<path d="M122.95 132.69C123.491 132.69 123.93 132.251 123.93 131.71C123.93 131.169 123.491 130.73 122.95 130.73C122.409 130.73 121.97 131.169 121.97 131.71C121.97 132.251 122.409 132.69 122.95 132.69Z" fill="#F0F2F5"/>
<path d="M122.75 146.84C123.291 146.84 123.73 146.401 123.73 145.86C123.73 145.319 123.291 144.88 122.75 144.88C122.209 144.88 121.77 145.319 121.77 145.86C121.77 146.401 122.209 146.84 122.75 146.84Z" fill="#F0F2F5"/>
<g style="mix-blend-mode:multiply">
<path d="M132.41 290.71C131.55 300.16 129.83 299.3 130.69 321.64C131.55 343.98 134.1 349.28 132.41 358.58C130.69 368.03 126.4 377.48 126.4 377.48C126.4 377.48 132.41 360.3 128.98 331.95C125.54 303.6 122.97 289 126.4 282.98C133.86 269.93 132.41 290.71 132.41 290.71Z" fill="#DFE1E9"/>
</g>
<defs>
<radialGradient id="paint0_radial_1_3" cx="0" cy="0" r="1" gradientUnits="userSpaceOnUse" gradientTransform="translate(94.6499 402.896) rotate(45) scale(34.2168 15.4944)">
<stop stop-color="#8E92B2"/>
<stop offset="0.04" stop-color="#8E92B2" stop-opacity="0.9"/>
<stop offset="0.15" stop-color="#8E92B2" stop-opacity="0.67"/>
<stop offset="0.27" stop-color="#8E92B2" stop-opacity="0.46"/>
<stop offset="0.39" stop-color="#8E92B2" stop-opacity="0.29"/>
<stop offset="0.51" stop-color="#8E92B2" stop-opacity="0.16"/>
<stop offset="0.65" stop-color="#8E92B2" stop-opacity="0.07"/>
<stop offset="0.8" stop-color="#8E92B2" stop-opacity="0.02"/>
<stop offset="1" stop-color="#8E92B2" stop-opacity="0"/>
</radialGradient>
<radialGradient id="paint1_radial_1_3" cx="0" cy="0" r="1" gradientUnits="userSpaceOnUse" gradientTransform="translate(144.455 426.769) rotate(168.83) scale(34.2168 15.4944)">
<stop stop-color="#8E92B2"/>
<stop offset="0.04" stop-color="#8E92B2" stop-opacity="0.9"/>
<stop offset="0.15" stop-color="#8E92B2" stop-opacity="0.67"/>
<stop offset="0.27" stop-color="#8E92B2" stop-opacity="0.46"/>
<stop offset="0.39" stop-color="#8E92B2" stop-opacity="0.29"/>
<stop offset="0.51" stop-color="#8E92B2" stop-opacity="0.16"/>
<stop offset="0.65" stop-color="#8E92B2" stop-opacity="0.07"/>
<stop offset="0.8" stop-color="#8E92B2" stop-opacity="0.02"/>
<stop offset="1" stop-color="#8E92B2" stop-opacity="0"/>
</radialGradient>
</defs>
</svg>
